<svg width="1440" height="178" viewBox="0 0 1440 178" fill="none" xmlns="http://www.w3.org/2000/svg">
<path d="M0 3C299.771 103.024 312.74 93.3131 446.415 110.793C580.09 128.273 653.911 118.076 787.586 79.7175C921.261 41.3588 1216.54 229.754 1322.78 162.262C1407.78 108.268 1436.34 84.7349 1440 79.7175" stroke="#C9C9C9" stroke-width="2" stroke-dasharray="15 15"/>
<path d="M78.5 2.95238C81.6625 2.95238 84.25 5.60952 84.25 8.85714C84.25 11.9571 81.2312 16.9762 78.5 20.519C75.7688 16.8286 72.75 11.9571 72.75 8.85714C72.75 5.60952 75.3375 2.95238 78.5 2.95238ZM78.5 0C73.7562 0 69.875 3.98571 69.875 8.85714C69.875 15.5 78.5 25.0952 78.5 25.0952C78.5 25.0952 87.125 15.3524 87.125 8.85714C87.125 3.98571 83.2437 0 78.5 0ZM78.5 5.90476C76.9187 5.90476 75.625 7.23333 75.625 8.85714C75.625 10.481 76.9187 11.8095 78.5 11.8095C80.0813 11.8095 81.375 10.481 81.375 8.85714C81.375 7.23333 80.0813 5.90476 78.5 5.90476ZM90 25.0952C90 28.3429 84.825 31 78.5 31C72.175 31 67 28.3429 67 25.0952C67 23.1762 68.725 21.5524 71.4562 20.3714L72.3187 21.7C70.8812 22.4381 69.875 23.3238 69.875 24.3571C69.875 26.4238 73.7562 28.0476 78.5 28.0476C83.2437 28.0476 87.125 26.4238 87.125 24.3571C87.125 23.3238 86.1188 22.4381 84.5375 21.7L85.4 20.3714C88.275 21.5524 90 23.1762 90 25.0952Z" fill="#C9C9C9"/>
</svg>
