<svg width="371" height="220" viewBox="0 0 371 220" fill="none" xmlns="http://www.w3.org/2000/svg">
<path d="M89.3175 184.204L89.0243 183.411L88.1681 183.47C67.531 184.894 47.894 179.285 40.0659 163.301L61.0161 158.283C63.529 162.798 67.6151 166.378 73.6306 168.242C79.9483 170.199 88.3046 170.238 99.1015 167.652C110.691 164.876 117.106 160.898 120.336 156.767C123.59 152.608 123.558 148.364 122.418 145.282C121.683 143.294 120.599 141.376 118.907 139.653C117.214 137.93 114.957 136.447 111.937 135.276C105.933 132.95 96.8453 131.833 82.9155 132.519C67.4598 133.278 54.0494 132.513 43.6861 129.291C33.3762 126.086 26.1716 120.485 22.8641 111.542C20.1095 104.094 21.6697 96.9744 26.2908 90.6524C30.9239 84.314 38.6109 78.8232 47.962 74.7535L48.7162 74.4252L48.4238 73.6344L42.3099 57.1036L71.533 50.1043L77.7366 66.8777L78.0228 67.6515L78.8618 67.6127C101.18 66.5801 116.1 76.0524 122.064 88.7839L101.044 93.8186C98.7539 89.049 95.2168 85.3189 89.9697 83.3034C84.4605 81.1873 77.2389 81.0298 67.8927 83.2684C59.0156 85.3946 52.394 88.6695 48.3965 92.6162C44.3809 96.5808 42.968 101.29 44.7556 106.123C45.5257 108.205 46.7571 110.012 48.6089 111.512C50.4485 113.002 52.8453 114.146 55.8881 114.99C61.943 116.671 70.777 117.223 83.4648 116.784C96.1289 116.347 109.35 116.587 120.43 119.746C131.453 122.888 140.247 128.878 144.34 139.944C147.278 147.89 145.721 154.977 141.063 161.084C136.382 167.22 128.571 172.352 119.081 176.239L118.302 176.559L118.6 177.366L124.684 193.816L95.4612 200.816L89.3175 184.204Z" stroke="#31B97C" stroke-opacity="0.6" stroke-width="2"/>
<path d="M182.094 145.867L182.232 146.703L185.07 163.881L215.256 160.429L212.445 143.418L212.304 142.567L213.13 142.345C223.243 139.624 231.941 135.469 237.746 129.945C243.523 124.448 246.424 117.617 245.067 109.408C243.178 97.9734 235.679 90.9914 225.413 86.5599C215.097 82.1067 202.105 80.291 189.534 79.2138C176.941 78.1348 168.342 76.5342 162.701 74.1484C159.867 72.9497 157.725 71.5309 156.198 69.8327C154.66 68.122 153.792 66.1794 153.435 64.017C152.605 58.9958 154.921 54.4949 159.641 51.0501C164.343 47.6191 171.5 45.1654 180.66 44.118C190.303 43.0154 197.386 44.0325 202.403 46.7841C207.183 49.4051 209.953 53.5234 211.29 58.5277L233.008 56.0445C229.591 42.7467 216.729 31.5823 194.517 29.9425L193.685 29.8811L193.55 29.0647L190.684 11.7188L160.499 15.1703L163.323 32.265L163.461 33.099L162.658 33.3332C152.646 36.2513 144.001 40.7768 138.205 46.5061C132.422 52.2215 129.513 59.0846 130.784 66.7775C132.31 76.0158 138.319 82.4221 147.868 86.8308C157.465 91.2612 170.542 93.6191 185.928 94.7105C185.929 94.7105 185.929 94.7105 185.929 94.7105L185.905 95.702C213.544 97.6595 220.123 104.413 221.41 112.199C222.364 117.975 218.631 127.784 194.932 130.494C172.841 133.02 162.882 126.312 160.07 116.568L182.094 145.867ZM182.094 145.867L181.242 145.823C170.766 145.29 160.827 142.973 153.007 138.597C145.524 134.41 139.996 128.353 137.726 120.129L159.371 117.654L182.094 145.867Z" stroke="#31B97C" stroke-opacity="0.6" stroke-width="2"/>
<path d="M258.838 175.387L258.614 176.197L253.906 193.235L283.624 197.931L288.286 181.058L288.514 180.233L289.389 180.241C300.018 180.333 309.937 178.694 317.736 174.996C325.497 171.316 331.15 165.606 333.403 157.454C336.54 146.102 332.499 137.503 324.792 130.6C317.044 123.661 305.662 118.514 294.354 114.175C283.025 109.828 275.656 106.04 271.393 102.289C269.251 100.403 267.854 98.4935 267.153 96.4847C266.448 94.463 266.469 92.4016 267.058 90.2677C268.427 85.315 272.509 81.6637 278.414 79.6436C284.292 77.6328 292.051 77.198 301.081 78.6247C310.588 80.1268 316.791 82.9627 320.314 86.8978C323.668 90.6456 324.492 95.276 323.599 100.362L344.974 103.74C347.49 90.2086 340.216 76.2321 320.131 68.8185L319.375 68.5395L319.594 67.7494L324.347 50.5447L294.629 45.8491L289.944 62.805L289.721 63.6126L288.864 63.6224C278.245 63.7437 268.216 65.7471 260.337 69.6426C252.478 73.528 246.802 79.2653 244.69 86.9067C242.155 96.0815 245.046 103.742 252.093 110.435C259.177 117.162 270.407 122.846 284.344 127.941C284.344 127.941 284.344 127.941 284.344 127.941L283.894 128.855C308.934 138.005 312.2 146.139 310.068 153.854C308.487 159.577 300.789 167.884 277.438 164.194C255.673 160.755 249.223 151.772 250.765 141.8L258.838 175.387ZM258.838 175.387L258.054 175.12C239.199 168.681 225.47 156.373 228.332 139.259L249.636 142.625L258.838 175.387Z" stroke="#31B97C" stroke-opacity="0.6" stroke-width="2"/>
</svg>
