<svg width="400" height="196" viewBox="0 0 400 196" fill="none" xmlns="http://www.w3.org/2000/svg">
<path d="M81.408 31.2861L86.5946 36.552L86.8435 36.8048L87.1686 36.726L95.1568 34.7901L90.3127 39.7502L90.0298 40.0398L90.3572 40.3722L95.3584 45.4499L87.0533 43.4646L86.7548 43.3932L86.5709 43.5815L81.4557 48.8192L81.4386 42.5336L81.4375 42.1222L80.9782 42.0124L73.1133 40.1323L81.1015 38.1964L81.4266 38.1176L81.4257 37.8047L81.408 31.2861Z" stroke="white" stroke-opacity="0.1"/>
<path d="M376.492 102.032L378.764 110.986L378.842 111.295L379.168 111.326L390.886 112.447L380.666 116.582L380.228 116.759L380.338 117.19L382.537 125.861L373.663 119.654L373.447 119.503L373.187 119.608L362.475 123.943L367.576 115.97L367.829 115.574L367.467 115.32L358.999 109.397L370.717 110.518L371.043 110.549L371.225 110.265L376.492 102.032Z" stroke="white" stroke-opacity="0.1"/>
<path d="M123.162 176.484L122.471 181.828L122.431 182.139L122.754 182.243L129.1 184.284L122.462 185.376L122.003 185.452L121.952 185.843L121.286 190.995L117.634 186.408L117.468 186.199L117.148 186.251L110.131 187.407L114.757 183.529L115.108 183.235L114.869 182.934L111.415 178.596L117.76 180.637L118.083 180.741L118.362 180.507L123.162 176.484Z" stroke="white" stroke-opacity="0.1"/>
<path d="M14.5206 80.742L14.0551 84.3448L14.015 84.6552L14.338 84.7591L18.5172 86.1032L14.1855 86.8164L13.7259 86.8921L13.6754 87.2826L13.2347 90.693L10.7826 87.6131L10.6162 87.4041L10.2965 87.4568L5.58456 88.2326L8.64718 85.6654L8.99784 85.3715L8.75867 85.0711L6.50438 82.2397L10.6836 83.5838L11.0066 83.6876L11.2853 83.454L14.5206 80.742Z" stroke="white" stroke-opacity="0.1"/>
<path d="M387.534 42.8923L390.141 45.997L390.365 46.2633L390.691 46.2035L395.058 45.4035L392.259 47.8648L391.944 48.1426L392.246 48.5028L394.669 51.3875L390.172 50.0341L389.889 49.9491L389.693 50.122L386.566 52.872L386.894 49.4832L386.935 49.0601L386.481 48.9234L382.456 47.7121L386.824 46.912L387.15 46.8523L387.18 46.5395L387.534 42.8923Z" stroke="white" stroke-opacity="0.1"/>
<path d="M313.251 5.59242L318.401 9.34047L318.7 9.55832L319.02 9.43473L325.181 7.05826L322.127 11.5973L321.922 11.9028L322.284 12.1666L327.28 15.8029L320.187 15.0182L319.85 14.981L319.699 15.2065L316.499 19.9617L315.342 14.8443L315.258 14.4731L314.803 14.4227L308.032 13.6737L314.192 11.2973L314.513 11.1737L314.443 10.8671L313.251 5.59242Z" stroke="white" stroke-opacity="0.1"/>
<path d="M143.287 87.8547H289.272C291.459 87.863 293.621 87.5044 295.598 86.8053C297.575 86.1062 299.316 85.0844 300.694 83.8154C302.072 82.5464 303.051 81.0625 303.558 79.4732C304.066 77.8838 304.09 76.2296 303.628 74.6325C296.843 50.6714 260.114 33.2737 216.279 33.2737C172.445 33.2737 135.716 50.6714 128.931 74.6325C128.469 76.2296 128.493 77.8838 129 79.4732C129.508 81.0625 130.487 82.5464 131.865 83.8154C133.243 85.0844 134.984 86.1062 136.961 86.8053C138.938 87.5044 141.1 87.863 143.287 87.8547ZM216.279 44.1899C252.643 44.1899 284.049 58.2513 289.272 76.9385H143.287L143.223 76.8908C148.51 58.2513 179.915 44.1899 216.279 44.1899ZM308.751 120.931L271.191 131.165L237.283 120.992C235.542 120.472 233.6 120.472 231.859 120.992L198.07 131.097L164.227 120.992C162.56 120.495 160.708 120.473 159.021 120.931L118.84 131.847C117.142 132.406 115.792 133.426 115.064 134.701C114.335 135.976 114.284 137.41 114.92 138.713C115.555 140.015 116.831 141.088 118.486 141.713C120.142 142.339 122.054 142.47 123.835 142.081L135.917 138.813V142.436C135.917 149.674 139.766 156.615 146.616 161.733C153.466 166.851 162.757 169.726 172.445 169.726H260.114C269.801 169.726 279.093 166.851 285.943 161.733C292.793 156.615 296.642 149.674 296.642 142.436V135.838L313.746 131.192C314.705 130.982 315.597 130.628 316.365 130.151C317.134 129.673 317.763 129.083 318.214 128.417C318.665 127.751 318.928 127.022 318.987 126.277C319.046 125.532 318.9 124.785 318.558 124.084C318.216 123.382 317.684 122.741 316.997 122.199C316.309 121.657 315.48 121.226 314.561 120.933C313.642 120.64 312.652 120.491 311.653 120.496C310.653 120.5 309.666 120.657 308.751 120.958V120.931ZM282.031 142.436C282.031 146.779 279.721 150.943 275.611 154.014C271.501 157.085 265.926 158.81 260.114 158.81H172.445C166.633 158.81 161.058 157.085 156.948 154.014C152.837 150.943 150.528 146.779 150.528 142.436V134.849L161.368 131.902L195.276 142.047C197.017 142.567 198.959 142.567 200.7 142.047L234.489 131.943L268.278 142.047C269.944 142.544 271.797 142.566 273.483 142.108L281.948 139.809L282.031 142.436ZM114 104.229C114 102.781 114.77 101.393 116.14 100.37C117.51 99.346 119.368 98.7709 121.306 98.7709H311.253C313.191 98.7709 315.049 99.346 316.419 100.37C317.789 101.393 318.559 102.781 318.559 104.229C318.559 105.677 317.789 107.065 316.419 108.089C315.049 109.112 313.191 109.687 311.253 109.687H121.306C119.368 109.687 117.51 109.112 116.14 108.089C114.77 107.065 114 105.677 114 104.229Z" fill="#31B97C" fill-opacity="0.5"/>
</svg>
