<svg width="123" height="242" viewBox="0 0 123 242" fill="none" xmlns="http://www.w3.org/2000/svg">
<path d="M123 1C82.6699 14.8814 1.80881 50.9732 1.00555 84.2886C0.00148526 125.933 135.551 143.968 55.7273 175.447C-8.13147 200.63 17.1683 224.981 18.8417 221.702" stroke="#C9C9C9" stroke-width="2" stroke-dasharray="15 15"/>
<path d="M34.2 217.514C31.395 217.514 29.1 219.777 29.1 222.543C29.1 225.183 31.7775 229.457 34.2 232.474C36.6225 229.331 39.3 225.183 39.3 222.543C39.3 219.777 37.005 217.514 34.2 217.514ZM34.2 215C38.4075 215 41.85 218.394 41.85 222.543C41.85 228.2 34.2 236.371 34.2 236.371C34.2 236.371 26.55 228.074 26.55 222.543C26.55 218.394 29.9925 215 34.2 215ZM34.2 220.029C35.6025 220.029 36.75 221.16 36.75 222.543C36.75 223.926 35.6025 225.057 34.2 225.057C32.7975 225.057 31.65 223.926 31.65 222.543C31.65 221.16 32.7975 220.029 34.2 220.029ZM24 236.371C24 239.137 28.59 241.4 34.2 241.4C39.81 241.4 44.4 239.137 44.4 236.371C44.4 234.737 42.87 233.354 40.4475 232.349L39.6825 233.48C40.9575 234.109 41.85 234.863 41.85 235.743C41.85 237.503 38.4075 238.886 34.2 238.886C29.9925 238.886 26.55 237.503 26.55 235.743C26.55 234.863 27.4425 234.109 28.845 233.48L28.08 232.349C25.53 233.354 24 234.737 24 236.371Z" fill="#C9C9C9"/>
<path d="M49.2 217.4L48.1223 220.717H44.6349L47.4563 222.766L46.3786 226.083L49.2 224.033L52.0214 226.083L50.9437 222.766L53.7651 220.717H50.2777L49.2 217.4Z" fill="#C9C9C9"/>
</svg>
