<svg width="10" height="7" viewBox="0 0 10 7" fill="none" xmlns="http://www.w3.org/2000/svg">
<path d="M4.0289 6.81166C4.15731 6.6861 4.21895 6.53438 4.21381 6.3565C4.20867 6.17862 4.14169 6.02691 4.01285 5.90134L2.19904 4.1278H9.35794C9.53986 4.1278 9.69245 4.06753 9.81573 3.947C9.939 3.82646 10.0004 3.67746 10 3.5C10 3.32212 9.93836 3.17291 9.81509 3.05238C9.69181 2.93184 9.53943 2.87178 9.35794 2.8722H2.19904L4.0289 1.08296C4.15731 0.957399 4.22151 0.808191 4.22151 0.635336C4.22151 0.462481 4.15731 0.313483 4.0289 0.188341C3.90049 0.0627801 3.74789 0 3.57111 0C3.39433 0 3.24195 0.0627801 3.11397 0.188341L0.176575 3.06054C0.11237 3.12332 0.066783 3.19133 0.0398169 3.26457C0.0128508 3.33782 -0.000418663 3.41629 9.53674e-06 3.5C9.53674e-06 3.58371 0.0134935 3.66218 0.0404596 3.73543C0.0674257 3.80867 0.112798 3.87668 0.176575 3.93946L3.13002 6.82735C3.24773 6.94245 3.39476 7 3.57111 7C3.74746 7 3.90006 6.93722 4.0289 6.81166Z" fill="#515151"/>
</svg>
