<svg width="16" height="16" viewBox="0 0 16 16" fill="none" xmlns="http://www.w3.org/2000/svg">
<path d="M1 8.58212H12.17L7.29 13.4621C6.9 13.8521 6.9 14.4921 7.29 14.8821C7.38251 14.9748 7.4924 15.0484 7.61338 15.0985C7.73435 15.1487 7.86403 15.1746 7.995 15.1746C8.12597 15.1746 8.25565 15.1487 8.37662 15.0985C8.4976 15.0484 8.60749 14.9748 8.7 14.8821L15.29 8.29212C15.68 7.90212 15.68 7.27212 15.29 6.88212L8.7 0.292116C8.60742 0.199534 8.49751 0.126096 8.37654 0.0759907C8.25558 0.0258856 8.12593 9.72748e-05 7.995 9.72748e-05C7.86407 9.72748e-05 7.73442 0.0258856 7.61346 0.0759907C7.49249 0.126096 7.38258 0.199534 7.29 0.292116C7.19742 0.384698 7.12398 0.49461 7.07387 0.615574C7.02377 0.736538 6.99798 0.866187 6.99798 0.997118C6.99798 1.12805 7.02377 1.2577 7.07387 1.37866C7.12398 1.49962 7.19742 1.60954 7.29 1.70212L12.17 6.58212H1C0.45 6.58212 0 7.03212 0 7.58212C0 8.13212 0.45 8.58212 1 8.58212Z" fill="white"/>
</svg>
