<svg width="81" height="89" viewBox="0 0 81 89" fill="none" xmlns="http://www.w3.org/2000/svg">
<path d="M80.1 38.6834C80.1 60.0476 62.169 77.3667 40.05 77.3667C29.7514 77.3667 14.8757 91.0197 6.86571 88.7442C13.7314 80.78 19.0351 72.0218 14.8757 68.7711C5.80168 61.6793 0 50.8358 0 38.6834C0 17.3191 17.931 0 40.05 0C62.169 0 80.1 17.3191 80.1 38.6834Z" fill="url(#paint0_linear_823_3580)"/>
<path d="M34.6235 20.0619C34.6105 20.0798 34.9487 20.4509 35.3779 20.8846C36.1151 21.6312 36.3232 21.8906 36.2668 21.9889C36.2278 22.0515 36.089 22.0426 36.0197 21.9755C35.9893 21.9442 35.8419 21.8414 35.6988 21.7475C35.5514 21.6536 35.3953 21.5463 35.3476 21.506C35.2522 21.4166 35.1221 21.3317 35.0311 21.287C34.9964 21.2691 34.9573 21.2467 34.9443 21.2288C34.9313 21.2154 34.8359 21.1663 34.7275 21.1171C34.6191 21.0679 34.5237 21.0187 34.5107 21.0008C34.4761 20.9561 34.0945 20.7862 33.7346 20.6566C33.4441 20.5493 33.34 20.5358 32.8847 20.5403C32.5552 20.5403 32.269 20.5671 32.1043 20.6118C31.9612 20.6521 31.7097 20.7191 31.5406 20.7594C31.3758 20.7952 31.1807 20.8488 31.107 20.8667C30.6647 21.0008 29.8322 21.2288 29.5677 21.2914C29.3032 21.3585 28.8176 21.4971 28.2886 21.6581C27.2003 21.9889 26.9531 22.0605 26.706 22.123C26.6236 22.1409 26.4978 22.1812 26.4241 22.2035C26.2984 22.2527 25.7867 22.4092 25.3228 22.5478C25.1971 22.5836 25.054 22.6149 25.0106 22.6149C24.9629 22.6149 24.8935 22.6327 24.8502 22.6551C24.7418 22.7088 24.4946 22.7982 24.3212 22.8384C24.022 22.9144 23.5277 23.0664 23.3803 23.129C23.2936 23.1648 23.1895 23.1961 23.1418 23.1961C23.0941 23.1961 22.8166 23.2766 22.5261 23.3705C22.2399 23.4688 21.9147 23.5717 21.8063 23.5985C21.4681 23.6924 21.1819 23.7863 21.0345 23.8489C20.9565 23.8846 20.8394 23.9115 20.7744 23.9115C20.705 23.9115 20.6356 23.9293 20.6096 23.9517C20.5879 23.9696 20.4752 24.0188 20.3538 24.059C20.2367 24.0948 20.0372 24.1574 19.9158 24.1976C19.7901 24.2378 19.6557 24.2691 19.608 24.2691C19.5646 24.2691 19.5082 24.287 19.4866 24.3049C19.4432 24.3407 19.1961 24.4211 18.7061 24.5598C18.1901 24.7073 17.969 24.7788 17.9256 24.8146C17.9039 24.8325 17.8389 24.8504 17.7825 24.8504C17.7262 24.8504 17.6394 24.8727 17.5917 24.8995C17.4617 24.9711 16.924 25.1186 16.7939 25.1186C16.6812 25.1186 16.5598 25.208 16.5598 25.293C16.5598 25.3198 16.5424 25.3422 16.5164 25.3422C16.4947 25.3422 16.4644 25.3914 16.447 25.454C16.434 25.5165 16.4037 25.5657 16.382 25.5657C16.3603 25.5657 16.343 25.5926 16.343 25.6283C16.343 25.6596 16.2866 25.758 16.2129 25.8385C16.1435 25.9234 16.0828 26.0039 16.0828 26.0262C16.0828 26.0575 15.7403 26.6432 15.6926 26.6835C15.6666 26.7103 15.5929 26.8355 15.4715 27.0635C15.4238 27.1619 15.3674 27.2513 15.35 27.2647C15.3067 27.3005 15.2156 27.457 15.1896 27.5419C15.1723 27.5866 15.1463 27.6224 15.1246 27.6224C15.1029 27.6224 15.0855 27.6492 15.0855 27.685C15.0855 27.7208 15.0595 27.7789 15.0248 27.8102C14.9945 27.8459 14.9511 27.9175 14.9381 27.9711C14.9208 28.0248 14.8861 28.0695 14.8644 28.0695C14.8427 28.0695 14.8254 28.1008 14.8254 28.1366C14.8254 28.1723 14.808 28.2036 14.7864 28.2036C14.7647 28.2036 14.7343 28.2528 14.7213 28.3154C14.704 28.378 14.6736 28.4272 14.652 28.4272C14.6259 28.4272 14.6086 28.4585 14.6086 28.4942C14.6086 28.53 14.5912 28.5613 14.5652 28.5613C14.5436 28.5613 14.5219 28.5881 14.5219 28.6239C14.5219 28.6597 14.4959 28.7178 14.4612 28.7491C14.4308 28.7849 14.3875 28.8564 14.3744 28.91C14.3571 28.9637 14.3224 29.0084 14.3007 29.0084C14.2791 29.0084 14.2617 29.0397 14.2617 29.0755C14.2617 29.1112 14.2444 29.1425 14.2184 29.1425C14.1967 29.1425 14.175 29.1694 14.175 29.2051C14.175 29.2409 14.149 29.299 14.123 29.3303C14.0406 29.4197 13.9582 29.5539 13.9322 29.6433C13.9148 29.688 13.8888 29.7238 13.8715 29.7238C13.8498 29.7238 13.8238 29.7819 13.8064 29.8579C13.7891 29.9294 13.7587 29.992 13.7414 29.992C13.7197 29.992 13.6894 30.068 13.672 30.1575C13.607 30.5464 13.2601 31.15 13.104 31.1545C13.0433 31.1545 13.0043 31.1813 13.0043 31.2216C13.0043 31.2573 12.9869 31.2886 12.9609 31.2886C12.9392 31.2886 12.9176 31.311 12.9176 31.3378C12.9176 31.3646 12.8872 31.4541 12.8482 31.539C12.7831 31.6821 12.7962 31.8117 12.8655 31.7134C12.9002 31.6597 13.2167 31.5614 13.4379 31.5256C13.5203 31.5166 13.6503 31.4809 13.7197 31.4451C13.7934 31.4138 13.9278 31.3646 14.0232 31.3423C14.1186 31.3154 14.2834 31.2707 14.3918 31.2394C14.5002 31.2081 14.665 31.1724 14.7603 31.1545C14.9295 31.1232 15.4151 30.9935 15.8443 30.8683C16.1392 30.7789 17.0411 30.542 17.4703 30.4391C17.5527 30.4168 17.7305 30.3676 17.8606 30.3274C17.9907 30.2871 18.1771 30.2335 18.2725 30.2156C18.5587 30.153 18.8318 30.077 18.9012 30.0412C18.9402 30.0189 19.0573 29.9876 19.1614 29.9697C19.2654 29.9518 19.3825 29.9205 19.4215 29.9026C19.4562 29.8803 19.6036 29.84 19.7467 29.8132C19.8898 29.7819 20.1066 29.7282 20.2237 29.6969C20.3451 29.6612 20.5489 29.6031 20.679 29.5628C20.809 29.527 20.9781 29.4734 21.0475 29.4466C21.1212 29.4242 21.2556 29.384 21.351 29.3616C21.4464 29.3437 21.6329 29.2946 21.763 29.2543C22.0361 29.1738 22.2009 29.1291 22.5651 29.0397C23.0204 28.9279 23.8833 28.6776 24.3645 28.5211C24.5206 28.4719 24.6811 28.4272 24.7244 28.4272C24.7635 28.4272 24.8328 28.4093 24.8762 28.3869C24.9152 28.3646 25.0973 28.3109 25.2751 28.2707C25.609 28.1947 25.9428 28.1053 26.2507 28.0024C26.3461 27.9711 26.5412 27.9085 26.6843 27.8683C26.8274 27.8281 26.9791 27.7789 27.0182 27.7521C27.0615 27.7297 27.1439 27.7118 27.2046 27.7118C27.2653 27.7118 27.3477 27.6939 27.3911 27.6716C27.4648 27.6358 27.7033 27.5598 28.2019 27.4167C28.345 27.3765 28.5488 27.3139 28.6528 27.2826C28.7612 27.2468 28.8826 27.22 28.926 27.22C28.9694 27.22 29.004 27.2066 29.004 27.1842C29.004 27.1664 29.1124 27.1261 29.2469 27.0903C29.6328 27.0009 29.6371 27.0099 29.5764 27.922C29.5504 28.3333 29.4983 28.9861 29.4637 29.3661C29.3336 30.7029 29.2946 31.5032 29.2989 32.7864C29.2989 34.0383 29.3206 34.387 29.4637 35.5808C29.4983 35.8893 29.5417 36.2962 29.5547 36.4839C29.5721 36.7343 29.5981 36.8506 29.6544 36.8997C29.7412 36.9802 30.2615 37.0115 32.733 37.0965C33.4354 37.1233 34.0988 37.1546 34.2072 37.168C34.3156 37.1814 34.9096 37.2082 35.5297 37.2351C36.9389 37.2843 38.179 37.3558 38.7166 37.4139C38.9421 37.4363 39.4494 37.4899 39.844 37.5302C40.967 37.6419 41.3312 37.7314 41.3876 37.9191C41.444 38.1024 41.1795 38.2366 40.6288 38.3081C40.4727 38.326 40.1302 38.3796 39.8657 38.4199C39.6055 38.4601 39.1849 38.5138 38.9334 38.5317C38.682 38.554 38.3698 38.5943 38.2397 38.6211C38.1096 38.6479 37.8928 38.6926 37.7627 38.7194C37.6326 38.7418 37.4289 38.7865 37.3074 38.8223C37.1904 38.8536 36.9953 38.9028 36.8738 38.9296C36.5617 39.0056 36.2365 39.104 35.7465 39.2783C35.508 39.3633 35.2479 39.4527 35.1655 39.4706C35.0874 39.4929 35.0007 39.5287 34.9747 39.5555C34.9487 39.5824 34.8923 39.6047 34.8489 39.6047C34.8056 39.6047 34.7362 39.6226 34.6928 39.6449C34.6538 39.6628 34.5498 39.712 34.4674 39.7522C34.385 39.788 34.1509 39.8998 33.9471 39.9982C33.7433 40.092 33.5005 40.2083 33.4051 40.2485C33.3097 40.2932 33.1362 40.3782 33.0148 40.4363C32.8978 40.4944 32.6246 40.6241 32.4078 40.7225C32.1953 40.8253 31.9872 40.9237 31.9525 40.946C31.9178 40.9684 31.7617 41.0533 31.6056 41.1293C31.3325 41.2724 31.3108 41.2769 30.7818 41.2724C30.4826 41.2724 29.9103 41.25 29.5027 41.2187C29.0994 41.1919 28.423 41.1472 28.0068 41.1249C27.5905 41.098 26.9835 41.0578 26.6626 41.0354C25.6263 40.9639 24.5944 40.9058 23.1938 40.8342C21.4724 40.7493 21.1906 40.7359 19.9418 40.6509C19.3825 40.6152 18.3592 40.566 17.6655 40.5436C16.976 40.5213 16.0004 40.481 15.4975 40.4542C14.9988 40.4318 14.2227 40.4095 13.7761 40.4095H12.9696L12.9176 40.5615C12.8872 40.6688 12.8742 41.2366 12.8785 42.3678C12.8829 43.2754 12.8699 44.0444 12.8525 44.0757C12.8092 44.1517 12.6054 44.1294 11.1615 43.9013C10.9967 43.8745 10.7236 43.8298 10.5544 43.803C10.3897 43.7806 10.1989 43.7493 10.1339 43.7359C10.0168 43.7136 10.0125 43.718 10.0125 43.9103V44.1115L10.2206 44.1383C10.3333 44.1517 10.6585 44.183 10.9447 44.2098C11.6645 44.2724 11.8986 44.3663 12.2498 44.733C12.4666 44.961 12.523 45.0728 12.7918 45.8865C12.8135 45.958 12.8699 46.2397 12.9176 46.5124C12.9609 46.7807 13.0173 47.0624 13.0433 47.1294C13.0693 47.201 13.091 47.344 13.091 47.4513C13.091 47.5586 13.1127 47.7017 13.1387 47.7732C13.1647 47.8403 13.2037 48.0281 13.2254 48.189C13.2514 48.35 13.2774 48.5512 13.2905 48.6406C13.3251 48.8731 13.2384 48.9312 12.9479 48.8686C12.8222 48.8418 12.614 48.7971 12.484 48.7748C12.3539 48.7479 12.1327 48.7032 11.994 48.6764C11.8552 48.6451 11.7338 48.6317 11.7208 48.6451C11.6645 48.7077 12.1761 48.9402 13.3945 49.4007C13.6677 49.5035 13.9972 49.6377 14.1186 49.7003C14.3744 49.821 14.8384 50.2994 14.9771 50.581C15.0248 50.6794 15.0769 50.7644 15.0986 50.7733C15.1159 50.7822 15.1289 50.818 15.1289 50.8582C15.1289 50.894 15.1549 50.9879 15.1896 51.0639C15.22 51.1444 15.2807 51.2964 15.324 51.4082C15.3631 51.52 15.4151 51.6451 15.4368 51.6854C15.4584 51.7301 15.4758 51.7972 15.4758 51.8374C15.4758 51.8776 15.5018 51.9715 15.5365 52.0475C15.5668 52.128 15.6275 52.3024 15.6666 52.4365C15.8574 53.1161 15.8617 53.2189 15.7013 53.4201C15.6189 53.5274 15.2503 53.59 14.6736 53.599C14.3788 53.6034 14.3744 53.6034 14.4872 53.6705C14.6086 53.7331 14.8514 53.7957 15.3023 53.8672C15.6752 53.9298 16.2042 54.0327 16.5598 54.1131C16.7376 54.1534 16.9934 54.2026 17.1235 54.2249C17.2535 54.2473 17.4877 54.2875 17.6438 54.3143C17.7999 54.3412 17.9646 54.3769 18.0123 54.3993C18.06 54.4216 18.1858 54.4529 18.2942 54.4664C18.4806 54.4887 18.8492 54.5602 19.4866 54.6988C19.6557 54.7346 19.9115 54.7838 20.0633 54.8061C20.2107 54.8285 20.4752 54.8822 20.6486 54.9179C20.9738 54.9939 21.5288 55.1012 21.9364 55.1638C22.2486 55.213 22.6562 55.2935 22.847 55.3427C22.9293 55.365 23.1852 55.4142 23.4106 55.4544C23.6361 55.4947 23.9396 55.5528 24.0827 55.5886C24.2258 55.6199 24.4903 55.6735 24.6681 55.7003C24.8458 55.7272 25.132 55.7764 25.2968 55.8121C25.4659 55.8434 25.7781 55.906 25.9905 55.9463C26.2073 55.982 26.4588 56.0357 26.5542 56.058C26.6496 56.0759 26.9314 56.1296 27.1829 56.1698C27.6469 56.2413 28.1932 56.3486 28.5054 56.4202C28.7569 56.4783 29.1645 56.5543 29.416 56.5945C29.5374 56.6124 29.7325 56.6482 29.8496 56.675C29.971 56.6974 30.2138 56.7466 30.3916 56.7734C30.5693 56.8047 30.8338 56.8539 30.9813 56.8896C31.1243 56.9254 31.2934 56.9522 31.3541 56.9522C31.4148 56.9522 31.5189 56.9701 31.5883 56.9925C31.701 57.0282 32.6029 57.2026 33.6219 57.3815C33.8387 57.4217 34.0815 57.4709 34.1639 57.4932C34.2462 57.5111 34.5714 57.5737 34.8793 57.6229C35.1915 57.6765 35.5904 57.7481 35.7682 57.7838C35.9459 57.8196 36.2191 57.8643 36.3752 57.8867C36.5313 57.909 36.7438 57.9493 36.8522 57.9761C37.2598 58.0789 37.6933 58.1594 37.8191 58.1594C37.8928 58.1594 38.0099 58.1773 38.0836 58.2041C38.1573 58.2265 38.5519 58.3069 38.9551 58.383C40.0001 58.5797 40.1302 58.602 40.4944 58.6736C40.6722 58.7093 40.889 58.7496 40.9713 58.7585C41.457 58.8301 41.6998 58.8748 41.8082 58.915C41.96 58.9776 42.8922 58.9776 43.1697 58.9195C43.2824 58.8971 43.651 58.8524 43.9849 58.8256C44.8694 58.7541 45.264 58.7183 45.8493 58.6557C46.6558 58.5752 47.2065 58.5216 47.562 58.4947C47.7398 58.4768 48.0043 58.45 48.1474 58.4232C48.2905 58.4008 48.5333 58.383 48.6894 58.383C48.8455 58.383 49.0406 58.3651 49.123 58.3382C49.2054 58.3159 49.5392 58.2757 49.8601 58.2488C50.181 58.222 50.5452 58.1907 50.6623 58.1773C50.7837 58.1683 51.2389 58.1281 51.6812 58.0923C52.1235 58.0521 52.6178 58.0029 52.7782 57.9761C52.943 57.9493 53.3029 57.909 53.5804 57.8867C54.3175 57.8285 55.2281 57.7436 56.4074 57.6229C56.6329 57.6005 56.9841 57.5692 57.1879 57.5558C57.3917 57.5424 57.7039 57.5111 57.8817 57.4888C58.0595 57.4664 58.5407 57.4127 58.944 57.377C59.3516 57.3367 59.8459 57.2876 60.0497 57.2652C60.2535 57.2384 60.7521 57.1892 61.1553 57.1534C61.5629 57.1132 62.0486 57.064 62.2393 57.0372C62.4301 57.0104 62.8117 56.9701 63.0848 56.9478C63.358 56.9299 63.8263 56.8807 64.1255 56.8405C64.4247 56.8047 64.919 56.7555 65.2312 56.7287C65.539 56.7019 65.9119 56.6616 66.055 56.6393C66.1981 56.6169 66.4236 56.5945 66.558 56.5945C66.688 56.5945 66.9048 56.5767 67.0349 56.5498C67.165 56.5275 67.4729 56.4872 67.7243 56.4604C67.9758 56.4336 68.4138 56.3844 68.6999 56.3442C68.9861 56.3039 69.3373 56.2637 69.4804 56.2503C69.6235 56.2369 69.7753 56.2011 69.8186 56.1698C69.8837 56.1206 69.8707 56.1117 69.6885 56.0893C69.5758 56.0714 69.0121 56.0401 68.4398 56.0133C67.8674 55.9865 67.204 55.9463 66.9655 55.9239C66.7271 55.9015 66.1504 55.8702 65.6864 55.8524C64.8062 55.8255 64.6024 55.7808 64.6024 55.6199C64.6068 55.5796 64.6848 55.4813 64.7802 55.4097C64.8756 55.3337 64.9797 55.2488 65.0144 55.2175C65.0447 55.1907 65.0881 55.1638 65.1054 55.1638C65.1228 55.1638 65.1748 55.1191 65.2268 55.061C65.3439 54.9313 66.0116 54.4485 66.0723 54.4485C66.0984 54.4485 66.12 54.4306 66.12 54.4127C66.12 54.3233 67.2777 53.8181 67.8327 53.6616C68.0495 53.599 68.327 53.5319 68.4571 53.5051C68.5872 53.4827 68.7086 53.4514 68.7303 53.438C68.7693 53.4112 68.9167 53.3844 69.5021 53.286C69.9964 53.2055 70.0094 53.1966 70.0354 52.8255C70.0658 52.3784 70.0875 49.9014 70.0875 47.0937C70.0875 45.037 70.0744 44.6659 70.0094 44.2769C69.9184 43.7449 69.8316 43.3246 69.7883 43.2039C69.7102 42.9848 69.3894 42.3454 69.3113 42.2426C69.0858 41.9654 68.6132 41.4825 68.5612 41.4825C68.5308 41.4825 68.5048 41.4646 68.5048 41.4468C68.5048 41.4244 68.4311 41.3708 68.3444 41.3216C68.2533 41.2769 68.1579 41.2143 68.1319 41.1874C68.1016 41.1606 67.9542 41.0757 67.8024 40.9952C67.4555 40.8119 67.3861 40.7672 67.2517 40.642C67.191 40.5883 67.126 40.5436 67.1043 40.5436C67.087 40.5436 66.9829 40.4497 66.8788 40.3335C66.623 40.0563 66.4799 39.6807 66.4322 39.18C66.3932 38.7865 66.2805 38.3752 66.1114 38.0175C65.9986 37.7761 65.8425 37.4854 65.8165 37.4586C65.8035 37.4452 65.7081 37.2977 65.5997 37.1278C65.4957 36.9579 65.3873 36.7969 65.3612 36.7701C65.3352 36.7433 65.2268 36.6002 65.1228 36.4526C65.0144 36.3051 64.8713 36.1218 64.8019 36.0503L64.6762 35.9161L59.5337 35.8893C56.7066 35.8759 54.3218 35.8491 54.2394 35.8267C54.105 35.7954 53.9836 35.697 53.9793 35.621C53.9793 35.5853 54.3782 35.4467 54.4693 35.4467C54.5039 35.4467 54.556 35.4154 54.5863 35.3796C54.634 35.3215 54.621 35.3125 54.517 35.3125C54.3695 35.3125 53.3679 35.1918 53.021 35.1337C52.891 35.1069 52.6742 35.089 52.5441 35.0845C52.414 35.0845 52.2015 35.0622 52.0715 35.0398C51.8243 34.9951 51.3213 34.9459 50.3587 34.8699C49.8167 34.8252 49.4785 34.7939 48.3859 34.6866C47.3192 34.5793 47.0894 34.5525 46.6081 34.4854C46.335 34.4452 45.9447 34.396 45.7409 34.3781C44.9951 34.3021 43.8158 33.8863 43.4949 33.5778C43.4645 33.551 43.4255 33.5241 43.4082 33.5241C43.3605 33.5241 42.9182 33.0726 42.7231 32.8311C42.6277 32.7059 42.4326 32.4466 42.2938 32.2499C42.1551 32.0532 42.0293 31.8833 42.012 31.8699C41.9946 31.8564 41.9469 31.776 41.8993 31.691C41.8559 31.6061 41.8082 31.5256 41.7952 31.5122C41.7605 31.4764 41.47 31.0382 41.1535 30.5509C40.993 30.305 40.8283 30.0636 40.7849 30.0144C40.7459 29.9697 40.5638 29.7059 40.386 29.4332C40.2126 29.1649 40.0304 28.9011 39.9871 28.8475C39.883 28.7267 39.805 28.6015 39.7746 28.5032C39.7573 28.4629 39.7313 28.4272 39.7139 28.4272C39.6966 28.4272 39.6706 28.3914 39.6532 28.3467C39.6272 28.2617 39.5361 28.1053 39.4928 28.0695C39.4451 28.0293 39.2803 27.6939 39.2803 27.6358C39.2803 27.6045 39.263 27.5777 39.237 27.5777C39.2153 27.5777 39.1936 27.5509 39.1936 27.5151C39.1936 27.4838 39.1632 27.3944 39.1286 27.3273C39.0939 27.2558 39.0635 27.0903 39.0635 26.9607C39.0635 26.755 39.0809 26.7103 39.2066 26.5806C39.2977 26.4912 39.4581 26.4063 39.6315 26.3482C39.8917 26.2677 40.0174 26.2632 41.7952 26.2721C42.8315 26.2811 43.9502 26.3034 44.2884 26.3258C45.1122 26.3884 49.2748 26.4599 49.4916 26.4197C49.6563 26.3884 49.6433 26.3839 49.2964 26.3303C49.0926 26.299 48.8412 26.2587 48.7328 26.2364C48.6244 26.214 48.3035 26.1648 48.0173 26.1246C46.3263 25.9011 45.884 25.7714 46.2396 25.6015C46.3263 25.5613 46.5171 25.5657 47.0981 25.6283C47.51 25.6686 48.2038 25.7222 48.646 25.7446C49.8124 25.8072 51.3777 25.9458 51.6595 26.0128C51.7549 26.0352 51.9414 26.0575 52.0715 26.0575C52.2015 26.0575 52.4487 26.0844 52.6135 26.1201C52.7826 26.1514 53.0948 26.2051 53.3072 26.2319C53.6801 26.2856 53.9706 26.3347 54.3478 26.4197C54.4432 26.4376 54.6384 26.4778 54.7814 26.5046C54.9202 26.5315 55.0589 26.5717 55.085 26.5896C55.1066 26.6119 55.2541 26.6432 55.4102 26.6567C55.5619 26.6745 55.718 26.7058 55.757 26.7282C55.7917 26.7461 55.9435 26.7774 56.0952 26.7953C56.4248 26.8355 56.4465 26.7729 56.1776 26.5628C56.0779 26.4868 55.9088 26.3347 55.8004 26.2319C55.6963 26.1291 55.5402 25.9994 55.4535 25.9458C55.3711 25.8876 55.2541 25.7937 55.1934 25.7356C55.1327 25.6775 55.0156 25.5791 54.9332 25.521C54.8508 25.4629 54.7251 25.3556 54.6557 25.2885C54.5907 25.217 54.4606 25.1052 54.3739 25.0381C54.2871 24.9711 54.2091 24.9085 54.1961 24.8951C54.1831 24.8817 54.027 24.7609 53.8492 24.6268C53.6714 24.4927 53.4937 24.3496 53.4503 24.3138C53.3115 24.1887 53.2465 24.135 53.2205 24.135C53.2075 24.135 53.1424 24.0858 53.0774 24.0232C53.0124 23.9606 52.9387 23.9115 52.9083 23.9115C52.878 23.9115 52.8389 23.8846 52.8216 23.8533C52.7739 23.7773 52.479 23.5538 52.427 23.5538C52.401 23.5538 52.375 23.5404 52.3663 23.518C52.349 23.4778 51.9977 23.1961 51.9631 23.1961C51.9501 23.1961 51.8677 23.1514 51.7766 23.0933C51.6032 22.977 51.2173 22.8384 51.0829 22.8384C51.0352 22.8384 50.8877 22.7892 50.7533 22.7266C50.6189 22.664 50.4758 22.6149 50.4411 22.6149C50.4021 22.6149 50.3111 22.588 50.2373 22.5523C50.0986 22.4941 49.7864 22.3645 49.6216 22.3019C49.3138 22.1856 49.1967 22.1499 48.9062 22.0739C48.7284 22.0247 48.4336 21.9397 48.2558 21.8816C48.078 21.8235 47.7962 21.752 47.6271 21.7207C47.4623 21.6938 47.1978 21.6402 47.0417 21.6089C45.9837 21.3764 45.7019 21.3272 44.3534 21.1126C42.1984 20.7728 41.6911 20.7057 39.8874 20.509C39.6619 20.4867 39.237 20.4375 38.9464 20.4017C38.6559 20.3659 38.3264 20.3346 38.2093 20.3346C38.0966 20.3346 37.8538 20.3168 37.676 20.2899C37.4982 20.2676 36.9519 20.2139 36.4619 20.1782C35.972 20.1379 35.3953 20.0887 35.1741 20.0619C34.6842 20.0127 34.6538 20.0127 34.6235 20.0619ZM31.2674 21.6357C31.3888 21.7296 31.3975 21.7475 31.3758 21.9621C31.3628 22.0873 31.3195 22.369 31.2804 22.5925C31.2414 22.8116 31.2024 23.0754 31.1894 23.1737C31.1764 23.2721 31.146 23.3928 31.1243 23.442C31.0853 23.5359 31.0203 23.8846 30.9552 24.3362C30.9379 24.4837 30.8989 24.7162 30.8685 24.8504C30.7341 25.5076 30.6821 25.7312 30.6517 25.8116C30.63 25.8608 30.604 25.9815 30.591 26.0799C30.5693 26.2721 30.4826 26.6209 30.3959 26.8489C30.2832 27.1529 30.1487 26.9607 30.2181 26.5941C30.2398 26.4823 30.2571 26.1425 30.2615 25.834C30.2615 25.5255 30.2832 25.1544 30.3048 25.0069C30.3309 24.8593 30.3699 24.448 30.3916 24.0903C30.4349 23.3928 30.5043 22.6327 30.539 22.4137C30.578 22.1901 30.5216 22.1499 30.2918 22.2304C30.1834 22.2661 30.01 22.3377 29.9059 22.3824C29.8019 22.4315 29.6024 22.5031 29.4593 22.5478C29.3162 22.5925 29.1601 22.6417 29.1124 22.6596C29.0647 22.6775 28.9087 22.7266 28.7656 22.7713C28.6225 22.8116 28.4664 22.8652 28.4187 22.8876C28.2452 22.9636 27.5038 23.1871 27.3564 23.2095C27.274 23.2229 27.0962 23.2632 26.9661 23.3079C26.8361 23.3481 26.6496 23.4018 26.5542 23.4241C26.4588 23.4509 26.3634 23.4867 26.3374 23.5135C26.3157 23.5359 26.2594 23.5538 26.2117 23.5538C26.164 23.5538 26.0686 23.5717 25.9949 23.5985C25.9212 23.6208 25.7434 23.67 25.6003 23.7103C25.0236 23.8667 24.4426 24.0366 24.2995 24.0903C24.0567 24.1797 23.7749 24.2691 23.7272 24.2691C23.6968 24.2691 23.5711 24.3183 23.4453 24.3764C23.3196 24.4346 23.0507 24.5508 22.8513 24.6358C22.6041 24.7341 22.4394 24.837 22.3353 24.9487C22.0708 25.2349 21.8063 25.1857 21.8063 24.8459C21.8063 24.6581 21.9754 24.3317 22.0968 24.2825C22.1359 24.2691 22.2616 24.1887 22.383 24.1037C22.5001 24.0232 22.6475 23.9428 22.7125 23.9249C22.8123 23.9025 23.2415 23.7103 23.4627 23.594C23.506 23.5717 23.5711 23.5538 23.6057 23.5538C23.6404 23.5538 23.7055 23.5359 23.7488 23.5135C23.8442 23.4554 25.1667 23.0396 25.6653 22.901C25.8214 22.8608 26.0859 22.7803 26.2507 22.7266C26.4198 22.6685 26.667 22.5925 26.8057 22.5523C26.9401 22.512 27.1656 22.4494 27.3043 22.4092C27.4388 22.369 27.6686 22.2974 27.8116 22.2482C28.345 22.0694 29.7715 21.7028 30.1184 21.6536C30.2441 21.6357 30.3569 21.6044 30.3742 21.5821C30.3872 21.5597 30.565 21.5418 30.7688 21.5418C31.0766 21.5418 31.159 21.5597 31.2674 21.6357ZM35.0614 26.3795C35.2435 26.4599 35.4213 26.6432 35.4213 26.755C35.4213 26.8087 35.4473 26.9204 35.482 27.0009C35.6294 27.3631 35.6077 29.764 35.4473 30.6627C35.3649 31.1321 35.1568 31.9727 35.1134 32.0263C35.0918 32.0487 35.0744 32.1023 35.0744 32.1426C35.0744 32.1873 35.0571 32.2275 35.0354 32.2365C34.9834 32.2544 34.7666 32.8714 34.7275 33.1217C34.7102 33.2335 34.6755 33.3811 34.6538 33.4571C34.5541 33.7656 34.5107 34.083 34.4674 34.8431C34.4067 35.9429 34.3763 36.1084 34.2246 36.238C34.0511 36.3811 33.921 36.4079 33.6912 36.3453C33.1449 36.1978 32.746 35.8088 32.4988 35.1784C32.4555 35.0666 32.3948 34.9146 32.3644 34.8431C32.23 34.5033 32.1086 33.0949 32.1693 32.5852C32.191 32.4019 32.2083 32.0889 32.2127 31.8922C32.2127 31.6955 32.256 31.2618 32.3037 30.9309C32.3558 30.6001 32.4121 30.1664 32.4295 29.9697C32.4642 29.5807 32.5422 29.0621 32.6029 28.8519C32.6203 28.7759 32.6506 28.6194 32.6679 28.5032C32.72 28.1142 32.9975 27.3541 33.0885 27.3541C33.1059 27.3541 33.1232 27.3273 33.1232 27.2915C33.1232 27.1932 33.5178 26.8444 33.7519 26.7327C33.8734 26.679 34.0208 26.603 34.0858 26.5672C34.1465 26.5315 34.2376 26.5046 34.2809 26.5046C34.3286 26.5046 34.3807 26.4912 34.398 26.4689C34.4284 26.442 34.7666 26.3437 34.888 26.3303C34.9183 26.3303 34.9964 26.3482 35.0614 26.3795ZM36.5053 27.5956C36.5747 27.7073 36.7438 27.922 37.0603 28.302C37.16 28.4227 37.2424 28.5345 37.2424 28.5524C37.2424 28.5702 37.3205 28.6731 37.4158 28.7849C37.5112 28.8966 37.5893 29.0084 37.5893 29.0397C37.5893 29.071 37.6153 29.1112 37.6457 29.1291C37.6977 29.1604 38.153 29.7908 38.153 29.8266C38.153 29.8355 38.2397 29.9831 38.3481 30.153C38.4565 30.3229 38.6386 30.6537 38.7513 30.8862C39.1329 31.6865 39.0375 32.2007 38.4738 32.4332C38.3047 32.5003 38.283 32.5003 38.0966 32.4108C37.8885 32.3125 37.663 32.0755 37.5242 31.7938C37.4332 31.615 37.2251 31.378 37.1557 31.378C37.1297 31.378 37.1123 31.3557 37.1123 31.3333C37.1123 31.3065 37.0343 31.2886 36.9432 31.2886C36.7524 31.2886 36.5183 31.1768 36.4186 31.0427C36.3535 30.9533 36.3362 30.9041 36.2451 30.5375C36.1931 30.3095 36.1627 27.6269 36.2148 27.5419C36.2755 27.4525 36.4359 27.4793 36.5053 27.5956ZM30.1704 28.4585C30.2658 28.7625 30.2788 29.3974 30.1964 29.8758C30.1141 30.3497 30.0577 30.4034 29.9103 30.1485C29.8452 30.0367 29.8322 29.8937 29.8322 29.2185C29.8279 28.7178 29.8452 28.4272 29.8712 28.4272C29.8973 28.4272 29.9146 28.3959 29.9146 28.3601C29.9146 28.3199 29.9536 28.293 30.0143 28.293C30.0924 28.293 30.1271 28.3288 30.1704 28.4585ZM38.4435 33.5152C38.5779 33.6046 38.6212 34.3155 38.5259 34.861C38.4695 35.2052 38.3784 35.2947 38.2353 35.1471C38.1486 35.0577 38.14 35.013 38.1486 34.3692C38.153 33.8416 38.1703 33.6627 38.218 33.5823C38.2874 33.4749 38.3524 33.4571 38.4435 33.5152ZM46.6948 37.9057C47.8482 38.0175 49.0363 38.1606 49.3571 38.2232C49.5002 38.25 49.7691 38.2858 49.9468 38.3081C50.3587 38.3484 51.3343 38.5272 51.4297 38.5764C51.4688 38.5987 51.5988 38.63 51.7202 38.6479C51.8417 38.6658 51.9544 38.6971 51.9674 38.715C51.9804 38.7373 52.0454 38.7552 52.1105 38.7552C52.1755 38.7552 52.3663 38.8089 52.5311 38.8715C52.6958 38.9341 52.93 39.0145 53.0471 39.0548C53.1685 39.095 53.2899 39.1487 53.3202 39.171C53.3506 39.1978 53.537 39.3007 53.7321 39.4035C54.2048 39.6539 54.3869 39.7567 54.4129 39.788C54.4259 39.8014 54.4649 39.8238 54.4996 39.8417C54.5777 39.8774 54.7294 39.9758 54.7598 40.0071C54.7728 40.0205 54.8421 40.0786 54.9202 40.1323C55.1543 40.3022 55.2584 40.6107 55.1327 40.7806C55.0546 40.8834 54.6861 41.0086 54.2394 41.0757C53.6237 41.1696 48.4162 41.0712 48.2471 40.9639C48.2168 40.946 48.039 40.9147 47.8482 40.8968C47.02 40.8208 46.7209 40.7046 46.1398 40.253C46.0228 40.1636 45.3637 39.475 45.1556 39.2247C45.0385 39.0816 44.8737 38.8983 44.8 38.8089C44.722 38.7239 44.6569 38.6256 44.6569 38.5943C44.6569 38.5585 44.6396 38.5317 44.6136 38.5317C44.5919 38.5317 44.5702 38.4244 44.5702 38.2947C44.5702 38.0086 44.6179 37.9683 45.0775 37.8834C45.4938 37.8074 45.7366 37.8074 46.6948 37.9057ZM41.6738 41.2187C42.0076 41.2724 42.7838 41.5094 42.8575 41.5764C42.8792 41.5988 42.9312 41.6167 42.9702 41.6167C43.0093 41.6167 43.0656 41.648 43.096 41.6837C43.1263 41.7195 43.187 41.7508 43.2304 41.7508C43.2781 41.7508 43.3128 41.7687 43.3128 41.791C43.3128 41.8134 43.3475 41.8402 43.3908 41.8581C43.4645 41.8805 43.6206 41.9743 43.6597 42.0191C43.6727 42.0325 43.7681 42.1129 43.8765 42.1979C43.9849 42.2828 44.154 42.4438 44.2537 42.5466C44.4575 42.7612 44.9951 43.4855 45.1079 43.6957C45.1469 43.7672 45.1946 43.8611 45.2206 43.8969C45.4548 44.2903 45.8276 45.0236 45.8276 45.0996C45.8276 45.1264 45.9014 45.3097 45.9924 45.5154C46.0835 45.7211 46.1832 45.9759 46.2136 46.0877C46.2439 46.1994 46.2959 46.3693 46.3306 46.4677C46.4997 46.9685 46.3133 47.2367 46.0141 46.9327C45.8927 46.812 45.394 46.0385 45.394 45.9714C45.394 45.958 45.3377 45.8686 45.264 45.7747C45.1946 45.6808 45.1339 45.5869 45.1339 45.5601C45.1339 45.5333 45.1165 45.5064 45.0992 45.4975C45.0819 45.4886 44.9648 45.35 44.8477 45.1801C44.5919 44.8313 44.1236 44.3216 43.8634 44.1115C43.7637 44.031 43.6727 43.955 43.6597 43.9416C43.5599 43.8164 42.502 43.1815 42.3979 43.1815C42.3719 43.1815 42.2895 43.1547 42.2158 43.1189C42.0597 43.0519 41.8602 42.9937 41.4266 42.8954C41.0884 42.8149 39.9437 42.797 39.7313 42.8641C39.6619 42.8864 39.4407 42.9401 39.237 42.9848C39.0332 43.025 38.8511 43.0787 38.825 43.0966C38.8034 43.1145 38.708 43.1413 38.6169 43.1592C38.5302 43.177 38.4435 43.2083 38.4305 43.2307C38.4175 43.2531 38.3784 43.2709 38.3481 43.2709C38.3134 43.2709 38.0142 43.4051 37.689 43.566C37.3595 43.727 37.0126 43.8969 36.9172 43.9416C36.6397 44.0757 36.3882 44.1025 36.2885 44.0087C36.1714 43.9013 36.1801 43.8298 36.3319 43.5884C36.605 43.1502 37.8798 41.9743 38.0836 41.9743C38.1183 41.9743 38.153 41.9565 38.1616 41.9386C38.179 41.8894 38.7123 41.6167 38.7904 41.6167C38.8207 41.6167 38.8467 41.5988 38.8467 41.5809C38.8467 41.5585 38.9291 41.5228 39.0332 41.4959C39.1329 41.4691 39.3627 41.4065 39.5405 41.3573C39.7183 41.3082 39.9741 41.2456 40.1042 41.2232C40.4467 41.1651 41.3052 41.1606 41.6738 41.2187ZM67.7677 42.5243C67.9585 42.5869 68.1016 42.7165 68.1883 42.9043C68.2577 43.0563 68.2533 43.5034 68.1623 44.7017C68.1189 45.3142 67.9932 45.9625 67.8458 46.3649C67.7547 46.6108 67.3948 46.7002 65.3829 46.9551C64.2295 47.1071 63.2366 47.1428 63.0848 47.0489C62.9548 46.9685 63.1239 46.736 63.3927 46.6242C63.4751 46.5884 63.5488 46.5482 63.5618 46.5348C63.5748 46.5169 63.6702 46.4722 63.7786 46.4275C64.0561 46.3157 64.0995 46.271 64.0084 46.195C63.9651 46.1637 63.8697 46.1324 63.7916 46.1324C63.5184 46.1324 62.5949 45.8999 62.4995 45.8149C62.4778 45.7926 62.4258 45.7747 62.3868 45.7747C62.3477 45.7747 62.2914 45.7434 62.2567 45.7032C62.1786 45.6093 62.248 45.502 62.4345 45.4394C62.7423 45.3321 62.7206 45.1622 62.3651 44.9699C62.1353 44.8403 61.8144 44.7643 61.3288 44.724C61.0036 44.6927 60.8301 44.6301 60.8301 44.5407C60.8301 44.4736 61.138 44.344 61.2941 44.344C61.4025 44.344 61.732 44.2948 62.209 44.2009C62.3304 44.1786 62.4345 44.1428 62.4345 44.1294C62.4345 44.0534 61.9358 43.9863 61.3851 43.9863C60.5613 43.9863 60.1841 43.8835 60.3835 43.7091C60.4182 43.6778 60.5613 43.642 60.6957 43.6241C60.9776 43.5928 61.6193 43.5124 62.0789 43.4498C62.2523 43.423 62.4821 43.4051 62.5862 43.4051C62.7293 43.4051 62.7813 43.3872 62.7813 43.338C62.7813 43.2799 62.6859 43.2709 62.1873 43.2709C61.138 43.2709 58.2589 43.1502 57.2963 43.0608C57.1532 43.0474 57.0015 43.0116 56.9581 42.9803C56.8887 42.9311 56.9017 42.9222 57.0665 42.8775C57.266 42.8238 58.6838 42.7478 60.635 42.6897C61.3028 42.6673 61.9271 42.6361 62.0225 42.6226C62.3044 42.5824 64.0518 42.4974 65.3179 42.4662C66.6664 42.4304 67.5509 42.4527 67.7677 42.5243ZM17.4183 42.7568C18.1121 43.0071 18.7364 43.8075 19.1007 44.9163C19.1614 45.0906 19.17 45.1711 19.1354 45.2292C19.0443 45.3768 18.8275 45.3544 18.6237 45.1711C18.5543 45.1085 18.485 45.0593 18.4676 45.0593C18.4416 45.0593 18.2118 44.8894 18.047 44.7464C18.0167 44.724 17.982 44.7017 17.9646 44.7017C17.9386 44.7017 17.6264 44.4602 17.5224 44.3574C17.4487 44.2859 17.0888 44.1204 17.0021 44.1204C16.9197 44.1204 16.5468 44.259 16.5164 44.3037C16.5034 44.3172 16.4514 44.344 16.3993 44.3619C16.343 44.3797 16.2996 44.4155 16.2996 44.4379C16.2996 44.4602 16.2736 44.4781 16.2389 44.4781C16.2086 44.4781 16.1609 44.5049 16.1305 44.5362C16.1045 44.572 15.9701 44.6569 15.8357 44.7285C15.6362 44.8313 15.5322 44.8581 15.3327 44.8537C15.1939 44.8492 15.0682 44.8358 15.0509 44.8179C14.9988 44.7598 15.0292 44.3306 15.1029 44.0981C15.1679 43.9058 15.4194 43.3917 15.5755 43.1323C15.6059 43.0832 15.6492 43.0474 15.6796 43.0474C15.7099 43.0474 15.7359 43.0295 15.7359 43.0027C15.7359 42.9803 15.7836 42.949 15.8443 42.9311C15.905 42.9177 15.9527 42.8864 15.9527 42.8685C15.9527 42.8507 16.0178 42.8015 16.0958 42.7612C16.2823 42.6673 17.1538 42.6629 17.4183 42.7568ZM69.4717 43.177C69.5758 43.3067 69.6842 43.5258 69.81 43.8522C69.9053 44.1025 69.8837 45.2471 69.7666 45.7836C69.6582 46.3112 69.5671 46.584 69.4284 46.8477C69.2723 47.1384 69.2029 47.2054 69.0468 47.2054C68.8864 47.2054 68.7737 47.0668 68.6783 46.7583C68.5482 46.347 68.6219 44.5228 68.791 43.9863C68.8257 43.8745 68.8517 43.7136 68.8517 43.6286C68.8517 43.5213 68.8994 43.4051 69.0035 43.2575C69.1856 43.0027 69.3113 42.9848 69.4717 43.177ZM53.0514 43.1323C53.3419 43.177 53.6758 43.3604 53.9533 43.6241C54.1831 43.8477 54.7598 44.5496 54.7598 44.6122C54.7598 44.6391 54.7901 44.6704 54.8248 44.6838C54.8595 44.7017 54.8898 44.7374 54.8898 44.7732C54.8898 44.809 54.9029 44.8358 54.9245 44.8358C54.9419 44.8358 55.0243 44.9386 55.1066 45.0593C55.189 45.1801 55.2714 45.2829 55.2931 45.2829C55.3104 45.2829 55.3234 45.3142 55.3234 45.35C55.3234 45.3857 55.3364 45.417 55.3581 45.417C55.3755 45.417 55.4362 45.4975 55.4969 45.5959C55.5533 45.6942 55.6183 45.7747 55.6356 45.7747C55.653 45.7747 55.6703 45.8015 55.6703 45.8373C55.6703 45.8731 55.6877 45.9088 55.705 45.9178C55.7224 45.9222 55.7831 46.0072 55.8394 46.0966C55.8915 46.1905 55.9565 46.2665 55.9782 46.2665C55.9999 46.2665 56.0172 46.2933 56.0172 46.3291C56.0172 46.3649 56.0345 46.4006 56.0519 46.4096C56.0952 46.4275 56.3641 46.879 56.3641 46.9372C56.3641 46.964 56.3814 46.9819 56.4031 46.9819C56.4248 46.9819 56.4595 47.0266 56.4768 47.0802C56.4942 47.1384 56.5158 47.192 56.5332 47.2054C56.6199 47.277 56.7153 47.5676 56.7023 47.7241C56.6936 47.8627 56.6719 47.9029 56.5939 47.9118C56.3727 47.9431 56.1169 47.7196 54.8248 46.3828C53.6671 45.1845 53.1598 44.7017 52.7479 44.411C52.4444 44.1964 52.3923 44.1607 52.3229 44.1383C52.2796 44.1204 52.2449 44.0981 52.2449 44.0802C52.2449 44.031 51.9934 43.9103 51.4427 43.6957C50.8054 43.4453 50.5105 43.3112 50.5105 43.2665C50.5105 43.2128 50.6146 43.1457 50.7273 43.1234C50.9268 43.0876 52.7826 43.0921 53.0514 43.1323ZM30.088 43.4721C30.1531 43.5526 30.2225 44.5631 30.2485 45.8731C30.2702 47.0758 30.2918 47.0266 29.6891 47.0266C29.3336 47.0266 28.5835 46.9685 27.2913 46.8477C27.0789 46.8254 26.8144 46.7896 26.706 46.7628C26.5976 46.7404 26.4198 46.7181 26.3071 46.7136C26.1987 46.7136 26.0035 46.6913 25.8735 46.6644C25.7477 46.6376 25.6046 46.6063 25.5569 46.5974C25.5092 46.5884 25.4225 46.5392 25.3705 46.4901C25.2231 46.347 25.3098 46.2665 25.609 46.2665C25.8908 46.2665 26.3981 46.1547 26.6323 46.043C26.7233 45.9983 26.8621 45.9044 26.9401 45.8328C27.248 45.5512 27.7119 45.4304 28.4881 45.4215C28.7265 45.417 28.926 45.3902 29.0301 45.3455C29.2382 45.2561 29.455 45.0102 29.5157 44.7956C29.5894 44.5318 29.6891 44.116 29.7455 43.8298C29.7758 43.6823 29.8149 43.5258 29.8366 43.4811C29.8842 43.3872 30.0143 43.3827 30.088 43.4721ZM17.4703 45.9938C17.6785 46.0877 17.8866 46.2486 18.0947 46.4811C18.2551 46.6555 18.5543 47.2323 18.6367 47.5184C18.6671 47.6302 18.7191 47.8001 18.7495 47.8984C18.9923 48.6764 18.9879 50.1384 18.7408 51.0505C18.5803 51.6451 18.5153 51.8106 18.2812 52.213C18.1251 52.4812 17.7652 52.8836 17.6828 52.8836C17.6655 52.8836 17.6178 52.9149 17.5831 52.9507C17.5007 53.0401 17.0064 53.1474 16.8373 53.1206C16.5468 53.0714 16.1305 52.754 16.0655 52.5349C16.0481 52.4812 16.0134 52.4365 15.9918 52.4365C15.9701 52.4365 15.9527 52.4097 15.9527 52.3829C15.9527 52.3516 15.905 52.2264 15.8487 52.1012C15.5452 51.4574 15.4324 50.8001 15.4021 49.5348C15.3761 48.3545 15.4888 47.7419 15.8704 46.9863C16.0611 46.6108 16.4601 46.1324 16.5815 46.1324C16.6161 46.1324 16.6465 46.1145 16.6465 46.0921C16.6465 46.0743 16.7202 46.0251 16.8113 45.9848C16.9847 45.9088 17.2926 45.9088 17.4703 45.9938ZM42.8532 46.6734C43.07 46.7047 43.2998 46.7539 43.3648 46.7852C43.4299 46.8209 43.5209 46.8477 43.5686 46.8477C43.612 46.8477 43.6597 46.8612 43.6683 46.879C43.677 46.9014 43.7551 46.9551 43.8504 47.0042C44.0326 47.0981 44.4054 47.4647 44.5182 47.6615C44.5572 47.733 44.6049 47.7867 44.6179 47.7867C44.6526 47.7867 45.0602 48.5065 45.1252 48.6809C45.1512 48.7435 45.2076 48.8865 45.2596 48.9938C45.3767 49.2621 45.7323 50.3798 45.7669 50.5945C45.819 50.9343 45.6369 51.0639 45.4157 50.8493C45.303 50.7465 45.0472 50.362 45.0472 50.3038C45.0472 50.2234 44.5269 49.4901 44.3274 49.2844C44.0759 49.0296 43.6163 48.7256 43.3128 48.6138C43.0743 48.5244 42.4499 48.4126 42.1854 48.4126C41.4613 48.4126 40.3686 49.119 39.7659 49.9775C39.5015 50.3485 39.4104 50.5676 39.4104 50.8091C39.4104 50.9968 39.4147 51.0058 39.5405 51.0058C39.6142 51.0058 39.6706 50.9924 39.6706 50.97C39.6706 50.9521 39.8006 50.7956 39.9567 50.6257C40.1128 50.4514 40.2906 50.2412 40.3556 50.1563C40.5464 49.9014 40.8933 49.5751 40.9713 49.5751C41.0581 49.5751 41.0494 49.7271 40.9453 49.964C40.9106 50.04 40.8846 50.1161 40.8846 50.1295C40.8846 50.1474 40.8066 50.3351 40.7069 50.5497C40.4554 51.0997 40.4597 51.0818 40.386 51.4752C40.2169 52.3337 40.4597 53.0714 41.1968 53.9298C41.4396 54.216 41.6911 54.3859 42.0163 54.4932C42.3415 54.6005 42.5106 54.605 42.8792 54.5021C43.2131 54.4127 43.5036 54.2428 43.7334 54.0103C43.8244 53.9164 43.9415 53.8136 43.9892 53.7778C44.0802 53.7107 44.5702 52.9194 44.5702 52.8389C44.5702 52.7361 44.722 52.4812 44.8 52.4544C45.2076 52.3203 44.9561 53.8672 44.4575 54.5692C44.4011 54.6452 44.3534 54.7257 44.3534 54.7391C44.3534 54.757 44.297 54.8464 44.232 54.9358C44.1626 55.0252 44.0716 55.1549 44.0239 55.2264C43.9588 55.3382 43.9545 55.3516 44.0152 55.3158C44.154 55.2354 44.4661 54.909 44.6526 54.6452C44.761 54.5021 44.8607 54.3725 44.8824 54.368C44.8997 54.359 44.9171 54.3233 44.9171 54.292C44.9171 54.2607 44.9301 54.2249 44.9518 54.216C45.0081 54.1891 45.264 53.751 45.264 53.675C45.264 53.6303 45.2813 53.599 45.2987 53.599C45.3333 53.599 45.6108 53.058 45.6108 52.9909C45.6108 52.9015 45.9794 52.213 46.0184 52.2264C46.0444 52.2353 46.0921 52.2934 46.1225 52.3605C46.1789 52.4812 46.1745 52.5796 45.9968 54.1131C45.9491 54.5334 45.858 54.9582 45.7626 55.1862C45.7323 55.2577 45.6759 55.4142 45.6325 55.5305C45.5892 55.6512 45.5371 55.7451 45.5198 55.7451C45.4981 55.7451 45.4808 55.7764 45.4808 55.8121C45.4808 55.8479 45.4634 55.8792 45.4417 55.8792C45.4201 55.8792 45.394 55.915 45.3767 55.9552C45.3637 55.9999 45.329 56.0759 45.2987 56.1251C45.2206 56.2458 44.5572 56.9522 44.5182 56.9522C44.5008 56.9522 44.4011 57.0104 44.3014 57.0864C44.1973 57.1579 43.9415 57.2876 43.7247 57.3636C43.3518 57.5022 43.2998 57.5111 42.58 57.5245C42.077 57.5379 41.8125 57.5245 41.7822 57.4932C41.7562 57.4664 41.6911 57.444 41.6391 57.444C41.418 57.444 40.2516 56.9343 40.1042 56.7734C40.0911 56.76 39.9958 56.6795 39.8874 56.5945C39.6185 56.3799 38.9855 55.7093 38.9551 55.6065C38.9378 55.5617 38.9118 55.5215 38.8901 55.5215C38.8727 55.5215 38.8467 55.4857 38.8294 55.441C38.8077 55.365 38.7166 55.2085 38.6733 55.1638C38.5996 55.0878 38.231 54.3054 38.1183 53.979C37.8798 53.2994 37.7671 52.3381 37.8408 51.6228C37.9188 50.8717 37.9839 50.5453 38.1139 50.2457C38.14 50.1831 38.1877 50.0713 38.218 49.9998C38.2527 49.9238 38.3264 49.7539 38.3871 49.6153C38.4478 49.4767 38.4998 49.3515 38.4998 49.3381C38.4998 49.2934 38.9508 48.6451 39.1416 48.4171C39.38 48.1265 39.6706 47.8314 39.8917 47.6525C39.9958 47.5676 40.0911 47.4826 40.0955 47.4647C40.1042 47.4469 40.1388 47.429 40.1735 47.429C40.2082 47.429 40.2342 47.4111 40.2342 47.3887C40.2342 47.3351 41.1708 46.8701 41.4483 46.7852C41.6564 46.7226 42.1074 46.6465 42.3762 46.6287C42.4239 46.6287 42.6364 46.6466 42.8532 46.6734ZM27.777 47.1741C27.881 47.2054 27.9808 47.2501 28.0068 47.277C28.0761 47.3485 27.9547 47.4603 27.7553 47.5184C27.5081 47.5899 26.7797 47.572 26.4415 47.4871C26.1813 47.4245 26.1423 47.4021 26.1423 47.3127C26.1423 47.2188 26.164 47.2099 26.5022 47.1875C26.6973 47.1697 26.9358 47.1518 27.0312 47.1473C27.4214 47.1115 27.6035 47.1205 27.777 47.1741ZM34.3113 47.6257C34.6928 47.7241 34.7536 47.7598 34.8576 47.9342C34.9834 48.1443 34.9704 48.4707 34.8143 48.9625C34.6538 49.4588 34.4587 49.9327 34.4153 49.9327C34.3937 49.9327 34.3807 49.964 34.3807 49.9998C34.3807 50.1921 34.0034 50.5632 33.6869 50.6794C33.3704 50.7956 32.4511 50.742 32.2647 50.59C32.1867 50.5274 32.282 50.4246 32.4165 50.4246C32.5249 50.4246 32.9194 50.3351 33.3314 50.2144C33.5178 50.1608 33.6175 50.0892 33.856 49.8433C34.0728 49.6242 34.1595 49.4991 34.1769 49.3918C34.1899 49.3068 34.2246 49.0967 34.2549 48.9268C34.2983 48.6451 34.2983 48.5914 34.2332 48.4484C34.1639 48.3008 34.1118 48.2651 33.7736 48.0996C33.6262 48.0326 33.1406 47.9744 32.2777 47.9253C31.4842 47.8761 30.8208 47.8045 30.4913 47.733C30.2832 47.6883 30.2701 47.6749 30.3439 47.6257C30.4479 47.5452 30.9162 47.5318 32.6029 47.5408C33.7606 47.5497 34.0641 47.5631 34.3113 47.6257ZM69.4761 48.3813C69.6452 48.511 69.6148 49.1503 69.4284 49.3426C69.3287 49.4454 69.3157 49.4454 69.2506 49.3783C69.1465 49.2755 69.1422 48.4305 69.2419 48.3679C69.3287 48.3098 69.385 48.3142 69.4761 48.3813ZM51.846 49.0877C52.1625 49.1995 52.0324 49.3828 51.5251 49.5259C51.3387 49.5795 51.1219 49.6421 51.0482 49.669C50.9745 49.6913 50.8747 49.7092 50.8227 49.7092C50.775 49.7092 50.723 49.7271 50.71 49.7494C50.697 49.7718 50.6016 49.8344 50.5018 49.888C50.2764 50.0088 50.0986 50.2144 50.0379 50.4246C49.9815 50.6168 49.9815 50.8538 50.0292 50.9834C50.0596 51.0594 50.0856 51.0326 50.1853 50.8046C50.4888 50.1161 50.5669 50.0222 50.8184 50.0222C50.9701 50.0222 51.0178 50.049 51.1652 50.2099C51.343 50.4111 51.4037 50.6034 51.3604 50.8359C51.33 50.9879 51.1175 51.359 50.9528 51.5423C50.8184 51.6943 50.8487 51.7793 51.0525 51.8195C51.4211 51.8955 51.4991 52.0073 51.3257 52.1995C50.9918 52.5662 49.9035 51.9358 49.5219 51.1489C49.3615 50.8225 49.3571 50.7733 49.4525 50.4067C49.5566 50.0088 49.6216 49.8746 49.8341 49.6511C50.1723 49.2889 50.4715 49.1503 51.0482 49.0833C51.4601 49.0341 51.6986 49.0341 51.846 49.0877ZM42.7188 49.9014C42.8098 49.9372 42.9052 49.9864 42.9312 50.0132C42.9616 50.0445 43.0093 50.0669 43.0396 50.0669C43.07 50.0669 43.096 50.0848 43.096 50.1071C43.096 50.1295 43.135 50.1652 43.187 50.1786C43.3258 50.2234 43.8548 50.7822 43.9675 51.0058C44.18 51.4126 44.245 51.7077 44.245 52.2577C44.245 52.7316 44.2363 52.7942 44.1236 53.0267C43.9718 53.3397 43.7074 53.599 43.5339 53.599C43.4385 53.599 43.3778 53.5587 43.3041 53.4514C43.2131 53.3173 43.2044 53.2547 43.1784 52.4589C43.1654 51.9894 43.1307 51.5334 43.1003 51.4439C43.0049 51.1354 42.7187 50.9477 42.2505 50.8895C42.1334 50.8761 41.9773 50.8493 41.9036 50.8269C41.8342 50.8046 41.6998 50.7778 41.6087 50.7599C41.418 50.7286 41.3009 50.5766 41.3399 50.4201C41.3746 50.2681 41.8819 49.9327 42.077 49.9327C42.1247 49.9327 42.1941 49.9104 42.2288 49.888C42.3198 49.8254 42.5236 49.8344 42.7188 49.9014ZM57.8253 50.0043C57.9077 50.1161 57.8947 50.2636 57.7906 50.505C57.7039 50.7062 57.383 51.198 57.2616 51.3277C57.2313 51.359 57.1099 51.5155 56.9971 51.6764C56.763 52.0028 56.4985 52.3381 56.4161 52.4097C56.3858 52.4365 56.2557 52.5975 56.1256 52.7718C55.9999 52.9417 55.7961 53.1966 55.6747 53.3307C55.5533 53.4648 55.4449 53.6124 55.4318 53.6526C55.4145 53.6973 55.3841 53.7331 55.3625 53.7331C55.3408 53.7331 55.3234 53.7555 55.3234 53.7823C55.3234 53.8136 55.2714 53.8851 55.2107 53.9432C55.0936 54.055 55.0893 54.055 54.4823 54.0237C52.5354 53.9298 51.1436 53.7957 50.9441 53.6884C50.9007 53.6616 50.8227 53.6437 50.775 53.6437C50.5712 53.6437 50.0379 53.4157 49.8384 53.2413C49.5262 52.973 49.1664 52.5796 49.1664 52.508C49.1664 52.3918 49.2964 52.3694 49.4439 52.4589C49.8341 52.6914 50.0509 52.7942 50.3197 52.8791C51.1869 53.1563 52.1625 53.2994 53.6714 53.362C54.5386 53.3978 54.7468 53.2726 55.111 52.4812C55.2324 52.2219 55.3581 51.9581 55.3928 51.891C55.4275 51.8285 55.4535 51.7435 55.4535 51.7033C55.4535 51.663 55.4709 51.596 55.4925 51.5513C55.5923 51.3635 55.6703 50.9879 55.6703 50.7152C55.6703 50.2904 55.627 50.3217 56.6676 50.0445C57.3093 49.8746 57.7212 49.8612 57.8253 50.0043ZM31.172 50.0132C31.2588 50.0848 31.2631 50.1071 31.2111 50.1921C31.1677 50.2636 31.094 50.2904 30.8685 50.3173C30.565 50.3485 29.4203 50.3128 29.2989 50.2681C29.1775 50.2189 29.1645 50.0982 29.2642 50.0132C29.3509 49.9417 29.4637 49.9327 30.2181 49.9327C30.9813 49.9327 31.0853 49.9417 31.172 50.0132ZM22.0882 51.9939C22.6692 52.0878 23.48 52.204 24.2995 52.3024C24.5163 52.3247 24.7418 52.3605 24.8025 52.3739C24.8632 52.3829 25.119 52.4142 25.3662 52.4365C25.6133 52.4589 26.0339 52.508 26.2941 52.5483C26.5586 52.5841 26.9965 52.6377 27.2697 52.6601C27.5428 52.6824 27.816 52.7137 27.8767 52.7271C27.9374 52.7405 28.2106 52.7674 28.4837 52.7942C28.7569 52.8165 29.1471 52.8568 29.3509 52.8836C29.5547 52.906 29.9233 52.9462 30.1748 52.973C30.4262 53.0043 30.8338 53.0535 31.0853 53.0848C32.0089 53.2145 32.243 53.2413 32.6246 53.2636C32.8414 53.2771 33.1319 53.3084 33.275 53.3307C33.4181 53.3531 33.7996 53.4067 34.1205 53.4425C34.4414 53.4827 34.7926 53.5319 34.901 53.5543C35.0094 53.5811 35.2435 53.6213 35.4213 53.6482C36.0847 53.7465 36.2278 53.7689 36.4619 53.8359C36.8218 53.9388 36.9259 53.988 36.9953 54.0908C37.199 54.3948 36.7828 54.5155 35.9243 54.4038C35.5644 54.359 34.953 54.2965 34.1855 54.2249C33.9471 54.2026 33.6956 54.1668 33.6305 54.14C33.5612 54.1131 33.4051 54.0908 33.2837 54.0908C33.1579 54.0908 32.9108 54.0729 32.733 54.0461C32.0696 53.9567 31.4799 53.8985 30.8685 53.8672C29.9276 53.8181 28.7352 53.7376 28.2236 53.6884C27.9721 53.6616 27.2133 53.6437 26.5325 53.6392C24.4339 53.6347 21.8887 53.5274 21.3077 53.4201C20.731 53.3173 20.5966 53.1072 20.7267 52.5349C20.8394 52.052 21.3033 51.8642 22.0882 51.9939ZM68.249 52.3918C68.4831 52.517 68.5438 52.6645 68.4441 52.8568C68.2924 53.1519 67.3645 53.3978 65.3829 53.6616C65.3005 53.675 65.0577 53.7152 64.8409 53.7555C64.6285 53.7957 64.3249 53.8449 64.1688 53.8672C64.0127 53.8896 63.6745 53.9388 63.41 53.979C63.1499 54.0192 62.7293 54.0684 62.4778 54.0953C62.2263 54.1176 61.9878 54.1489 61.9488 54.1623C61.9098 54.1757 61.654 54.2026 61.3851 54.2249C61.1163 54.2473 60.7087 54.2875 60.4833 54.3143C60.2578 54.3412 59.7765 54.359 59.4166 54.3501C58.8399 54.3367 58.7445 54.3277 58.6665 54.2517C58.5537 54.1444 58.5537 54.1176 58.6752 53.9924C58.7749 53.8851 58.97 53.7957 59.2258 53.7331C59.3082 53.7152 59.486 53.666 59.6161 53.6213C60.0106 53.5006 60.6437 53.3531 61.0426 53.286C61.1683 53.2636 61.3635 53.2279 61.4762 53.2011C61.5846 53.1787 61.8621 53.125 62.0876 53.0848C62.313 53.0446 62.5689 52.9954 62.6513 52.973C62.8811 52.9194 63.293 52.8478 63.5618 52.8165C63.6919 52.7987 63.939 52.7584 64.1038 52.7271C64.4333 52.6601 65.6517 52.4723 66.3802 52.3739C66.6317 52.3426 67.113 52.3113 67.4555 52.3069C68.0019 52.3024 68.0972 52.3113 68.249 52.3918ZM56.1906 54.6273C57.821 54.672 58.2112 54.6988 58.8356 54.8017C59.2865 54.8732 59.4513 54.9492 59.6811 55.1862C59.9066 55.4142 60.1364 55.7272 60.1364 55.8121C60.1364 55.839 60.0974 55.8837 60.0497 55.915C59.9803 55.9552 59.9152 55.9552 59.7158 55.8971C59.0481 55.7048 58.1635 55.6512 54.8031 55.6065C49.214 55.5304 48.1908 55.4589 48.1344 55.1504C48.0997 54.9626 48.3729 54.8553 49.0146 54.8061C50.2287 54.7123 51.0568 54.6675 52.1799 54.6318C53.9706 54.5781 54.2655 54.5781 56.1906 54.6273Z" fill="white"/>
<path d="M16.8373 47.04C16.7246 47.0981 16.5164 47.429 16.5164 47.5542C16.5164 47.6033 16.4861 47.7822 16.4471 47.9521C16.395 48.189 16.382 48.4305 16.3994 49.0609C16.408 49.5035 16.4384 49.9238 16.4644 49.9998C16.4904 50.0713 16.5424 50.2457 16.5858 50.3798C16.6682 50.6481 16.7983 50.8046 17.0498 50.9342C17.1928 51.0103 17.2275 51.0147 17.3836 50.9611C17.5831 50.894 17.956 50.5408 18.047 50.3262C18.2118 49.9506 18.2508 49.7315 18.2508 49.2174C18.2508 48.6048 18.2075 48.435 17.8996 47.7777C17.7392 47.429 17.466 47.1428 17.2058 47.0489C17.0021 46.9729 16.9674 46.9729 16.8373 47.04ZM17.6091 48.1801C17.7609 48.3321 17.7825 48.3858 17.8042 48.6227C17.8216 48.8373 17.8129 48.8999 17.7522 48.967C17.4877 49.2397 16.8633 48.5914 16.9717 48.1488C17.0107 47.9923 17.0714 47.9566 17.2709 47.9834C17.3966 47.9968 17.4877 48.0504 17.6091 48.1801Z" fill="white"/>
<path d="M20.7657 37.4139C20.3971 37.4318 19.725 37.4497 19.2698 37.4542C17.5917 37.4631 14.7473 37.6017 14.0449 37.709C13.7934 37.7492 13.5116 37.7895 13.4162 37.7984C13.2428 37.8208 12.9609 37.946 12.9609 37.9996C12.9609 38.1785 14.7083 38.1606 17.8996 37.9549C18.2898 37.9281 18.6411 37.8968 18.6801 37.8834C18.7191 37.8744 18.9923 37.8431 19.2915 37.8163C20.4535 37.7224 21.3424 37.6375 22.1098 37.5525C22.5521 37.5033 22.9597 37.4586 23.0204 37.4542C23.0984 37.4497 23.0768 37.4363 22.9554 37.4094C22.7559 37.3692 21.7456 37.3692 20.7657 37.4139Z" fill="white"/>
<defs>
<linearGradient id="paint0_linear_823_3580" x1="2.30172" y1="22.7043" x2="81.8872" y2="25.8672" gradientUnits="userSpaceOnUse">
<stop stop-color="#13AD68"/>
<stop offset="1" stop-color="#54D59B"/>
</linearGradient>
</defs>
</svg>
