<svg width="52" height="52" viewBox="0 0 52 52" fill="none" xmlns="http://www.w3.org/2000/svg">
<circle cx="26" cy="26" r="26" fill="#54D59B"/>
<path d="M35.222 26.5011H38C38 23.1856 36.6829 20.0059 34.3385 17.6615C31.9941 15.3171 28.8144 14 25.4989 14V16.778C30.8744 16.778 35.222 21.1256 35.222 26.5011ZM29.6659 26.5011H32.444C32.444 22.6674 29.3326 19.556 25.4989 19.556V22.3341C27.8047 22.3341 29.6659 24.1953 29.6659 26.5011ZM27.1796 33.9601C23.2365 31.9546 20.0315 28.7496 18.026 24.8065L21.5402 21.2923L20.6929 14H13.0395C12.2339 28.1401 23.8599 39.7661 38 38.9605V31.3071L30.6799 30.4598L27.1796 33.9601Z" fill="white"/>
</svg>
