<svg width="22" height="22" viewBox="0 0 22 22" fill="none" xmlns="http://www.w3.org/2000/svg">
<path d="M15.0647 6.93528C17.3152 9.1858 17.3152 12.8142 15.0647 15.0647C12.8142 17.3152 9.1858 17.3152 6.94676 15.0647C4.70772 12.8142 4.68476 9.1858 6.94676 6.93528C9.20877 4.68476 12.8142 4.68476 15.0647 6.93528ZM19.5772 2.44572C19.5772 2.44572 18.4635 2.58351 17.2349 3.37578C17.0391 2.09445 16.4351 0.9105 15.5125 0C14.9211 0.570364 14.4923 1.28803 14.2703 2.07914C14.0483 2.87026 14.0411 3.70624 14.2495 4.50104C15.8455 4.9144 17.0856 6.15449 17.499 7.75052C18.785 8.09499 20.5762 7.92276 22 6.48747C21.0999 5.57806 19.9336 4.97883 18.6701 4.77662C19.118 4.11065 19.4739 3.34134 19.5772 2.44572ZM2.42276 19.5543C2.42276 19.5543 3.53653 19.4165 4.76514 18.6242C4.93737 19.8184 5.51148 21.024 6.48747 22C7.92276 20.5762 8.09499 18.785 7.75052 17.499C6.96797 17.297 6.25381 16.8891 5.68233 16.3177C5.11086 15.7462 4.70295 15.032 4.50104 14.2495C3.21503 13.905 1.4238 14.0772 0 15.5125C0.964509 16.477 2.14718 17.0511 3.32985 17.2234C2.88205 17.8894 2.5261 18.6701 2.42276 19.5543Z" fill="url(#paint0_linear_79_489)"/>
<defs>
<linearGradient id="paint0_linear_79_489" x1="0.632184" y1="5.6123" x2="22.4828" y2="6.57717" gradientUnits="userSpaceOnUse">
<stop stop-color="#13AD68"/>
<stop offset="1" stop-color="#54D59B"/>
</linearGradient>
</defs>
</svg>
