<svg width="12" height="12" viewBox="0 0 12 12" fill="none" xmlns="http://www.w3.org/2000/svg">
<path fill-rule="evenodd" clip-rule="evenodd" d="M9.66667 11.3333C10.1087 11.3333 10.5326 11.1577 10.8452 10.8452C11.1577 10.5326 11.3333 10.1087 11.3333 9.66667C11.3333 9.22464 11.1577 8.80072 10.8452 8.48816C10.5326 8.1756 10.1087 8 9.66667 8C9.22464 8 8.80072 8.1756 8.48816 8.48816C8.1756 8.80072 8 9.22464 8 9.66667C8 10.1087 8.1756 10.5326 8.48816 10.8452C8.80072 11.1577 9.22464 11.3333 9.66667 11.3333ZM9.66667 12C10.2855 12 10.879 11.7542 11.3166 11.3166C11.7542 10.879 12 10.2855 12 9.66667C12 9.04783 11.7542 8.45434 11.3166 8.01676C10.879 7.57917 10.2855 7.33334 9.66667 7.33334C9.04783 7.33334 8.45434 7.57917 8.01676 8.01676C7.57917 8.45434 7.33334 9.04783 7.33334 9.66667C7.33334 10.2855 7.57917 10.879 8.01676 11.3166C8.45434 11.7542 9.04783 12 9.66667 12Z" fill="#13AD68"/>
<path fill-rule="evenodd" clip-rule="evenodd" d="M9.66667 8.49999C9.75508 8.49999 9.83986 8.53511 9.90237 8.59762C9.96488 8.66013 10 8.74492 10 8.83332V9.52865L10.2357 9.76432C10.2964 9.82719 10.33 9.91139 10.3292 9.99879C10.3285 10.0862 10.2934 10.1698 10.2316 10.2316C10.1698 10.2934 10.0862 10.3285 9.9988 10.3292C9.9114 10.33 9.8272 10.2964 9.76434 10.2357L9.33334 9.80465V8.83332C9.33334 8.74492 9.36846 8.66013 9.43097 8.59762C9.49348 8.53511 9.57826 8.49999 9.66667 8.49999ZM2.66668 5.66666H2.00001V6.33332H2.66668V5.66666ZM2.00001 4.99999C1.8232 4.99999 1.65363 5.07023 1.52861 5.19526C1.40359 5.32028 1.33335 5.48985 1.33335 5.66666V6.33332C1.33335 6.51014 1.40359 6.6797 1.52861 6.80473C1.65363 6.92975 1.8232 6.99999 2.00001 6.99999H2.66668C2.84349 6.99999 3.01306 6.92975 3.13808 6.80473C3.26311 6.6797 3.33335 6.51014 3.33335 6.33332V5.66666C3.33335 5.48985 3.26311 5.32028 3.13808 5.19526C3.01306 5.07023 2.84349 4.99999 2.66668 4.99999H2.00001ZM5.33334 5.66666H4.66668V6.33332H5.33334V5.66666ZM4.66668 4.99999C4.48987 4.99999 4.3203 5.07023 4.19527 5.19526C4.07025 5.32028 4.00001 5.48985 4.00001 5.66666V6.33332C4.00001 6.51014 4.07025 6.6797 4.19527 6.80473C4.3203 6.92975 4.48987 6.99999 4.66668 6.99999H5.33334C5.51015 6.99999 5.67972 6.92975 5.80475 6.80473C5.92977 6.6797 6.00001 6.51014 6.00001 6.33332V5.66666C6.00001 5.48985 5.92977 5.32028 5.80475 5.19526C5.67972 5.07023 5.51015 4.99999 5.33334 4.99999H4.66668ZM8 5.66666H7.33334V6.33332H8V5.66666ZM7.33334 4.99999C7.15653 4.99999 6.98696 5.07023 6.86194 5.19526C6.73691 5.32028 6.66667 5.48985 6.66667 5.66666V6.33332C6.66667 6.51014 6.73691 6.6797 6.86194 6.80473C6.98696 6.92975 7.15653 6.99999 7.33334 6.99999H8C8.17682 6.99999 8.34639 6.92975 8.47141 6.80473C8.59643 6.6797 8.66667 6.51014 8.66667 6.33332V5.66666C8.66667 5.48985 8.59643 5.32028 8.47141 5.19526C8.34639 5.07023 8.17682 4.99999 8 4.99999H7.33334ZM2.66668 8.33332H2.00001V8.99999H2.66668V8.33332ZM2.00001 7.66666C1.8232 7.66666 1.65363 7.73689 1.52861 7.86192C1.40359 7.98694 1.33335 8.15651 1.33335 8.33332V8.99999C1.33335 9.1768 1.40359 9.34637 1.52861 9.47139C1.65363 9.59642 1.8232 9.66665 2.00001 9.66665H2.66668C2.84349 9.66665 3.01306 9.59642 3.13808 9.47139C3.26311 9.34637 3.33335 9.1768 3.33335 8.99999V8.33332C3.33335 8.15651 3.26311 7.98694 3.13808 7.86192C3.01306 7.73689 2.84349 7.66666 2.66668 7.66666H2.00001ZM5.33334 8.33332H4.66668V8.99999H5.33334V8.33332ZM4.66668 7.66666C4.48987 7.66666 4.3203 7.73689 4.19527 7.86192C4.07025 7.98694 4.00001 8.15651 4.00001 8.33332V8.99999C4.00001 9.1768 4.07025 9.34637 4.19527 9.47139C4.3203 9.59642 4.48987 9.66665 4.66668 9.66665H5.33334C5.51015 9.66665 5.67972 9.59642 5.80475 9.47139C5.92977 9.34637 6.00001 9.1768 6.00001 8.99999V8.33332C6.00001 8.15651 5.92977 7.98694 5.80475 7.86192C5.67972 7.73689 5.51015 7.66666 5.33334 7.66666H4.66668Z" fill="#13AD68"/>
<path fill-rule="evenodd" clip-rule="evenodd" d="M0.666666 2C0.666666 1.91159 0.701785 1.82681 0.764297 1.7643C0.826809 1.70178 0.911593 1.66666 0.999999 1.66666H2.66666V0.999999H0.999999C0.734783 0.999999 0.480429 1.10536 0.292893 1.29289C0.105357 1.48043 0 1.73478 0 2V9.99999C0 10.2652 0.105357 10.5196 0.292893 10.7071C0.480429 10.8946 0.734783 11 0.999999 11H7.75166C7.60951 10.7964 7.50091 10.5713 7.42999 10.3333H0.999999C0.911593 10.3333 0.826809 10.2982 0.764297 10.2357C0.701785 10.1732 0.666666 10.0884 0.666666 9.99999V2ZM9.33332 7.35666C9.55442 7.32503 9.77889 7.32503 9.99999 7.35666V2C9.99999 1.73478 9.89463 1.48043 9.70709 1.29289C9.51956 1.10536 9.2652 0.999999 8.99999 0.999999H7.99999V1.66666H8.99999C9.08839 1.66666 9.17318 1.70178 9.23569 1.7643C9.2982 1.82681 9.33332 1.91159 9.33332 2V7.35666ZM3.33333 1.66666H6.85432V0.999999H3.33333V1.66666Z" fill="#13AD68"/>
<path fill-rule="evenodd" clip-rule="evenodd" d="M7.33334 0.999999H3.33333L3.33335 2C3.33335 2.0884 3.29823 2.17319 3.23571 2.2357C3.1732 2.29821 3.08842 2.33333 3.00001 2.33333C2.91161 2.33333 2.82682 2.29821 2.76431 2.2357C2.7018 2.17319 2.66668 2.0884 2.66668 2L2.66666 0.999999H0.999999C0.823188 0.999999 0.653635 1.07024 0.528611 1.19526C0.403587 1.32028 0.333349 1.48985 0.333349 1.66666V3.33333C0.333349 3.51014 0.403587 3.67971 0.528611 3.80473C0.653635 3.92976 0.823204 3.99999 1.00001 3.99999H9C9.17682 3.99999 9.34638 3.92976 9.47141 3.80473C9.59643 3.67971 9.66667 3.51014 9.66667 3.33333V1.66666C9.66667 1.48985 9.59643 1.32028 9.47141 1.19526C9.34638 1.07024 9.1768 0.999999 8.99999 0.999999H7.99999L8 2C8 2.0884 7.96489 2.17319 7.90237 2.2357C7.83986 2.29821 7.75508 2.33333 7.66667 2.33333C7.57827 2.33333 7.49348 2.29821 7.43097 2.2357C7.36846 2.17319 7.33334 2.0884 7.33334 2V0.999999Z" fill="#13AD68"/>
<path fill-rule="evenodd" clip-rule="evenodd" d="M9.99997 4.00001H0.66665V3.33335H9.99997V4.00001Z" fill="#13AD68"/>
<path d="M2 0.333333C2 0.244927 2.03512 0.160143 2.09763 0.097631C2.16014 0.035119 2.24492 0 2.33333 0C2.42174 0 2.50652 0.035119 2.56903 0.097631C2.63154 0.160143 2.66666 0.244927 2.66666 0.333333L2.66666 1.66666C2.66666 1.75507 2.63154 1.83985 2.56903 1.90237C2.50652 1.96488 2.42174 2 2.33333 2C2.24492 2 2.16014 1.96488 2.09763 1.90237C2.03512 1.83985 2 1.75507 2 1.66666V0.333333ZM6.66666 0.333333C6.66666 0.244927 6.70178 0.160143 6.76429 0.097631C6.8268 0.035119 6.91158 0 6.99999 0C7.0884 0 7.17318 0.035119 7.23569 0.097631C7.2982 0.160143 7.33332 0.244927 7.33332 0.333333V1.66666C7.33332 1.75507 7.2982 1.83985 7.23569 1.90237C7.17318 1.96488 7.0884 2 6.99999 2C6.91158 2 6.8268 1.96488 6.76429 1.90237C6.70178 1.83985 6.66666 1.75507 6.66666 1.66666V0.333333Z" fill="#13AD68"/>
</svg>
