<svg width="12" height="14" viewBox="0 0 12 14" fill="none" xmlns="http://www.w3.org/2000/svg">
<path d="M8.08333 7.21777L7.58333 7.21755V7.21777H8.08333ZM1 4.75L0.5 4.74715V4.75H1ZM2.14583 3.57143V3.07142L2.14282 3.07144L2.14583 3.57143ZM4.59687 3.57143L4.59766 3.07143H4.59687V3.57143ZM5.05234 3.76857L4.69048 4.11361L4.69093 4.11409L5.05234 3.76857ZM7.89479 6.74179L8.25716 6.39727L8.2562 6.39627L7.89479 6.74179ZM5.04167 3.57143C5.04167 3.29529 4.81781 3.07143 4.54167 3.07143C4.26552 3.07143 4.04167 3.29529 4.04167 3.57143H5.04167ZM4.54167 6.46429H4.04163L4.0417 6.47008L4.54167 6.46429ZM5.27083 7.21429L5.2647 7.71429H5.27083V7.21429ZM8.08333 7.71429C8.35948 7.71429 8.58333 7.49043 8.58333 7.21429C8.58333 6.93814 8.35948 6.71429 8.08333 6.71429V7.71429ZM3.91667 2.17857L3.41667 2.17572V2.17857H3.91667ZM5.0625 1V0.499991L5.05949 0.500009L5.0625 1ZM7.51042 1L7.51113 0.5H7.51042V1ZM7.96901 1.19714L8.33042 0.851624L8.32923 0.850389L7.96901 1.19714ZM10.8115 4.17036L10.45 4.51587L10.4508 4.51669L10.8115 4.17036ZM7.95833 1C7.95833 0.723858 7.73448 0.5 7.45833 0.5C7.18219 0.5 6.95833 0.723858 6.95833 1H7.95833ZM7.45833 3.89286H6.9583L6.95837 3.89865L7.45833 3.89286ZM8.1875 4.64286L8.18137 5.14286H8.1875V4.64286ZM7.58333 7.21777V11.8214H8.58333V7.21777H7.58333ZM7.58333 11.8214C7.58333 12.2226 7.28544 12.5 6.96484 12.5V13.5C7.88904 13.5 8.58333 12.7221 8.58333 11.8214H7.58333ZM6.96484 12.5H2.11979V13.5H6.96484V12.5ZM2.11979 12.5C1.79752 12.5 1.5 12.2222 1.5 11.8214H0.5C0.5 12.7225 1.19466 13.5 2.11979 13.5V12.5ZM1.5 11.8214V4.75H0.5V11.8214H1.5ZM1.49999 4.75285C1.50104 4.568 1.57301 4.39375 1.69607 4.26718L0.979073 3.5701C0.673123 3.88479 0.502509 4.30797 0.500008 4.74715L1.49999 4.75285ZM1.69607 4.26718C1.81867 4.14108 1.98166 4.07243 2.14885 4.07142L2.14282 3.07144C1.70332 3.07409 1.28547 3.25495 0.979073 3.5701L1.69607 4.26718ZM2.14583 4.07143H4.59687V3.07143H2.14583V4.07143ZM4.59609 4.07143C4.61257 4.07145 4.62924 4.07483 4.64526 4.08177L5.04249 3.16405C4.90211 3.10329 4.75086 3.07167 4.59766 3.07143L4.59609 4.07143ZM4.64526 4.08177C4.66132 4.08872 4.67683 4.0993 4.69048 4.11361L5.41421 3.42353C5.30905 3.31325 5.18283 3.22479 5.04249 3.16405L4.64526 4.08177ZM4.69093 4.11409L7.53338 7.0873L8.2562 6.39627L5.41376 3.42306L4.69093 4.11409ZM7.53243 7.0863C7.56361 7.1191 7.58336 7.166 7.58333 7.21755L8.58333 7.21798C8.58346 6.91371 8.46784 6.61887 8.25716 6.39727L7.53243 7.0863ZM4.04167 3.57143V6.46429H5.04167V3.57143H4.04167ZM4.0417 6.47008C4.04546 6.79442 4.17231 7.10708 4.39928 7.34054L5.11627 6.64346C5.07075 6.59663 5.04247 6.53051 5.04163 6.45849L4.0417 6.47008ZM4.39928 7.34054C4.62669 7.57445 4.93698 7.71023 5.2647 7.71425L5.27697 6.71432C5.21934 6.71362 5.16136 6.68984 5.11627 6.64346L4.39928 7.34054ZM5.27083 7.71429H8.08333V6.71429H5.27083V7.71429ZM4.41667 3.57143V2.17857H3.41667V3.57143H4.41667ZM4.41666 2.18142C4.41771 1.99657 4.48968 1.82232 4.61273 1.69575L3.89574 0.998676C3.58979 1.31337 3.41918 1.73655 3.41667 2.17572L4.41666 2.18142ZM4.61273 1.69575C4.73534 1.56965 4.89832 1.501 5.06551 1.49999L5.05949 0.500009C4.61998 0.502657 4.20214 0.683521 3.89574 0.998676L4.61273 1.69575ZM5.0625 1.5H7.51042V0.5H5.0625V1.5ZM7.5097 1.5C7.52705 1.50002 7.54457 1.50356 7.5614 1.51079L7.95634 0.592085C7.81574 0.531647 7.66439 0.50022 7.51113 0.500001L7.5097 1.5ZM7.5614 1.51079C7.57825 1.51804 7.59449 1.52905 7.60879 1.5439L8.32923 0.850389C8.22349 0.74054 8.09689 0.652509 7.95634 0.592085L7.5614 1.51079ZM7.6076 1.54266L10.45 4.51587L11.1729 3.82484L8.33042 0.851627L7.6076 1.54266ZM10.4508 4.51669C10.4808 4.54794 10.5 4.59299 10.5 4.6427L11.5 4.64301C11.5001 4.33896 11.3838 4.04445 11.1721 3.82403L10.4508 4.51669ZM10.5 4.64286V9.25H11.5V4.64286H10.5ZM10.5 9.25C10.5 9.65112 10.2021 9.92857 9.88151 9.92857V10.9286C10.8057 10.9286 11.5 10.1507 11.5 9.25H10.5ZM9.88151 9.92857H8.29167V10.9286H9.88151V9.92857ZM6.95833 1V3.89286H7.95833V1H6.95833ZM6.95837 3.89865C6.96213 4.22299 7.08897 4.53566 7.31594 4.76911L8.03294 4.07203C7.98741 4.02521 7.95913 3.95908 7.9583 3.88706L6.95837 3.89865ZM7.31594 4.76911C7.54335 5.00302 7.85365 5.1388 8.18137 5.14282L8.19363 4.14289C8.13601 4.14219 8.07803 4.11841 8.03294 4.07203L7.31594 4.76911ZM8.1875 5.14286H11V4.14286H8.1875V5.14286Z" fill="white"/>
</svg>
