<svg width="40" height="40" viewBox="0 0 40 40" fill="none" xmlns="http://www.w3.org/2000/svg">
<g filter="url(#filter0_d_95_134)">
<circle cx="20" cy="16" r="16" fill="url(#paint0_linear_95_134)"/>
</g>
<path d="M21.4507 24.2268C21.1095 24.2897 20.8065 24.2512 20.5417 24.1114C20.2769 23.9716 20.1201 23.7673 20.0714 23.4986L19.8699 22.4059C18.9376 22.4141 18.0939 22.2831 17.3385 22.013C16.5832 21.7429 15.9292 21.2904 15.3763 20.6555C15.195 20.4597 15.1471 20.2268 15.2326 19.9569C15.3181 19.687 15.5209 19.4656 15.8409 19.2926C16.1044 19.1458 16.3961 19.0962 16.7162 19.144C17.0362 19.1917 17.2984 19.3193 17.5026 19.5266C17.9314 19.9388 18.4292 20.2193 18.9962 20.3683C19.5632 20.5172 20.228 20.5217 20.9907 20.3817C21.8135 20.23 22.4837 19.9548 23.0011 19.5561C23.5186 19.1575 23.7208 18.6496 23.6079 18.0325C23.5057 17.4782 23.2039 17.0796 22.7026 16.8367C22.2013 16.5938 21.1099 16.4141 19.4285 16.2978C17.6238 16.1884 16.3455 15.8958 15.5938 15.4201C14.8421 14.9443 14.3874 14.2792 14.2299 13.4246C14.0401 12.3953 14.3141 11.5179 15.0518 10.7924C15.7896 10.0669 16.5926 9.58311 17.461 9.34112L17.2683 8.29594C17.2187 8.02673 17.2926 7.77959 17.4902 7.55453C17.6877 7.32947 17.9563 7.18596 18.296 7.12398C18.6372 7.06108 18.9402 7.09953 19.205 7.23934C19.4698 7.37914 19.6266 7.58341 19.6753 7.85214L19.868 8.89732C20.6481 8.85173 21.3462 8.92378 21.9622 9.11346C22.5781 9.30314 23.1061 9.57815 23.5461 9.93849C23.7646 10.1111 23.8423 10.3342 23.779 10.6078C23.7158 10.8815 23.5234 11.1053 23.2019 11.2792C22.9384 11.426 22.6482 11.4837 22.3312 11.4525C22.0141 11.4212 21.7047 11.3184 21.4028 11.1442C21.101 10.9706 20.7634 10.857 20.39 10.8033C20.0166 10.7497 19.5693 10.7706 19.0482 10.866C18.1652 11.0289 17.5214 11.3074 17.1169 11.7016C16.7123 12.0958 16.5527 12.5222 16.638 12.9806C16.7344 13.5032 17.1113 13.8595 17.7689 14.0493C18.4264 14.2392 19.5283 14.3635 21.0747 14.4223C22.5178 14.4837 23.6593 14.7933 24.4992 15.351C25.3391 15.9088 25.8418 16.6388 26.0073 17.5409C26.2146 18.6653 25.9509 19.5981 25.216 20.3395C24.4812 21.0808 23.5048 21.6375 22.2869 22.0094L22.4796 23.0546C22.5292 23.3238 22.4553 23.5709 22.2577 23.796C22.0602 24.0211 21.7911 24.1646 21.4507 24.2268Z" fill="#F5F5F5"/>
<defs>
<filter id="filter0_d_95_134" x="0" y="0" width="40" height="40" filterUnits="userSpaceOnUse" color-interpolation-filters="sRGB">
<feFlood flood-opacity="0" result="BackgroundImageFix"/>
<feColorMatrix in="SourceAlpha" type="matrix" values="0 0 0 0 0 0 0 0 0 0 0 0 0 0 0 0 0 0 127 0" result="hardAlpha"/>
<feOffset dy="4"/>
<feGaussianBlur stdDeviation="2"/>
<feComposite in2="hardAlpha" operator="out"/>
<feColorMatrix type="matrix" values="0 0 0 0 0 0 0 0 0 0 0 0 0 0 0 0 0 0 0.25 0"/>
<feBlend mode="normal" in2="BackgroundImageFix" result="effect1_dropShadow_95_134"/>
<feBlend mode="normal" in="SourceGraphic" in2="effect1_dropShadow_95_134" result="shape"/>
</filter>
<linearGradient id="paint0_linear_95_134" x1="4.91954" y1="8.16335" x2="36.7022" y2="9.5668" gradientUnits="userSpaceOnUse">
<stop stop-color="#13AD68"/>
<stop offset="1" stop-color="#54D59B"/>
</linearGradient>
</defs>
</svg>
