<svg width="37" height="37" viewBox="0 0 37 37" fill="none" xmlns="http://www.w3.org/2000/svg">
<path d="M28.5663 8.04471C28.1884 8.05829 27.8416 8.26186 27.6416 8.58759L16.9357 25.2539L10 19.1556C9.70215 18.8412 9.25533 18.7235 8.84408 18.8547C8.43505 18.9837 8.1305 19.3365 8.05937 19.7663C7.98823 20.1983 8.1594 20.6326 8.50619 20.8928L16.4378 27.8778C16.6867 28.0927 17.0157 28.1877 17.3381 28.1402C17.6626 28.0904 17.9494 27.9027 18.1272 27.6244L29.5622 9.8543C29.8067 9.49012 29.8267 9.01963 29.6156 8.63509C29.4044 8.25282 28.9976 8.02436 28.5663 8.04471Z" fill="#13AD68"/>
<circle cx="18.5" cy="18.5" r="18" stroke="url(#paint0_linear_83_45)"/>
<defs>
<linearGradient id="paint0_linear_83_45" x1="2.41304" y1="26.1413" x2="24.5326" y2="16.087" gradientUnits="userSpaceOnUse">
<stop stop-color="#13AD68"/>
<stop offset="1" stop-color="white" stop-opacity="0"/>
</linearGradient>
</defs>
</svg>
