<svg width="52" height="52" viewBox="0 0 52 52" fill="none" xmlns="http://www.w3.org/2000/svg">
<path d="M26 52C40.3594 52 52 40.3594 52 26C52 11.6406 40.3594 0 26 0C11.6406 0 0 11.6406 0 26C0 40.3594 11.6406 52 26 52Z" fill="#1877F2"/>
<path d="M27.9808 28.213H32.3343L33.1639 22.7832H27.9857V19.2617C27.9857 17.7767 28.7113 16.328 31.0283 16.328H33.3767V11.706C31.9946 11.4808 30.5977 11.358 29.1974 11.3384C24.9334 11.3384 22.1471 13.9384 22.1471 18.6474V22.7832H17.414V28.213H22.152V41.3363H27.9857L27.9808 28.213Z" fill="white"/>
</svg>
