<svg width="14" height="16" viewBox="0 0 14 16" fill="none" xmlns="http://www.w3.org/2000/svg">
<path d="M2.56629 6.99421L4.74909 5.16549C5.0269 4.93275 5.15212 4.60856 5.11101 4.31763C4.96426 3.38665 4.97287 2.38917 5.15773 1.35012C5.23907 0.892946 4.92569 0.51889 4.46133 0.51889L1.50633 0.51889C1.04197 0.51889 0.595487 0.892946 0.514147 1.35012C-0.874545 9.15542 4.42504 15.4811 12.3529 15.4811C12.8173 15.4811 13.2637 15.1071 13.3451 14.6499L13.8612 11.7489C13.9426 11.2917 13.6292 10.9176 13.1648 10.9176C12.1179 10.9176 11.1259 10.7514 10.235 10.4438C9.95726 10.3441 9.60623 10.4189 9.33835 10.6433L7.15555 12.472C4.98066 11.2668 3.36354 9.3466 2.56629 6.99421Z" fill="#13AD68"/>
</svg>
