<svg width="19" height="16" viewBox="0 0 19 16" fill="none" xmlns="http://www.w3.org/2000/svg">
<path d="M8.11696 0.022981C7.91262 0.0550978 7.61669 0.196412 7.42644 0.353785C7.28552 0.472617 7.2362 0.546486 7.08823 0.893348C6.99311 1.11495 6.71479 1.74123 6.4717 2.29043C6.22861 2.83642 5.84812 3.69715 5.62617 4.20138C5.40421 4.70562 4.97088 5.67876 4.6679 6.36927C3.92101 8.04899 3.84703 8.23526 3.80475 8.44081C3.74486 8.75556 3.86464 8.99964 4.12183 9.09599C4.30855 9.16344 4.43185 9.16023 4.56925 9.08315C4.67847 9.02534 4.8969 8.78446 4.8969 8.72665C4.8969 8.71059 5.1576 8.09395 5.4782 7.35847C5.7988 6.61978 6.35896 5.33511 6.71831 4.50649C7.79284 2.03028 8.08525 1.36225 8.10991 1.32693C8.13457 1.28839 17.1923 3.33423 17.1923 3.37919C17.1923 3.39204 17.0021 3.82562 16.766 4.3427C16.5335 4.85657 16.2376 5.50854 16.1107 5.79117C15.9839 6.0738 15.8359 6.39818 15.7831 6.5138C15.7303 6.62942 15.5788 6.96022 15.4484 7.25249C15.3181 7.54475 15.0926 8.03935 14.9517 8.35088C14.8072 8.66563 14.691 8.92899 14.691 8.93541C14.691 8.94505 14.6452 9.04461 14.5853 9.15702C14.5289 9.27264 14.4796 9.37541 14.4796 9.38505C14.4796 9.39468 14.4091 9.54884 14.3246 9.73191C14.24 9.91498 14.0498 10.3357 13.8983 10.6729C13.7468 11.0069 13.5601 11.4213 13.4861 11.5883C13.317 11.9544 12.6687 13.1395 12.4397 13.4992C12.2389 13.8172 11.788 14.2443 11.5202 14.3696C11.3441 14.4563 11.2947 14.4627 10.9565 14.4627C10.6007 14.4627 10.576 14.4563 10.3189 14.3439C10.118 14.254 9.9736 14.1544 9.75165 13.9585C9.4839 13.7144 9.44867 13.6726 9.37821 13.4671C9.26547 13.1395 9.24786 12.9051 9.31479 12.5775C9.3465 12.4265 9.39582 12.2402 9.42401 12.1696L9.47333 12.0411L9.29013 11.9929C9.18796 11.9672 8.9484 11.9062 8.75463 11.8613C6.66899 11.3538 5.7389 11.0583 3.66383 10.2394C2.61396 9.82505 0.972225 9.21162 0.958133 9.22767C0.947564 9.23731 0.915857 9.44928 0.891195 9.69979C0.771412 10.8239 0.986318 11.6686 1.56762 12.3366C1.85299 12.661 2.07846 12.7959 2.93456 13.1331C3.36437 13.3001 4.38958 13.7048 5.21397 14.0291C6.03836 14.3535 6.85571 14.6747 7.02834 14.7421C7.20449 14.8128 7.48986 14.9252 7.66249 14.9927C7.83864 15.0569 8.38471 15.2721 8.87794 15.4648C9.84325 15.847 10.1885 15.9401 10.7733 15.9851C11.6506 16.0557 12.3622 15.8759 12.9259 15.4423C13.2324 15.211 13.3487 15.0408 14.1378 13.6759C14.2153 13.5442 14.3774 13.268 14.4972 13.0656C14.8706 12.4361 15.008 12.1728 15.2793 11.5401C15.4238 11.2061 15.6598 10.6537 15.8078 10.3196C15.9522 9.98242 16.2129 9.38505 16.382 8.9868C17.5446 6.30183 18.221 4.74737 18.4958 4.13715C18.7812 3.50766 18.8552 3.26357 18.8587 2.94883C18.8622 2.73364 18.8482 2.64372 18.7883 2.53131C18.5874 2.13627 18.1083 1.89539 17.1395 1.69948C16.6251 1.59671 13.5143 0.999334 12.9294 0.890136C12.7462 0.858019 12.4538 0.800209 12.2777 0.764881C12.105 0.729552 11.6999 0.652472 11.3793 0.591449C10.569 0.434077 8.60666 0.0550978 8.43756 0.022981C8.36005 0.0101342 8.28959 -0.00271253 8.27902 0.000499152C8.26845 0.000499152 8.19799 0.0133459 8.11696 0.022981Z" fill="#13AD68"/>
<path d="M8.70883 3.00664C8.62428 3.03876 8.4904 3.12226 8.41289 3.19292C7.80693 3.72606 8.26845 4.6446 9.10693 4.58037C9.5297 4.54825 9.84677 4.26562 9.92076 3.85774C9.97008 3.56869 9.74108 3.1865 9.4381 3.04197C9.23729 2.94883 8.89907 2.93277 8.70883 3.00664Z" fill="#13AD68"/>
<path d="M11.4498 4.04723C11.3863 4.14036 11.2983 4.26883 11.2525 4.32985C11.0305 4.6446 10.8861 4.88226 10.9037 4.90475C10.9107 4.9208 10.9706 4.94007 11.034 4.95292C11.0975 4.96256 11.2313 4.99146 11.3265 5.01715C11.5695 5.07818 13.4368 5.54066 13.8384 5.63701C14.0181 5.68197 14.1872 5.71088 14.2118 5.70124C14.2506 5.68519 14.9023 4.75058 14.9023 4.70562C14.9023 4.69277 14.8812 4.68314 14.8565 4.68314C14.8284 4.68314 14.3668 4.57394 13.8243 4.44226C12.5666 4.13073 11.6928 3.91555 11.6224 3.89306C11.5801 3.88343 11.5308 3.92839 11.4498 4.04723Z" fill="#13AD68"/>
<path d="M7.82807 5.48285C7.37007 5.62737 7.11994 6.08665 7.27143 6.50095C7.53918 7.23643 8.69122 7.24928 8.96601 6.51701C9.12103 6.1027 8.87794 5.64022 8.43051 5.48606C8.19799 5.40577 8.07116 5.40577 7.82807 5.48285Z" fill="#13AD68"/>
<path d="M10.4739 6.63263C10.1779 7.05658 9.97008 7.36811 9.97008 7.38738C9.97008 7.39701 10.0124 7.41307 10.0687 7.4195C10.1533 7.43234 10.3611 7.48373 11.4498 7.75351C11.6153 7.79205 12.0522 7.89804 12.4186 7.98796C12.7885 8.07789 13.1373 8.1614 13.1972 8.18067L13.3064 8.20957L13.6481 7.70855C13.8349 7.43555 13.9758 7.2011 13.9617 7.18825C13.9335 7.16577 13.6481 7.0919 12.5771 6.83176C12.2953 6.76431 11.7739 6.63584 11.4145 6.54913C11.0552 6.4592 10.7381 6.38533 10.7029 6.38533C10.6712 6.38533 10.576 6.48811 10.4739 6.63263Z" fill="#13AD68"/>
<path d="M7.08118 7.92694C6.63376 7.98154 6.32725 8.30913 6.32725 8.72986C6.32725 9.19877 6.69717 9.53279 7.22211 9.53279C7.59202 9.53279 7.85625 9.37862 8.01831 9.06709C8.17333 8.7684 8.11344 8.44081 7.85625 8.17103C7.66249 7.97191 7.40178 7.8884 7.08118 7.92694Z" fill="#13AD68"/>
<path d="M9.17035 9.00928C9.1175 9.09599 8.96601 9.3176 8.83566 9.50709C8.70531 9.69658 8.61018 9.85717 8.62428 9.8668C8.64894 9.87965 10.4386 10.3196 11.2666 10.5156C11.5202 10.5766 11.7739 10.6408 11.8267 10.6601C11.9324 10.6954 11.9817 10.6569 12.1191 10.4321C12.1579 10.371 12.2847 10.1815 12.401 10.0145C12.5172 9.84753 12.6088 9.69337 12.6124 9.6741C12.6124 9.65162 12.5701 9.62914 12.5172 9.6195C12.408 9.60344 11.9923 9.50388 10.8861 9.23089C10.488 9.13132 9.98769 9.00928 9.77279 8.95468C9.55788 8.90329 9.35707 8.85833 9.32536 8.85833C9.29365 8.85833 9.22319 8.92578 9.17035 9.00928Z" fill="#13AD68"/>
</svg>
