<svg width="52" height="52" viewBox="0 0 52 52" fill="none" xmlns="http://www.w3.org/2000/svg">
<path d="M26 52C40.3594 52 52 40.3594 52 26C52 11.6406 40.3594 0 26 0C11.6406 0 0 11.6406 0 26C0 40.3594 11.6406 52 26 52Z" fill="url(#paint0_radial_865_74)"/>
<path fill-rule="evenodd" clip-rule="evenodd" d="M26 12.8186C29.5795 12.8186 30.0294 12.8331 31.4346 12.8984C32.5282 12.9193 33.6103 13.1263 34.6344 13.5103C35.5097 13.8497 36.3046 14.3678 36.9684 15.0316C37.6322 15.6954 38.1503 16.4903 38.4897 17.3656C38.8729 18.3874 39.0798 19.467 39.1016 20.5581C39.1669 21.9633 39.1814 22.4132 39.1814 25.9927C39.1814 29.5723 39.1669 30.0221 39.1016 31.4273C39.0807 32.5209 38.8737 33.603 38.4897 34.6272C38.1503 35.5024 37.6322 36.2974 36.9684 36.9612C36.3046 37.625 35.5097 38.1431 34.6344 38.4824C33.613 38.8681 32.5334 39.0775 31.4419 39.1016C30.0367 39.1669 29.5868 39.1814 26.0073 39.1814C22.4277 39.1814 21.9779 39.1669 20.5727 39.1016C19.4791 39.0807 18.397 38.8737 17.3728 38.4897C16.4975 38.1503 15.7026 37.6322 15.0388 36.9684C14.375 36.3046 13.8569 35.5097 13.5176 34.6344C13.1319 33.613 12.9225 32.5334 12.8984 31.4419C12.8331 30.0367 12.8186 29.5868 12.8186 26.0073C12.8186 22.4277 12.8331 21.9779 12.8984 20.5727C12.9193 19.4791 13.1263 18.397 13.5103 17.3728C13.8488 16.4962 14.3665 15.6999 15.0304 15.0348C15.6942 14.3697 16.4896 13.8505 17.3656 13.5103C18.3874 13.1271 19.467 12.9202 20.5581 12.8984C21.9706 12.8331 22.4205 12.8186 26 12.8186ZM31.3209 15.2711C29.9327 15.2082 29.5142 15.1937 26 15.1937C22.4858 15.1937 22.0625 15.2082 20.6791 15.2711C19.8419 15.2796 19.0123 15.4318 18.2266 15.7209C17.6571 15.9405 17.14 16.2769 16.7084 16.7084C16.2769 17.14 15.9405 17.6571 15.7209 18.2266C15.4315 19.0107 15.2786 19.8385 15.2687 20.6742C15.2058 22.0625 15.1913 22.4809 15.1913 25.9952C15.1913 29.5094 15.2058 29.9327 15.2687 31.3161C15.2774 32.1551 15.4304 32.9863 15.7209 33.7734C15.9405 34.3429 16.2769 34.86 16.7084 35.2916C17.14 35.7231 17.6571 36.0595 18.2266 36.2791C19.0107 36.5685 19.8385 36.7214 20.6742 36.7313C22.0625 36.7942 22.4809 36.8087 25.9952 36.8087C29.5094 36.8087 29.9327 36.7942 31.3161 36.7313C32.1551 36.7226 32.9863 36.5696 33.7734 36.2791C34.3429 36.0595 34.86 35.7231 35.2916 35.2916C35.7231 34.86 36.0595 34.3429 36.2791 33.7734C36.5685 32.9893 36.7214 32.1615 36.7313 31.3258C36.7942 29.9375 36.8087 29.5191 36.8087 26.0048C36.8087 22.4906 36.7942 22.0673 36.7313 20.6839C36.7226 19.8449 36.5696 19.0137 36.2791 18.2266C36.0595 17.6571 35.7231 17.14 35.2916 16.7084C34.86 16.2769 34.3429 15.9405 33.7734 15.7209C32.9892 15.4323 32.1613 15.2802 31.3258 15.2711H31.3209ZM26 30.3946C26.8692 30.3946 27.7188 30.1369 28.4415 29.654C29.1642 29.1711 29.7275 28.4848 30.0601 27.6817C30.3927 26.8787 30.4797 25.9951 30.3102 25.1427C30.1406 24.2902 29.7221 23.5071 29.1075 22.8925C28.4929 22.2779 27.7098 21.8594 26.8573 21.6898C26.0049 21.5203 25.1213 21.6073 24.3183 21.9399C23.5152 22.2725 22.8289 22.8358 22.346 23.5585C21.8631 24.2812 21.6054 25.1308 21.6054 26C21.606 27.1653 22.0692 28.2827 22.8933 29.1067C23.7173 29.9308 24.8347 30.394 26 30.3946ZM26 19.2303C27.3394 19.2303 28.6487 19.6275 29.7624 20.3716C30.876 21.1158 31.744 22.1734 32.2566 23.4108C32.7692 24.6483 32.9033 26.0099 32.642 27.3236C32.3807 28.6372 31.7357 29.8439 30.7886 30.791C29.8415 31.7381 28.6348 32.3831 27.3212 32.6444C26.0075 32.9057 24.6459 32.7716 23.4084 32.259C22.171 31.7465 21.1133 30.8785 20.3692 29.7648C19.6251 28.6511 19.2279 27.3418 19.2279 26.0024C19.2279 24.2063 19.9414 22.4838 21.2114 21.2138C22.4814 19.9438 24.2039 19.2303 26 19.2303ZM34.6175 18.9643C34.6175 19.2771 34.5247 19.5829 34.3509 19.8431C34.1771 20.1032 33.9301 20.3059 33.641 20.4256C33.352 20.5454 33.034 20.5767 32.7271 20.5157C32.4203 20.4546 32.1385 20.304 31.9172 20.0828C31.696 19.8615 31.5454 19.5797 31.4843 19.2729C31.4233 18.966 31.4546 18.648 31.5744 18.359C31.6941 18.0699 31.8968 17.8229 32.1569 17.6491C32.4171 17.4753 32.7229 17.3825 33.0357 17.3825C33.4552 17.3825 33.8576 17.5492 34.1542 17.8458C34.4508 18.1424 34.6175 18.5448 34.6175 18.9643Z" fill="white"/>
<defs>
<radialGradient id="paint0_radial_865_74" cx="0" cy="0" r="1" gradientUnits="userSpaceOnUse" gradientTransform="translate(13.253 50.8039) rotate(-38.74) scale(73.8231 47.2468)">
<stop stop-color="#F9D27A"/>
<stop offset="0.05" stop-color="#F8C871"/>
<stop offset="0.14" stop-color="#F5AD58"/>
<stop offset="0.25" stop-color="#EF8130"/>
<stop offset="0.26" stop-color="#EF7E2D"/>
<stop offset="0.36" stop-color="#F04C3E"/>
<stop offset="0.38" stop-color="#ED4A45"/>
<stop offset="0.49" stop-color="#D43E79"/>
<stop offset="0.55" stop-color="#CA398E"/>
<stop offset="0.7" stop-color="#8D3CC8"/>
<stop offset="0.9" stop-color="#304DF0"/>
</radialGradient>
</defs>
</svg>
