<svg width="439" height="439" viewBox="0 0 439 439" fill="none" xmlns="http://www.w3.org/2000/svg">
<circle cx="219.5" cy="219.5" r="211.5" fill="white" stroke="#13AD68" stroke-width="16"/>
<path d="M172.495 70.2283C172.412 70.339 174.562 72.6358 177.292 75.3201C181.979 79.9415 183.303 81.5465 182.944 82.1553C182.696 82.5427 181.814 82.4874 181.373 82.0723C181.18 81.8786 180.242 81.2421 179.332 80.661C178.395 80.0799 177.402 79.4157 177.099 79.1667C176.492 78.6132 175.665 78.0874 175.086 77.8107C174.866 77.7 174.618 77.5616 174.535 77.4509C174.452 77.3679 173.846 77.0635 173.156 76.7591C172.467 76.4547 171.86 76.1503 171.778 76.0396C171.557 75.7629 169.131 74.7113 166.842 73.9088C164.995 73.2446 164.333 73.1616 161.438 73.1893C159.343 73.1893 157.523 73.3553 156.476 73.6321C155.566 73.8811 153.967 74.2962 152.891 74.5453C151.844 74.7667 150.603 75.0987 150.134 75.2094C147.322 76.0396 142.028 77.4509 140.346 77.8384C138.665 78.2534 135.577 79.1113 132.213 80.1075C125.293 82.1553 123.721 82.5981 122.149 82.9855C121.626 83.0962 120.826 83.3453 120.357 83.4836C119.558 83.788 116.304 84.7566 113.354 85.6145C112.555 85.8358 111.645 86.0295 111.369 86.0295C111.066 86.0295 110.625 86.1402 110.349 86.2786C109.66 86.6107 108.088 87.1641 106.985 87.4132C105.083 87.8836 101.94 88.8245 101.002 89.2119C100.451 89.4333 99.7891 89.627 99.4858 89.627C99.1825 89.627 97.418 90.1251 95.5707 90.7063C93.751 91.3151 91.6832 91.9515 90.9939 92.1176C88.8433 92.6987 87.0236 93.2798 86.0862 93.6673C85.5899 93.8887 84.8455 94.0547 84.4319 94.0547C83.9908 94.0547 83.5496 94.1654 83.3842 94.3037C83.2463 94.4144 82.5295 94.7188 81.7575 94.9679C81.0131 95.1893 79.7448 95.5767 78.9728 95.8258C78.1732 96.0748 77.3185 96.2685 77.0152 96.2685C76.7395 96.2685 76.3811 96.3792 76.2432 96.4899C75.9675 96.7113 69.1147 98.5278 65.9991 99.3856C62.7181 100.299 61.312 100.742 61.0363 100.963C60.8984 101.074 60.4848 101.184 60.1264 101.184C59.768 101.184 59.2166 101.323 58.9133 101.489C58.0861 101.932 54.0753 102.818 53.2482 102.818C52.5313 102.818 51.7593 103.372 51.7593 103.898C51.7593 104.064 51.649 104.202 51.4836 104.202C51.3457 104.202 51.1528 104.506 51.0425 104.894C50.9598 105.281 50.7668 105.586 50.6289 105.586C50.491 105.586 50.3808 105.752 50.3808 105.973C50.3808 106.167 50.0223 106.776 49.5536 107.274C49.1125 107.799 48.7265 108.298 48.7265 108.436C48.7265 108.63 46.5483 112.255 46.2451 112.504C46.0796 112.67 45.6109 113.445 44.8389 114.856C44.5356 115.465 44.1772 116.018 44.0669 116.101C43.7912 116.323 43.2122 117.291 43.0468 117.817C42.9365 118.094 42.7711 118.315 42.6332 118.315C42.4954 118.315 42.3851 118.481 42.3851 118.703C42.3851 118.924 42.2197 119.284 41.9991 119.477C41.8061 119.699 41.5304 120.142 41.4477 120.474C41.3374 120.806 41.1168 121.082 40.9789 121.082C40.8411 121.082 40.7308 121.276 40.7308 121.498C40.7308 121.719 40.6205 121.913 40.4827 121.913C40.3448 121.913 40.1518 122.217 40.0691 122.604C39.9588 122.992 39.7658 123.296 39.628 123.296C39.4625 123.296 39.3522 123.49 39.3522 123.711C39.3522 123.933 39.242 124.126 39.0765 124.126C38.9387 124.126 38.8008 124.293 38.8008 124.514C38.8008 124.735 38.6354 125.095 38.4148 125.289C38.2218 125.51 37.9461 125.953 37.8634 126.285C37.7531 126.617 38.1245 126.92 37.9867 126.92C37.8488 126.92 37.7385 127.114 37.7385 127.335C37.7385 127.557 37.6283 127.75 37.4628 127.75C37.325 127.75 37.1871 127.916 37.1871 128.138C37.1871 128.359 37.0217 128.719 36.8563 128.913C36.3324 129.466 35.8086 130.296 35.6431 130.85C35.5328 131.126 35.3674 131.348 35.2571 131.348C35.1193 131.348 34.9538 131.708 34.8436 132.178C34.7333 132.621 34.5403 133.008 34.43 133.008C34.2921 133.008 34.0991 133.479 33.9888 134.032C32.7777 141.083 28.9797 143.318 32.5 142.5C33.0239 142.445 33.851 142.223 34.2921 142.002C34.7608 141.808 35.6156 141.504 36.2221 141.365C36.8287 141.199 37.8764 140.923 38.5657 140.729C39.255 140.535 40.3027 140.314 40.9092 140.203C41.9845 140.009 45.0725 139.207 47.8021 138.432C49.6769 137.879 55.4117 136.412 58.1413 135.775C58.6651 135.637 59.7956 135.333 60.6227 135.084C61.4498 134.835 62.6354 134.503 63.242 134.392C65.0617 134.004 66.7987 133.534 67.2398 133.313C67.4879 133.174 73.5137 131.662 74.1754 131.551C74.8371 131.441 75.5815 131.247 75.8297 131.136C76.0502 130.998 76.9877 130.749 77.8975 130.583C78.8074 130.389 80.1859 130.057 80.9304 129.863C81.7024 129.642 82.9982 129.282 83.8253 129.033C84.6525 128.812 85.7278 128.48 86.1689 128.314C86.6376 128.175 87.4923 127.926 88.0989 127.788C88.7055 127.677 89.891 127.373 90.7182 127.124C92.4551 126.626 93.5029 126.349 95.8189 125.796C98.7138 125.104 104.201 123.554 107.261 122.585C108.253 122.281 109.274 122.004 109.549 122.004C109.797 122.004 110.239 121.894 110.514 121.755C110.762 121.617 111.92 121.285 113.051 121.036C115.174 120.565 117.297 120.012 119.254 119.375C119.861 119.182 121.102 118.794 122.012 118.545C122.921 118.296 123.886 117.992 124.135 117.826C124.41 117.687 124.934 117.577 125.32 117.577C125.706 117.577 126.23 117.466 126.506 117.328C126.974 117.106 128.491 116.636 131.662 115.75C132.571 115.501 133.867 115.114 134.529 114.92C135.218 114.699 135.99 114.533 136.266 114.533C136.542 114.533 136.762 114.45 136.762 114.311C136.762 114.201 137.451 113.952 138.306 113.73C140.76 113.177 140.788 113.232 140.402 118.877C140.236 121.423 139.905 125.463 139.685 127.816C138.858 136.09 138.609 141.043 138.637 148.985C138.637 156.734 138.775 158.892 139.685 166.281C139.905 168.19 140.181 170.709 140.264 171.871C140.374 173.421 140.539 174.14 140.898 174.444C141.449 174.943 144.758 175.136 160.473 175.662C164.94 175.828 169.158 176.022 169.848 176.105C170.537 176.188 174.314 176.354 178.257 176.52C187.218 176.824 195.103 177.267 198.522 177.627C199.956 177.765 203.181 178.097 205.69 178.346C212.831 179.038 215.147 179.592 215.506 180.754C215.864 181.889 214.182 182.719 210.681 183.161C209.688 183.272 207.51 183.604 205.828 183.853C204.174 184.102 201.5 184.434 199.9 184.545C198.301 184.683 196.316 184.933 195.489 185.099C194.662 185.265 193.283 185.541 192.456 185.707C191.629 185.846 190.333 186.122 189.561 186.344C188.817 186.538 187.576 186.842 186.804 187.008C184.819 187.478 182.751 188.087 179.636 189.166C178.119 189.692 176.465 190.246 175.941 190.356C175.445 190.495 174.893 190.716 174.728 190.882C174.562 191.048 174.204 191.187 173.928 191.187C173.653 191.187 173.211 191.297 172.936 191.436C172.688 191.546 172.026 191.851 171.502 192.1C170.978 192.321 169.489 193.013 168.193 193.622C166.898 194.203 165.354 194.922 164.747 195.172C164.14 195.448 163.038 195.974 162.266 196.334C161.521 196.694 159.784 197.496 158.406 198.105C157.055 198.741 155.731 199.35 155.511 199.488C155.29 199.627 154.298 200.153 153.305 200.623C151.568 201.509 151.43 201.536 148.066 201.509C146.164 201.509 142.525 201.37 139.933 201.177C137.369 201.01 133.068 200.734 130.421 200.595C127.774 200.429 123.914 200.18 121.874 200.042C115.284 199.599 108.722 199.239 99.8167 198.797C88.8709 198.271 87.0788 198.188 79.1382 197.662C75.5815 197.441 69.0747 197.136 64.6633 196.998C60.2795 196.86 54.0759 196.61 50.8777 196.444C47.707 196.306 42.7717 196.168 39.9319 196.168H34.8036L34.4728 197.109C34.2798 197.773 34.197 201.287 34.2246 208.288C34.2522 213.906 34.1695 218.666 34.0592 218.859C33.7835 219.33 32.4876 219.192 23.3064 217.78C22.2587 217.614 20.5217 217.337 19.4464 217.171C18.3987 217.033 17.1856 216.839 16.772 216.756C16.0276 216.618 16 216.646 16 217.836V219.081L17.3234 219.247C18.0403 219.33 20.1081 219.524 21.9278 219.69C26.5047 220.077 27.9935 220.658 30.2268 222.927C31.6053 224.339 31.9638 225.031 33.6732 230.067C33.811 230.51 34.1695 232.253 34.4728 233.941C34.7485 235.602 35.1069 237.345 35.2723 237.76C35.4377 238.203 35.5756 239.088 35.5756 239.753C35.5756 240.417 35.7135 241.302 35.8789 241.745C36.0443 242.16 36.2925 243.322 36.4303 244.319C36.5957 245.315 36.7612 246.56 36.8439 247.114C37.0645 248.553 36.513 248.912 34.6658 248.525C33.8662 248.359 32.5428 248.082 31.7156 247.944C30.8885 247.778 29.4824 247.501 28.6001 247.335C27.7178 247.141 26.9458 247.058 26.8631 247.141C26.5047 247.529 29.7581 248.968 37.5056 251.818C39.2426 252.454 41.338 253.285 42.11 253.672C43.7367 254.419 46.6868 257.38 47.5691 259.124C47.8724 259.732 48.2033 260.258 48.3411 260.314C48.4514 260.369 48.5341 260.59 48.5341 260.839C48.5341 261.061 48.6995 261.642 48.9201 262.112C49.1131 262.61 49.4991 263.551 49.7748 264.243C50.023 264.935 50.3538 265.71 50.4917 265.959C50.6295 266.236 50.7398 266.651 50.7398 266.9C50.7398 267.149 50.9052 267.73 51.1258 268.2C51.3188 268.698 51.7048 269.778 51.9529 270.608C53.1661 274.814 53.1937 275.451 52.1735 276.696C51.6497 277.36 49.3061 277.747 45.6391 277.803C43.7643 277.83 43.7367 277.83 44.4536 278.246C45.2256 278.633 46.7695 279.02 49.637 279.463C52.0081 279.851 55.3718 280.487 57.6326 280.985C58.763 281.234 60.3898 281.539 61.2169 281.677C62.044 281.815 63.5329 282.064 64.5254 282.23C65.518 282.396 66.5657 282.618 66.869 282.756C67.1723 282.895 67.9719 283.088 68.6611 283.171C69.8467 283.31 72.1903 283.752 76.2432 284.61C77.3185 284.832 78.9452 285.136 79.9102 285.274C80.8476 285.413 82.5295 285.745 83.6323 285.966C85.7002 286.437 89.2293 287.101 91.821 287.488C93.8061 287.793 96.3978 288.291 97.611 288.595C98.1348 288.734 99.7615 289.038 101.195 289.287C102.629 289.536 104.559 289.896 105.469 290.117C106.379 290.311 108.06 290.643 109.191 290.809C110.321 290.975 112.141 291.279 113.189 291.501C114.264 291.695 116.249 292.082 117.6 292.331C118.979 292.552 120.578 292.885 121.184 293.023C121.791 293.134 123.583 293.466 125.182 293.715C128.132 294.157 131.606 294.822 133.591 295.264C135.191 295.624 137.782 296.095 139.381 296.344C140.153 296.454 141.394 296.676 142.139 296.842C142.911 296.98 144.455 297.285 145.585 297.451C146.715 297.644 148.397 297.949 149.335 298.17C150.245 298.391 151.32 298.557 151.706 298.557C152.092 298.557 152.754 298.668 153.195 298.807C153.912 299.028 159.646 300.107 166.126 301.214C167.504 301.463 169.048 301.768 169.572 301.906C170.096 302.017 172.164 302.404 174.121 302.708C176.106 303.04 178.643 303.483 179.773 303.705C180.904 303.926 182.641 304.203 183.633 304.341C184.626 304.479 185.977 304.729 186.666 304.895C189.258 305.531 192.015 306.029 192.815 306.029C193.283 306.029 194.028 306.14 194.496 306.306C194.965 306.444 197.474 306.942 200.038 307.413C206.683 308.63 207.51 308.769 209.826 309.212C210.956 309.433 212.335 309.682 212.859 309.737C215.947 310.18 217.491 310.457 218.18 310.706C219.145 311.093 225.073 311.093 226.838 310.734C227.554 310.595 229.898 310.318 232.021 310.152C237.645 309.71 240.154 309.488 243.877 309.101C249.005 308.603 252.506 308.271 254.767 308.105C255.898 307.994 257.58 307.828 258.489 307.662C259.399 307.523 260.943 307.413 261.936 307.413C262.928 307.413 264.169 307.302 264.693 307.136C265.217 306.998 267.34 306.749 269.38 306.583C271.42 306.417 273.736 306.223 274.481 306.14C275.253 306.085 278.148 305.835 280.96 305.614C283.772 305.365 286.915 305.061 287.936 304.895C288.983 304.729 291.272 304.479 293.036 304.341C297.723 303.981 303.513 303.456 311.013 302.708C312.446 302.57 314.68 302.376 315.975 302.293C317.271 302.21 319.256 302.017 320.387 301.878C321.517 301.74 324.578 301.408 327.142 301.186C329.734 300.937 332.877 300.633 334.173 300.495C335.468 300.329 338.639 300.024 341.203 299.803C343.795 299.554 346.883 299.249 348.096 299.083C349.309 298.917 351.735 298.668 353.472 298.53C355.209 298.419 358.187 298.115 360.09 297.866C361.992 297.644 365.135 297.34 367.12 297.174C369.078 297.008 371.449 296.759 372.359 296.62C373.269 296.482 374.702 296.344 375.557 296.344C376.384 296.344 377.763 296.233 378.59 296.067C379.417 295.929 381.375 295.679 382.974 295.513C384.573 295.347 387.358 295.043 389.177 294.794C390.997 294.545 393.23 294.296 394.14 294.213C395.05 294.13 396.015 293.908 396.291 293.715C396.704 293.41 396.621 293.355 395.463 293.217C394.747 293.106 391.162 292.912 387.523 292.746C383.884 292.58 379.665 292.331 378.149 292.193C376.632 292.054 372.965 291.861 370.015 291.75C364.418 291.584 363.122 291.307 363.122 290.311C363.15 290.062 363.646 289.453 364.253 289.01C364.859 288.54 365.521 288.014 365.742 287.82C365.935 287.654 366.21 287.488 366.321 287.488C366.431 287.488 366.762 287.212 367.093 286.852C367.837 286.049 372.083 283.061 372.469 283.061C372.634 283.061 372.772 282.95 372.772 282.839C372.772 282.286 380.134 279.159 383.663 278.19C385.042 277.803 386.806 277.388 387.633 277.222C388.46 277.083 389.232 276.89 389.37 276.807C389.618 276.641 390.556 276.475 394.278 275.866C397.421 275.368 397.504 275.312 397.669 273.015C397.862 270.248 398 254.917 398 237.539C398 224.809 397.917 222.512 397.504 220.105C396.925 216.812 396.373 214.21 396.098 213.463C395.601 212.107 393.561 208.15 393.065 207.514C391.631 205.798 388.626 202.809 388.295 202.809C388.102 202.809 387.936 202.699 387.936 202.588C387.936 202.449 387.468 202.117 386.916 201.813C386.337 201.536 385.731 201.149 385.565 200.983C385.372 200.817 384.435 200.291 383.47 199.793C381.264 198.658 380.823 198.382 379.968 197.607C379.582 197.275 379.169 196.998 379.031 196.998C378.921 196.998 378.259 196.417 377.597 195.697C375.971 193.982 375.061 191.657 374.757 188.558C374.509 186.122 373.792 183.577 372.717 181.363C372 179.868 371.008 178.07 370.842 177.904C370.76 177.821 370.153 176.907 369.464 175.856C368.802 174.804 368.113 173.808 367.947 173.642C367.782 173.476 367.093 172.59 366.431 171.677C365.742 170.764 364.832 169.629 364.391 169.187L363.591 168.356L330.892 168.19C312.915 168.107 297.751 167.941 297.227 167.803C296.372 167.609 295.6 167 295.573 166.53C295.573 166.309 298.109 165.451 298.688 165.451C298.909 165.451 299.24 165.257 299.433 165.036C299.736 164.676 299.653 164.621 298.992 164.621C298.054 164.621 291.685 163.873 289.479 163.514C288.652 163.348 287.274 163.237 286.447 163.209C285.619 163.209 284.269 163.071 283.441 162.933C281.87 162.656 278.672 162.351 272.551 161.881C269.104 161.604 266.954 161.411 260.006 160.746C253.223 160.082 251.762 159.916 248.702 159.501C246.965 159.252 244.483 158.948 243.187 158.837C238.445 158.367 230.946 155.793 228.905 153.884C228.712 153.717 228.464 153.551 228.354 153.551C228.051 153.551 225.238 150.756 223.998 149.262C223.391 148.487 222.15 146.882 221.268 145.665C220.386 144.447 219.586 143.395 219.476 143.312C219.366 143.229 219.062 142.731 218.759 142.206C218.483 141.68 218.18 141.182 218.097 141.099C217.877 140.877 216.03 138.165 214.017 135.149C212.997 133.627 211.949 132.133 211.673 131.828C211.425 131.551 210.267 129.919 209.137 128.231C208.034 126.57 206.876 124.938 206.6 124.606C205.939 123.858 205.442 123.084 205.249 122.475C205.139 122.226 204.974 122.004 204.863 122.004C204.753 122.004 204.588 121.783 204.477 121.506C204.312 120.98 203.733 120.012 203.457 119.79C203.154 119.541 202.106 117.466 202.106 117.106C202.106 116.913 201.996 116.746 201.83 116.746C201.693 116.746 201.555 116.58 201.555 116.359C201.555 116.165 201.362 115.612 201.141 115.197C200.921 114.754 200.728 113.73 200.728 112.928C200.728 111.655 200.838 111.378 201.637 110.575C202.216 110.022 203.237 109.496 204.339 109.136C205.994 108.638 206.793 108.611 218.097 108.666C224.687 108.721 231.8 108.86 233.951 108.998C239.189 109.385 265.658 109.828 267.036 109.579C268.084 109.385 268.001 109.358 265.796 109.026C264.5 108.832 262.901 108.583 262.212 108.445C261.522 108.306 259.482 108.002 257.662 107.753C246.909 106.369 244.097 105.567 246.358 104.515C246.909 104.266 248.123 104.294 251.817 104.681C254.436 104.93 258.848 105.262 261.66 105.401C269.077 105.788 279.03 106.646 280.822 107.061C281.429 107.199 282.614 107.338 283.441 107.338C284.269 107.338 285.84 107.504 286.888 107.725C287.963 107.919 289.948 108.251 291.299 108.417C293.67 108.749 295.518 109.053 297.916 109.579C298.523 109.69 299.764 109.939 300.673 110.105C301.556 110.271 302.438 110.52 302.603 110.631C302.741 110.769 303.679 110.963 304.671 111.046C305.636 111.157 306.629 111.35 306.877 111.489C307.098 111.599 308.063 111.793 309.028 111.904C311.123 112.153 311.261 111.765 309.551 110.465C308.917 109.994 307.842 109.053 307.153 108.417C306.491 107.78 305.498 106.978 304.947 106.646C304.423 106.286 303.679 105.705 303.293 105.345C302.907 104.985 302.162 104.377 301.638 104.017C301.115 103.657 300.315 102.993 299.874 102.578C299.46 102.135 298.633 101.443 298.082 101.028C297.53 100.613 297.034 100.226 296.951 100.143C296.869 100.06 295.876 99.3125 294.746 98.4824C293.615 97.6522 292.485 96.7666 292.209 96.5452C291.327 95.7704 290.913 95.4383 290.748 95.4383C290.665 95.4383 290.251 95.1339 289.838 94.7465C289.424 94.3591 288.956 94.0547 288.763 94.0547C288.57 94.0547 288.321 93.8887 288.211 93.6949C287.908 93.2245 286.033 91.8409 285.702 91.8409C285.537 91.8409 285.371 91.7578 285.316 91.6195C285.206 91.3704 282.973 89.627 282.752 89.627C282.669 89.627 282.146 89.3503 281.567 88.9905C280.464 88.271 278.01 87.4132 277.155 87.4132C276.852 87.4132 275.914 87.1088 275.06 86.7214C274.205 86.3339 273.295 86.0295 273.075 86.0295C272.826 86.0295 272.247 85.8635 271.779 85.6421C270.896 85.2824 268.911 84.4798 267.864 84.0924C265.906 83.3729 265.162 83.1515 263.314 82.6811C262.184 82.3767 260.309 81.8509 259.179 81.4912C258.048 81.1314 256.256 80.6887 255.181 80.495C254.133 80.3289 252.451 79.9968 251.459 79.8031C244.731 78.3641 242.939 78.0597 234.364 76.7314C220.662 74.6283 217.436 74.2132 205.966 72.9956C204.532 72.8572 201.83 72.5528 199.983 72.3314C198.136 72.1101 196.04 71.9163 195.296 71.9163C194.579 71.9163 193.035 71.8057 191.905 71.6396C190.774 71.5013 187.3 71.1692 184.185 70.9478C181.069 70.6987 177.402 70.3943 175.996 70.2283C172.881 69.9239 172.688 69.9239 172.495 70.2283ZM151.154 79.9692C151.926 80.5503 151.982 80.661 151.844 81.9893C151.761 82.7641 151.485 84.5075 151.237 85.8912C150.989 87.2472 150.741 88.8799 150.658 89.4887C150.575 90.0975 150.382 90.8446 150.245 91.149C149.996 91.7302 149.583 93.8887 149.169 96.6836C149.059 97.5968 148.811 99.0358 148.618 99.866C147.763 103.934 147.432 105.318 147.239 105.816C147.101 106.12 146.936 106.867 146.853 107.476C146.715 108.666 146.164 110.824 145.613 112.236C144.896 114.118 144.041 112.928 144.482 110.658C144.62 109.967 144.73 107.863 144.758 105.954C144.758 104.045 144.896 101.748 145.034 100.835C145.199 99.9213 145.447 97.3754 145.585 95.1616C145.861 90.8446 146.302 86.1402 146.522 84.7843C146.771 83.4006 146.412 83.1515 144.951 83.6497C144.262 83.871 143.159 84.3138 142.497 84.5906C141.835 84.895 140.567 85.3377 139.657 85.6145C138.747 85.8912 137.755 86.1956 137.451 86.3063C137.148 86.417 136.156 86.7214 135.246 86.9981C134.336 87.2472 133.343 87.5792 133.04 87.7176C131.937 88.188 127.223 89.5717 126.285 89.71C125.761 89.7931 124.631 90.0421 123.804 90.3188C122.977 90.5679 121.791 90.9 121.184 91.0383C120.578 91.2044 119.971 91.4258 119.806 91.5918C119.668 91.7302 119.31 91.8409 119.006 91.8409C118.703 91.8409 118.096 91.9515 117.628 92.1176C117.159 92.256 116.029 92.5604 115.119 92.8094C111.452 93.778 107.757 94.8295 106.847 95.1616C105.303 95.7151 103.511 96.2685 103.208 96.2685C103.015 96.2685 102.215 96.5729 101.416 96.9327C100.616 97.2924 98.9068 98.0119 97.6385 98.5377C96.067 99.1465 95.0193 99.783 94.3576 100.475C92.6757 102.246 90.9939 101.941 90.9939 99.8383C90.9939 98.6761 92.0691 96.6559 92.8411 96.3515C93.0893 96.2685 93.8889 95.7704 94.6609 95.2446C95.4053 94.7465 96.3427 94.2484 96.7563 94.1377C97.3904 93.9993 100.12 92.8094 101.526 92.0899C101.802 91.9515 102.215 91.8409 102.436 91.8409C102.657 91.8409 103.07 91.7302 103.346 91.5918C103.952 91.2321 112.362 88.6585 115.532 87.8006C116.525 87.5516 118.207 87.0534 119.254 86.7214C120.33 86.3616 121.901 85.8912 122.784 85.6421C123.638 85.3931 125.072 85.0056 125.954 84.7566C126.809 84.5075 128.27 84.0648 129.18 83.7604C132.571 82.6534 141.642 80.3843 143.848 80.0799C144.648 79.9692 145.364 79.7755 145.475 79.6371C145.557 79.4987 146.688 79.388 147.984 79.388C149.941 79.388 150.465 79.4987 151.154 79.9692ZM175.279 109.33C176.437 109.828 177.568 110.963 177.568 111.655C177.568 111.987 177.733 112.679 177.954 113.177C178.891 115.418 178.753 130.279 177.733 135.841C177.209 138.746 175.886 143.949 175.61 144.281C175.472 144.419 175.362 144.751 175.362 145.001C175.362 145.277 175.252 145.526 175.114 145.582C174.783 145.692 173.404 149.511 173.156 151.061C173.046 151.753 172.825 152.666 172.688 153.136C172.053 155.046 171.778 157.011 171.502 161.715C171.116 168.522 170.923 169.546 169.958 170.349C168.855 171.234 168.028 171.4 166.567 171.013C163.093 170.1 160.556 167.692 158.985 163.79C158.709 163.099 158.323 162.158 158.13 161.715C157.275 159.612 156.503 150.895 156.889 147.74C157.027 146.606 157.137 144.668 157.165 143.451C157.165 142.233 157.441 139.549 157.744 137.501C158.075 135.453 158.433 132.769 158.544 131.551C158.764 129.144 159.26 125.934 159.646 124.633C159.757 124.163 159.95 123.194 160.06 122.475C160.391 120.067 162.155 115.363 162.734 115.363C162.845 115.363 162.955 115.197 162.955 114.975C162.955 114.367 165.464 112.208 166.953 111.516C167.725 111.184 168.662 110.714 169.076 110.492C169.462 110.271 170.041 110.105 170.316 110.105C170.62 110.105 170.951 110.022 171.061 109.884C171.254 109.718 173.404 109.109 174.176 109.026C174.369 109.026 174.866 109.136 175.279 109.33ZM184.461 116.857C184.902 117.549 185.977 118.877 187.99 121.229C188.624 121.977 189.148 122.668 189.148 122.779C189.148 122.89 189.644 123.526 190.25 124.218C190.857 124.91 191.353 125.602 191.353 125.796C191.353 125.989 191.519 126.238 191.712 126.349C192.043 126.543 194.938 130.445 194.938 130.666C194.938 130.721 195.489 131.634 196.178 132.686C196.868 133.738 198.026 135.785 198.742 137.224C201.169 142.178 200.562 145.36 196.978 146.799C195.903 147.214 195.765 147.214 194.579 146.661C193.256 146.052 191.822 144.585 190.94 142.842C190.361 141.735 189.037 140.268 188.596 140.268C188.431 140.268 188.32 140.13 188.32 139.992C188.32 139.826 187.824 139.715 187.245 139.715C186.032 139.715 184.543 139.023 183.909 138.193C183.496 137.64 183.385 137.335 182.806 135.066C182.475 133.655 182.282 117.051 182.613 116.525C182.999 115.972 184.019 116.138 184.461 116.857ZM144.179 122.198C144.785 124.08 144.868 128.009 144.344 130.97C143.82 133.904 143.462 134.236 142.525 132.658C142.111 131.967 142.028 131.081 142.028 126.902C142.001 123.803 142.111 122.004 142.276 122.004C142.442 122.004 142.552 121.811 142.552 121.589C142.552 121.34 142.8 121.174 143.186 121.174C143.683 121.174 143.903 121.396 144.179 122.198ZM196.785 153.496C197.64 154.05 197.915 158.45 197.309 161.826C196.95 163.956 196.371 164.51 195.461 163.597C194.91 163.043 194.855 162.767 194.91 158.782C194.938 155.516 195.048 154.409 195.351 153.911C195.792 153.247 196.206 153.136 196.785 153.496ZM249.253 180.671C256.587 181.363 264.141 182.248 266.182 182.636C267.092 182.802 268.801 183.023 269.931 183.161C272.551 183.41 278.754 184.517 279.361 184.822C279.609 184.96 280.436 185.154 281.208 185.265C281.98 185.375 282.697 185.569 282.78 185.68C282.862 185.818 283.276 185.929 283.69 185.929C284.103 185.929 285.316 186.261 286.364 186.648C287.412 187.036 288.9 187.534 289.645 187.783C290.417 188.032 291.189 188.364 291.382 188.502C291.575 188.668 292.76 189.305 294.001 189.941C297.006 191.491 298.164 192.127 298.33 192.321C298.413 192.404 298.661 192.543 298.881 192.653C299.378 192.875 300.343 193.483 300.536 193.677C300.618 193.76 301.059 194.12 301.556 194.452C303.045 195.504 303.706 197.413 302.907 198.465C302.41 199.101 300.067 199.876 297.227 200.291C293.312 200.872 260.199 200.263 259.124 199.599C258.931 199.488 257.8 199.295 256.587 199.184C251.321 198.714 249.418 197.994 245.724 195.199C244.979 194.646 240.789 190.384 239.465 188.834C238.721 187.949 237.673 186.814 237.204 186.261C236.708 185.735 236.295 185.126 236.295 184.933C236.295 184.711 236.184 184.545 236.019 184.545C235.881 184.545 235.743 183.881 235.743 183.078C235.743 181.307 236.046 181.058 238.969 180.533C241.616 180.062 243.16 180.062 249.253 180.671ZM217.325 201.177C219.448 201.509 224.384 202.975 224.852 203.39C224.99 203.529 225.321 203.639 225.569 203.639C225.817 203.639 226.176 203.833 226.369 204.054C226.562 204.276 226.948 204.47 227.224 204.47C227.527 204.47 227.747 204.58 227.747 204.719C227.747 204.857 227.968 205.023 228.244 205.134C228.712 205.272 229.705 205.853 229.953 206.13C230.036 206.213 230.642 206.711 231.332 207.237C232.021 207.763 233.096 208.759 233.73 209.395C235.026 210.724 238.445 215.207 239.162 216.507C239.41 216.95 239.713 217.531 239.879 217.753C241.368 220.188 243.739 224.726 243.739 225.197C243.739 225.363 244.207 226.497 244.786 227.77C245.365 229.043 246 230.62 246.193 231.312C246.386 232.004 246.716 233.056 246.937 233.665C248.012 236.764 246.827 238.424 244.924 236.542C244.152 235.795 240.982 231.008 240.982 230.593C240.982 230.51 240.623 229.956 240.154 229.375C239.713 228.794 239.327 228.213 239.327 228.047C239.327 227.881 239.217 227.715 239.107 227.659C238.996 227.604 238.252 226.746 237.508 225.695C235.881 223.536 232.903 220.382 231.249 219.081C230.615 218.583 230.036 218.112 229.953 218.029C229.319 217.254 222.592 213.325 221.93 213.325C221.764 213.325 221.241 213.159 220.772 212.937C219.779 212.522 218.511 212.163 215.754 211.554C213.603 211.056 206.325 210.945 204.974 211.36C204.532 211.499 203.126 211.831 201.83 212.107C200.535 212.356 199.377 212.688 199.211 212.799C199.073 212.91 198.467 213.076 197.888 213.187C197.336 213.297 196.785 213.491 196.702 213.629C196.619 213.768 196.371 213.878 196.178 213.878C195.958 213.878 194.055 214.709 191.987 215.705C189.892 216.701 187.686 217.753 187.08 218.029C185.315 218.859 183.716 219.026 183.082 218.444C182.338 217.78 182.393 217.337 183.358 215.843C185.095 213.131 193.201 205.853 194.496 205.853C194.717 205.853 194.938 205.743 194.993 205.632C195.103 205.327 198.494 203.639 198.991 203.639C199.184 203.639 199.349 203.529 199.349 203.418C199.349 203.28 199.873 203.058 200.535 202.892C201.169 202.726 202.63 202.339 203.76 202.034C204.891 201.73 206.518 201.343 207.345 201.204C209.523 200.844 214.982 200.817 217.325 201.177ZM383.249 209.257C384.463 209.644 385.372 210.447 385.924 211.609C386.365 212.55 386.337 215.317 385.758 222.734C385.483 226.525 384.683 230.537 383.746 233.028C383.167 234.55 380.878 235.104 368.085 236.681C360.751 237.622 354.437 237.843 353.472 237.262C352.645 236.764 353.721 235.325 355.43 234.633C355.954 234.412 356.423 234.163 356.505 234.08C356.588 233.969 357.195 233.692 357.884 233.415C359.648 232.724 359.924 232.447 359.345 231.976C359.069 231.783 358.463 231.589 357.967 231.589C356.23 231.589 350.357 230.15 349.75 229.624C349.612 229.486 349.282 229.375 349.033 229.375C348.785 229.375 348.427 229.181 348.206 228.932C347.71 228.351 348.151 227.687 349.337 227.3C351.294 226.636 351.156 225.584 348.896 224.394C347.434 223.592 345.394 223.121 342.306 222.872C340.238 222.678 339.135 222.291 339.135 221.737C339.135 221.322 341.093 220.52 342.086 220.52C342.775 220.52 344.87 220.215 347.903 219.634C348.675 219.496 349.337 219.275 349.337 219.192C349.337 218.721 346.166 218.306 342.664 218.306C337.426 218.306 335.027 217.67 336.296 216.59C336.516 216.397 337.426 216.175 338.281 216.065C340.073 215.871 344.153 215.373 347.076 214.985C348.179 214.819 349.64 214.709 350.302 214.709C351.212 214.709 351.542 214.598 351.542 214.293C351.542 213.934 350.936 213.878 347.765 213.878C341.093 213.878 322.786 213.131 316.665 212.578C315.755 212.495 314.79 212.273 314.514 212.08C314.073 211.775 314.156 211.72 315.203 211.443C316.472 211.111 325.488 210.641 337.895 210.281C342.141 210.143 346.111 209.949 346.717 209.866C348.51 209.617 359.621 209.091 367.672 208.897C376.246 208.676 381.871 208.814 383.249 209.257ZM63.0917 210.696C67.5031 212.246 71.4734 217.199 73.7894 224.062C74.1754 225.141 74.2305 225.639 74.01 225.999C73.431 226.912 72.0524 226.774 70.7566 225.639C70.3154 225.252 69.8743 224.948 69.764 224.948C69.5986 224.948 68.1373 223.896 67.0896 223.01C66.8966 222.872 66.676 222.734 66.5657 222.734C66.4003 222.734 64.4152 221.239 63.7535 220.603C63.2847 220.16 60.9963 219.136 60.4449 219.136C59.921 219.136 57.5499 219.994 57.3569 220.271C57.2742 220.354 56.9433 220.52 56.6125 220.631C56.2541 220.741 55.9784 220.963 55.9784 221.101C55.9784 221.239 55.8129 221.35 55.5924 221.35C55.3993 221.35 55.0961 221.516 54.9031 221.71C54.7376 221.931 53.8829 222.457 53.0282 222.9C51.7599 223.536 51.0982 223.702 49.83 223.675C48.9477 223.647 48.1481 223.564 48.0378 223.453C47.707 223.093 47.9 220.437 48.3687 218.998C48.7822 217.808 50.3814 214.626 51.3739 213.021C51.5669 212.716 51.8427 212.495 52.0357 212.495C52.2287 212.495 52.3941 212.384 52.3941 212.218C52.3941 212.08 52.6974 211.886 53.0834 211.775C53.4694 211.692 53.7726 211.498 53.7726 211.388C53.7726 211.277 54.1862 210.973 54.6825 210.724C55.8681 210.143 61.4099 210.115 63.0917 210.696ZM394.085 213.297C394.747 214.1 395.436 215.456 396.235 217.476C396.842 219.026 396.704 226.11 395.96 229.431C395.271 232.696 394.691 234.384 393.809 236.017C392.817 237.815 392.375 238.231 391.383 238.231C390.363 238.231 389.646 237.373 389.039 235.463C388.212 232.917 388.681 221.627 389.756 218.306C389.977 217.614 390.142 216.618 390.142 216.092C390.142 215.428 390.445 214.709 391.107 213.795C392.265 212.218 393.065 212.107 394.085 213.297ZM289.672 213.021C291.52 213.297 293.643 214.432 295.407 216.065C296.869 217.448 300.536 221.793 300.536 222.18C300.536 222.346 300.729 222.54 300.949 222.623C301.17 222.734 301.363 222.955 301.363 223.176C301.363 223.398 301.445 223.564 301.583 223.564C301.694 223.564 302.217 224.2 302.741 224.948C303.265 225.695 303.789 226.331 303.927 226.331C304.037 226.331 304.12 226.525 304.12 226.746C304.12 226.968 304.203 227.161 304.34 227.161C304.451 227.161 304.837 227.659 305.223 228.268C305.581 228.877 305.995 229.375 306.105 229.375C306.215 229.375 306.326 229.541 306.326 229.763C306.326 229.984 306.436 230.205 306.546 230.261C306.656 230.288 307.042 230.814 307.401 231.368C307.732 231.949 308.145 232.419 308.283 232.419C308.421 232.419 308.531 232.585 308.531 232.807C308.531 233.028 308.642 233.249 308.752 233.305C309.028 233.415 310.737 236.21 310.737 236.57C310.737 236.736 310.847 236.847 310.985 236.847C311.123 236.847 311.344 237.124 311.454 237.456C311.564 237.815 311.702 238.148 311.812 238.231C312.364 238.673 312.97 240.472 312.888 241.441C312.832 242.298 312.694 242.548 312.198 242.603C310.792 242.797 309.165 241.413 300.949 233.139C293.588 225.722 290.362 222.734 287.742 220.935C285.812 219.607 285.482 219.385 285.041 219.247C284.765 219.136 284.544 218.998 284.544 218.887C284.544 218.583 282.945 217.836 279.444 216.507C275.391 214.958 273.516 214.127 273.516 213.851C273.516 213.519 274.177 213.104 274.894 212.965C276.163 212.744 287.963 212.771 289.672 213.021ZM143.655 215.124C144.069 215.622 144.51 221.876 144.675 229.984C144.813 237.428 144.951 237.124 141.118 237.124C138.858 237.124 134.088 236.764 125.872 236.017C124.521 235.878 122.839 235.657 122.149 235.491C121.46 235.353 120.33 235.214 119.613 235.187C118.924 235.187 117.683 235.048 116.856 234.882C116.056 234.716 115.146 234.522 114.843 234.467C114.54 234.412 113.988 234.107 113.657 233.803C112.72 232.917 113.271 232.419 115.174 232.419C116.966 232.419 120.192 231.727 121.681 231.036C122.26 230.759 123.142 230.178 123.638 229.735C125.596 227.992 128.546 227.244 133.481 227.189C134.998 227.161 136.266 226.995 136.928 226.719C138.251 226.165 139.63 224.643 140.016 223.315C140.484 221.682 141.118 219.109 141.477 217.337C141.67 216.424 141.918 215.456 142.056 215.179C142.359 214.598 143.186 214.57 143.655 215.124ZM63.4226 230.731C64.746 231.312 66.0694 232.309 67.3929 233.748C68.413 234.827 70.3154 238.397 70.8393 240.168C71.0323 240.859 71.3631 241.911 71.5561 242.52C73.1001 247.335 73.0725 256.384 71.501 262.029C70.4808 265.71 70.0673 266.734 68.5784 269.224C67.5859 270.885 65.2974 273.375 64.7736 273.375C64.6633 273.375 64.36 273.569 64.1395 273.79C63.6156 274.344 60.4725 275.008 59.3972 274.842C57.5499 274.537 54.9031 272.573 54.4895 271.217C54.3792 270.885 54.1586 270.608 54.0208 270.608C53.8829 270.608 53.7726 270.442 53.7726 270.276C53.7726 270.082 53.4694 269.307 53.1109 268.532C51.181 264.547 50.4641 260.48 50.2711 252.648C50.1057 245.342 50.8225 241.551 53.2488 236.875C54.4619 234.55 56.9985 231.589 57.7705 231.589C57.9911 231.589 58.1841 231.478 58.1841 231.34C58.1841 231.229 58.6528 230.925 59.2318 230.676C60.3346 230.205 62.2922 230.205 63.4226 230.731ZM224.825 234.937C226.203 235.131 227.665 235.436 228.078 235.629C228.492 235.851 229.071 236.017 229.374 236.017C229.65 236.017 229.953 236.1 230.008 236.21C230.063 236.349 230.56 236.681 231.166 236.985C232.324 237.566 234.695 239.836 235.412 241.053C235.66 241.496 235.964 241.828 236.046 241.828C236.267 241.828 238.859 246.283 239.272 247.363C239.438 247.75 239.796 248.636 240.127 249.3C240.871 250.96 243.132 257.878 243.353 259.207C243.684 261.31 242.526 262.112 241.119 260.784C240.403 260.147 238.776 257.768 238.776 257.408C238.776 256.91 235.467 252.371 234.199 251.098C232.6 249.521 229.677 247.639 227.747 246.948C226.231 246.394 222.261 245.702 220.579 245.702C215.974 245.702 209.027 250.075 205.194 255.388C203.512 257.685 202.933 259.041 202.933 260.535C202.933 261.697 202.961 261.753 203.76 261.753C204.229 261.753 204.588 261.669 204.588 261.531C204.588 261.42 205.415 260.452 206.407 259.4C207.4 258.321 208.53 257.02 208.944 256.495C210.157 254.917 212.363 252.897 212.859 252.897C213.41 252.897 213.355 253.838 212.693 255.305C212.473 255.775 212.307 256.246 212.307 256.329C212.307 256.439 211.811 257.602 211.177 258.93C209.578 262.334 209.605 262.223 209.137 264.658C208.062 269.971 209.606 274.537 214.293 279.851C215.837 281.622 217.436 282.673 219.504 283.337C221.571 284.002 222.647 284.029 224.99 283.393C227.113 282.839 228.961 281.788 230.422 280.349C231.001 279.768 231.745 279.131 232.049 278.91C232.628 278.495 235.743 273.597 235.743 273.098C235.743 272.462 236.708 270.885 237.204 270.719C239.796 269.888 238.197 279.463 235.026 283.808C234.668 284.278 234.364 284.776 234.364 284.859C234.364 284.97 234.006 285.524 233.593 286.077C233.151 286.63 232.572 287.433 232.269 287.876C231.856 288.568 231.828 288.651 232.214 288.429C233.096 287.931 235.081 285.911 236.267 284.278C236.956 283.393 237.59 282.59 237.728 282.563C237.838 282.507 237.949 282.286 237.949 282.092C237.949 281.898 238.031 281.677 238.169 281.622C238.528 281.456 240.154 278.744 240.154 278.273C240.154 277.996 240.265 277.803 240.375 277.803C240.596 277.803 242.36 274.454 242.36 274.039C242.36 273.486 244.704 269.224 244.952 269.307C245.117 269.363 245.421 269.722 245.614 270.137C245.972 270.885 245.944 271.493 244.814 280.985C244.511 283.586 243.932 286.215 243.325 287.627C243.132 288.069 242.774 289.038 242.498 289.758C242.222 290.505 241.891 291.086 241.781 291.086C241.643 291.086 241.533 291.279 241.533 291.501C241.533 291.722 241.423 291.916 241.285 291.916C241.147 291.916 240.982 292.137 240.871 292.386C240.789 292.663 240.568 293.134 240.375 293.438C239.879 294.185 235.66 298.557 235.412 298.557C235.302 298.557 234.668 298.917 234.034 299.388C233.372 299.83 231.745 300.633 230.367 301.103C227.996 301.961 227.665 302.017 223.088 302.1C219.89 302.183 218.208 302.1 218.015 301.906C217.849 301.74 217.436 301.602 217.105 301.602C215.699 301.602 208.282 298.447 207.345 297.451C207.262 297.368 206.655 296.869 205.966 296.344C204.257 295.015 200.231 290.864 200.038 290.228C199.928 289.951 199.763 289.702 199.625 289.702C199.514 289.702 199.349 289.481 199.239 289.204C199.101 288.734 198.522 287.765 198.246 287.488C197.777 287.018 195.434 282.175 194.717 280.155C193.201 275.949 192.484 269.999 192.952 265.571C193.449 260.922 193.862 258.902 194.689 257.048C194.855 256.661 195.158 255.969 195.351 255.526C195.572 255.056 196.04 254.004 196.426 253.146C196.812 252.288 197.143 251.514 197.143 251.431C197.143 251.154 200.011 247.141 201.224 245.73C202.74 243.931 204.588 242.105 205.994 240.998C206.655 240.472 207.262 239.946 207.29 239.836C207.345 239.725 207.565 239.614 207.786 239.614C208.006 239.614 208.172 239.503 208.172 239.365C208.172 239.033 214.127 236.155 215.892 235.629C217.215 235.242 220.083 234.771 221.792 234.661C222.095 234.661 223.446 234.771 224.825 234.937ZM128.96 238.037C129.621 238.231 130.255 238.507 130.421 238.673C130.862 239.116 130.09 239.808 128.822 240.168C127.25 240.61 122.618 240.5 120.468 239.974C118.813 239.587 118.565 239.448 118.565 238.895C118.565 238.314 118.703 238.258 120.854 238.12C122.094 238.009 123.611 237.898 124.217 237.871C126.699 237.649 127.857 237.705 128.96 238.037ZM170.509 240.832C172.936 241.441 173.322 241.662 173.983 242.741C174.783 244.042 174.7 246.062 173.708 249.106C172.688 252.178 171.447 255.111 171.171 255.111C171.033 255.111 170.951 255.305 170.951 255.526C170.951 256.716 168.552 259.013 166.539 259.732C164.526 260.452 158.681 260.12 157.496 259.179C157 258.792 157.606 258.155 158.461 258.155C159.15 258.155 161.659 257.602 164.278 256.854C165.464 256.522 166.098 256.08 167.614 254.558C168.993 253.202 169.544 252.427 169.655 251.763C169.737 251.237 169.958 249.936 170.151 248.885C170.427 247.141 170.427 246.809 170.013 245.924C169.572 245.01 169.241 244.789 167.091 243.765C166.153 243.35 163.065 242.99 157.579 242.686C152.533 242.381 148.315 241.939 146.219 241.496C144.896 241.219 144.813 241.136 145.282 240.832C145.943 240.334 148.921 240.251 159.646 240.306C167.008 240.361 168.938 240.444 170.509 240.832ZM394.112 245.509C395.188 246.311 394.995 250.268 393.809 251.458C393.175 252.095 393.092 252.095 392.679 251.68C392.017 251.043 391.99 245.813 392.624 245.425C393.175 245.066 393.533 245.093 394.112 245.509ZM282.008 249.881C284.02 250.573 283.193 251.707 279.967 252.593C278.782 252.925 277.403 253.312 276.935 253.478C276.466 253.617 275.832 253.727 275.501 253.727C275.198 253.727 274.867 253.838 274.784 253.976C274.701 254.115 274.095 254.502 273.461 254.834C272.027 255.581 270.896 256.854 270.51 258.155C270.152 259.345 270.152 260.812 270.455 261.614C270.648 262.085 270.814 261.919 271.448 260.507C273.378 256.246 273.874 255.664 275.473 255.664C276.438 255.664 276.742 255.831 277.679 256.827C278.809 258.072 279.195 259.262 278.92 260.701C278.727 261.642 277.376 263.939 276.328 265.073C275.473 266.014 275.666 266.54 276.962 266.789C279.306 267.259 279.802 267.951 278.699 269.141C276.576 271.41 269.656 267.508 267.229 262.638C266.209 260.618 266.182 260.314 266.788 258.044C267.45 255.581 267.864 254.751 269.215 253.368C271.365 251.126 273.268 250.268 276.935 249.853C279.554 249.549 281.07 249.549 282.008 249.881ZM223.97 254.917C224.549 255.139 225.156 255.443 225.321 255.609C225.514 255.803 225.817 255.941 226.01 255.941C226.203 255.941 226.369 256.052 226.369 256.19C226.369 256.329 226.617 256.55 226.948 256.633C227.83 256.91 231.194 260.369 231.911 261.753C233.262 264.271 233.675 266.097 233.675 269.501C233.675 272.434 233.62 272.822 232.903 274.261C231.938 276.198 230.256 277.803 229.154 277.803C228.547 277.803 228.161 277.554 227.692 276.89C227.113 276.059 227.058 275.672 226.893 270.746C226.81 267.841 226.589 265.018 226.396 264.464C225.79 262.555 223.97 261.393 220.992 261.033C220.248 260.95 219.255 260.784 218.787 260.646C218.346 260.507 217.491 260.341 216.912 260.23C215.699 260.037 214.954 259.096 215.202 258.127C215.423 257.186 218.649 255.111 219.89 255.111C220.193 255.111 220.634 254.973 220.855 254.834C221.434 254.447 222.729 254.502 223.97 254.917ZM320.028 255.554C320.552 256.246 320.47 257.159 319.808 258.653C319.257 259.898 317.216 262.942 316.444 263.745C316.251 263.939 315.479 264.907 314.762 265.903C313.273 267.924 311.592 269.999 311.068 270.442C310.875 270.608 310.048 271.604 309.221 272.683C308.421 273.735 307.125 275.312 306.353 276.142C305.581 276.973 304.892 277.886 304.809 278.135C304.699 278.412 304.506 278.633 304.368 278.633C304.23 278.633 304.12 278.771 304.12 278.937C304.12 279.131 303.789 279.574 303.403 279.934C302.659 280.625 302.631 280.625 298.771 280.432C286.392 279.851 277.541 279.02 276.273 278.356C275.997 278.19 275.501 278.08 275.198 278.08C273.902 278.08 270.51 276.668 269.242 275.589C267.257 273.929 264.969 271.493 264.969 271.051C264.969 270.331 265.796 270.193 266.733 270.746C269.215 272.185 270.593 272.822 272.303 273.347C277.817 275.063 284.02 275.949 293.615 276.336C299.129 276.558 300.453 275.783 302.769 270.885C303.541 269.28 304.34 267.647 304.561 267.232C304.782 266.844 304.947 266.319 304.947 266.069C304.947 265.82 305.057 265.405 305.195 265.129C305.829 263.966 306.326 261.642 306.326 259.954C306.326 257.325 306.05 257.519 312.667 255.803C316.747 254.751 319.367 254.668 320.028 255.554ZM150.548 255.609C151.099 256.052 151.127 256.19 150.796 256.716C150.52 257.159 150.052 257.325 148.618 257.491C146.688 257.685 139.409 257.463 138.637 257.186C137.865 256.882 137.782 256.135 138.416 255.609C138.968 255.166 139.685 255.111 144.482 255.111C149.335 255.111 149.996 255.166 150.548 255.609ZM92.786 267.868C96.4806 268.449 101.636 269.169 106.847 269.778C108.226 269.916 109.66 270.137 110.046 270.22C110.432 270.276 112.058 270.469 113.63 270.608C115.201 270.746 117.876 271.051 119.53 271.3C121.212 271.521 123.997 271.853 125.734 271.991C127.471 272.13 129.208 272.324 129.594 272.407C129.98 272.49 131.717 272.656 133.454 272.822C135.191 272.96 137.672 273.209 138.968 273.375C140.264 273.514 142.607 273.763 144.206 273.929C145.806 274.122 148.397 274.427 149.996 274.62C155.869 275.423 157.358 275.589 159.784 275.727C161.163 275.81 163.01 276.004 163.92 276.142C164.83 276.281 167.256 276.613 169.296 276.834C171.337 277.083 173.57 277.388 174.259 277.526C174.948 277.692 176.437 277.941 177.568 278.107C181.786 278.716 182.696 278.854 184.185 279.269C186.473 279.906 187.135 280.21 187.576 280.847C188.872 282.729 186.225 283.476 180.766 282.784C178.478 282.507 174.59 282.12 169.71 281.677C168.193 281.539 166.594 281.317 166.181 281.151C165.74 280.985 164.747 280.847 163.975 280.847C163.175 280.847 161.604 280.736 160.473 280.57C156.255 280.017 152.505 279.657 148.618 279.463C142.635 279.159 135.053 278.661 131.799 278.356C130.2 278.19 125.375 278.08 121.047 278.052C107.702 278.024 91.5177 277.36 87.8232 276.696C84.1562 276.059 83.3015 274.759 84.1286 271.217C84.8455 268.228 87.7956 267.066 92.786 267.868ZM386.31 270.331C387.799 271.106 388.185 272.019 387.551 273.209C386.586 275.036 380.685 276.557 368.085 278.19C367.561 278.273 366.017 278.522 364.639 278.771C363.288 279.02 361.358 279.325 360.365 279.463C359.373 279.602 357.222 279.906 355.54 280.155C353.886 280.404 351.212 280.708 349.612 280.874C348.013 281.013 346.497 281.207 346.249 281.29C346.001 281.373 344.374 281.539 342.664 281.677C340.955 281.815 338.363 282.064 336.93 282.23C335.496 282.396 332.436 282.507 330.147 282.452C326.48 282.369 325.874 282.313 325.377 281.843C324.66 281.179 324.66 281.013 325.432 280.238C326.067 279.574 327.307 279.02 328.934 278.633C329.458 278.522 330.588 278.218 331.415 277.941C333.924 277.194 337.95 276.281 340.486 275.866C341.286 275.727 342.527 275.506 343.243 275.34C343.933 275.202 345.697 274.869 347.131 274.62C348.565 274.371 350.191 274.067 350.715 273.929C352.177 273.597 354.796 273.154 356.505 272.96C357.332 272.849 358.904 272.6 359.952 272.407C362.047 271.991 369.795 270.829 374.427 270.22C376.026 270.027 379.086 269.833 381.264 269.805C384.738 269.778 385.345 269.833 386.31 270.331ZM309.634 284.168C320.001 284.444 322.482 284.61 326.453 285.247C329.32 285.69 330.368 286.16 331.829 287.627C333.263 289.038 334.724 290.975 334.724 291.501C334.724 291.667 334.476 291.944 334.173 292.137C333.731 292.386 333.318 292.386 332.049 292.027C327.804 290.837 322.179 290.505 300.811 290.228C265.272 289.757 258.765 289.315 258.407 287.405C258.186 286.243 259.923 285.579 264.004 285.274C271.724 284.693 276.99 284.417 284.131 284.195C295.518 283.863 297.392 283.863 309.634 284.168Z" fill="#1C2146"/>
<path d="M59.3972 237.207C58.6804 237.566 57.357 239.614 57.357 240.389C57.357 240.693 57.164 241.8 56.9158 242.852C56.585 244.319 56.5022 245.813 56.6125 249.715C56.6677 252.454 56.8607 255.056 57.0261 255.526C57.1915 255.969 57.5224 257.048 57.7981 257.878C58.3219 259.539 59.1491 260.507 60.7482 261.31C61.6581 261.78 61.8786 261.808 62.8712 261.476C64.1395 261.061 66.5106 258.875 67.0896 257.546C68.1373 255.222 68.3855 253.866 68.3855 250.683C68.3855 246.892 68.1098 245.841 66.1522 241.773C65.1321 239.614 63.3951 237.843 61.7408 237.262C60.4449 236.792 60.2244 236.792 59.3972 237.207ZM64.3049 244.263C65.2699 245.204 65.4078 245.536 65.5456 247.003C65.6559 248.331 65.6008 248.719 65.2148 249.134C63.5329 250.822 59.5627 246.809 60.2519 244.07C60.5001 243.101 60.8861 242.88 62.1544 243.046C62.9539 243.129 63.5329 243.461 64.3049 244.263Z" fill="#1C2146"/>
<path d="M290.886 119.763C287.66 120.178 287.164 121.146 287.384 126.709C287.467 128.922 287.66 131.33 287.825 132.105C288.018 132.852 288.266 134.097 288.432 134.872C288.928 137.28 290.389 140.877 291.134 141.597C292.126 142.538 293.753 143.312 294.69 143.312C296.565 143.312 298.33 144.143 300.287 145.969C301.556 147.131 302.466 147.74 302.907 147.74C303.265 147.74 304.092 147.878 304.754 148.072C305.747 148.321 306.16 148.321 307.042 147.961C308.697 147.297 308.945 146.578 308.586 143.063C308.393 141.458 308.09 139.189 307.87 138.055C307.649 136.92 307.208 134.485 306.877 132.658C306.546 130.832 306.16 129.116 306.022 128.867C305.884 128.59 305.774 128.175 305.774 127.926C305.774 127.151 304.313 123.969 303.293 122.558C302.438 121.34 302.08 121.063 300.563 120.344C299.571 119.846 298.716 119.735 295.876 119.652C293.974 119.597 291.713 119.652 290.886 119.763Z" fill="#1C2146"/>
<path d="M313.687 128.009C313.604 128.148 313.659 128.923 313.797 129.753C313.935 130.583 314.101 131.967 314.183 132.797C314.266 133.627 314.514 134.928 314.735 135.702C314.955 136.45 315.259 137.833 315.424 138.746C315.59 139.66 315.893 141.016 316.113 141.79C316.334 142.538 316.637 143.783 316.83 144.558C316.996 145.305 317.492 146.689 317.905 147.602C320.359 152.915 320.166 152.611 322.62 155.101C324.137 156.651 326.039 157.426 328.327 157.426C331.195 157.426 332.463 155.793 331.553 153.219C331.333 152.555 331.14 151.808 331.14 151.559C331.14 151.282 330.781 150.452 330.312 149.733C329.871 148.985 329.485 148.294 329.485 148.183C329.485 148.072 329.044 147.297 328.52 146.467C327.997 145.637 327.555 144.917 327.555 144.862C327.555 144.724 325.295 141.292 325.074 141.099C324.991 141.016 324.605 140.462 324.219 139.853C323.558 138.857 320.607 135.011 319.256 133.406C318.981 133.073 318.733 132.741 318.733 132.658C318.733 132.52 318.484 132.216 315.838 129.255C314.597 127.899 313.963 127.539 313.687 128.009Z" fill="#1C2146"/>
<path d="M84.3768 177.627C82.0332 177.738 77.7597 177.848 74.8647 177.876C64.1946 177.931 46.1079 178.789 41.6413 179.453C40.0422 179.702 38.25 179.951 37.6435 180.007C36.5406 180.145 34.7485 180.92 34.7485 181.252C34.7485 182.359 45.8597 182.248 66.1522 180.975C68.6336 180.809 70.8669 180.616 71.115 180.533C71.3631 180.477 73.1001 180.283 75.0025 180.117C82.3916 179.536 88.0438 179.011 92.9239 178.485C95.7361 178.18 98.3278 177.904 98.7138 177.876C99.2101 177.848 99.0723 177.765 98.3003 177.599C97.032 177.35 90.6079 177.35 84.3768 177.627Z" fill="#1C2146"/>
<path d="M275.111 320.269C275.029 320.482 275.002 328.815 275.029 338.821L275.111 357L282.719 357.08C290.49 357.16 294.022 356.921 296.576 356.151C299.62 355.222 302.31 353.179 303.56 350.817C304.538 348.959 305.054 345.562 304.619 343.784C304.266 342.324 303.505 340.599 303.179 340.466C303.043 340.413 302.962 340.254 302.962 340.121C302.962 339.803 302.147 339.006 300.951 338.237L299.973 337.573L300.951 336.75C303.342 334.733 304.456 331.443 303.831 328.152C303.424 326.002 302.88 324.94 301.603 323.72C300.462 322.658 298.071 321.304 297.31 321.304C297.038 321.304 296.712 321.198 296.576 321.066C296.033 320.561 291.115 320.19 283.344 320.057C276.66 319.951 275.219 319.977 275.111 320.269ZM294.946 322.552C296.142 322.791 297.174 323.109 297.201 323.215C297.256 323.321 297.5 323.428 297.718 323.428C298.696 323.428 301.576 326.055 301.603 326.931C301.603 327.17 301.739 327.462 301.875 327.541C302.31 327.807 302.201 331.389 301.685 332.716C301.005 334.468 299.131 336.087 296.902 336.804C296.549 336.91 296.441 337.175 296.495 337.679C296.549 338.29 296.794 338.502 297.853 338.847C300.38 339.67 301.821 341.05 302.527 343.332C303.07 345.137 303.07 346.199 302.527 348.216C301.522 351.798 299.103 353.736 294.212 354.851C291.522 355.488 277.284 355.488 277.04 354.851C276.823 354.293 276.823 322.499 277.067 322.286C277.149 322.18 280.735 322.101 285.001 322.101C291.278 322.101 293.18 322.18 294.946 322.552Z" fill="black"/>
<path d="M285.028 335.37H287.827C290.164 335.344 290.789 335.264 291.821 334.76C293.452 333.937 294.049 332.796 293.914 330.885C293.832 329.611 293.696 329.319 292.854 328.629C291.685 327.647 289.702 327.143 286.985 327.143H285.028V335.37ZM291.359 329.85C292.31 330.514 292.365 331.92 291.495 332.77C290.979 333.274 290.517 333.407 288.778 333.486L286.659 333.566V331.708C286.659 328.948 286.659 328.921 288.805 329.16C289.892 329.266 290.898 329.532 291.359 329.85Z" fill="black"/>
<path d="M285.028 349.702H288.099C290.68 349.702 291.305 349.622 292.202 349.145C293.56 348.428 293.859 348.136 294.375 346.915C294.865 345.801 294.946 343.969 294.539 343.73C294.403 343.651 294.267 343.385 294.267 343.173C294.267 342.934 293.914 342.403 293.479 341.979C292.473 341.023 290.055 340.413 287.148 340.413H285.028V349.702ZM291.903 343.173C293.044 344.208 293.18 345.694 292.256 346.862C291.821 347.419 289.457 348.109 287.99 348.109C286.74 348.109 286.659 347.924 286.659 344.898V342.536H288.941C290.952 342.536 291.278 342.616 291.903 343.173Z" fill="black"/>
<path d="M350.512 327.86C347.36 328.364 344.1 330.54 342.795 333.035C342.062 334.468 342.089 338.741 342.877 340.466C343.42 341.607 345.431 343.863 345.92 343.863C346.029 343.863 346.301 344.022 346.491 344.208C346.925 344.606 349.072 345.615 352.007 346.783C354.588 347.844 354.887 348.03 354.669 348.534C354.398 349.277 348.42 348.746 346.654 347.818C346.382 347.685 345.974 347.579 345.757 347.579C345.513 347.579 344.996 347.419 344.589 347.207C344.181 347.021 343.529 346.783 343.121 346.676L342.361 346.517V351.162C342.361 355.355 342.415 355.833 342.85 355.965C343.094 356.045 343.556 356.231 343.855 356.363C345.322 356.974 348.827 357.398 352.632 357.398C356.816 357.398 358.31 357.16 360.783 356.045C362.114 355.461 364.641 353.285 364.641 352.727C364.641 352.515 364.75 352.356 364.859 352.356C365.158 352.356 366 348.959 366 347.764C366 346.491 365.185 343.332 364.886 343.332C364.75 343.332 364.641 343.173 364.641 342.961C364.641 342.005 360.865 339.404 357.441 337.998C357.142 337.892 356.327 337.547 355.62 337.255C354.914 336.936 354.235 336.697 354.099 336.697C353.963 336.697 353.691 336.538 353.528 336.326C353.284 336.034 353.311 335.928 353.691 335.795C354.18 335.609 357.387 336.06 358.12 336.432C358.365 336.538 358.935 336.724 359.452 336.83C359.941 336.936 360.647 337.175 361.055 337.387C361.924 337.839 363.011 337.865 363.011 337.467C363.011 337.202 363.228 336.644 364.234 334.442C364.424 333.99 364.777 333.168 365.022 332.584C365.294 332 365.592 331.31 365.755 331.044C366.136 330.381 365.946 330.195 364.044 329.532C363.093 329.213 362.087 328.842 361.788 328.736C360.077 328.046 357.359 327.674 354.398 327.7C352.632 327.727 350.893 327.807 350.512 327.86ZM360.702 330.328C361.598 330.62 362.549 330.938 362.821 331.018C363.392 331.23 363.419 331.708 362.902 332.796C362.685 333.274 362.305 334.097 362.087 334.627C361.68 335.662 361.571 335.689 360.158 335.105C358.636 334.468 356.436 334.043 354.561 334.043C352.604 334.043 352.414 334.097 351.871 334.76C351.219 335.556 351.327 336.777 352.115 337.52C352.659 338.024 354.778 339.006 357.848 340.148C359.18 340.652 361.381 341.979 362.25 342.828C363.446 343.969 363.881 345.323 363.881 347.924C363.881 349.198 363.772 350.392 363.609 350.578C363.473 350.737 363.256 351.188 363.147 351.56C362.902 352.329 361.245 353.948 360.674 353.948C360.457 353.948 360.294 354.054 360.294 354.161C360.294 354.426 358.691 355.01 357.033 355.355C354.235 355.965 347.442 355.594 344.888 354.718L343.991 354.426V351.825C343.991 349.436 344.235 348.481 344.643 349.145C344.752 349.277 345.322 349.463 345.974 349.569C346.599 349.675 347.252 349.861 347.387 349.967C347.659 350.153 348.963 350.365 351.789 350.684C353.42 350.843 355.43 350.445 356.218 349.781C356.979 349.145 356.925 347.818 356.109 346.968C355.512 346.331 353.311 345.19 352.713 345.19C352.55 345.19 352.414 345.057 352.414 344.925C352.414 344.765 352.17 344.659 351.898 344.659C351.599 344.659 351.028 344.5 350.594 344.288C350.186 344.075 349.398 343.704 348.882 343.465C345.703 342.058 343.991 339.67 343.991 336.618C343.991 335.477 344.48 333.592 344.942 333.035C346.328 331.336 348.311 330.169 350.512 329.771C352.713 329.372 358.881 329.718 360.702 330.328Z" fill="black"/>
<path d="M308.776 328.284C308.722 328.47 308.695 333.38 308.749 339.219C308.831 349.49 309.048 352.356 309.755 352.356C309.863 352.356 310.053 352.648 310.135 352.993C310.352 353.895 312.309 355.647 314.075 356.496C315.406 357.16 315.977 357.266 318.667 357.345C321.085 357.425 322.009 357.372 323.014 357C325.161 356.257 325.922 355.859 326.71 355.143C327.117 354.771 327.525 354.479 327.634 354.479C327.742 354.479 328.041 355.063 328.313 355.806L328.802 357.133H337.47V327.939L331.845 327.992L326.193 328.072L326.058 336.91C325.976 342.987 325.84 345.801 325.623 345.933C325.46 346.039 325.242 346.384 325.134 346.676C324.753 347.844 323.857 348.269 321.9 348.163C321.275 348.11 321.031 347.897 320.623 346.968C320.134 345.933 320.08 345.164 320.08 337.069C320.08 329.293 320.026 328.231 319.645 328.099C319.401 328.019 316.901 327.939 314.075 327.939C310.135 327.939 308.885 328.019 308.776 328.284ZM318.205 338.157C318.368 346.172 318.531 348.11 319.02 348.11C319.156 348.11 319.265 348.269 319.265 348.455C319.265 348.959 320.08 349.543 321.357 349.941C322.389 350.259 322.688 350.259 323.938 349.861C325.405 349.41 326.601 348.534 326.601 347.924C326.601 347.738 326.71 347.579 326.818 347.579C326.927 347.579 327.253 346.703 327.498 345.641C327.878 344.075 327.96 342.35 327.96 336.751V329.797H335.839V355.275H330.188L329.753 354.373C329.508 353.869 329.318 353.258 329.318 353.019C329.318 352.409 328.666 351.825 327.96 351.825C327.634 351.825 326.981 352.223 326.52 352.701C326.03 353.205 325.134 353.922 324.482 354.32C323.422 354.957 322.661 355.196 319.862 355.726C318.884 355.886 316.466 355.461 314.863 354.824C313.722 354.346 312.2 353.125 312.2 352.674C312.2 352.489 312.091 352.356 311.983 352.356C311.575 352.356 310.869 350.365 310.57 348.508C310.298 346.517 310.189 330.912 310.461 330.222C310.624 329.85 311.14 329.797 314.347 329.85L318.042 329.93L318.205 338.157Z" fill="black"/>
<path d="M78.6293 320.121C78.3552 320.234 78.2729 324.223 78.2729 338.765V357.268H99.9539L99.7895 349.205L94.1157 349.12L88.4145 349.064V341.991H99.1042V338.341C99.1042 336.332 99.022 334.493 98.9398 334.238C98.8027 333.842 98.0627 333.786 93.5949 333.786H88.4145V327.844H99.9539L99.7895 320.064L89.3738 320.007C83.6452 319.979 78.7937 320.036 78.6293 320.121Z" fill="#070707"/>
<path d="M155.02 328.127C154.8 328.24 154.088 328.58 153.43 328.863C152.334 329.316 149.264 332.173 149.264 332.711C149.264 332.824 149.154 332.937 148.99 332.937C148.716 332.937 148.195 331.777 147.592 329.825L147.208 328.552L139.944 328.382V357.268H149.538V350.252C149.538 341.991 149.757 340.406 151.1 338.992C152.334 337.662 152.991 337.464 156.116 337.464H158.83L159.104 336.389C159.268 335.823 159.405 334.521 159.433 333.503C159.433 332.484 159.542 330.957 159.652 330.108C159.789 329.146 159.789 328.41 159.625 328.184C159.296 327.788 155.678 327.731 155.02 328.127Z" fill="#070707"/>
<path d="M173.247 328.184C172.809 328.325 171.822 328.637 171.054 328.891C168.752 329.598 165.161 332.371 165.161 333.418C165.161 333.616 165.052 333.786 164.915 333.786C164.778 333.786 164.586 334.097 164.503 334.493C164.394 334.889 164.202 335.2 164.065 335.2C163.9 335.2 163.791 335.483 163.791 335.851C163.791 336.219 163.681 336.615 163.544 336.756C163.38 336.926 163.078 338.341 162.859 339.953C162.393 343.066 162.557 345.159 163.462 348.498C163.928 350.28 165.929 353.59 167.025 354.439C167.436 354.75 167.902 355.118 168.067 355.26C170.725 357.495 176.591 358.485 180.84 357.382C182.594 356.929 184.924 355.854 185.554 355.231C185.746 355.033 186.212 354.609 186.568 354.269C187.939 352.996 189.83 349.912 189.83 348.894C189.83 348.583 189.967 348.187 190.159 347.989C190.625 347.508 190.789 340.548 190.378 338.878C190.214 338.171 189.994 337.294 189.912 336.898C189.83 336.502 189.665 336.134 189.583 336.049C189.501 335.964 189.117 335.285 188.734 334.55C188.35 333.786 187.61 332.711 187.089 332.116C186.075 330.985 183.745 329.259 183.279 329.259C183.115 329.259 182.758 329.146 182.484 328.976C180.812 328.014 175.221 327.533 173.247 328.184ZM178.153 335.596C179.606 336.219 180.237 337.435 180.62 340.293C180.867 342.217 180.894 343.377 180.648 345.159C180.291 347.904 179.88 349.007 178.893 349.771C177.633 350.789 173.932 350.308 173.932 349.149C173.932 348.95 173.823 348.781 173.658 348.781C173.521 348.781 173.329 348.3 173.22 347.706C173.11 347.14 172.918 346.517 172.781 346.319C172.452 345.895 172.644 339.642 173.055 338.171C173.22 337.549 173.494 337.011 173.631 336.954C173.795 336.898 173.932 336.672 173.932 336.474C173.932 336.275 174.206 336.021 174.563 335.908C174.892 335.766 175.412 335.596 175.714 335.483C176.564 335.144 177.167 335.172 178.153 335.596Z" fill="#070707"/>
<path d="M210.935 328.184C208.907 329.089 208.03 329.683 206.988 330.843C205.673 332.315 205.563 332.258 204.768 329.881L204.247 328.41H196.408V370L201.15 369.943L205.864 369.859V362.276C205.837 358.117 205.892 354.722 205.947 354.722C205.974 354.722 206.687 355.231 207.482 355.854C210.579 358.259 213.978 358.513 217.788 356.618C218.665 356.165 220.72 354.015 220.94 353.307C221.049 352.996 221.214 352.742 221.351 352.742C221.461 352.742 221.625 352.515 221.707 352.232C221.789 351.978 222.118 351.072 222.42 350.224C223.324 347.79 223.653 343.349 223.27 339.529C223.078 337.775 222.831 336.247 222.694 336.162C222.557 336.077 222.447 335.766 222.447 335.455C222.447 334.04 219.597 329.938 218.034 329.089C215.787 327.901 212.525 327.477 210.935 328.184ZM212.169 336.615C213.073 337.492 213.512 339.388 213.512 342.698C213.512 346.036 213.073 347.904 212.114 348.894C211.538 349.516 211.155 349.629 209.894 349.629C208.551 349.629 208.304 349.545 207.509 348.668C206.495 347.536 206.002 345.555 206.002 342.5C206.002 339.02 207.07 336.275 208.523 335.964C209.811 335.681 211.511 335.964 212.169 336.615Z" fill="#070707"/>
<path d="M238.208 328.156C237.769 328.325 236.783 328.637 236.015 328.863C232.616 329.938 229.711 333.163 228.532 337.181C227.902 339.303 227.628 343.122 227.929 345.357C228.258 347.677 229.026 350.478 229.327 350.478C229.437 350.478 229.601 350.789 229.683 351.186C229.93 352.204 233.027 355.316 234.562 356.08C237.111 357.353 239.441 357.834 243.196 357.834C246.924 357.806 249.912 357.268 251.94 356.25L253.009 355.712L253.091 352.232C253.146 350.082 253.064 348.781 252.899 348.781C252.735 348.781 252.214 348.95 251.721 349.177C248.952 350.422 244.485 351.016 241.908 350.478C239.907 350.082 238.646 349.007 238.043 347.196L237.577 345.81L254.928 345.527L254.9 341.34C254.9 338.539 254.791 337.068 254.571 336.841C254.379 336.643 254.242 336.247 254.242 335.908C254.242 335.087 252.817 332.626 251.584 331.353C250.378 330.108 248.048 328.835 246.102 328.354C244.348 327.929 239.249 327.816 238.208 328.156ZM243.854 335.115C244.375 335.37 244.923 335.738 245.088 335.879C245.389 336.219 246.294 338.426 246.294 338.878C246.294 339.048 244.649 339.161 242.045 339.161C239.715 339.161 237.797 339.133 237.797 339.076C237.824 338.624 238.564 336.615 238.893 336.162C239.88 334.748 242.182 334.267 243.854 335.115Z" fill="#070707"/>
<path d="M105.737 339.671C105.792 347.394 105.929 351.072 106.121 351.355C106.286 351.582 106.505 352.091 106.614 352.515C106.806 353.392 109.41 356.42 109.958 356.42C110.178 356.42 110.342 356.533 110.342 356.646C110.342 357.099 113.604 357.834 115.577 357.834C118.839 357.834 121.306 356.844 123.142 354.779C124.403 353.364 124.677 353.59 125.582 356.901C125.637 357.184 126.678 357.268 129.529 357.268H133.366V343.179C133.366 335.455 133.257 328.948 133.147 328.75C132.955 328.495 131.776 328.41 128.131 328.467L123.362 328.552L123.225 337.322C123.06 346.8 123.005 347.31 121.525 348.922C120.84 349.686 120.621 349.771 119.004 349.771C117.578 349.771 117.14 349.658 116.729 349.205C115.468 347.762 115.413 347.423 115.331 337.662L115.248 328.41H105.628L105.737 339.671Z" fill="#070707"/>
</svg>
