<svg width="20" height="14" viewBox="0 0 20 14" fill="none" xmlns="http://www.w3.org/2000/svg">
<path d="M0.0397618 12.2206L8.79758 7.06016L0.00280762 1.87988V11.9053C0.00280762 12.0161 0.0170216 12.1212 0.0397618 12.2206Z" fill="url(#paint0_linear_97_158)"/>
<path d="M9.18419 7.29053L0.187592 12.5901C0.426364 13.0076 0.869789 13.2944 1.38713 13.2944H18.6128C19.1728 13.2944 19.6532 12.9593 19.8721 12.4822L11.0602 7.29053L10.1222 7.8415L9.18419 7.29053Z" fill="url(#paint1_linear_97_158)"/>
<path d="M20 11.9083V2.0249L11.4468 7.06318L19.9801 12.0929C19.9886 12.0305 20 11.9708 20 11.9083Z" fill="url(#paint2_linear_97_158)"/>
<path d="M1.38714 0C0.622497 0 0 0.619133 0 1.38311V1.42571L10.1194 7.38702L19.9972 1.56771V1.38311C19.9972 0.619133 19.3775 0 18.61 0H1.38714Z" fill="url(#paint3_linear_97_158)"/>
<defs>
<linearGradient id="paint0_linear_97_158" x1="0.255531" y1="4.51784" x2="8.99528" y2="4.84607" gradientUnits="userSpaceOnUse">
<stop stop-color="#13AD68"/>
<stop offset="1" stop-color="#54D59B"/>
</linearGradient>
<linearGradient id="paint1_linear_97_158" x1="0.753238" y1="8.82215" x2="19.94" y2="11.5999" gradientUnits="userSpaceOnUse">
<stop stop-color="#13AD68"/>
<stop offset="1" stop-color="#54D59B"/>
</linearGradient>
<linearGradient id="paint2_linear_97_158" x1="11.6926" y1="4.59331" x2="20.1923" y2="4.91216" gradientUnits="userSpaceOnUse">
<stop stop-color="#13AD68"/>
<stop offset="1" stop-color="#54D59B"/>
</linearGradient>
<linearGradient id="paint3_linear_97_158" x1="0.574631" y1="1.88446" x2="20.1944" y2="4.22976" gradientUnits="userSpaceOnUse">
<stop stop-color="#13AD68"/>
<stop offset="1" stop-color="#54D59B"/>
</linearGradient>
</defs>
</svg>
