<svg width="18" height="13" viewBox="0 0 18 13" fill="none" xmlns="http://www.w3.org/2000/svg">
<path d="M0 0V1.21875C0 4.59063 1.94049 7.54 4.82927 9.18125V13H18V11.375C18 9.21375 13.32 8.125 10.9756 8.125H10.7561C6.58537 8.125 3.07317 4.875 3.07317 1.21875V0M10.9756 0C10.0441 0 9.15078 0.34241 8.49211 0.951903C7.83345 1.5614 7.46341 2.38805 7.46341 3.25C7.46341 4.11195 7.83345 4.9386 8.49211 5.5481C9.15078 6.15759 10.0441 6.5 10.9756 6.5C11.9071 6.5 12.8004 6.15759 13.4591 5.5481C14.1178 4.9386 14.4878 4.11195 14.4878 3.25C14.4878 2.38805 14.1178 1.5614 13.4591 0.951903C12.8004 0.34241 11.9071 0 10.9756 0Z" fill="#13AD68"/>
</svg>
