<svg width="75" height="72" viewBox="0 0 75 72" fill="none" xmlns="http://www.w3.org/2000/svg">
<path d="M37.5806 58.8191C40.5805 57.4725 43.6091 55.71 46.5476 53.555L46.2466 53.1567C47.6041 52.1611 48.9426 51.0807 50.25 49.9178C51.5574 48.755 52.7847 47.5532 53.9283 46.3241L54.2997 46.6599C56.7752 43.9995 58.8636 41.2106 60.5292 38.4075L60.0944 38.1562C61.9746 34.9919 63.3041 31.8185 64.0367 28.8051L64.5265 28.9214C65.4302 25.2043 65.4465 21.709 64.4802 18.7372L64.0006 18.8881C63.4792 17.2847 62.6632 15.8464 61.5387 14.6188C60.4141 13.3912 59.0453 12.4446 57.4798 11.77L57.681 11.3153C54.7794 10.0649 51.249 9.72412 47.4041 10.2307L47.4716 10.7226C44.3546 11.1333 41.0151 12.1127 37.6287 13.6327L37.4194 13.181C34.4195 14.5275 31.3909 16.2901 28.4524 18.445L28.7534 18.8434C27.3959 19.839 26.0574 20.9193 24.75 22.0822C23.4426 23.245 22.2153 24.4468 21.0717 25.6759L20.7003 25.3402C18.2248 28.0006 16.1364 30.7894 14.4708 33.5925L14.9056 33.8438C13.0254 37.0081 11.6959 40.1815 10.9633 43.1949L10.4735 43.0786C9.56975 46.7957 9.55354 50.2911 10.5198 53.2628L10.9994 53.112C11.5208 54.7154 12.3368 56.1536 13.4613 57.3812C14.5859 58.6088 15.9547 59.5554 17.5202 60.2301L17.319 60.6848C20.2206 61.9351 23.751 62.2759 27.5959 61.7694L27.5284 61.2774C30.6454 60.8667 33.9849 59.8874 37.3713 58.3673L37.5806 58.8191Z" fill="#F5F5F5" stroke="#C9C9C9" stroke-dasharray="10 10"/>
<path d="M35.9939 50V27.1429L38.5361 29.6429H30.9095V25H41.8773V50H35.9939Z" fill="#030303"/>
<path d="M15.0148 40L18.0764 16H22.0178L18.9914 40H15.0148ZM1.99414 34.5143V30.7771H24.7275V34.5143H1.99414ZM5.90034 40L8.96196 16H12.9034L9.84174 40H5.90034ZM3.19064 25.2229V21.4857H25.8888L25.924 25.2229H3.19064Z" fill="url(#paint0_linear_83_12)"/>
<defs>
<linearGradient id="paint0_linear_83_12" x1="2.68178" y1="22.1225" x2="26.4494" y2="23.169" gradientUnits="userSpaceOnUse">
<stop stop-color="#13AD68"/>
<stop offset="1" stop-color="#54D59B"/>
</linearGradient>
</defs>
</svg>
