<svg width="75" height="72" viewBox="0 0 75 72" fill="none" xmlns="http://www.w3.org/2000/svg">
<path d="M37.5806 58.8191C40.5805 57.4725 43.6091 55.71 46.5476 53.555L46.2466 53.1567C47.6041 52.1611 48.9426 51.0807 50.25 49.9178C51.5574 48.755 52.7847 47.5532 53.9283 46.3241L54.2997 46.6599C56.7752 43.9995 58.8636 41.2106 60.5292 38.4075L60.0944 38.1562C61.9746 34.9919 63.3041 31.8185 64.0367 28.8051L64.5265 28.9214C65.4302 25.2043 65.4465 21.709 64.4802 18.7372L64.0006 18.8881C63.4792 17.2847 62.6632 15.8464 61.5387 14.6188C60.4141 13.3912 59.0453 12.4446 57.4798 11.77L57.681 11.3153C54.7794 10.0649 51.249 9.72412 47.4041 10.2307L47.4716 10.7226C44.3546 11.1333 41.0151 12.1127 37.6287 13.6327L37.4194 13.181C34.4195 14.5275 31.3909 16.2901 28.4524 18.445L28.7534 18.8434C27.3959 19.839 26.0574 20.9193 24.75 22.0822C23.4426 23.245 22.2153 24.4468 21.0717 25.6759L20.7003 25.3402C18.2248 28.0006 16.1364 30.7894 14.4708 33.5925L14.9056 33.8438C13.0254 37.0081 11.6959 40.1815 10.9633 43.1949L10.4735 43.0786C9.56975 46.7957 9.55354 50.2911 10.5198 53.2628L10.9994 53.112C11.5208 54.7154 12.3368 56.1536 13.4613 57.3812C14.5859 58.6088 15.9547 59.5554 17.5202 60.2301L17.319 60.6848C20.2206 61.9351 23.751 62.2759 27.5959 61.7694L27.5284 61.2774C30.6454 60.8668 33.9849 59.8874 37.3713 58.3673L37.5806 58.8191Z" fill="#F5F5F5" stroke="#C9C9C9" stroke-dasharray="10 10"/>
<path d="M28.4873 50.1056V46.3256L38.179 37.1456C38.9447 36.4496 39.5071 35.8256 39.866 35.2736C40.225 34.7216 40.4643 34.2176 40.5839 33.7616C40.7275 33.3056 40.7993 32.8856 40.7993 32.5016C40.7993 31.4936 40.4523 30.7256 39.7583 30.1976C39.0883 29.6456 38.0952 29.3696 36.7791 29.3696C35.7261 29.3696 34.745 29.5736 33.8357 29.9816C32.9503 30.3896 32.1965 31.0256 31.5743 31.8896L27.3387 29.1536C28.2959 27.7136 29.636 26.5736 31.3589 25.7336C33.0819 24.8936 35.0681 24.4736 37.3175 24.4736C39.184 24.4736 40.8112 24.7856 42.1992 25.4096C43.611 26.0096 44.6999 26.8616 45.4656 27.9656C46.2553 29.0696 46.6501 30.3896 46.6501 31.9256C46.6501 32.7416 46.5425 33.5576 46.3271 34.3736C46.1357 35.1656 45.7288 36.0056 45.1067 36.8936C44.5084 37.7816 43.623 38.7776 42.4504 39.8816L34.41 47.4776L33.2973 45.3536H47.4757V50.1056H28.4873Z" fill="#030303"/>
<path d="M14.9796 40.0569L17.9392 16.4775H21.7492L18.8237 40.0569H14.9796ZM2.39297 34.6673V30.9957H24.3686V34.6673H2.39297ZM6.16897 40.0569L9.12854 16.4775H12.9386L9.97899 40.0569H6.16897ZM3.54959 25.5388V21.8671H25.4912L25.5252 25.5388H3.54959Z" fill="url(#paint0_linear_83_20)"/>
<defs>
<linearGradient id="paint0_linear_83_20" x1="3.05769" y1="22.4927" x2="26.0345" y2="23.4881" gradientUnits="userSpaceOnUse">
<stop stop-color="#13AD68"/>
<stop offset="1" stop-color="#54D59B"/>
</linearGradient>
</defs>
</svg>
