<svg width="75" height="72" viewBox="0 0 75 72" fill="none" xmlns="http://www.w3.org/2000/svg">
<path d="M37.5806 58.8191C40.5806 57.4725 43.6092 55.71 46.5476 53.555L46.2466 53.1567C47.6041 52.1611 48.9426 51.0807 50.25 49.9178C51.5574 48.755 52.7847 47.5533 53.9283 46.3241L54.2998 46.6599C56.7752 43.9995 58.8636 41.2106 60.5292 38.4075L60.0945 38.1562C61.9746 34.9919 63.3041 31.8185 64.0367 28.8051L64.5265 28.9214C65.4303 25.2043 65.4465 21.709 64.4802 18.7372L64.0006 18.8881C63.4792 17.2847 62.6632 15.8464 61.5387 14.6188C60.4141 13.3912 59.0453 12.4446 57.4798 11.77L57.681 11.3153C54.7794 10.0649 51.249 9.72413 47.4041 10.2307L47.4716 10.7226C44.3546 11.1333 41.0151 12.1127 37.6287 13.6327L37.4194 13.181C34.4195 14.5275 31.3909 16.2901 28.4524 18.445L28.7534 18.8434C27.3959 19.839 26.0574 20.9194 24.75 22.0822C23.4426 23.245 22.2153 24.4468 21.0717 25.6759L20.7003 25.3402C18.2248 28.0006 16.1364 30.7894 14.4708 33.5925L14.9056 33.8438C13.0254 37.0081 11.6959 40.1815 10.9633 43.1949L10.4735 43.0786C9.56976 46.7957 9.55354 50.2911 10.5198 53.2628L10.9994 53.112C11.5208 54.7154 12.3368 56.1536 13.4613 57.3812C14.5859 58.6088 15.9547 59.5554 17.5202 60.2301L17.319 60.6848C20.2206 61.9351 23.751 62.2759 27.5959 61.7694L27.5284 61.2774C30.6454 60.8668 33.9849 59.8874 37.3713 58.3673L37.5806 58.8191Z" fill="#F5F5F5" stroke="#C9C9C9" stroke-dasharray="10 10"/>
<path d="M36.8158 50.5375C35.0689 50.5375 33.334 50.3095 31.611 49.8535C29.8881 49.3735 28.4284 48.7015 27.2319 47.8375L29.4932 43.3735C30.4504 44.0695 31.5632 44.6215 32.8315 45.0295C34.0998 45.4375 35.38 45.6415 36.6722 45.6415C38.1319 45.6415 39.2806 45.3535 40.1181 44.7775C40.9557 44.2015 41.3744 43.4095 41.3744 42.4015C41.3744 41.4415 41.0035 40.6855 40.2617 40.1335C39.5199 39.5815 38.3234 39.3055 36.6722 39.3055H34.016V35.4535L41.0155 27.4975L41.6616 29.5855H28.4882V24.9055H46.0767V28.6855L39.1131 36.6415L36.1697 34.9495H37.8567C40.9437 34.9495 43.2769 35.6455 44.8562 37.0375C46.4356 38.4295 47.2253 40.2175 47.2253 42.4015C47.2253 43.8175 46.8544 45.1495 46.1126 46.3975C45.3707 47.6215 44.2341 48.6175 42.7026 49.3855C41.171 50.1535 39.2088 50.5375 36.8158 50.5375Z" fill="#030303"/>
<path d="M14.9797 40.0569L17.9392 16.4775H21.7492L18.8237 40.0569H14.9797ZM2.39301 34.6673V30.9957H24.3686V34.6673H2.39301ZM6.169 40.0569L9.12857 16.4775H12.9386L9.97902 40.0569H6.169ZM3.54962 25.5388V21.8671H25.4912L25.5252 25.5388H3.54962Z" fill="url(#paint0_linear_83_24)"/>
<defs>
<linearGradient id="paint0_linear_83_24" x1="3.05772" y1="22.4927" x2="26.0345" y2="23.4881" gradientUnits="userSpaceOnUse">
<stop stop-color="#13AD68"/>
<stop offset="1" stop-color="#54D59B"/>
</linearGradient>
</defs>
</svg>
