<svg width="20" height="19" viewBox="0 0 20 19" fill="none" xmlns="http://www.w3.org/2000/svg">
<path fill-rule="evenodd" clip-rule="evenodd" d="M12.5797 0.902529C11.8601 0.319971 10.9456 0 10.0002 0C9.0548 0 8.14031 0.319971 7.42074 0.902529L7.04692 1.20477C6.72856 1.46277 6.33263 1.61877 5.91552 1.65057L5.42537 1.68835C4.48284 1.7596 3.59786 2.14756 2.92919 2.78263C2.26052 3.41769 1.8519 4.25831 1.77664 5.1537L1.73786 5.61934C1.70467 6.01549 1.54081 6.39161 1.26959 6.69418L0.950454 7.04931C0.336971 7.73296 0 8.60191 0 9.50027C0 10.3986 0.336971 11.2676 0.950454 11.9512L1.2686 12.3064C1.54018 12.6088 1.70439 12.9849 1.73786 13.3812L1.77763 13.8468C1.85264 14.7422 2.26101 15.583 2.9295 16.2182C3.59799 16.8535 4.48286 17.2416 5.42537 17.3131L5.91552 17.35C6.33252 17.3815 6.72843 17.5372 7.04692 17.7948L7.42074 18.0971C8.14038 18.6799 9.05507 19 10.0007 19C10.9463 19 11.861 18.6799 12.5807 18.0971L12.9545 17.7948C13.273 17.5372 13.6689 17.3815 14.0859 17.35L14.576 17.3122C15.5186 17.2409 16.4036 16.853 17.0722 16.2179C17.7409 15.5829 18.1495 14.7422 18.2248 13.8468L18.2626 13.3812C18.296 12.9849 18.4602 12.6088 18.7318 12.3064L19.05 11.9503C19.6632 11.2667 20 10.3979 20 9.4998C20 8.60166 19.6632 7.73289 19.05 7.04931L18.7318 6.69418C18.4602 6.39173 18.296 6.0156 18.2626 5.61934L18.2238 5.1537C18.1488 4.25829 17.7404 3.41757 17.0719 2.78233C16.4034 2.14709 15.5186 1.7589 14.576 1.6874L14.0859 1.65057C13.6689 1.61904 13.273 1.46337 12.9545 1.20571L12.5797 0.902529ZM8.71122 2.341C9.07097 2.04984 9.52811 1.88993 10.0007 1.88993C10.4733 1.88993 10.9304 2.04984 11.2902 2.341L11.665 2.64418C12.3019 3.15983 13.0937 3.47151 13.9278 3.53484L14.418 3.57262C14.889 3.60844 15.3312 3.80245 15.6653 4.11986C15.9994 4.43728 16.2036 4.85736 16.2413 5.30482L16.2811 5.77046C16.3478 6.56287 16.6758 7.31512 17.2186 7.92013L17.5368 8.27621C17.8433 8.61796 18.0116 9.05225 18.0116 9.50122C18.0116 9.95018 17.8433 10.3845 17.5368 10.7262L17.2186 11.0823C16.6758 11.6873 16.3478 12.4396 16.2811 13.232L16.2413 13.6976C16.2036 14.1451 15.9994 14.5652 15.6653 14.8826C15.3312 15.2 14.889 15.394 14.418 15.4298L13.9278 15.4676C13.0937 15.5309 12.3019 15.8426 11.665 16.3583L11.2902 16.6605C10.9304 16.9516 10.4733 17.1116 10.0007 17.1116C9.52811 17.1116 9.07097 16.9516 8.71122 16.6605L8.33641 16.3583C7.69956 15.8426 6.90772 15.5309 6.0736 15.4676L5.58345 15.4298C5.11226 15.3942 4.66984 15.2003 4.33551 14.8829C4.00119 14.5654 3.79683 14.1452 3.75909 13.6976L3.71932 13.232C3.65293 12.4397 3.32521 11.6874 2.78277 11.0823L2.46463 10.7262C2.15815 10.3845 1.98983 9.95018 1.98983 9.50122C1.98983 9.05225 2.15815 8.61796 2.46463 8.27621L2.78277 7.92013C3.32557 7.31512 3.65365 6.56287 3.72031 5.77046L3.76008 5.30482C3.79757 4.85719 4.00168 4.43689 4.33583 4.11928C4.66997 3.80167 5.11228 3.60753 5.58345 3.57167L6.0736 3.53484C6.90772 3.47151 7.69956 3.15983 8.33641 2.64418L8.71122 2.341ZM13.6862 7.33549C13.7812 7.24836 13.8569 7.14414 13.909 7.02891C13.9611 6.91368 13.9886 6.78974 13.9897 6.66433C13.9909 6.53892 13.9657 6.41455 13.9157 6.29848C13.8657 6.1824 13.7919 6.07695 13.6986 5.98826C13.6052 5.89958 13.4942 5.82945 13.372 5.78196C13.2498 5.73447 13.1189 5.71057 12.9869 5.71166C12.8549 5.71275 12.7244 5.73881 12.6031 5.78831C12.4818 5.83781 12.3721 5.90976 12.2804 5.99997L6.31519 11.6669C6.22023 11.7541 6.14449 11.8583 6.09238 11.9735C6.04028 12.0888 6.01285 12.2127 6.01171 12.3381C6.01056 12.4635 6.03571 12.5879 6.0857 12.704C6.13569 12.82 6.20952 12.9255 6.30287 13.0142C6.39621 13.1028 6.50722 13.173 6.6294 13.2205C6.75159 13.268 6.8825 13.2919 7.01451 13.2908C7.14652 13.2897 7.27698 13.2636 7.39828 13.2141C7.51958 13.1646 7.62928 13.0927 7.72099 13.0025L13.6862 7.33549ZM9.0065 7.13903C9.0065 7.51478 8.84938 7.87513 8.56971 8.14082C8.29003 8.40651 7.91071 8.55578 7.51519 8.55578C7.11967 8.55578 6.74035 8.40651 6.46068 8.14082C6.18101 7.87513 6.02389 7.51478 6.02389 7.13903C6.02389 6.76329 6.18101 6.40294 6.46068 6.13724C6.74035 5.87155 7.11967 5.72229 7.51519 5.72229C7.91071 5.72229 8.29003 5.87155 8.56971 6.13724C8.84938 6.40294 9.0065 6.76329 9.0065 7.13903ZM12.4862 13.2783C12.8817 13.2783 13.2611 13.129 13.5407 12.8633C13.8204 12.5976 13.9775 12.2373 13.9775 11.8615C13.9775 11.4858 13.8204 11.1254 13.5407 10.8597C13.2611 10.594 12.8817 10.4448 12.4862 10.4448C12.0907 10.4448 11.7114 10.594 11.4317 10.8597C11.152 11.1254 10.9949 11.4858 10.9949 11.8615C10.9949 12.2373 11.152 12.5976 11.4317 12.8633C11.7114 13.129 12.0907 13.2783 12.4862 13.2783Z" fill="url(#paint0_linear_79_493)"/>
<defs>
<linearGradient id="paint0_linear_79_493" x1="0.574713" y1="4.84699" x2="20.4347" y2="5.77012" gradientUnits="userSpaceOnUse">
<stop stop-color="#13AD68"/>
<stop offset="1" stop-color="#54D59B"/>
</linearGradient>
</defs>
</svg>
