<svg width="8" height="11" viewBox="0 0 8 11" fill="none" xmlns="http://www.w3.org/2000/svg">
<path d="M4 5.5C4.275 5.5 4.5105 5.3922 4.7065 5.1766C4.90217 4.96137 5 4.7025 5 4.4C5 4.0975 4.90217 3.83845 4.7065 3.62285C4.5105 3.40762 4.275 3.3 4 3.3C3.725 3.3 3.48967 3.40762 3.294 3.62285C3.098 3.83845 3 4.0975 3 4.4C3 4.7025 3.098 4.96137 3.294 5.1766C3.48967 5.3922 3.725 5.5 4 5.5ZM4 9.5425C5.01667 8.51583 5.77083 7.58303 6.2625 6.7441C6.75417 5.90553 7 5.16083 7 4.51C7 3.51083 6.71033 2.69262 6.131 2.05535C5.552 1.41845 4.84167 1.1 4 1.1C3.15833 1.1 2.44783 1.41845 1.8685 2.05535C1.2895 2.69262 1 3.51083 1 4.51C1 5.16083 1.24583 5.90553 1.7375 6.7441C2.22917 7.58303 2.98333 8.51583 4 9.5425ZM4 11C2.65833 9.74417 1.65633 8.57762 0.994 7.50035C0.331333 6.42345 0 5.42667 0 4.51C0 3.135 0.402167 2.03958 1.2065 1.22375C2.0105 0.407917 2.94167 0 4 0C5.05833 0 5.9895 0.407917 6.7935 1.22375C7.59783 2.03958 8 3.135 8 4.51C8 5.42667 7.66883 6.42345 7.0065 7.50035C6.34383 8.57762 5.34167 9.74417 4 11Z" fill="#13AD68"/>
</svg>
