<svg width="12" height="12" viewBox="0 0 12 12" fill="none" xmlns="http://www.w3.org/2000/svg">
<path d="M7.66667 7.66667L11 11M4.88889 8.77778C4.37819 8.77778 3.8725 8.67719 3.40068 8.48175C2.92885 8.28632 2.50015 7.99987 2.13903 7.63875C1.77791 7.27763 1.49146 6.84892 1.29602 6.3771C1.10059 5.90528 1 5.39959 1 4.88889C1 4.37819 1.10059 3.8725 1.29602 3.40068C1.49146 2.92885 1.77791 2.50015 2.13903 2.13903C2.50015 1.77791 2.92885 1.49146 3.40068 1.29602C3.8725 1.10059 4.37819 1 4.88889 1C5.92029 1 6.90944 1.40972 7.63875 2.13903C8.36806 2.86834 8.77778 3.85749 8.77778 4.88889C8.77778 5.92029 8.36806 6.90944 7.63875 7.63875C6.90944 8.36806 5.92029 8.77778 4.88889 8.77778Z" stroke="white" stroke-linecap="round" stroke-linejoin="round"/>
</svg>
