<svg width="17" height="17" viewBox="0 0 17 17" fill="none" xmlns="http://www.w3.org/2000/svg">
<path d="M8.5 17C3.80545 17 0 13.1946 0 8.5C0 3.80545 3.80545 0 8.5 0C13.1946 0 17 3.80545 17 8.5C17 13.1946 13.1946 17 8.5 17ZM6.5535 15.017C5.7149 13.2382 5.22909 11.3137 5.12295 9.35H1.7527C1.9181 10.6581 2.45983 11.8899 3.31208 12.8959C4.16433 13.902 5.29041 14.6388 6.5535 15.017ZM6.8255 9.35C6.95385 11.4232 7.5463 13.3705 8.5 15.0892C9.47947 13.3251 10.0516 11.3641 10.1745 9.35H6.8255ZM15.2473 9.35H11.8771C11.7709 11.3137 11.2851 13.2382 10.4465 15.017C11.7096 14.6388 12.8357 13.902 13.6879 12.8959C14.5402 11.8899 15.0819 10.6581 15.2473 9.35ZM1.7527 7.65H5.12295C5.22909 5.68632 5.7149 3.76183 6.5535 1.98305C5.29041 2.3612 4.16433 3.09804 3.31208 4.10405C2.45983 5.11006 1.9181 6.34194 1.7527 7.65ZM6.82635 7.65H10.1736C10.051 5.63601 9.47918 3.675 8.5 1.9108C7.52053 3.67493 6.94837 5.63594 6.8255 7.65H6.82635ZM10.4465 1.98305C11.2851 3.76183 11.7709 5.68632 11.8771 7.65H15.2473C15.0819 6.34194 14.5402 5.11006 13.6879 4.10405C12.8357 3.09804 11.7096 2.3612 10.4465 1.98305Z" fill="url(#paint0_linear_97_169)"/>
<defs>
<linearGradient id="paint0_linear_97_169" x1="0.488506" y1="4.33678" x2="17.3731" y2="5.08236" gradientUnits="userSpaceOnUse">
<stop stop-color="#13AD68"/>
<stop offset="1" stop-color="#54D59B"/>
</linearGradient>
</defs>
</svg>
