<svg width="40" height="40" viewBox="0 0 40 40" fill="none" xmlns="http://www.w3.org/2000/svg">
<g filter="url(#filter0_d_95_137)">
<circle cx="20" cy="16" r="16" fill="url(#paint0_linear_95_137)"/>
</g>
<path d="M25.6104 15.6733L25.5266 15.6665C25.3334 15.6507 25.1387 15.6778 24.9534 15.7463C24.7682 15.8149 24.5961 15.9235 24.447 16.0659L21.8889 18.5102L20.4766 16.6336C19.7682 15.6924 18.7505 15.1131 17.6474 15.0229L14.517 14.7672M25.6104 15.6733C25.9782 15.7034 26.3175 15.8965 26.5537 16.2103C26.7898 16.5241 26.9035 16.9329 26.8697 17.3466C26.8359 17.7604 26.6574 18.1452 26.3735 18.4165C26.0895 18.6879 25.7234 18.8234 25.3556 18.7934L14.2621 17.8872C13.8943 17.8572 13.5551 17.664 13.3189 17.3502C13.0827 17.0364 12.9691 16.6277 13.0029 16.2139C13.0366 15.8002 13.2152 15.4153 13.4991 15.144C13.7831 14.8727 14.1492 14.7372 14.517 14.7672M25.6104 15.6733L14.517 14.7672M25.6104 15.6733C25.9932 15.7046 26.338 15.3794 26.3273 14.9467C26.2441 11.6074 23.715 10.022 20.5097 9.76018C17.3044 9.49837 14.5515 10.6523 13.9275 13.9338C13.8467 14.3591 14.1342 14.7359 14.517 14.7672M22.3993 12.2702L22.3986 12.2701M20.2555 12.8803L20.2548 12.8802M13.5688 17.8306L26.0489 18.85L25.9215 20.41C25.8708 21.0306 25.6031 21.6079 25.1771 22.0149C24.7512 22.4219 24.202 22.6252 23.6504 22.5802L15.3302 21.9006C14.7786 21.8555 14.2697 21.5657 13.9154 21.095C13.5612 20.6243 13.3906 20.0112 13.4413 19.3906L13.5688 17.8306Z" stroke="#F5F5F5" stroke-width="1.5" stroke-linecap="round" stroke-linejoin="round"/>
<defs>
<filter id="filter0_d_95_137" x="0" y="0" width="40" height="40" filterUnits="userSpaceOnUse" color-interpolation-filters="sRGB">
<feFlood flood-opacity="0" result="BackgroundImageFix"/>
<feColorMatrix in="SourceAlpha" type="matrix" values="0 0 0 0 0 0 0 0 0 0 0 0 0 0 0 0 0 0 127 0" result="hardAlpha"/>
<feOffset dy="4"/>
<feGaussianBlur stdDeviation="2"/>
<feComposite in2="hardAlpha" operator="out"/>
<feColorMatrix type="matrix" values="0 0 0 0 0 0 0 0 0 0 0 0 0 0 0 0 0 0 0.25 0"/>
<feBlend mode="normal" in2="BackgroundImageFix" result="effect1_dropShadow_95_137"/>
<feBlend mode="normal" in="SourceGraphic" in2="effect1_dropShadow_95_137" result="shape"/>
</filter>
<linearGradient id="paint0_linear_95_137" x1="4.91954" y1="8.16335" x2="36.7022" y2="9.5668" gradientUnits="userSpaceOnUse">
<stop stop-color="#13AD68"/>
<stop offset="1" stop-color="#54D59B"/>
</linearGradient>
</defs>
</svg>
