<svg width="17" height="17" viewBox="0 0 17 17" fill="none" xmlns="http://www.w3.org/2000/svg">
<path d="M5.31618 7.3628L5.82881 6.79531C6.25239 6.32641 6.46898 5.72286 6.43529 5.09285C6.404 4.46284 6.12965 3.88332 5.66034 3.46011L4.79392 2.6762C4.35831 2.28185 3.79515 2.06543 3.21032 2.06543C2.54367 2.06543 1.90348 2.34918 1.45583 2.84212L0.940809 3.40961C0.875828 3.48175 0.81084 3.5611 0.753079 3.64767L0.729018 3.67412C0.242865 4.08771 -0.168678 5.09765 0.0695852 6.33363C1.17426 12.0807 6.01894 16.4595 11.8552 16.9837C12.6205 17.0534 13.3401 16.8947 13.8864 16.5605C14.1054 16.433 14.298 16.2791 14.464 16.0964L14.9791 15.5289C15.8527 14.5622 15.7781 13.0666 14.8106 12.1937L13.9442 11.4098C13.5086 11.0154 12.9454 10.799 12.3582 10.799C11.6915 10.799 11.0513 11.0827 10.6061 11.5757L10.0911 12.1432C9.87206 12.3861 9.70841 12.665 9.60492 12.9728L9.55919 13.1098L9.42442 13.0569C7.13084 12.1528 5.26323 10.4383 4.16337 8.23087L4.09117 8.08419L4.24761 8.0361C4.65915 7.91587 5.02738 7.68262 5.31618 7.3628Z" fill="url(#paint0_linear_97_152)"/>
<path d="M8.20178 0.550656C8.20178 0.853638 8.44726 1.10132 8.75291 1.10132C12.6157 1.10132 15.7564 4.23934 15.7564 8.09875C15.7564 8.40174 16.0043 8.64941 16.3075 8.64941C16.6108 8.64941 16.8587 8.40414 16.8587 8.09875C16.8587 3.63338 13.2221 0 8.75291 0C8.44967 0 8.20178 0.247674 8.20178 0.550656Z" fill="url(#paint1_linear_97_152)"/>
<path d="M8.11514 3.24358C8.11514 3.54656 8.36062 3.79424 8.66627 3.79424C11.0898 3.79424 13.0633 5.76362 13.0633 8.18748C13.0633 8.49046 13.3112 8.73813 13.6144 8.73813C13.9177 8.73813 14.1656 8.49286 14.1656 8.18748C14.1656 5.15766 11.6987 2.69533 8.66627 2.69533C8.36062 2.69293 8.11514 2.9406 8.11514 3.24358Z" fill="url(#paint2_linear_97_152)"/>
<defs>
<linearGradient id="paint0_linear_97_152" x1="0.447939" y1="5.87527" x2="15.9276" y2="6.58874" gradientUnits="userSpaceOnUse">
<stop stop-color="#13AD68"/>
<stop offset="1" stop-color="#54D59B"/>
</linearGradient>
<linearGradient id="paint1_linear_97_152" x1="8.45054" y1="2.2065" x2="17.0486" y2="2.5865" gradientUnits="userSpaceOnUse">
<stop stop-color="#13AD68"/>
<stop offset="1" stop-color="#54D59B"/>
</linearGradient>
<linearGradient id="paint2_linear_97_152" x1="8.28901" y1="4.23686" x2="14.2983" y2="4.50255" gradientUnits="userSpaceOnUse">
<stop stop-color="#13AD68"/>
<stop offset="1" stop-color="#54D59B"/>
</linearGradient>
</defs>
</svg>
