<svg width="52" height="52" viewBox="0 0 52 52" fill="none" xmlns="http://www.w3.org/2000/svg">
<path d="M26 52C40.3594 52 52 40.3594 52 26C52 11.6406 40.3594 0 26 0C11.6406 0 0 11.6406 0 26C0 40.3594 11.6406 52 26 52Z" fill="url(#paint0_linear_865_75)"/>
<path fill-rule="evenodd" clip-rule="evenodd" d="M11.9261 25.5526C19.4867 22.2584 24.5279 20.0865 27.0497 19.0368C34.2523 16.0426 35.7567 15.5226 36.7241 15.5032C37.0829 15.4963 37.4347 15.602 37.7302 15.8056C37.9376 15.9844 38.0698 16.2349 38.1003 16.507C38.1524 16.8454 38.167 17.1885 38.1438 17.53C37.7544 21.6417 36.0638 31.5797 35.2052 36.1726C34.8424 38.1075 34.1265 38.7678 33.4324 38.8331C31.928 38.971 30.7719 37.8366 29.3207 36.8813C27.0376 35.3842 25.7485 34.4627 23.533 32.9922C20.9717 31.2992 22.6333 30.3777 24.0917 28.8636C24.4739 28.467 31.1057 22.4301 31.2363 21.8835C31.2535 21.8028 31.2515 21.7192 31.2305 21.6394C31.2095 21.5596 31.1701 21.4858 31.1154 21.424C31.036 21.3744 30.9461 21.3439 30.8529 21.3351C30.7597 21.3263 30.6657 21.3394 30.5784 21.3732C30.3511 21.4232 26.7054 23.8329 19.6415 28.6024C18.6063 29.3135 17.6687 29.6601 16.8287 29.6424C15.9023 29.6206 14.1222 29.1176 12.7968 28.675C11.1739 28.1477 9.89452 27.8696 9.9961 26.9819C10.0558 26.5176 10.6991 26.0411 11.9261 25.5526Z" fill="white"/>
<defs>
<linearGradient id="paint0_linear_865_75" x1="0" y1="26" x2="52" y2="26" gradientUnits="userSpaceOnUse">
<stop stop-color="#2AABEE"/>
<stop offset="1" stop-color="#229ED9"/>
</linearGradient>
</defs>
</svg>
