<svg width="43" height="42" viewBox="0 0 43 42" fill="none" xmlns="http://www.w3.org/2000/svg">
<g filter="url(#filter0_d_744_48)">
<path d="M27.2227 24.798L30.0938 11.6496C30.2109 11.093 30.1426 10.6946 29.8887 10.4542C29.6348 10.2139 29.2995 10.1696 28.8828 10.3214L12.0078 16.6395C11.6302 16.7786 11.373 16.9368 11.2363 17.1138C11.0996 17.2909 11.0833 17.4585 11.1875 17.6166C11.2917 17.7747 11.5 17.8981 11.8125 17.9866L16.1289 19.2958L26.1484 13.1674C26.4219 12.9903 26.6302 12.9524 26.7734 13.0536C26.8646 13.1168 26.8385 13.2117 26.6953 13.3382L18.5898 20.4531L18.2773 24.779C18.5768 24.779 18.8698 24.6399 19.1562 24.3616L21.2656 22.3884L25.6406 25.519C26.474 25.9743 27.0013 25.734 27.2227 24.798ZM39 17C39 19.3021 38.5378 21.503 37.6133 23.6027C36.6888 25.7024 35.4453 27.5112 33.8828 29.029C32.3203 30.5469 30.4583 31.7548 28.2969 32.6529C26.1354 33.551 23.8698 34 21.5 34C19.1302 34 16.8646 33.551 14.7031 32.6529C12.5417 31.7548 10.6797 30.5469 9.11719 29.029C7.55469 27.5112 6.3112 25.7024 5.38672 23.6027C4.46224 21.503 4 19.3021 4 17C4 14.6979 4.46224 12.497 5.38672 10.3973C6.3112 8.29762 7.55469 6.48884 9.11719 4.97098C10.6797 3.45313 12.5417 2.24516 14.7031 1.3471C16.8646 0.449033 19.1302 0 21.5 0C23.8698 0 26.1354 0.449033 28.2969 1.3471C30.4583 2.24516 32.3203 3.45313 33.8828 4.97098C35.4453 6.48884 36.6888 8.29762 37.6133 10.3973C38.5378 12.497 39 14.6979 39 17Z" fill="url(#paint0_linear_744_48)"/>
</g>
<defs>
<filter id="filter0_d_744_48" x="0" y="0" width="43" height="42" filterUnits="userSpaceOnUse" color-interpolation-filters="sRGB">
<feFlood flood-opacity="0" result="BackgroundImageFix"/>
<feColorMatrix in="SourceAlpha" type="matrix" values="0 0 0 0 0 0 0 0 0 0 0 0 0 0 0 0 0 0 127 0" result="hardAlpha"/>
<feOffset dy="4"/>
<feGaussianBlur stdDeviation="2"/>
<feComposite in2="hardAlpha" operator="out"/>
<feColorMatrix type="matrix" values="0 0 0 0 0.558333 0 0 0 0 0.558333 0 0 0 0 0.558333 0 0 0 0.25 0"/>
<feBlend mode="normal" in2="BackgroundImageFix" result="effect1_dropShadow_744_48"/>
<feBlend mode="normal" in="SourceGraphic" in2="effect1_dropShadow_744_48" result="shape"/>
</filter>
<linearGradient id="paint0_linear_744_48" x1="5.00575" y1="8.67356" x2="39.764" y2="10.2535" gradientUnits="userSpaceOnUse">
<stop stop-color="#13AD68"/>
<stop offset="1" stop-color="#54D59B"/>
</linearGradient>
</defs>
</svg>
