<svg width="514" height="23" viewBox="0 0 514 23" fill="none" xmlns="http://www.w3.org/2000/svg">
<path d="M236.366 0.0638478C234.197 0.342174 232.444 1.99152 232.09 4.08412C232.017 4.52738 231.985 6.97046 232.006 11.3C232.038 17.8252 232.038 17.8458 232.267 18.2685C232.538 18.7736 233.029 19.2787 233.487 19.5261C233.759 19.6704 234.207 19.7116 236.262 19.7529L238.703 19.8044L238.953 20.4538C239.297 21.3404 240.121 22.2166 241.039 22.6598C241.686 22.9794 241.801 23 242.833 23C243.866 23 243.981 22.9794 244.627 22.6598C245.545 22.2166 246.369 21.3404 246.713 20.4538L246.964 19.8044H257.019H267.074L267.324 20.4538C267.668 21.3404 268.492 22.2166 269.41 22.6598C270.057 22.9794 270.172 23 271.204 23C272.237 23 272.352 22.9794 272.998 22.6598C273.916 22.2166 274.74 21.3404 275.085 20.4538L275.335 19.8044L277.953 19.7529L280.571 19.7013L281.03 19.3921C281.28 19.2168 281.593 18.8663 281.739 18.6189L282 18.1551V13.9802C282 10.6609 281.969 9.7228 281.854 9.39293C281.572 8.6095 279.006 3.10482 278.704 2.62033C277.995 1.53795 276.587 0.517417 275.272 0.156623C274.907 0.0535394 270.735 0.0226142 255.871 0.00199745C245.462 -0.00831093 236.679 0.0226142 236.366 0.0638478ZM242.583 1.95028L242.833 2.23892V5.77469C242.833 9.19708 242.823 9.32078 242.614 9.58879L242.406 9.85681H239.078H235.751L235.542 9.58879C235.334 9.32078 235.323 9.19708 235.323 5.785C235.323 2.40385 235.334 2.24922 235.532 1.99152C235.647 1.8472 235.845 1.70288 235.98 1.68226C236.106 1.65134 237.587 1.64103 239.266 1.65134L242.333 1.66165L242.583 1.95028ZM251.762 1.95028L252.012 2.23892V5.77469C252.012 9.19708 252.002 9.32078 251.793 9.58879L251.584 9.85681H248.257H244.93L244.721 9.58879C244.513 9.32078 244.502 9.19708 244.502 5.785C244.502 2.40385 244.513 2.24922 244.711 1.99152C244.825 1.8472 245.024 1.70288 245.159 1.68226C245.284 1.65134 246.766 1.64103 248.445 1.65134L251.511 1.66165L251.762 1.95028ZM260.941 1.95028L261.191 2.23892V5.77469C261.191 9.19708 261.181 9.32078 260.972 9.58879L260.763 9.85681H257.436H254.109L253.9 9.58879C253.691 9.32078 253.681 9.19708 253.681 5.785C253.681 2.40385 253.691 2.24922 253.89 1.99152C254.004 1.8472 254.203 1.70288 254.338 1.68226C254.463 1.65134 255.944 1.64103 257.624 1.65134L260.69 1.66165L260.941 1.95028ZM270.12 1.95028L270.37 2.23892V5.77469C270.37 9.19708 270.359 9.32078 270.151 9.58879L269.942 9.85681H266.615H263.288L263.079 9.58879C262.87 9.32078 262.86 9.19708 262.86 5.785C262.86 2.40385 262.87 2.24922 263.069 1.99152C263.183 1.8472 263.381 1.70288 263.517 1.68226C263.642 1.65134 265.123 1.64103 266.803 1.65134L269.869 1.66165L270.12 1.95028ZM275.147 1.86781C275.825 2.07398 276.576 2.57909 277.035 3.15636C277.431 3.65117 280.185 9.49602 280.331 10.1351C280.404 10.4753 280.394 10.4753 279.997 10.4753C279.778 10.4753 278.005 10.3413 276.055 10.1764C272.519 9.87743 272.519 9.87743 272.279 9.5991C272.039 9.33108 272.039 9.32078 272.039 5.79531C272.039 1.38332 271.955 1.56887 273.781 1.67196C274.261 1.70288 274.865 1.78535 275.147 1.86781ZM244.168 16.8974C245.764 17.918 245.66 20.2477 243.981 21.1239C243.48 21.3816 243.313 21.4125 242.719 21.3816C240.184 21.2476 239.454 17.9901 241.686 16.7944C242.093 16.5779 242.27 16.547 242.938 16.5779C243.574 16.6088 243.803 16.6707 244.168 16.8974ZM272.539 16.8974C274.135 17.918 274.031 20.2477 272.352 21.1239C271.851 21.3816 271.684 21.4125 271.09 21.3816C268.555 21.2476 267.825 17.9901 270.057 16.7944C270.464 16.5779 270.641 16.547 271.309 16.5779C271.945 16.6088 272.174 16.6707 272.539 16.8974Z" fill="url(#paint0_linear_490_656)"/>
<line x1="-4.37114e-08" y1="22.5" x2="514" y2="22.5" stroke="#6EAF92" stroke-dasharray="8 8"/>
<defs>
<linearGradient id="paint0_linear_490_656" x1="233.437" y1="17.1326" x2="282.74" y2="12.3998" gradientUnits="userSpaceOnUse">
<stop stop-color="#13AD68"/>
<stop offset="1" stop-color="#54D59B"/>
</linearGradient>
</defs>
</svg>
