<svg width="58" height="131" viewBox="0 0 58 131" fill="none" xmlns="http://www.w3.org/2000/svg">
<g filter="url(#filter0_d_505_95)">
<path d="M5 6C5 3.23857 7.23858 1 10 1H47.2557C50.8869 1 53.3071 4.74858 51.8125 8.05793L27.9529 60.89C27.3485 62.2284 27.363 63.7649 27.9926 65.0916L51.6098 114.856C53.1842 118.174 50.7648 122 47.0926 122H10C7.23858 122 5 119.761 5 117V6Z" fill="#E8E8E8"/>
<path d="M5.25 6C5.25 3.37664 7.37665 1.25 10 1.25H47.2557C50.7053 1.25 53.0045 4.81115 51.5847 7.95504L27.7251 60.7871C27.0904 62.1924 27.1057 63.8057 27.7668 65.1988L51.3839 114.963C52.8796 118.115 50.5812 121.75 47.0926 121.75H10C7.37665 121.75 5.25 119.623 5.25 117V6Z" stroke="#DCDCDC" stroke-width="0.5"/>
</g>
<defs>
<filter id="filter0_d_505_95" x="0" y="0" width="57.2612" height="131" filterUnits="userSpaceOnUse" color-interpolation-filters="sRGB">
<feFlood flood-opacity="0" result="BackgroundImageFix"/>
<feColorMatrix in="SourceAlpha" type="matrix" values="0 0 0 0 0 0 0 0 0 0 0 0 0 0 0 0 0 0 127 0" result="hardAlpha"/>
<feOffset dy="4"/>
<feGaussianBlur stdDeviation="2.5"/>
<feComposite in2="hardAlpha" operator="out"/>
<feColorMatrix type="matrix" values="0 0 0 0 0 0 0 0 0 0 0 0 0 0 0 0 0 0 0.1 0"/>
<feBlend mode="normal" in2="BackgroundImageFix" result="effect1_dropShadow_505_95"/>
<feBlend mode="normal" in="SourceGraphic" in2="effect1_dropShadow_505_95" result="shape"/>
</filter>
</defs>
</svg>
