<svg width="43" height="46" viewBox="0 0 43 46" fill="none" xmlns="http://www.w3.org/2000/svg">
<g filter="url(#filter0_d_744_46)">
<path fill-rule="evenodd" clip-rule="evenodd" d="M30.3943 0.979046C24.5365 -0.326349 18.4618 -0.326349 12.604 0.979046L11.9728 1.11826C10.3251 1.48552 8.81173 2.30097 7.60087 3.47403C6.39001 4.64708 5.52906 6.13181 5.11364 7.76329C3.62879 13.5963 3.62879 19.7067 5.11364 25.5397C5.50981 27.0956 6.31159 28.5195 7.4377 29.6669C8.56382 30.8143 9.97423 31.6445 11.526 32.0733L12.3917 37.226C12.4194 37.3897 12.4905 37.5429 12.5977 37.6698C12.7049 37.7967 12.8443 37.8926 13.0014 37.9476C13.1584 38.0026 13.3273 38.0146 13.4906 37.9823C13.6539 37.9501 13.8055 37.8748 13.9297 37.7643L19.0144 33.2297C22.8315 33.4619 26.6623 33.1577 30.3943 32.3258L31.0273 32.1866C32.675 31.8193 34.1884 31.0039 35.3992 29.8308C36.6101 28.6578 37.4711 27.173 37.8865 25.5415C39.3712 19.7085 39.3712 13.5982 37.8865 7.76515C37.4709 6.13343 36.6097 4.64854 35.3985 3.47546C34.1873 2.30238 32.6735 1.48707 31.0254 1.12011L30.3943 0.979046ZM14.1754 7.61294C13.8294 7.56273 13.4765 7.63217 13.1756 7.8097H13.1495C12.4513 8.21805 11.822 8.7322 11.2858 9.33731C10.8389 9.85147 10.5969 10.3712 10.5336 10.8724C10.4963 11.1693 10.5224 11.47 10.6099 11.754L10.6434 11.7726C11.1461 13.2445 11.8015 14.6608 12.6021 15.9935C13.6345 17.8654 14.9048 19.5966 16.3817 21.1443L16.4264 21.2074L16.4972 21.2594L16.54 21.3095L16.5921 21.3541C18.15 22.8309 19.8907 24.1034 21.7719 25.1406C23.9224 26.3081 25.2275 26.8594 26.0114 27.0896V27.1007C26.2404 27.1712 26.4489 27.2028 26.6593 27.2028C27.3269 27.1536 27.9587 26.8831 28.4542 26.4343C29.0593 25.8998 29.5713 25.2705 29.9698 24.5708V24.5578C30.344 23.8524 30.2174 23.1879 29.6774 22.7369C28.5929 21.7922 27.4201 20.9531 26.1752 20.2311C25.3411 19.78 24.494 20.0529 24.1514 20.5095L23.4197 21.4302C23.0436 21.8868 22.3621 21.8237 22.3621 21.8237L22.3435 21.8348C17.2587 20.5411 15.9014 15.4088 15.9014 15.4088C15.9014 15.4088 15.8381 14.7109 16.3091 14.3545L17.2252 13.6195C17.6646 13.2631 17.9699 12.4204 17.4989 11.5888C16.7795 10.3466 15.9394 9.17782 14.9909 8.09926C14.784 7.84542 14.4939 7.67254 14.1717 7.61109L14.1754 7.61294ZM22.7661 5.38185C22.5192 5.38185 22.2824 5.47962 22.1079 5.65367C21.9333 5.82772 21.8352 6.06378 21.8352 6.30992C21.8352 6.55606 21.9333 6.79212 22.1079 6.96617C22.2824 7.14022 22.5192 7.238 22.7661 7.238C25.1214 7.238 27.0764 8.00459 28.6236 9.47467C29.4186 10.2784 30.0386 11.2306 30.4445 12.2737C30.8523 13.3188 31.0385 14.4343 30.9901 15.5517C30.9849 15.6736 31.0039 15.7953 31.046 15.9098C31.088 16.0244 31.1523 16.1296 31.2351 16.2194C31.4023 16.4007 31.635 16.5084 31.8819 16.5188C32.1288 16.5291 32.3697 16.4412 32.5516 16.2745C32.7336 16.1078 32.8416 15.8758 32.8519 15.6297C32.9097 14.2552 32.6808 12.8837 32.1798 11.6018C31.6766 10.3139 30.9136 9.14263 29.9381 8.16051L29.9195 8.14195C27.9999 6.31363 25.5701 5.38185 22.7661 5.38185ZM22.7028 8.43336C22.4559 8.43336 22.2191 8.53114 22.0446 8.70519C21.87 8.87924 21.7719 9.1153 21.7719 9.36144C21.7719 9.60758 21.87 9.84364 22.0446 10.0177C22.2191 10.1917 22.4559 10.2895 22.7028 10.2895H22.7345C24.4325 10.4102 25.6688 10.9744 26.5346 11.9007C27.4227 12.8547 27.8826 14.0408 27.8472 15.5072C27.8415 15.7533 27.9342 15.9916 28.1047 16.1697C28.2753 16.3477 28.5098 16.4509 28.7567 16.4566C29.0036 16.4623 29.2427 16.3699 29.4213 16.1999C29.5999 16.0298 29.7034 15.796 29.7091 15.5499C29.7538 13.625 29.1319 11.9638 27.8993 10.6385V10.6348C26.6389 9.28719 24.9092 8.57443 22.8276 8.43522L22.7959 8.43151L22.7028 8.43336ZM22.6675 11.5424C22.5429 11.5315 22.4173 11.5456 22.2984 11.5841C22.1794 11.6226 22.0694 11.6846 21.975 11.7663C21.8806 11.8481 21.8037 11.948 21.7489 12.0601C21.6941 12.1722 21.6625 12.2941 21.656 12.4186C21.6494 12.5431 21.6682 12.6677 21.711 12.7848C21.7539 12.902 21.8199 13.0093 21.9053 13.1004C21.9907 13.1915 22.0936 13.2646 22.2079 13.3152C22.3222 13.3657 22.4456 13.3929 22.5706 13.3949C23.3489 13.4357 23.846 13.6696 24.1588 13.9833C24.4735 14.2988 24.7081 14.8055 24.7509 15.5981C24.7532 15.7227 24.7807 15.8455 24.8316 15.9592C24.8826 16.073 24.9559 16.1753 25.0474 16.2602C25.1389 16.3451 25.2465 16.4107 25.364 16.4532C25.4814 16.4957 25.6063 16.5142 25.7311 16.5076C25.8558 16.501 25.978 16.4694 26.0903 16.4148C26.2025 16.3601 26.3026 16.2835 26.3846 16.1894C26.4665 16.0954 26.5286 15.9858 26.5672 15.8673C26.6057 15.7488 26.62 15.6238 26.6091 15.4997C26.5495 14.3861 26.1994 13.4023 25.4826 12.6784C24.7621 11.9545 23.7809 11.6018 22.6675 11.5424Z" fill="url(#paint0_linear_744_46)"/>
</g>
<defs>
<filter id="filter0_d_744_46" x="0" y="0" width="43" height="46" filterUnits="userSpaceOnUse" color-interpolation-filters="sRGB">
<feFlood flood-opacity="0" result="BackgroundImageFix"/>
<feColorMatrix in="SourceAlpha" type="matrix" values="0 0 0 0 0 0 0 0 0 0 0 0 0 0 0 0 0 0 127 0" result="hardAlpha"/>
<feOffset dy="4"/>
<feGaussianBlur stdDeviation="2"/>
<feComposite in2="hardAlpha" operator="out"/>
<feColorMatrix type="matrix" values="0 0 0 0 0.558333 0 0 0 0 0.558333 0 0 0 0 0.558333 0 0 0 0.25 0"/>
<feBlend mode="normal" in2="BackgroundImageFix" result="effect1_dropShadow_744_46"/>
<feBlend mode="normal" in="SourceGraphic" in2="effect1_dropShadow_744_46" result="shape"/>
</filter>
<linearGradient id="paint0_linear_744_46" x1="5.00575" y1="9.69398" x2="39.7783" y2="11.1082" gradientUnits="userSpaceOnUse">
<stop stop-color="#13AD68"/>
<stop offset="1" stop-color="#54D59B"/>
</linearGradient>
</defs>
</svg>
