<svg width="52" height="52" viewBox="0 0 52 52" fill="none" xmlns="http://www.w3.org/2000/svg">
<path d="M26 52C40.3594 52 52 40.3594 52 26C52 11.6406 40.3594 0 26 0C11.6406 0 0 11.6406 0 26C0 40.3594 11.6406 52 26 52Z" fill="#7360F2"/>
<path d="M37.1011 13.8697C36.3429 13.1666 33.2687 10.9361 26.4229 10.9058C26.4229 10.9058 18.3501 10.4178 14.4158 14.0296C12.2101 16.2187 11.4547 19.4252 11.383 23.4037C11.3113 27.3822 11.1955 34.8263 18.3777 36.8472V39.9297C18.3777 39.9297 18.3308 41.1759 19.1525 41.4323C20.145 41.7383 20.7295 40.7899 21.6779 39.778C22.199 39.2266 22.9186 38.3995 23.459 37.7626C28.3722 38.1762 32.1466 37.2305 32.5767 37.0899C33.5693 36.77 39.1799 36.0505 40.0925 28.6008C41.0244 20.914 39.6266 16.0588 37.1011 13.8697ZM37.9282 28.0411C37.159 34.2583 32.607 34.6581 31.7689 34.92C29.2034 35.5456 26.5565 35.7707 23.9222 35.5873C23.9222 35.5873 20.8205 39.3369 19.85 40.3129C19.7954 40.3774 19.726 40.4276 19.6477 40.4593C19.5695 40.491 19.4846 40.5032 19.4006 40.4949C19.2352 40.4535 19.1883 40.2578 19.1911 39.9683C19.1911 39.5547 19.2159 34.8456 19.2159 34.8456C13.1503 33.1583 13.4977 26.8197 13.5666 23.5002C13.6355 20.1807 14.2586 17.4594 16.1114 15.6315C19.4392 12.6152 26.2961 13.0674 26.2961 13.0674C32.086 13.0922 34.8623 14.8347 35.5047 15.4192C37.6415 17.2499 38.7305 21.6254 37.9337 28.0384L37.9282 28.0411Z" fill="white"/>
<path d="M29.2407 23.6133C29.1415 23.6134 29.0462 23.5754 28.9743 23.5071C28.9025 23.4388 28.8596 23.3456 28.8547 23.2466C28.7885 21.9314 28.1709 21.2863 26.9082 21.2201C26.8058 21.215 26.7096 21.1694 26.6409 21.0934C26.5721 21.0174 26.5363 20.9172 26.5415 20.8148C26.5466 20.7124 26.5922 20.6163 26.6682 20.5475C26.7442 20.4788 26.8444 20.443 26.9468 20.4481C28.601 20.5363 29.5412 21.4903 29.6266 23.2052C29.6312 23.3074 29.5952 23.4073 29.5265 23.4832C29.4579 23.559 29.3621 23.6048 29.26 23.6105L29.2407 23.6133Z" fill="white"/>
<path d="M31.2258 24.2805C31.1231 24.2776 31.0258 24.2342 30.955 24.1599C30.8843 24.0855 30.8458 23.9861 30.848 23.8835C30.8829 23.2881 30.7986 22.6918 30.6003 22.1294C30.4019 21.567 30.0934 21.0498 29.6928 20.608C28.8877 19.7285 27.7849 19.2516 26.3209 19.144C26.2702 19.1404 26.2207 19.1268 26.1753 19.1041C26.1298 19.0814 26.0893 19.0499 26.056 19.0115C26.0228 18.9731 25.9974 18.9285 25.9813 18.8803C25.9653 18.8321 25.9589 18.7812 25.9625 18.7305C25.9661 18.6798 25.9797 18.6303 26.0024 18.5849C26.0252 18.5394 26.0566 18.4989 26.095 18.4656C26.1334 18.4323 26.178 18.4069 26.2262 18.3909C26.2744 18.3748 26.3254 18.3684 26.376 18.3721C28.0303 18.4906 29.3316 19.0696 30.2635 20.087C30.73 20.6017 31.0903 21.2035 31.3235 21.8579C31.5568 22.5122 31.6585 23.2062 31.6228 23.9C31.6217 23.9511 31.6106 24.0014 31.59 24.0482C31.5695 24.0949 31.54 24.1372 31.5031 24.1725C31.4662 24.2078 31.4228 24.2356 31.3752 24.2541C31.3276 24.2726 31.2768 24.2816 31.2258 24.2805Z" fill="white"/>
<path d="M33.2604 25.0745C33.1585 25.0745 33.0608 25.0342 32.9885 24.9624C32.9162 24.8906 32.8752 24.7932 32.8744 24.6913C32.8551 22.356 32.1549 20.4977 30.7901 19.1771C30.1106 18.516 29.3068 17.9963 28.4251 17.648C27.5435 17.2997 26.6014 17.1297 25.6536 17.1479C25.5565 17.1397 25.4661 17.0953 25.4001 17.0236C25.3342 16.9518 25.2976 16.858 25.2976 16.7605C25.2976 16.6631 25.3342 16.5692 25.4001 16.4974C25.4661 16.4257 25.5565 16.3813 25.6536 16.3731C26.7004 16.351 27.7411 16.5368 28.7155 16.9196C29.69 17.3025 30.5788 17.8749 31.3305 18.6036C32.8496 20.0842 33.6271 22.1272 33.6464 24.6692C33.6472 24.72 33.6378 24.7704 33.6189 24.8176C33.5999 24.8647 33.5718 24.9076 33.5362 24.9438C33.5005 24.9799 33.458 25.0087 33.4111 25.0283C33.3643 25.0479 33.314 25.058 33.2632 25.058L33.2604 25.0745Z" fill="white"/>
<path d="M27.0046 28.4134C27.1572 28.423 27.31 28.3997 27.4527 28.345C27.5955 28.2903 27.7247 28.2055 27.8318 28.0963L28.4052 27.3795C28.6021 27.1615 28.8695 27.0199 29.1605 26.9796C29.4514 26.9392 29.7473 27.0027 29.9961 27.1589C30.4847 27.4356 30.9586 27.7375 31.416 28.0632C31.8461 28.383 32.7311 29.1192 32.7339 29.1192C32.9393 29.2891 33.0762 29.5277 33.1193 29.7907C33.1623 30.0538 33.1087 30.3236 32.9682 30.5501C32.6512 31.0981 32.2492 31.5922 31.7771 32.0141C31.4397 32.3218 31.0202 32.5249 30.5695 32.5986C30.5109 32.6055 30.4517 32.6055 30.3931 32.5986C30.219 32.5997 30.0458 32.5727 29.8803 32.5187V32.4994C29.271 32.3284 28.2536 31.8983 26.5718 30.9637C25.5861 30.4413 24.6471 29.8353 23.765 29.1523C23.3255 28.8098 22.9066 28.4415 22.5106 28.0494L22.4665 28.0081L22.4251 27.964L22.3837 27.9226L22.3396 27.8813C21.949 27.4839 21.5808 27.0651 21.2368 26.6268C20.5397 25.7528 19.9181 24.8212 19.3785 23.8421C18.4439 22.1493 18 21.1347 17.8428 20.5336H17.8235C17.7704 20.3679 17.7443 20.1948 17.7463 20.0208C17.7394 19.9622 17.7394 19.903 17.7463 19.8443C17.8186 19.3818 18.0247 18.9505 18.3391 18.6037C18.7609 18.1315 19.255 17.7295 19.8031 17.4126C20.0291 17.2726 20.2981 17.2189 20.5605 17.2615C20.8229 17.304 21.0611 17.4399 21.2313 17.6442C21.2313 17.6442 21.9702 18.532 22.2873 18.9621C22.6043 19.3922 22.9379 19.8802 23.2136 20.3682C23.3687 20.6173 23.4316 20.9129 23.3913 21.2035C23.351 21.4942 23.2101 21.7615 22.9931 21.959L22.2735 22.5297C22.1648 22.637 22.0805 22.7664 22.0263 22.9091C21.972 23.0518 21.9492 23.2045 21.9592 23.3569C21.9592 23.3569 23.0262 27.396 27.0046 28.4134Z" fill="white"/>
</svg>
