<svg width="52" height="52" viewBox="0 0 52 52" fill="none" xmlns="http://www.w3.org/2000/svg">
<path d="M26 52C40.3594 52 52 40.3594 52 26C52 11.6406 40.3594 0 26 0C11.6406 0 0 11.6406 0 26C0 40.3594 11.6406 52 26 52Z" fill="#25D366"/>
<path d="M10.4 42.0009L12.624 33.8827C10.9034 30.8951 10.2165 27.4234 10.6697 24.0057C11.1229 20.5881 12.6909 17.4154 15.1306 14.9795C17.5703 12.5436 20.7455 10.9806 24.1639 10.5327C27.5823 10.0849 31.0529 10.7773 34.0378 12.5025C37.0226 14.2278 39.355 16.8895 40.6732 20.0751C41.9915 23.2607 42.222 26.7922 41.3291 30.1222C40.4362 33.4521 38.4697 36.3945 35.7344 38.4931C32.9992 40.5918 29.648 41.7295 26.2004 41.7299C23.5853 41.7284 21.0121 41.0722 18.7156 39.8211L10.4 42.0009ZM19.0896 36.9933L19.5669 37.2879C21.5735 38.4762 23.8624 39.1039 26.1946 39.1053C29.0825 39.1059 31.8888 38.1467 34.1722 36.3785C36.4555 34.6103 38.0866 32.1335 38.8088 29.3373C39.5311 26.5411 39.3036 23.5842 38.1622 20.9314C37.0207 18.2785 35.03 16.0803 32.503 14.6822C29.976 13.2841 27.0561 12.7654 24.2022 13.2077C21.3483 13.65 18.7223 15.0282 16.7371 17.1256C14.7519 19.223 13.52 21.9207 13.235 24.7946C12.9501 27.6685 13.6284 30.5556 15.1631 33.0019L15.4577 33.4939L14.141 38.2982L19.0896 36.9933Z" fill="white"/>
<path fill-rule="evenodd" clip-rule="evenodd" d="M34.0918 29.7883C33.9946 29.6233 33.7324 29.5261 33.3407 29.3317C32.9489 29.1373 31.0254 28.1888 30.666 28.0562C30.3067 27.9237 30.0475 27.8618 29.7823 28.2536C29.5172 28.6453 28.772 29.5261 28.5452 29.7883C28.3184 30.0504 28.0857 30.0828 27.6968 29.8855C26.5487 29.4244 25.4892 28.7676 24.5656 27.9443C23.7098 27.1526 22.9762 26.2384 22.3888 25.2313C22.159 24.8396 22.3623 24.6422 22.5596 24.4331C22.757 24.2239 22.9514 23.9736 23.1488 23.7467C23.3107 23.5492 23.4427 23.3288 23.5405 23.0928C23.5921 22.9846 23.6161 22.8653 23.6104 22.7456C23.6048 22.6258 23.5696 22.5094 23.5081 22.4065C23.4109 22.2121 22.6244 20.2856 22.3004 19.5021C21.9764 18.7185 21.6612 18.8422 21.4167 18.8275C21.1722 18.8128 20.9277 18.8275 20.6685 18.8275C20.4672 18.8308 20.2688 18.8763 20.0862 18.9611C19.9035 19.0458 19.7406 19.1679 19.6081 19.3194C19.1688 19.736 18.8204 20.2388 18.5846 20.7964C18.3489 21.354 18.231 21.9543 18.2384 22.5597C18.2384 24.4861 19.6405 26.3477 19.8379 26.6099C20.0352 26.8721 22.5979 30.8251 26.5245 32.5189C27.2535 32.8334 27.9988 33.1087 28.7572 33.3436C29.5559 33.5862 30.3999 33.6396 31.2228 33.4998C31.9739 33.3878 33.538 32.5513 33.8738 31.6381C34.2096 30.725 34.189 29.9503 34.0918 29.7883Z" fill="white"/>
</svg>
