<svg width="22" height="16" viewBox="0 0 22 16" fill="none" xmlns="http://www.w3.org/2000/svg">
<path d="M4.51824 10.275C4.2283 9.975 4.09138 9.61667 4.10749 9.2C4.12359 8.78333 4.28467 8.45833 4.59072 8.225C5.47665 7.525 6.46341 6.979 7.55101 6.587C8.63796 6.19567 9.78548 6 10.9936 6C12.2178 6 13.3737 6.2 14.4613 6.6C15.5482 7 16.5346 7.55833 17.4206 8.275C17.7266 8.50833 17.8838 8.82933 17.8922 9.238C17.8999 9.646 17.7588 10 17.4689 10.3C17.1951 10.5833 16.861 10.7293 16.4667 10.738C16.0717 10.746 15.7051 10.6333 15.3668 10.4C14.7386 9.95 14.0582 9.60433 13.3257 9.363C12.5924 9.121 11.8151 9 10.9936 9C10.1721 9 9.39503 9.125 8.66245 9.375C7.92922 9.625 7.25656 9.96667 6.64446 10.4C6.29009 10.65 5.91575 10.7627 5.52143 10.738C5.12647 10.7127 4.79207 10.5583 4.51824 10.275ZM0.410749 6.05C0.136916 5.76667 0 5.42067 0 5.012C0 4.604 0.14497 4.26667 0.43491 4C1.8685 2.75 3.47928 1.77067 5.26725 1.062C7.05521 0.354 8.96399 0 10.9936 0C13.0231 0 14.9319 0.354 16.7199 1.062C18.5079 1.77067 20.1186 2.75 21.5522 4C21.8422 4.26667 21.9913 4.6 21.9997 5C22.0074 5.4 21.8663 5.75 21.5764 6.05C21.3026 6.33333 20.9685 6.48333 20.5742 6.5C20.1792 6.51667 19.8206 6.39167 19.4985 6.125C18.3226 5.14167 17.014 4.375 15.5727 3.825C14.1307 3.275 12.6043 3 10.9936 3C9.38279 3 7.85674 3.275 6.41541 3.825C4.97344 4.375 3.66452 5.14167 2.48865 6.125C2.1665 6.39167 1.80826 6.51667 1.41394 6.5C1.01898 6.48333 0.684581 6.33333 0.410749 6.05ZM10.9936 16C10.4459 16 9.98683 15.8083 9.61635 15.425C9.24587 15.0417 9.06063 14.5667 9.06063 14C9.06063 13.4333 9.24587 12.9583 9.61635 12.575C9.98683 12.1917 10.4459 12 10.9936 12C11.5412 12 12.0003 12.1917 12.3708 12.575C12.7413 12.9583 12.9265 13.4333 12.9265 14C12.9265 14.5667 12.7413 15.0417 12.3708 15.425C12.0003 15.8083 11.5412 16 10.9936 16Z" fill="url(#paint0_linear_79_483)"/>
<defs>
<linearGradient id="paint0_linear_79_483" x1="0.632184" y1="4.08167" x2="22.445" y2="5.40608" gradientUnits="userSpaceOnUse">
<stop stop-color="#13AD68"/>
<stop offset="1" stop-color="#54D59B"/>
</linearGradient>
</defs>
</svg>
