<svg width="35" height="35" viewBox="0 0 35 35" fill="none" xmlns="http://www.w3.org/2000/svg">
<circle cx="17.5" cy="17.5" r="17.5" fill="#13AD68"/>
<path d="M10 18.5821H21.17L16.29 23.4621C15.9 23.8521 15.9 24.4921 16.29 24.8821C16.3825 24.9748 16.4924 25.0484 16.6134 25.0985C16.7343 25.1487 16.864 25.1746 16.995 25.1746C17.126 25.1746 17.2557 25.1487 17.3766 25.0985C17.4976 25.0484 17.6075 24.9748 17.7 24.8821L24.29 18.2921C24.68 17.9021 24.68 17.2721 24.29 16.8821L17.7 10.2921C17.6074 10.1995 17.4975 10.1261 17.3765 10.076C17.2556 10.0259 17.1259 10.0001 16.995 10.0001C16.8641 10.0001 16.7344 10.0259 16.6135 10.076C16.4925 10.1261 16.3826 10.1995 16.29 10.2921C16.1974 10.3847 16.124 10.4946 16.0739 10.6156C16.0238 10.7365 15.998 10.8662 15.998 10.9971C15.998 11.128 16.0238 11.2577 16.0739 11.3787C16.124 11.4996 16.1974 11.6095 16.29 11.7021L21.17 16.5821H10C9.45 16.5821 9 17.0321 9 17.5821C9 18.1321 9.45 18.5821 10 18.5821Z" fill="white"/>
</svg>
