<svg width="139" height="38" viewBox="0 0 139 38" fill="none" xmlns="http://www.w3.org/2000/svg">
<path d="M46.1737 26.6447H41.0467C42.2564 25.904 41.9813 24.9724 41.9813 24.1082C41.9865 19.0492 41.9813 13.9902 41.9891 8.93122C41.9891 8.30466 42.0929 7.66879 41.2466 7.26817C42.8172 7.00497 44.3462 7.0865 45.8726 7.13075C46.0517 7.13541 46.3892 7.27749 46.0802 7.54069C45.6285 7.92501 45.8025 8.40948 45.8025 8.85203C45.7895 12.6137 45.7947 16.3753 45.7947 20.463C46.7162 19.1471 47.4613 18.1082 48.1778 17.0554C50.0676 14.2767 51.9419 11.4887 53.8291 8.70994C54.0523 8.3792 54.3509 8.08339 54.3639 7.67112C54.3716 7.44053 54.382 7.24022 54.7273 7.24954C54.9635 7.25653 55.2075 7.22625 55.3685 7.44054C55.5736 7.71538 55.2439 7.78758 55.1348 7.94364C53.5825 10.182 52.0639 12.4413 50.4518 14.6447C50.0105 15.248 50.0598 15.7278 50.348 16.3054C51.8562 19.3311 53.3411 22.366 54.8701 25.3823C55.0284 25.6944 55.0492 26.2697 55.7605 26.1346C55.9604 26.0974 56.0071 26.2558 55.9785 26.4141C55.95 26.5749 55.8306 26.682 55.6644 26.6843C54.0757 26.689 52.4896 26.6867 50.9009 26.6797C50.6569 26.6797 50.4777 26.4794 50.6491 26.3489C51.2617 25.8854 50.6854 25.5337 50.5375 25.1773C49.8729 23.5795 48.9306 22.0865 48.3491 20.4561C48.2478 20.1696 48.1855 19.7247 47.6741 19.6688C47.1965 19.6176 46.9603 19.953 46.7344 20.2231C46.1659 20.9033 45.7012 21.609 45.7765 22.5407C45.8544 23.498 45.7869 24.4646 45.7921 25.4266C45.7921 25.8295 45.6986 26.2697 46.1711 26.654L46.1737 26.6447Z" fill="#0749AA"/>
<path d="M125.1 26.4491C126.097 26.3955 126.16 25.6967 126.378 25.1308C127.156 23.0997 128.353 21.2317 129.223 19.2379C130.368 16.6152 131.653 14.0554 133.018 11.5189C133.599 10.4382 133.807 9.20606 134.643 8.20917C134.786 8.03681 134.755 7.76429 134.365 7.6455C132.128 6.9677 128.213 8.13696 126.967 9.90948C126.401 10.713 126.354 11.6843 126.012 12.637C125.461 12.0733 125.747 11.4491 125.716 10.8877C125.664 9.92811 125.742 8.96382 125.692 8.0042C125.659 7.31709 125.913 7.0632 126.705 7.06786C130.552 7.09115 134.399 7.07718 138.246 7.0632C138.903 7.0632 139.15 7.36833 138.911 7.8528C136.959 11.8474 134.97 15.8256 133.008 19.8155C132.081 21.6998 131.18 23.5958 130.269 25.4871C130.238 25.55 130.214 25.6176 130.191 25.6828C129.952 26.3582 129.361 26.6967 128.418 26.6983C127.354 26.6983 126.292 26.6983 125.228 26.6983C125.183 26.6144 125.142 26.5306 125.098 26.4467L125.1 26.4491Z" fill="#0749AA"/>
<path d="M88.22 21.2922C88.1213 23.0461 89.4375 24.0873 90.5044 25.2426C91.4493 26.2651 94.5437 26.6284 96.0337 25.953C97.7834 25.1587 98.653 23.6144 98.2117 21.8978C97.8639 20.5399 96.5088 20.0438 95.3173 19.4685C93.6039 18.6416 91.7271 18.0384 90.141 17.0554C87.7917 15.5997 86.813 13.38 87.9033 10.4778C88.8404 7.97858 90.9198 7.24721 93.469 7.10746C95.3692 7.00497 97.2824 7.09115 99.1904 7.07485C99.7771 7.07019 100.187 7.13541 100.169 7.81088C100.13 9.2014 100.153 10.5919 100.146 11.9825C100.146 12.22 100.216 12.5321 99.8238 12.5694C99.2735 12.623 99.4526 12.22 99.4266 11.9755C99.0191 7.99954 94.6371 7.01196 91.5895 8.02283C90.3227 8.44209 89.5517 9.47392 89.4608 10.7061C89.3596 12.0756 90.0787 13.1936 91.4026 13.8551C93.4664 14.8893 95.5561 15.8885 97.76 16.6781C99.3747 17.2581 101.023 20.102 100.603 21.63C100.338 22.5896 100.239 23.5562 99.5616 24.4693C98.5362 25.8528 97.0903 26.5003 95.4548 26.6401C93.2483 26.8287 91.008 26.6703 88.7859 26.7099C87.9993 26.7239 87.7449 26.4794 87.7657 25.7829C87.8124 24.3155 87.7787 22.8481 87.7787 21.3808C87.9266 21.3505 88.0746 21.3202 88.2226 21.2899L88.22 21.2922Z" fill="#0749AA"/>
<path d="M77.504 26.703C76.3202 26.703 75.2871 26.689 74.2539 26.7099C73.6932 26.7216 73.3479 26.6168 73.3609 26.0135C73.3894 24.6952 73.3713 23.3769 73.3661 22.0585C73.3661 21.793 73.3946 21.4809 73.7165 21.4693C74.1215 21.4553 74.1163 21.8 74.1526 22.0888C74.4408 24.4273 76.5253 26.0624 79.1628 26.0811C80.6321 26.0927 82.1299 26.095 83.1034 24.9374C84.4144 23.3769 84.4377 20.8078 81.5458 19.6851C79.29 18.8093 77.0471 17.9103 75.1027 16.4941C72.9585 14.9359 72.2368 13.2612 73.0416 10.8738C73.6283 9.13385 75.1884 7.53836 77.7558 7.23556C80.1337 6.95606 82.5089 7.16103 84.8842 7.07951C85.4112 7.06087 85.6993 7.22392 85.6941 7.75032C85.676 9.17578 85.6838 10.5989 85.6941 12.0244C85.6941 12.3342 85.6241 12.6789 85.2762 12.6719C84.892 12.6626 84.9283 12.2783 84.8972 11.9918C84.539 8.58882 80.3933 6.55311 76.9459 8.09504C75.3883 8.79146 74.9911 10.012 75.1209 11.4561C75.2403 12.7837 76.2501 13.5267 77.4235 14.0624C79.7806 15.1385 82.239 16.0422 84.3339 17.5306C86.1173 18.8 86.3847 20.6098 86.0342 22.3916C85.676 24.2084 84.4247 25.5896 82.3947 26.3023C80.7463 26.8823 79.0408 26.6238 77.5066 26.6983L77.504 26.703Z" fill="#0749AA"/>
<path d="M71.7851 26.6261H66.6789C67.5486 25.4499 66.4142 24.4576 66.2714 23.3582C66.2247 22.9995 65.8742 23.0531 65.625 23.0508C63.7975 23.0368 61.9699 23.0578 60.145 23.0275C59.5947 23.0182 59.3922 23.293 59.1767 23.6564C58.7588 24.3621 58.995 25.1703 58.712 25.904C58.629 26.123 59.1949 26.5143 58.6705 26.682C58.2863 26.8054 57.8035 26.7332 57.3777 26.6773C57.1934 26.6517 56.9338 26.4677 57.2064 26.2185C58.8289 24.7534 58.8366 22.6898 59.5012 20.9033C60.2644 18.8512 60.9419 16.7526 61.6013 14.6587C62.2477 12.609 63.1822 10.6315 63.6547 8.53525C63.7637 8.05777 64.0389 7.70373 64.5373 7.68743C65.1681 7.66413 65.0461 8.17889 65.1032 8.55389C65.259 9.55777 65.8483 10.4335 66.1494 11.4095C67.6265 16.2216 69.2749 20.9941 70.8195 25.7899C70.9648 26.2394 71.4477 26.2325 71.7851 26.6261ZM62.8058 22.4825C63.6002 22.4825 64.3945 22.4941 65.1889 22.4755C65.4667 22.4685 65.8794 22.5663 65.6769 22.0399C65.3628 21.2224 65.1058 20.3862 64.841 19.5523C64.2673 17.7495 63.447 16.0073 63.1796 14.13C63.1563 13.9646 63.2082 13.7573 62.9382 13.7084C62.5177 13.6362 62.541 13.9203 62.4606 14.1579C61.5987 16.6804 60.7161 19.1983 59.8594 21.7231C59.6933 22.2099 59.8257 22.5407 60.5448 22.4918C61.295 22.4405 62.053 22.4801 62.8058 22.4778V22.4825Z" fill="#0749AA"/>
<path d="M116.266 26.6447H111.137C111.872 25.3637 111.15 24.2922 110.727 23.2022C110.633 22.9599 110.228 23.0485 109.958 23.0461C108.253 23.0415 106.545 23.0578 104.839 23.0368C104.294 23.0298 103.941 23.1416 103.863 23.6866C103.744 24.5205 102.942 25.2519 103.435 26.1835C103.598 26.4933 103.297 26.5166 103.056 26.5213C102.669 26.5283 102.282 26.5213 101.802 26.5213C102.988 25.536 103.025 24.22 103.435 23.0741C104.798 19.2426 105.968 15.3575 107.378 11.5399C107.786 10.4382 108.136 9.32951 108.458 8.2115C108.564 7.83882 108.878 7.73401 109.109 7.70606C109.579 7.65016 109.59 8.10435 109.681 8.37221C110.729 11.4165 111.762 14.463 112.788 17.5143C113.681 20.1672 114.556 22.8249 115.444 25.4801C115.589 25.918 115.882 26.2581 116.266 26.6424V26.6447ZM107.282 13.6665C106.342 16.4079 105.449 18.9933 104.58 21.5857C104.455 21.9607 104.18 22.4778 105.029 22.4825C106.654 22.4894 108.281 22.4894 109.906 22.4871C110.192 22.4871 110.581 22.4242 110.379 22.0888C109.917 21.3272 109.971 20.47 109.696 19.6735C109.252 18.3901 108.541 17.1975 108.227 15.8582C108.063 15.1595 107.98 14.3536 107.282 13.6665Z" fill="#0749AA"/>
<path d="M117.525 8.93122C119.052 9.0896 119.41 8.35358 119.262 7.26584C119.867 7.31243 119.677 7.63618 119.701 7.84348C119.742 8.22314 119.623 8.68432 120.267 8.72625C120.747 8.75652 121.217 8.68199 121.349 8.1719C121.412 7.93665 121.549 7.73401 121.77 7.71072C122.12 7.67345 122.024 7.98323 122.089 8.16724C122.201 8.47236 122.44 8.6028 122.808 8.6028C123.138 8.6028 123.54 8.48634 123.74 8.94286C123.61 9.00808 123.47 9.14783 123.353 9.13153C121.858 8.92656 122.006 9.77904 122.141 10.6269C122.177 10.8505 122.484 11.0508 122.201 11.3047C121.804 11.6587 122.466 12.5275 121.71 12.5345C120.978 12.5415 121.554 11.7728 121.336 11.4141C120.981 10.8295 120.371 10.9879 119.963 11.2441C119.125 11.7658 118.483 10.7596 117.715 11.1067C117.684 11.0135 117.603 10.904 117.634 10.8295C117.66 10.7643 117.811 10.6991 117.902 10.7037C118.598 10.7503 118.995 10.6082 119.034 9.84892C119.075 8.96382 118.364 9.29457 117.93 9.15482C117.788 9.10824 117.663 9.01041 117.531 8.93587L117.525 8.93122ZM121.341 9.7837C121.562 9.15249 121.051 9.20373 120.532 9.1851C119.96 9.16413 119.641 9.25963 119.693 9.86988C119.735 10.3613 119.825 10.6804 120.485 10.6967C121.183 10.7154 121.422 10.4312 121.341 9.78137V9.7837Z" fill="#0749AA"/>
<path d="M36.0288 16.7738C36.0288 20.4818 35.9379 24.1899 36.0651 27.8933C36.1352 29.9337 34.2324 32.1557 32.1738 32.8009C31.7533 32.9337 31.7221 33.134 31.717 33.4158C31.7066 33.9865 31.7247 34.5571 31.717 35.1255C31.691 36.9585 29.905 38.8778 27.3065 37.464C26.4706 37.0098 26.4991 36.1853 26.4394 35.4818C26.2317 33.0641 26.2681 33.0618 23.5034 33.0618C19.7289 33.0618 15.9545 33.1014 12.18 33.0408C11.1364 33.0245 10.8431 33.332 10.9573 34.1891C11.0144 34.6107 10.8898 35.0579 10.9833 35.4679C11.37 37.1752 8.83122 38.4283 7.18021 37.8623C6.41182 37.5991 6.06137 36.8211 5.80437 36.1084C5.73168 35.9081 5.7239 35.6868 5.71092 35.4749C5.62438 34.1099 4.85339 33.2148 3.39794 32.7893C1.46657 32.2256 0.0543814 30.2505 0.0491896 28.0261C0.031018 20.5401 0.0232304 13.054 0.0336141 5.57034C0.0336141 4.68991 -0.161081 3.83975 0.386661 2.93137C1.47695 1.12158 3.01115 0.0268627 5.29557 0.0198751C13.7972 -0.0104044 22.2989 -0.00574527 30.8006 0.0315218C33.6873 0.0431678 36.034 2.27221 36.0314 5.33044C36.0314 9.14332 36.0314 12.9585 36.0288 16.7714V16.7738ZM17.8313 21.4764C17.8313 21.4764 17.8313 21.4717 17.8313 21.4694C21.0503 21.4694 24.2692 21.4787 27.4856 21.4671C30.2373 21.4578 32.1297 19.7505 32.1349 17.2932C32.1401 14.1557 32.0856 11.0183 32.1583 7.88323C32.218 5.28851 30.4943 3.49037 27.3558 3.48339C21.0373 3.47174 14.7214 3.50435 8.4029 3.48339C6.13665 3.4764 4.01837 5.12547 4.09365 7.41506C4.20528 10.7994 4.1248 14.1884 4.13259 17.5727C4.13259 17.9616 4.13259 18.3436 4.28056 18.7303C4.80494 20.1161 6.84274 21.6231 8.89353 21.516C11.8633 21.3599 14.8512 21.4764 17.8313 21.4764ZM8.51192 29.6006C8.51192 29.6006 8.51192 29.6076 8.51192 29.6123C9.46463 29.6123 10.4173 29.6286 11.37 29.6076C12.9328 29.575 14.0205 28.6713 14.0205 27.4321C14.0205 26.2443 12.8757 25.3056 11.3285 25.2846C9.46463 25.259 7.59816 25.2544 5.73428 25.2846C4.15336 25.3103 3.28372 26.1138 3.28372 27.4717C3.28372 28.7202 4.26498 29.568 5.77581 29.5983C6.68699 29.6169 7.60075 29.6006 8.51452 29.6006H8.51192ZM27.7763 29.6006C27.7763 29.6006 27.7763 29.5843 27.7763 29.575C28.8484 29.575 29.918 29.5936 30.9901 29.5703C31.8831 29.5494 32.9941 28.5781 33.1006 27.7722C33.2823 26.4026 32.0778 25.2916 30.3281 25.2683C28.5421 25.245 26.7561 25.2567 24.9727 25.2683C23.4904 25.28 22.4287 26.186 22.4183 27.4112C22.4079 28.7901 23.3087 29.582 24.9208 29.5983C25.8735 29.6076 26.8262 29.5983 27.7763 29.5983V29.6006Z" fill="#F8C005"/>
<path d="M27.6803 12.5719C27.6361 17.3165 23.384 20.9384 18.1636 21.0222C13.2235 21.1037 8.80007 17.3211 8.76892 12.353C8.74556 8.30947 12.7563 3.71864 18.6724 4.07733C23.506 4.37081 27.7737 7.77842 27.6803 12.5742V12.5719ZM11.544 12.8304C11.1079 12.8304 10.6691 12.8607 10.2356 12.8235C9.59702 12.7699 9.46463 13.0703 9.59183 13.5292C9.91373 14.7078 10.3966 15.8258 11.0845 16.8832C11.8062 17.9896 12.5045 16.9228 13.1898 16.8949C13.7817 16.8693 13.9815 16.3056 13.7687 15.8398C13.4312 15.1084 13.4987 14.3304 13.3689 13.5828C13.2703 13.0168 13.1742 12.7419 12.4941 12.8211C12.1826 12.8584 11.8607 12.8281 11.544 12.8281V12.8304ZM11.4583 12.0804C11.8165 12.0804 12.1748 12.0571 12.5278 12.0851C13.1093 12.134 13.3481 11.9919 13.3507 11.398C13.3533 10.641 13.5273 9.88634 13.7479 9.14333C13.8284 8.86848 14.0309 8.4795 13.5428 8.22329C11.9437 7.38245 11.3285 7.5455 10.4277 9.03851C10.1811 9.44379 10.0799 9.87469 9.94488 10.3079C9.39194 12.0828 9.38156 12.0781 11.4557 12.0781L11.4583 12.0804ZM26.8833 13.4896C26.9612 13.089 26.9067 12.8048 26.3148 12.8304C25.4867 12.863 24.6534 12.8514 23.8253 12.8304C23.3217 12.8188 23.1556 12.9888 23.1348 13.4477C23.0959 14.2466 23.0414 15.0595 22.8311 15.8304C22.6961 16.3242 22.4962 16.7947 23.1815 16.9065C23.9058 17.023 24.7209 17.9197 25.414 16.8553C26.0994 15.8025 26.6315 14.6938 26.8833 13.4896ZM24.817 12.0828C27.4077 12.0734 27.0676 12.2971 26.5069 10.287C26.3875 9.85606 26.1798 9.43681 25.9644 9.03385C25.1051 7.42904 25.1207 7.48261 23.249 8.15342C22.6935 8.3514 22.5222 8.62392 22.7195 8.95699C23.0517 9.516 23.1011 10.1938 23.0595 10.6736C22.9245 12.2342 23.8772 12.2202 24.8196 12.0828H24.817ZM17.9196 14.589C17.9196 13.4182 17.2966 12.8328 16.0505 12.8328C15.7338 12.8328 15.4145 12.8584 15.103 12.8281C14.4488 12.7675 14.2775 12.9702 14.2411 13.5921C14.1944 14.4283 14.4306 15.1992 14.5656 15.9981C14.6124 16.2776 14.7422 16.5385 15.0485 16.5012C15.9571 16.3894 16.9305 16.3522 17.7301 16.0075C18.2259 15.7932 17.8209 15.0199 17.9222 14.5913L17.9196 14.589ZM18.7684 14.5121C18.7684 14.8662 18.7944 15.2225 18.7633 15.5719C18.7165 16.0797 18.8515 16.2916 19.5161 16.3266C21.7018 16.4453 21.6993 16.4826 22.1613 14.4143C22.1769 14.3467 22.2236 14.2862 22.2444 14.221C22.6208 12.9306 22.5403 12.8351 21.0892 12.8304C20.9309 12.8304 20.7725 12.8304 20.6168 12.8304C19.388 12.8304 18.7736 13.3902 18.7736 14.5098L18.7684 14.5121ZM17.9585 10.4849C17.9144 9.95854 18.0234 9.36227 17.7742 8.9337C17.5873 8.61227 16.9124 8.94534 16.4633 8.84985C16.349 8.82655 16.2452 8.76367 16.1336 8.74037C14.8356 8.47252 14.5293 8.65885 14.3372 9.83743C14.3086 10.0121 14.3502 10.1938 14.3346 10.3685C14.2186 11.5113 14.7993 12.0828 16.0765 12.0828C17.3052 12.0828 17.9334 11.5494 17.9611 10.4826L17.9585 10.4849ZM20.5856 12.0851C22.3846 12.0851 22.3508 12.0851 22.1665 10.4034C22.1172 9.94457 21.964 9.516 21.9095 9.06646C21.8888 8.89177 21.9069 8.70078 21.6447 8.66817C20.7388 8.55171 19.799 8.62158 19.0073 8.92904C18.4336 9.15031 18.7892 9.88867 18.7788 10.3894C18.7425 12.0874 18.7659 12.0874 20.583 12.0851H20.5856ZM17.9196 6.41817C17.9196 6.13401 17.9352 5.84985 17.9144 5.56801C17.8962 5.33277 18.0364 5.01832 17.769 4.88323C17.4627 4.73183 17.1512 4.98339 16.9435 5.1278C16.131 5.69845 15.6092 6.46941 15.1835 7.31258C14.994 7.68991 15.1601 7.90652 15.4742 7.92982C16.2166 7.98339 17.0525 8.12081 17.6937 7.8809C18.2389 7.67826 17.8157 6.91895 17.9222 6.41584L17.9196 6.41817ZM17.9741 18.4624C17.4757 18.113 18.7035 16.9345 17.0266 16.9857C16.3542 17.0067 15.4275 16.9391 15.1731 17.3165C14.8797 17.7474 15.6611 18.3157 15.8818 18.863C15.9181 18.9539 16.0271 19.0284 16.118 19.0983C16.5801 19.4547 16.9072 20.228 17.525 20.0696C18.2856 19.8739 17.7664 19.0797 17.9741 18.4624ZM18.7684 4.825C18.7684 5.76367 18.7607 6.58121 18.7736 7.39876C18.7762 7.62469 18.6646 7.94845 19.1085 7.95544C19.703 7.96243 20.3 7.96708 20.8867 7.90187C20.9646 7.89255 21.5902 7.88789 21.3151 7.37314C20.7647 6.34597 20.204 5.35839 18.7684 4.82733V4.825ZM18.771 20.1068C20.3338 19.5874 20.8997 18.4671 21.4241 17.2745C21.0892 17.2256 20.814 17.2023 20.5493 17.1418C19.3621 16.8669 18.7693 17.2567 18.771 18.311C18.771 18.877 18.771 19.4453 18.771 20.1068ZM15.1835 19.7481C15.2094 19.5804 15.2743 19.4616 15.2354 19.3848C15.0225 18.9748 14.7811 18.5766 14.5527 18.1713C14.0698 17.3258 13.4104 17.2023 12.6057 17.8149C12.3565 18.0036 12.1696 18.1643 12.5746 18.4321C13.3741 18.9632 14.1918 19.4453 15.1861 19.7481H15.1835ZM20.6297 5.19069C21.5201 5.81491 21.6707 6.5882 22.1458 7.17516C22.9713 8.19534 23.5164 6.86537 24.5522 7.10994C23.2802 6.18292 22.3223 5.43758 20.6323 5.19069H20.6297ZM15.3029 5.48882C14.3112 5.35839 13.6778 5.77298 13.1145 6.22485C12.8445 6.44146 12.2449 6.50435 12.3228 6.8514C12.4188 7.2823 13.0288 7.32423 13.4416 7.48494C13.9115 7.66895 14.2334 7.49659 14.4384 7.075C14.685 6.5719 14.9758 6.0851 15.3029 5.48882ZM21.0217 19.62C21.7953 19.5502 22.4339 19.3079 23.031 18.905C23.4074 18.6511 24.0408 18.3995 23.9785 18.0711C23.8876 17.5913 23.1114 17.7753 22.7195 17.561C22.1977 17.2769 22.2081 17.6612 22.086 17.8545C21.7252 18.4228 21.5175 19.068 21.0217 19.6177V19.62Z" fill="#171717"/>
</svg>
