<svg width="167" height="136" viewBox="0 0 167 136" fill="none" xmlns="http://www.w3.org/2000/svg">
<path d="M117.244 59.6581C119.49 59.6809 121.583 60.5658 123.792 60.802C126.104 61.0496 128.322 61.7553 130.573 62.2817C132.146 62.6516 133.656 63.2918 135.197 63.8097C135.128 64.0487 134.969 64.1768 134.739 64.137C131.097 63.4739 127.463 62.7796 123.815 62.1422C121.691 61.7723 119.556 61.4792 117.42 61.1833C114.796 60.8191 112.16 60.5118 109.536 60.1532C107.497 59.8744 105.427 59.715 103.372 59.5244C99.4223 59.1573 95.4645 58.9069 91.5095 58.628C89.5078 58.4858 87.5033 58.3833 85.5016 58.2638C84.2307 57.8313 82.9483 57.9167 81.6632 58.1728C80.5287 58.1471 79.3942 58.1244 78.2598 58.0988C77.0542 57.635 75.8401 57.6634 74.6175 58.0333C73.702 57.9878 72.7864 57.9451 71.8709 57.8996C70.1138 57.4016 68.3367 57.5297 66.5596 57.7545C64.0121 57.7089 61.4645 57.6663 58.9169 57.6207C58.6724 57.5069 58.425 57.5069 58.1805 57.615C58.0554 57.615 57.9331 57.6122 57.808 57.6093C56.3238 57.2537 54.8339 57.2821 53.3412 57.5496C44.9165 57.5411 36.4919 57.5297 28.0672 57.524C26.3271 57.524 26.3271 57.5268 26.2105 59.2541C26.185 59.274 26.1366 59.2996 26.1395 59.3138C26.1508 59.3707 26.1793 59.4248 26.1992 59.4817C26.1594 60.2215 26.1707 60.9671 26.0684 61.6983C25.858 63.2179 25.2609 63.6817 23.336 63.9492C23.0573 63.989 22.7815 64.026 22.5029 64.0658C22.392 63.9492 22.2811 63.8325 22.1702 63.713C22.2043 62.1622 22.2413 60.6114 22.2754 59.0634C22.4944 58.941 22.682 58.8158 22.3351 58.6167C22.5512 57.6321 22.4318 56.6305 22.5001 55.6402C22.7616 55.0711 22.7588 54.5049 22.483 53.9443C22.4204 49.6476 22.8441 45.3907 23.4639 41.1423C24.0326 37.2298 24.5046 33.3058 25.4173 29.4473C25.73 28.1184 26.5205 27.4184 27.7573 27.0855C29.6452 26.5762 31.5787 26.653 33.5036 26.6444C33.5889 26.6046 33.6742 26.5648 33.7566 26.5221C33.9613 26.5192 34.1661 26.5136 34.3708 26.5107C35.0901 26.7611 35.8038 26.7668 36.5175 26.4823C42.5026 26.468 48.4849 26.4481 54.47 26.4453C65.3427 26.4396 76.2154 26.4424 87.0853 26.4424C87.4038 26.4424 87.7222 26.4623 88.0407 26.4709C90.1021 26.8778 92.1862 26.5648 94.2589 26.6302C95.0181 26.653 95.8114 26.8266 96.5506 26.4623L105.277 26.505C105.541 26.7327 105.848 26.6786 106.155 26.6359L106.147 26.6331C106.991 26.9347 107.844 26.8835 108.7 26.6985C112.701 26.7981 116.658 27.1509 120.522 28.3062C124.048 29.3619 127.144 31.1261 129.956 33.5021C131.549 34.8481 132.885 36.4302 134.418 37.8188C134.474 38.2456 134.855 38.4306 135.086 38.7293C135.262 38.957 135.617 39.1647 135.234 39.5062L133.84 38.0834C133.823 37.8529 133.698 37.7306 133.471 37.7135C132.953 37.1956 132.439 36.6806 131.921 36.1627C131.816 35.7586 131.569 35.5367 131.134 35.5737C130.033 34.6603 128.958 33.7127 127.83 32.8391C125.126 30.7477 122.044 29.544 118.68 28.9892C117.005 28.7131 117.014 28.6562 116.931 30.0648C116.621 31.7038 116.675 33.3399 116.928 34.979C116.963 35.4086 117.15 35.6875 117.625 35.6761C118.472 36.4501 119.468 35.9493 120.4 36.0033C126.098 35.7444 131.148 37.3322 135.37 41.2732C135.262 41.4582 135.154 41.6432 135.046 41.8253C134.341 41.333 133.636 40.8464 132.936 40.3513C132.416 39.9814 132.041 39.361 131.279 39.4208L131.29 39.4436L131.264 39.1448C131.165 38.7777 130.832 38.6952 130.542 38.607C129.317 38.2428 128.086 37.8785 126.803 37.7562C124.466 37.4745 122.132 37.17 119.792 36.9253C119.027 36.8456 118.242 36.8684 117.474 36.9253C116.582 36.9879 117.15 37.7647 116.934 38.1659C116.678 39.7281 116.704 41.2903 116.937 42.8525C116.928 47.4338 116.92 52.0151 116.911 56.5992C116.695 57.3077 116.712 58.0162 116.892 58.7276C116.897 58.7874 116.874 58.8329 116.826 58.8642C116.664 58.8614 116.502 58.8557 116.34 58.8528C116.067 56.9606 116.257 55.0626 116.272 53.1675C116.587 49.9008 116.565 46.6256 116.479 43.3505C116.479 43.2566 116.388 43.1627 116.34 43.0716C116.34 41.7285 116.334 40.3826 116.34 39.0395C116.349 37.4934 115.58 36.6995 114.031 36.6578C113.866 36.3078 113.551 36.2936 113.224 36.2822C111.495 36.2139 109.769 36.1001 108.04 36.0773C107.133 36.0659 106.212 35.8753 105.316 36.1769C104.606 36.1598 103.898 36.1456 103.187 36.1285C102.305 35.5964 101.336 35.8725 100.415 35.881C98.703 35.8952 96.98 35.6164 95.2797 36.0176C87.0825 36.0176 78.8881 36.009 70.6909 36.0119C64.7655 36.0119 58.8401 36.0233 52.9147 36.0318C52.6474 35.7985 52.3205 35.8412 52.0077 35.8412C47.9844 35.8412 43.9612 35.8497 39.9379 35.8554C39.5512 35.8554 39.1589 35.844 38.8177 36.083C38.0756 36.0916 37.3335 36.1001 36.5914 36.1086C36.2104 35.9521 35.8322 35.9265 35.4569 36.1285C34.3907 36.1399 33.3245 36.1513 32.2554 36.1627C31.9341 35.9664 31.6156 35.9863 31.2972 36.1741C30.2622 36.194 29.2301 36.2111 28.1952 36.231C28.2094 36.1058 28.2264 35.9834 28.2406 35.8582C29.4917 35.5566 30.7655 35.6107 32.0364 35.6135C33.0572 35.6761 34.0779 35.7615 35.093 35.5424C35.5422 35.5395 35.9915 35.5367 36.4407 35.5338C37.4188 35.7074 38.3969 35.7387 39.3693 35.5054C44.8767 35.3403 50.387 35.3802 55.8945 35.3972C56.0935 35.4599 56.2897 35.5765 56.4887 35.5765C59.6789 35.5822 62.869 35.5765 66.0564 35.568C66.3066 35.568 66.554 35.5452 66.7501 35.3603C70.3213 35.3403 73.8953 35.2977 77.4665 35.3005C85.1064 35.309 92.7492 35.3403 100.389 35.3631C100.526 35.5452 100.668 35.5481 100.807 35.3688C104.446 35.42 108.083 35.4684 111.722 35.5196C112.416 35.7501 113.113 35.7046 113.809 35.5538C114.008 35.5594 114.21 35.5651 114.409 35.5708C114.856 35.6107 115.302 35.679 115.749 35.6761C116.041 35.6761 116.53 35.8298 116.391 35.1981C116.417 33.8294 116.431 32.4578 116.468 31.0891C116.508 29.5564 115.767 28.7312 114.244 28.6135C113.155 28.44 112.066 28.457 110.98 28.6562C108.512 29.0631 106.007 29.0574 103.522 29.1229C97.0169 29.2936 90.5087 29.0603 84.0061 28.8839C82.8773 28.4684 81.7428 28.5111 80.5998 28.8213C76.5652 28.7644 72.5305 28.7074 68.4959 28.6505C67.8334 28.477 67.171 28.4798 66.5056 28.6221C66.1673 28.6192 65.8261 28.6164 65.4877 28.6135C64.2054 28.4457 62.9231 28.4599 61.6408 28.5879C56.6024 28.5225 51.567 28.457 46.5287 28.3916C46.3837 28.3916 46.2387 28.3887 46.0937 28.3859C44.1801 28.3717 42.2637 28.3546 40.3502 28.3404C39.3579 28.053 38.3599 28.0587 37.3619 28.3148C35.2351 28.3205 33.1055 28.3261 30.9787 28.3318C30.8309 28.1867 30.6916 28.2038 30.5608 28.3574C29.8471 28.5054 29.1334 28.7644 28.4169 28.7786C27.1545 28.807 26.62 29.5497 26.3328 30.6082C25.4485 33.8721 24.9396 37.2127 24.3141 40.5277C24.1264 40.6472 24.1207 40.8066 24.2089 40.9887C24.1776 41.1907 24.1492 41.3927 24.1179 41.5948C23.808 42.2094 23.8051 42.881 23.7596 43.544C23.7454 44.0732 23.7568 44.6025 23.7084 45.1289C23.5037 47.4793 23.299 49.8297 23.3104 52.1915C23.3104 52.5699 23.3701 52.7065 23.9018 52.7179C24.8088 52.7407 25.9262 52.7691 25.8978 54.2203C25.8864 54.7411 26.33 54.7809 26.7479 54.7752C27.8796 54.761 29.0083 54.761 30.14 54.7553C30.9731 55.1024 31.8147 55.0711 32.6591 54.8008C34.7944 54.7809 36.9326 54.7667 39.065 54.9402C40.7568 55.3329 42.4542 55.2845 44.1545 55.0256C45.579 55.0626 47.0064 55.0967 48.4308 55.1337C49.8383 55.5492 51.2542 55.4837 52.673 55.222C55.468 55.2817 58.2601 55.3216 61.055 55.4126C62.0331 55.4439 63.0396 55.239 63.9921 55.6459C64.5523 55.8736 65.1152 55.8622 65.6811 55.6659C65.9654 55.6602 66.2497 55.6516 66.534 55.6459C67.9443 55.9305 69.3546 55.9504 70.7706 55.6943C73.9522 55.6943 77.1338 55.7911 80.3098 55.9902C81.7485 56.1837 83.1843 56.437 84.6373 56.1041C85.0154 56.1581 85.3964 56.2577 85.7746 56.2577C88.2795 56.2463 90.7873 56.2463 93.2752 56.528C94.3613 56.6504 95.456 56.5736 96.5222 56.7415C100.315 57.339 104.148 57.5325 107.949 58.0106C108.76 58.113 109.624 58.0305 110.383 58.4516C110.79 58.6536 111.199 58.8301 111.663 58.6309C112.01 58.6764 112.356 58.7219 112.706 58.7675C112.755 59.0662 112.945 59.089 113.184 59.0122C114.207 59.1232 115.234 59.2341 116.257 59.3451C116.562 59.5272 116.849 59.7634 117.244 59.6666V59.6581Z" fill="#AD8813"/>
<path d="M132.743 54.8122C130.858 54.7695 129.055 54.209 127.207 53.9329C125.165 53.6285 123.135 53.2585 121.125 52.7464C120.124 52.4903 119.655 51.8529 119.399 51.1329C118.876 49.6647 118.606 48.1053 118.492 46.546C118.438 45.8175 118.086 45.1118 118.305 44.3635C118.427 44.0789 118.552 43.7972 118.674 43.5127C118.885 46.0509 119.448 48.5179 120.167 50.9565C120.303 51.4175 120.554 51.5484 120.994 51.5996C123.687 51.9183 126.382 52.2398 129.069 52.6069C130.46 52.7947 130.627 52.7207 130.554 51.3293C130.377 48.0029 130.17 44.6765 129.962 41.3529C129.925 40.7724 129.587 40.4822 129.027 40.246C126.871 39.3326 124.58 39.1249 122.305 38.8062C122.24 38.698 122.172 38.698 122.1 38.8005C121.819 38.8005 121.54 38.8005 121.259 38.8005C121.179 38.6952 121.097 38.698 121.02 38.8005C120.815 38.8005 120.613 38.8005 120.409 38.8005C120.409 38.5985 120.409 38.3964 120.409 38.1915C122.169 37.7761 123.934 37.981 125.697 38.1631C125.819 38.4676 126.098 38.4249 126.331 38.4163C128.128 38.348 129.703 39.0253 131.236 39.859C131.731 40.2602 132.225 40.6586 132.72 41.0598C132.763 41.0997 132.803 41.1423 132.845 41.1822C132.948 41.2789 133.05 41.3757 133.152 41.4753C133.192 41.5151 133.229 41.5578 133.269 41.5976C133.442 41.7684 133.616 41.9362 133.789 42.107C133.835 42.1525 133.88 42.198 133.926 42.2436C133.968 42.2492 133.991 42.272 133.994 42.3175C134.037 42.3602 134.082 42.4029 134.125 42.4456C134.298 42.6334 134.474 42.8212 134.648 43.009L134.656 43.0858L134.733 43.0944C134.793 43.1114 134.833 43.1513 134.847 43.211V43.2822L134.915 43.2907C135.623 44.1131 136.3 44.961 137.045 45.7435C137.582 46.3069 138.739 46.0651 138.933 45.4078C139.007 45.2399 139.083 45.0748 139.157 44.907C140.75 46.0822 142.077 47.5504 143.394 48.996C144.719 50.4529 146.251 51.6081 147.926 52.5358C151.489 54.5106 155.333 55.9049 159.018 57.6321C159.831 58.0134 160.726 58.3606 161.676 58.389C162.023 59.3366 163.121 59.5671 163.595 60.4292C163.942 61.0581 164.119 61.8349 164.818 62.2361C165.017 63.4028 165.358 64.5382 165.387 65.7447C165.395 66.1402 165.401 66.6695 165.762 67.0138C165.85 67.0991 165.935 67.3894 166.126 67.1447C166.203 67.0479 166.174 66.8715 166.191 66.7292C166.362 66.7378 166.535 66.7463 166.706 66.752C166.726 66.9569 166.749 67.1589 166.768 67.3638C166.453 67.8077 166.822 68.5276 166.18 68.8406C165.108 68.1064 164.403 67.1617 164.443 65.793C164.46 65.2126 164.204 64.9821 163.604 65.0134C161.258 65.13 159.763 63.639 158.307 62.1195C157.951 61.7496 157.696 61.2801 157.403 60.8504C156.496 59.5215 156.629 59.0406 158.21 58.261C156.197 57.3618 154.213 56.5736 152.319 55.6061C150.331 54.5931 148.151 53.9472 146.379 52.5216C146.266 52.3793 146.172 52.2029 145.944 52.2313C145.805 52.1317 145.666 52.035 145.529 51.9354C145.418 51.6736 145.248 51.5114 144.941 51.5598C144.705 51.3435 144.469 51.1244 144.233 50.9082C144.224 50.763 144.142 50.7004 144.002 50.7033C143.951 50.6521 143.9 50.6008 143.852 50.5496C143.32 49.8695 142.811 49.1638 141.992 48.7854C141.318 48.2305 140.988 47.3399 140.005 46.7708C140.073 48.0797 139.7 49.2122 140.673 50.3049C141.639 51.389 142.401 52.661 143.22 53.876C144.326 55.5207 146.129 55.9988 147.801 56.7073C147.96 56.7756 148.117 56.8496 148.273 56.9236C148.347 57.2024 148.222 57.4187 148.048 57.6179C145.464 57.1569 142.879 56.7073 140.3 56.2264C138.626 55.9134 136.957 55.5549 135.288 55.2163C134.491 54.7496 133.636 54.6557 132.743 54.8093V54.8122ZM136.104 47.3342C136.195 47.1378 136.058 47.1407 135.93 47.135C134.77 45.5956 133.653 44.022 132.296 42.6391C132.262 42.3432 132.129 42.1269 131.827 42.3346C131.509 42.5537 131.472 42.844 131.859 43.0744C131.827 45.348 132.251 47.6045 132.137 49.8838C132.069 50.0204 132.052 50.1484 132.186 50.2594C132.626 51.0277 132.35 51.9012 132.538 52.7065C132.586 52.7634 132.632 52.8203 132.68 52.8772C132.848 52.9228 133.019 52.9655 133.186 53.011C133.323 53.0337 133.459 53.0565 133.596 53.0821C133.909 53.0821 134.227 53.0565 134.537 53.0935C136.351 53.3041 136.351 53.3069 136.371 51.5939C136.621 50.4529 136.706 49.3147 136.3 48.1878C136.453 47.8549 136.084 47.6387 136.104 47.337V47.3342ZM140.457 55.3187C141.705 55.7711 142.979 56.0358 144.306 55.9532C143.144 54.9488 141.79 55.202 140.457 55.3187Z" fill="#AD8813"/>
<path d="M0.137594 44.5456C0.154654 44.2781 0.174556 44.0078 0.191616 43.7403C0.626639 43.0574 0.552714 42.2976 0.521437 41.5464C0.552714 39.2643 1.22942 37.1188 1.90043 34.9704C1.96298 34.7741 1.99142 34.5692 2.03407 34.3672C2.27859 34.3416 2.52311 34.3188 2.76763 34.2932C2.69371 34.6432 2.61978 34.9932 2.54586 35.3432C1.99142 35.9664 2.05397 36.7147 2.0824 37.4631C2.4634 36.8456 2.84725 36.2452 2.80175 35.4968C2.92402 34.7968 3.10883 34.1225 3.55522 33.5477C3.84808 33.9119 4.77784 33.1777 4.60724 33.8891C4.34282 35.0017 5.01099 34.8879 5.61092 35.0131C5.16453 36.7574 4.64989 38.4903 4.24899 40.2346C3.96466 41.461 3.9874 42.8013 3.85946 44.0903C3.60072 44.1899 3.55238 44.3578 3.70308 44.5883C3.69455 47.5504 3.68886 50.5126 3.68033 53.4776C3.38179 53.4435 3.32492 53.1789 3.1856 52.9825C2.65959 52.2398 1.81229 51.611 1.05597 51.9923C0.319563 52.3622 0.680661 53.4037 0.905281 54.1207C1.23795 55.185 2.3781 55.3386 3.19128 55.7854C3.60356 56.0102 3.4813 55.0398 3.89358 54.8207C4.13526 56.6532 4.49067 58.4573 4.97971 60.2443C6.08575 64.2849 7.67799 68.1121 9.73085 71.7601C11.1895 74.3495 12.9807 76.6999 14.8004 79.0332C14.573 79.5739 13.9986 79.5796 13.8309 79.2495C13.2793 78.1597 11.9628 78.8084 11.3117 78.0316C11.289 78.006 11.0217 78.1853 10.8682 78.2678C9.42946 76.6373 8.0988 74.9186 6.98707 73.0577C4.89157 69.5548 3.1202 65.9012 1.97151 61.9516C0.979206 58.5455 0.404863 55.0797 0.123377 51.5569C0.114847 51.3549 0.109161 51.1529 0.100631 50.9508C-0.0159438 48.9704 -0.0500633 46.9927 0.100631 45.0122C0.245639 44.8671 0.271228 44.7106 0.131907 44.5456H0.137594Z" fill="#AD8813"/>
<path d="M60.1452 102.734C59.2467 104.902 60.0514 107.059 60.2475 109.201C60.4238 111.153 60.9328 113.074 61.1489 115.023C61.2512 115.951 61.7062 116.566 62.2833 117.18C62.0985 117.445 61.8199 117.468 61.5327 117.468C59.423 117.468 57.3161 117.468 55.2064 117.465C54.8908 117.465 54.5638 117.47 54.3534 117.166C55.7523 116.244 55.5192 114.813 55.3941 113.49C55.2007 111.458 54.8652 109.44 54.615 107.414C54.5354 106.76 54.5382 106.091 54.1743 105.505C54.106 105.292 54.0406 105.078 53.9724 104.865C54.1942 104.23 54.416 103.593 54.6406 102.958C54.6946 102.87 54.7486 102.782 54.8026 102.694C54.814 102.64 54.8282 102.588 54.8425 102.534C54.8993 102.446 54.959 102.358 55.0159 102.267C55.0301 102.216 55.0443 102.167 55.0614 102.119C56.6024 101.891 58.1776 102.301 59.7102 101.883C59.8523 101.877 59.9945 101.871 60.1367 101.866C60.2419 102.048 60.3471 102.233 60.4523 102.415C60.4238 102.463 60.384 102.497 60.3328 102.514C60.2731 102.588 60.2106 102.662 60.1509 102.736L60.1452 102.734Z" fill="#0D0D0D"/>
<path d="M98.6433 110.194C98.7314 112.738 98.7627 115.282 98.6291 117.826C98.4471 117.826 98.2651 117.829 98.0832 117.832C96.3402 115.826 94.603 113.817 92.8544 111.816C90.793 109.46 88.7202 107.113 86.6617 104.754C86.5138 104.583 86.3774 104.449 86.1414 104.458C86.0788 104.415 86.0134 104.407 85.9452 104.429C85.7973 103.385 84.6429 103.015 84.3615 102.062C84.5207 101.991 84.6799 101.917 84.8363 101.846C85.0609 101.854 85.2855 101.86 85.5102 101.868C86.4882 102.145 87.4692 102.147 88.4501 101.874C88.5951 101.874 88.743 101.874 88.888 101.874C89.2405 102.11 89.596 102.11 89.9485 101.874C90.2243 101.894 90.5001 101.911 90.7759 101.931C90.8754 102.176 91.0659 102.264 91.319 102.238C91.3673 102.255 91.4014 102.287 91.4157 102.338C91.4498 102.586 91.6602 102.654 91.8393 102.756C93.9092 105.178 95.9791 107.602 98.049 110.024C98.1969 110.254 98.4215 110.217 98.6404 110.194H98.6433Z" fill="#0D0D0D"/>
<path d="M68.6324 102.924C68.1291 104.404 68.5784 105.838 68.9054 107.255C69.4541 109.64 70.3526 111.905 71.7174 113.942C72.7921 115.544 74.0659 116.958 76.1586 117.254C75.9738 117.59 75.6439 117.596 75.3283 117.672C75.0298 117.746 74.7568 118.017 74.4668 118.028C71.6975 118.133 68.9281 118.335 66.5539 116.369C64.0263 114.275 63.3695 111.614 63.8358 108.513C64.2452 105.778 65.7408 103.892 68.2031 102.725C68.3452 102.793 68.4902 102.859 68.6324 102.927V102.924Z" fill="#0D0D0D"/>
<path d="M70.1678 101.897C72.1837 101.39 74.2706 101.39 76.2552 101.732C79.5506 102.304 81.9958 105.57 82.0925 108.974C82.1437 110.746 81.9048 112.417 80.9808 113.99C80.1278 115.444 78.6692 116.116 77.4039 117.041C77.1025 117.263 76.932 116.947 76.9803 116.611C77.6541 111.742 75.7378 107.696 72.8803 103.997C72.2377 103.163 71.2482 102.58 70.1621 102.301C70.1621 102.167 70.1678 102.034 70.1706 101.897H70.1678Z" fill="#0D0D0D"/>
<path d="M135.333 134.931C136.792 133.377 135.333 131.379 133.874 130.244C132.518 129.188 131.119 128.187 129.962 126.909C129.103 125.959 128.549 124.766 128.993 123.537C129.473 122.203 130.568 121.303 131.978 120.891C132.214 120.822 132.459 120.794 132.697 120.729C133.357 120.549 133.88 120.364 133.633 121.477C133.246 123.21 134.668 123.984 135.748 124.818C136.994 125.779 138.336 126.605 139.393 127.8C141.139 129.777 140.897 133.152 138.39 134.481C137.426 134.993 136.493 135.514 135.344 135.315C135.342 135.184 135.336 135.053 135.333 134.925V134.931Z" fill="#0D0D0D"/>
<path d="M99.3285 121.027C99.2859 121.005 99.2688 120.968 99.2802 120.922C99.3001 120.822 99.32 120.723 99.3427 120.623C100.608 120.623 101.876 120.623 103.141 120.62C103.355 120.822 103.571 120.828 103.784 120.62C104.213 120.509 104.461 120.746 104.6 121.098C105.973 124.547 107.318 128.005 108.717 131.442C109.172 132.557 109.581 133.71 110.409 134.635C110.397 134.774 110.389 134.913 110.378 135.053C110.281 135.047 110.184 135.041 110.088 135.036C109.945 135.027 109.8 135.016 109.658 135.007C107.574 135.024 105.493 135.042 103.409 135.059C103.403 134.942 103.397 134.822 103.389 134.706C104.324 133.286 104.037 131.524 102.76 130.856C102.783 130.802 102.783 130.745 102.76 130.691C103.178 130.076 102.726 129.564 102.524 129.052C101.586 126.659 100.608 124.283 99.6527 121.895C99.5787 121.707 99.5588 121.497 99.5133 121.298C99.4508 121.209 99.3854 121.118 99.3228 121.03L99.3285 121.027Z" fill="#0D0D0D"/>
<path d="M126.712 74.8873C125.691 74.8816 124.671 74.8759 123.65 74.8702C123.189 74.7109 122.726 74.7109 122.26 74.8588C122.081 74.8588 121.901 74.856 121.722 74.8532C120.502 74.6625 119.28 74.6938 118.057 74.8162C110.039 74.7536 102.021 74.6938 94.0059 74.6312C92.3738 74.2243 90.7361 74.2926 89.0984 74.5971C88.7486 74.5914 88.3961 74.5857 88.0464 74.58C87.9696 74.4463 87.89 74.4434 87.8075 74.5743C83.6222 74.5231 79.4397 74.469 75.2573 74.4178C74.3559 73.9483 73.3835 74.1958 72.4509 74.2044C70.5516 74.2186 68.6438 73.9767 66.7501 74.3154C66.5369 74.3068 66.3208 74.2983 66.1076 74.2897C65.9597 74.1247 65.8147 74.1304 65.6754 74.2983C65.3882 74.3324 65.1039 74.3666 64.8167 74.3979C64.6148 74.3922 64.413 74.3865 64.2139 74.3836C63.9211 71.5922 63.3155 68.9373 60.6797 67.3438C58.8316 66.2284 56.8583 65.5369 54.6434 65.9751C50.8761 66.7207 48.8431 69.1678 48.0356 72.7816C47.9446 73.1857 47.9674 73.5784 47.3959 73.5215C47.1968 72.5284 47.7939 71.4129 46.9267 70.5251C47.1514 69.2133 48.0129 68.2772 48.9142 67.4264C51.0154 65.4459 53.3867 64.0061 56.4262 64.1626C60.0002 64.3447 63.887 67.3211 64.6262 71.1682C64.6859 71.4727 64.7911 71.7715 64.8394 72.0759C65.1152 73.7548 65.1124 73.7434 66.7672 73.7605C72.7893 73.8288 78.8142 73.9056 84.8363 73.9796C85.0524 74.1845 85.2685 74.193 85.4902 73.9881C95.6436 74.0649 105.797 74.1389 115.95 74.2186C117.435 74.23 118.919 74.2698 120.403 74.2954C121.037 74.5401 121.677 74.5202 122.317 74.3154C123.013 74.321 123.71 74.3239 124.406 74.3296C124.773 74.7365 125.262 74.5857 125.703 74.5885C129.052 74.617 132.404 74.6255 135.754 74.6426C135.646 75.0893 135.276 74.9869 134.983 74.9841C132.916 74.9641 130.849 74.9328 128.782 74.9044C128.094 74.7052 127.406 74.7052 126.715 74.8902L126.712 74.8873Z" fill="#AD8813"/>
<path d="M10.8738 78.2678C11.0274 78.1853 11.2947 78.006 11.3174 78.0316C11.9685 78.8084 13.285 78.1597 13.8366 79.2495C14.0043 79.5796 14.5787 79.5739 14.8061 79.0332C15.1587 79.1271 15.3606 79.3747 15.4658 79.7105C15.335 79.7759 15.0677 79.8044 15.1871 79.9922C15.3463 80.2426 15.5084 80.0035 15.6449 79.884C16.8817 81.0991 18.0475 82.3938 19.3668 83.5092C21.2803 85.1255 23.2962 86.6165 25.4514 87.9169C28.815 89.9458 32.3748 91.5279 36.1393 92.5893C38.775 93.3319 41.4477 94.0063 44.1972 94.2396C44.3223 94.7604 44.7914 94.6523 45.1355 94.7149C45.9657 94.8685 46.7618 95.0705 47.3817 95.6966C45.0814 95.9356 42.8239 95.5628 40.5549 95.2697C38.3343 94.9823 36.1649 94.4815 34.041 93.7929C32.0165 93.1356 30.0518 92.3388 28.09 91.4937C24.7093 90.0397 21.6783 88.0421 18.7384 85.9165C16.2733 84.1352 14.0327 82.0466 12.0282 79.7418C11.6273 79.2808 11.0217 78.9365 10.8738 78.2649V78.2678Z" fill="#AD8813"/>
<path d="M69.0077 135.022C68.5528 135.039 68.0979 135.056 67.6401 135.07C67.6287 134.939 67.6145 134.805 67.6031 134.674C68.041 134.344 68.3196 133.898 68.5443 133.411C68.5698 133.328 68.5954 133.249 68.6239 133.166C68.9821 129.928 68.7035 126.679 68.7888 123.435C68.8087 122.729 68.8058 122.023 68.8115 121.318C68.8371 121.084 68.8599 120.851 68.8855 120.618C69.0959 120.618 69.3063 120.618 69.5167 120.618C69.5849 120.729 69.6503 120.726 69.7129 120.615C69.9261 120.615 70.1393 120.615 70.3526 120.615C70.5687 120.825 70.7848 120.822 71.0009 120.618C71.1402 120.618 71.2767 120.618 71.416 120.618C71.7031 120.851 71.9903 120.854 72.2746 120.618C72.6272 120.618 72.9826 120.615 73.3352 120.612C73.466 120.805 73.5968 120.999 73.7276 121.192C73.7475 124.934 73.7901 128.676 73.7787 132.418C73.7759 133.491 74.3304 134.162 75.0895 134.763C74.9928 134.862 74.8933 134.959 74.7966 135.059C74.3446 135.047 73.8896 135.033 73.4375 135.022C73.3011 135.022 73.1617 135.022 73.0253 135.019C72.1609 135.019 71.2966 135.019 70.435 135.016C69.9574 134.854 69.4797 134.851 68.9992 135.016L69.0077 135.022Z" fill="#0D0D0D"/>
<path d="M89.2491 128.505C89.9087 128.52 90.5712 128.531 91.2308 128.545C91.3048 128.636 91.373 128.625 91.4356 128.531C92.1094 128.357 92.3511 128.682 92.5217 129.305C93.0107 131.072 93.4202 132.873 94.4267 134.452C94.6428 134.794 94.8305 135.113 95.2911 135.101L95.2683 135.076C95.2001 135.559 95.8228 135.585 95.8796 135.992C93.6107 136.126 90.6622 134.589 89.0756 132.537C88.1345 131.32 87.5118 129.925 86.7214 128.625C86.457 128.187 86.6361 127.985 86.9489 127.925C88.5667 127.612 88.6804 126.255 88.8425 125.065C89.0699 123.392 88.6918 121.816 87.1365 120.464C89.1666 120.344 90.884 120.544 92.4705 121.195C93.8893 121.776 94.8162 123.534 94.5689 124.815C94.2675 126.38 93.2553 127.379 91.7654 127.865C90.9266 128.138 90.0594 128.335 89.1638 128.36C88.9534 128.184 88.7231 128.127 88.5013 128.315C88.4529 128.355 88.4416 128.545 88.4814 128.574C88.7458 128.767 89.0045 128.693 89.2462 128.505H89.2491Z" fill="#0D0D0D"/>
<path d="M81.1372 135.016C80.813 135.03 80.4861 135.044 80.1619 135.059C80.1534 134.919 80.1449 134.78 80.1363 134.643C80.8528 133.807 81.1087 132.808 81.1144 131.735C81.1229 129.123 81.123 126.511 81.1031 123.901C81.0945 122.908 80.8727 121.958 80.3382 121.098C80.6197 120.734 81.0291 120.845 81.3959 120.817C82.0499 120.763 82.718 120.911 83.3549 120.657C84.2363 120.74 85.3452 119.901 85.9253 120.703C86.3375 121.275 86.0333 122.368 86.0418 123.227C86.0731 126.448 86.0987 129.669 86.1328 132.89C86.1414 133.607 86.2864 134.276 86.9517 134.703C86.946 134.825 86.9403 134.95 86.9346 135.073C86.7299 135.059 86.528 135.044 86.3262 135.03C86.2295 135.03 86.1328 135.027 86.039 135.024C84.5321 135.027 83.028 135.03 81.521 135.033C81.3931 135.027 81.268 135.022 81.14 135.016H81.1372Z" fill="#0D0D0D"/>
<path d="M5.61661 35.0159C5.01667 34.8879 4.3485 35.0046 4.61293 33.892C4.78068 33.1806 3.85377 33.9147 3.56091 33.5505C3.8424 31.9058 4.55606 30.3977 5.34365 28.9778C6.58617 26.7412 7.81447 24.4904 9.29014 22.379C11.6159 19.0498 14.3313 16.1018 17.3196 13.3701C18.4512 12.3372 19.6596 11.4352 20.9448 10.6213C21.2092 11.2274 21.1154 12.0185 21.8461 12.3856C20.4216 13.686 18.9346 14.9266 17.584 16.3038C14.4962 19.451 11.7069 22.8315 9.50623 26.69C7.97938 29.3676 6.86197 32.2188 5.61661 35.0188V35.0159Z" fill="#AD8813"/>
<path d="M125.049 135.127C124.989 135.056 124.932 134.987 124.873 134.916C124.804 134.854 124.736 134.791 124.668 134.726L124.631 134.654L124.548 134.666C121.492 131.192 118.447 127.709 115.368 124.254C114.972 123.81 114.839 123.048 114.051 123.014C113.954 122.863 113.858 122.715 113.761 122.564C113.718 121.978 113.084 121.796 112.905 121.301C113.19 120.939 113.582 120.737 114.017 120.859C115.498 121.275 116.94 120.825 118.396 120.714C120.121 122.097 121.259 124.015 122.794 125.563C123.613 126.388 124.077 127.589 125.282 128.022C125.302 129.387 125.288 130.753 125.35 132.116C125.39 132.976 125.111 133.861 125.529 134.694C125.529 134.822 125.524 134.953 125.521 135.081C125.365 135.096 125.208 135.11 125.049 135.124V135.127Z" fill="#0D0D0D"/>
<path d="M52.8493 108.957C52.8266 109.176 52.7953 109.392 52.5991 109.534C52.3688 109.677 52.4086 109.89 52.4456 110.106C51.965 111.89 51.0268 113.527 50.7282 115.376C50.6713 115.735 50.4439 116.173 50.0771 116.272C49.7956 116.349 49.5909 116.002 49.4743 115.695C48.2801 112.508 47.0774 109.324 45.8776 106.137C45.997 105.457 45.5819 105.408 45.0786 105.457C45.2066 104.233 44.5839 103.308 43.8759 102.418C43.9072 102.233 43.9356 102.051 43.9669 101.866C44.3223 101.871 44.6805 101.877 45.036 101.883C46.378 102.167 47.7229 102.167 49.0649 101.886C49.6449 101.843 49.9378 102.13 50.1254 102.674C50.8107 104.657 51.5329 106.626 52.2437 108.601C52.2806 108.996 52.5621 108.979 52.8465 108.957H52.8493Z" fill="#0D0D0D"/>
<path d="M114.876 116.614C114.805 116.677 114.736 116.736 114.665 116.799C113.266 117.214 111.828 117.266 110.386 117.251C108.285 117.229 107.622 116.603 107.821 114.921C106.599 115.513 105.811 115.453 105.106 114.67C104.887 114.426 104.498 114.161 104.771 113.768C105.004 113.436 105.339 113.703 105.643 113.751C106.135 113.831 106.485 114.309 107.028 114.218C107.148 114.252 107.267 114.286 107.389 114.32C107.492 114.511 107.571 114.483 107.642 114.298C107.662 114.238 107.705 114.207 107.77 114.204C109.047 114.793 109.257 114.688 109.343 113.421C109.925 113.438 110.585 113.296 110.653 112.716C110.716 112.169 110.625 111.509 110.255 110.986C110.156 110.846 110.048 110.715 109.968 110.564C109.351 109.409 109.414 109.233 110.622 108.72C111.29 107.972 112.223 108.516 112.988 108.237C113.045 108.242 113.101 108.257 113.153 108.279C113.289 108.843 113.571 109.301 114 109.702C114.298 109.981 114.657 110.391 114.131 110.755C113.494 111.193 113.667 111.526 114.173 111.865C114.497 112.081 114.591 112.394 114.674 112.75C114.807 113.339 115.416 113.211 115.8 113.364C116.22 113.532 116.34 112.835 116.311 112.761C115.985 111.899 116.758 111.486 117.017 110.875C117.264 110.838 117.511 110.801 117.759 110.766C117.938 110.783 118.117 110.801 118.299 110.818C118.367 110.84 118.413 110.886 118.433 110.957C118.41 111.31 118.37 111.666 118.546 111.996C118.427 112.459 118.305 112.923 117.85 113.191C117.716 113.031 117.54 112.994 117.395 113.131C116.337 114.133 115.751 115.479 114.876 116.614Z" fill="#AD8813"/>
<path d="M155.933 69.2503C156.214 70.1637 156.518 71.0743 156.484 72.0503C156.251 72.3662 156.43 73.0434 155.711 72.9324C155.654 72.8471 155.6 72.7617 155.543 72.6763C155.219 68.0381 152.174 65.4743 147.972 65.3121C143.621 65.1443 141.022 67.3723 139.78 71.4186C139.649 71.8454 139.629 72.5995 139.41 72.6593C138.114 73.0064 138.685 73.917 138.719 74.6426C138.745 75.1918 138.876 75.7381 138.958 76.2873C138.793 76.2987 138.626 76.3101 138.461 76.3243C137.292 73.3707 137.804 70.5877 139.564 68.078C141.5 65.315 144.09 63.417 147.633 63.5593C149.555 63.6361 151.509 63.9804 152.973 65.4943C152.996 65.9552 153.28 66.1146 153.695 66.126C153.749 66.1402 153.783 66.1743 153.797 66.2284L153.806 66.3052L153.883 66.3138C153.996 66.4304 154.11 66.5471 154.224 66.6638L154.218 66.7349L154.289 66.7434C154.4 66.8658 154.514 66.9881 154.625 67.1105C154.602 67.267 154.67 67.3609 154.824 67.3922L154.852 67.4605C154.901 67.5089 154.952 67.5544 155 67.6028C155.029 67.6768 155.057 67.7507 155.083 67.8247C155.06 68.0979 155.179 68.2971 155.398 68.4508C155.435 68.5304 155.472 68.6101 155.509 68.6926C155.546 68.7552 155.583 68.8178 155.62 68.8776C155.719 68.9743 155.822 69.0711 155.921 69.1707C155.89 69.2077 155.893 69.239 155.933 69.2646V69.2503Z" fill="#AD8813"/>
<path d="M164.818 62.2361C164.119 61.8349 163.942 61.0581 163.595 60.4292C163.121 59.5671 162.023 59.3394 161.676 58.389C161.707 58.0447 161.474 57.948 161.213 57.7915C158.307 56.0642 155.105 55.0085 152.003 53.7252C150.644 53.1618 149.319 52.5642 148.094 51.7504C144.932 49.6533 142.165 47.098 139.578 44.3464C138.091 42.7671 136.51 41.2704 135.225 39.509C135.609 39.1676 135.253 38.9627 135.077 38.7322C134.847 38.4334 134.466 38.2485 134.409 37.8216C136.038 39.1391 137.286 40.8236 138.702 42.3403C139.86 43.5781 141.057 44.7818 142.234 45.9996C143.695 47.5078 145.265 48.8964 146.939 50.1768C149.285 51.9695 151.935 53.102 154.642 54.172C157.545 55.3187 160.525 56.2919 163.106 58.1557C165.554 59.9227 166.592 62.3528 166.729 65.2666C166.751 65.7589 166.712 66.2569 166.703 66.752C166.532 66.7434 166.359 66.7349 166.188 66.7292C166.092 65.9666 166.041 65.1983 165.89 64.4471C165.722 63.5963 165.566 62.7313 165.102 61.9715C165.043 61.8748 165.011 61.6528 164.846 61.8292C164.772 61.9089 164.818 62.0967 164.809 62.2361H164.818Z" fill="#AD8813"/>
<path d="M21.8433 12.3827C21.1125 12.0157 21.2064 11.2246 20.9419 10.6185C22.9863 8.98518 25.2467 7.69332 27.5583 6.4982C31.8403 4.28439 36.4009 2.88439 41.1264 2.00228C41.2629 1.97667 41.4079 2.00228 41.5501 2.00228C41.2714 2.46326 40.7454 2.33806 40.3445 2.52017C39.2413 3.01813 37.9562 2.947 36.9184 3.63846C36.7478 3.66407 36.5772 3.68967 36.4066 3.71528C36.6141 3.84902 36.7904 3.82341 36.9326 3.65837C37.5979 3.57585 38.2632 3.47911 38.9286 3.41651C39.2356 3.38805 39.611 3.02952 39.8384 3.55594C38.8802 3.8291 37.9164 4.07666 36.9695 4.37829C31.4479 6.14251 26.4124 8.82867 21.8404 12.3856L21.8433 12.3827Z" fill="#AD8813"/>
<path d="M2.77048 34.2932C2.52595 34.3188 2.28143 34.3416 2.03691 34.3672C2.31271 32.7367 3.13442 31.3026 3.70876 29.7802C5.01383 26.3286 6.97854 23.2184 9.06267 20.1994C11.198 17.1006 13.8138 14.4059 16.6343 11.9303C19.2217 9.65956 22.0224 7.6734 25.042 6.00592C25.3178 5.85227 25.6248 5.75552 25.9177 5.63316C25.9177 5.91202 26.0854 5.99739 26.33 6.00023C23.6999 7.65348 21.0386 9.24412 18.6133 11.2132C13.828 15.0945 9.85311 19.6815 6.7852 24.9969C5.34365 27.4896 4.22624 30.1871 3.35051 32.9586C3.2055 33.4168 3.15432 33.9318 2.77332 34.2903L2.77048 34.2932Z" fill="#AD8813"/>
<path d="M38.8745 74.7194C37.1231 74.8333 35.3887 74.5202 33.6685 74.3324C30.757 74.0166 27.8568 73.4958 25.022 72.6934C24.2288 72.4686 23.4071 72.3178 22.6451 72.0105C22.1589 71.8141 21.3912 71.6747 21.6982 70.7926C21.9598 70.7727 22.2186 70.7556 22.4801 70.7357C29.5628 73.0093 36.907 73.6381 44.3251 74.1646C44.0749 74.6142 43.7053 74.6056 43.3442 74.6198C42.9035 74.6056 42.4514 74.5032 42.0477 74.7792C41.1151 74.765 40.1853 74.7507 39.2527 74.7337C39.1333 74.5601 39.0082 74.5715 38.8745 74.7166V74.7194Z" fill="#AD8813"/>
<path d="M46.9211 70.5223C47.7854 71.4101 47.1912 72.5255 47.3902 73.5186C46.5799 73.4475 46.8158 74.0621 46.8102 74.4605C46.7533 77.9918 49.4857 81.1503 52.7839 82.2344C56.6366 83.5035 60.9385 81.634 62.9344 78.0942C63.6055 76.9048 63.5457 75.5332 64.2082 74.3837C64.4101 74.3893 64.612 74.395 64.811 74.3979C64.4641 76.1507 64.0604 77.8694 62.9799 79.3633C61.274 81.7222 59.0107 82.8917 56.0992 83.2218C53.2786 83.5405 51.0182 82.6442 49.0222 80.8344C47.7371 79.6678 46.6595 78.282 46.3837 76.5206C46.1022 74.7166 46.0595 72.8841 46.5002 71.0772C46.5656 70.8097 46.6708 70.6247 46.9211 70.5223Z" fill="#AD8813"/>
<path d="M47.3845 95.6994C46.7647 95.0762 45.9685 94.8742 45.1383 94.7177C44.7943 94.6551 44.328 94.7632 44.2 94.2425C47.0888 94.5384 49.9833 94.5697 52.8834 94.4189C57.0972 94.1998 61.2171 93.5567 65.1607 91.9291C65.9 91.6246 66.7046 91.3344 67.5235 91.1921C67.7368 91.1693 67.9671 91.1836 68.0524 90.9161C68.1604 90.8876 68.2656 90.8563 68.3736 90.825C68.4049 90.9702 68.4334 91.1153 68.4618 91.2632C61.7772 94.3705 54.7884 96.0238 47.3817 95.6994H47.3845Z" fill="#AD8813"/>
<path d="M33.9727 2.18155C42.9006 -0.456241 51.8911 -0.803393 60.9612 1.69781C51.8968 -0.444858 42.9177 0.0929444 34.004 2.80757C33.9926 2.59984 33.9841 2.39212 33.9727 2.18155Z" fill="#AD8813"/>
<path d="M132.498 135.346C130.991 135.3 129.652 134.891 128.58 133.738C128.29 133.428 128.199 133.121 128.31 132.796C128.614 131.914 128.967 131.046 129.331 130.187C129.436 129.942 129.655 129.612 129.908 129.681C130.113 129.737 130.366 130.099 130.366 130.324C130.372 132.469 131.751 133.787 133.152 135.101C132.933 135.181 132.714 135.261 132.495 135.34L132.498 135.346Z" fill="#0D0D0D"/>
<path d="M107.028 114.218C106.485 114.312 106.135 113.834 105.643 113.751C105.339 113.7 105.004 113.433 104.771 113.768C104.498 114.158 104.887 114.426 105.106 114.67C105.811 115.453 106.599 115.513 107.821 114.921C107.622 116.603 108.288 117.229 110.386 117.251C111.825 117.266 113.266 117.217 114.665 116.799C114.168 117.476 113.349 117.576 112.652 117.724C109.57 118.375 105.899 116.827 104.185 114.246C104.009 113.982 103.767 113.694 104.014 113.336C104.182 112.989 104.719 113.029 104.802 112.59C105.262 112.67 105.581 112.391 105.933 112.169C106.212 111.996 106.479 111.791 106.821 112.189C107.145 112.57 106.929 112.764 106.69 112.969C105.925 113.632 106.943 113.794 107.025 114.215L107.028 114.218Z" fill="#AD8813"/>
<path d="M36.9212 3.63561C37.959 2.94415 39.247 3.01244 40.3474 2.51732C40.7454 2.33805 41.2743 2.46041 41.5529 1.99944C44.8369 1.20554 48.1778 1.18562 51.5272 1.27383C52.0475 1.28806 52.5678 1.27383 53.091 1.37343C50.66 1.53847 48.2147 1.40188 45.8093 1.94253H49.8155C48.7152 2.4661 47.5324 2.24415 46.4007 2.44334C44.2171 2.82464 42.0306 3.18317 39.8441 3.55025C39.6138 3.02382 39.2413 3.38236 38.9343 3.41081C38.2661 3.47626 37.6036 3.57016 36.9383 3.65268L36.9241 3.63277L36.9212 3.63561Z" fill="#AD8813"/>
<path d="M135.725 120.219C137.122 120.27 138.461 120.518 139.7 121.224C140.226 121.522 140.582 121.909 140.4 122.479C140.07 123.52 139.626 124.527 139.112 125.862C138.435 123.64 137.761 121.742 135.731 120.831C135.731 120.629 135.725 120.424 135.725 120.222V120.219Z" fill="#0D0D0D"/>
<path d="M68.4646 91.2632C68.4362 91.1181 68.4049 90.9702 68.3765 90.825C70.4322 89.7352 72.5334 88.7194 74.5351 87.5385C77.0656 86.0474 79.4056 84.2747 81.504 82.2003C81.5921 82.1149 81.703 82.0523 81.8508 82.0352C81.3476 82.9913 80.4861 83.606 79.6985 84.2661C76.3889 87.0348 72.741 89.2885 68.8826 91.2063C68.7632 91.2661 68.604 91.2462 68.4646 91.2632Z" fill="#AD8813"/>
<path d="M155.714 72.9324C156.433 73.0434 156.254 72.3662 156.487 72.0503C157.155 76.1507 154.386 80.7064 150.502 81.893C149.965 82.058 149.584 82.7125 148.901 82.4165C148.921 82.2088 148.941 81.9983 148.958 81.7905C150.24 81.1759 151.571 80.7092 152.7 79.7446C154.827 77.9292 155.964 75.758 155.711 72.9324L155.714 72.9324Z" fill="#AD8813"/>
<path d="M3.89926 54.8236C3.48699 55.0427 3.60925 56.013 3.19697 55.7882C2.38379 55.3415 1.24363 55.1878 0.910968 54.1236C0.686348 53.4065 0.32525 52.3651 1.06166 51.9951C1.81798 51.6138 2.66528 52.2427 3.19128 52.9854C3.33061 53.1846 3.38747 53.4464 3.68602 53.4805C3.7571 53.9272 3.82818 54.3768 3.89926 54.8264V54.8236Z" fill="#AD8813"/>
<path d="M78.4218 121.693C78.4133 122.481 78.4076 123.27 78.3991 124.058C78.2598 124.277 78.1176 124.496 77.9783 124.712C77.8276 124.635 77.5916 124.596 77.5404 124.473C76.9376 123.05 75.8828 121.969 74.8677 120.854C75.2572 120.925 75.607 120.84 75.9254 120.609C76.6704 120.29 77.4437 120.384 78.2171 120.435C78.3053 120.851 78.183 121.3 78.419 121.693H78.4218Z" fill="#0D0D0D"/>
<path d="M67.569 121.019C66.0535 122.018 65.1437 123.457 64.5807 125.15C64.5295 125.304 64.4471 125.498 64.2424 125.432C64.0689 125.378 64.0007 125.219 64.0263 125.008C64.086 124.553 64.1116 124.095 64.1542 123.64C64.285 123.341 64.285 123.042 64.1542 122.743C64.14 122.018 63.7192 121.144 64.1855 120.603C64.6916 120.014 65.5417 120.515 66.2412 120.603C66.5454 120.64 66.8582 120.435 67.1624 120.618C67.1738 120.877 67.4411 120.879 67.5662 121.022L67.569 121.019Z" fill="#0D0D0D"/>
<path d="M102.763 130.691C102.789 130.745 102.789 130.802 102.763 130.856C101.418 131.627 99.954 132.054 98.4244 132.099C97.4292 132.128 96.98 132.424 97.1477 133.442C96.8634 133.323 96.98 132.833 96.5762 132.825C97.9126 130.252 98.6689 127.435 99.8972 124.715C100.281 125.165 99.9626 125.475 99.8545 125.751C99.2119 127.433 98.5893 129.126 97.8529 130.77C97.3553 131.877 98.0405 131.818 98.6774 131.687C100.048 131.405 101.401 131.029 102.76 130.694L102.763 130.691Z" fill="#0D0D0D"/>
<path d="M117.017 110.875C116.758 111.486 115.985 111.899 116.311 112.761C116.34 112.838 116.22 113.532 115.8 113.364C115.416 113.211 114.807 113.342 114.674 112.75C114.594 112.394 114.497 112.081 114.173 111.865C113.664 111.526 113.494 111.193 114.131 110.755C114.657 110.394 114.296 109.984 114 109.702C113.573 109.301 113.289 108.84 113.153 108.279C113.718 108.197 113.952 108.396 114.327 108.931C114.95 109.816 115.379 111.287 117.017 110.872V110.875Z" fill="#AD8813"/>
<path d="M122.334 56.9236C121.509 56.6475 120.42 56.713 119.334 56.7016C119.015 56.6988 118.762 56.5536 118.731 56.2378C118.691 55.8252 119.112 55.663 119.351 55.6801C120.591 55.7711 121.79 55.3813 123.019 55.4268C123.644 55.4496 124.372 55.6801 124.381 56.3061C124.389 56.8837 123.565 56.75 123.104 56.915C122.948 56.9719 122.754 56.9236 122.336 56.9236H122.334Z" fill="#AD8813"/>
<path d="M116.238 104.521C115.848 105.639 117.002 105.98 117.446 106.675C117.105 106.885 116.906 106.8 116.664 106.686C115.549 106.171 115.046 104.853 113.798 104.518C113.716 104.495 113.593 104.361 113.599 104.293C113.826 102.264 112.089 102.56 111.006 102.09C110.992 101.974 110.98 101.854 110.966 101.738C112.487 101.467 113.849 101.857 115.097 102.725C114.495 103.047 114.21 103.747 114.313 104.213C114.429 104.742 115.163 104.37 115.626 104.401C115.831 104.415 116.036 104.478 116.238 104.521Z" fill="#AD8813"/>
<path d="M138.466 76.3158C138.631 76.3044 138.799 76.293 138.964 76.2788L138.93 76.2731C139.007 76.4211 139.083 76.569 139.16 76.7198C140.667 79.2125 142.686 81.0564 145.586 81.7763C145.29 81.9413 144.781 81.6995 144.69 82.2515C141.921 81.4633 139.916 79.7816 138.734 77.1381C138.745 77.1182 138.771 77.0954 138.768 77.0755C138.762 77.0357 138.742 76.9958 138.731 76.956C138.614 76.754 138.421 76.5832 138.466 76.3158Z" fill="#AD8813"/>
<path d="M135.748 74.6426C132.399 74.6284 129.047 74.617 125.697 74.5885C125.256 74.5857 124.767 74.7365 124.401 74.3296C126.505 74.0849 128.614 74.2784 130.721 74.2499C132.129 74.2328 133.539 74.2556 134.946 74.2954C135.228 74.304 135.686 74.0621 135.751 74.6397L135.748 74.6426Z" fill="#AD8813"/>
<path d="M125.529 134.697C125.111 133.863 125.39 132.979 125.35 132.119C125.285 130.756 125.299 129.39 125.282 128.024C125.262 126.425 125.239 124.826 125.22 123.23C125.353 123.198 125.487 123.164 125.62 123.133C125.683 126.989 125.737 130.844 125.529 134.7V134.697Z" fill="#0D0D0D"/>
<path d="M85.9423 104.432C86.0134 104.41 86.0788 104.418 86.1385 104.461C86.1385 108.072 86.1385 111.683 86.1385 115.587C85.2685 114.579 85.658 113.751 85.6637 112.963C85.6779 110.516 85.6722 108.069 85.6893 105.622C85.6921 105.218 85.5414 104.762 85.9395 104.435L85.9423 104.432Z" fill="#0D0D0D"/>
<path d="M110.966 101.735C110.98 101.851 110.992 101.971 111.006 102.088C110.27 102.386 109.525 102.648 108.709 102.557C107.685 102.529 107.392 102.773 107.423 103.63C107.156 104.116 106.553 104.091 106.195 104.441C106.178 103.761 105.788 103.749 105.291 103.937C106.795 102.199 108.711 101.53 110.969 101.738L110.966 101.735Z" fill="#AD8813"/>
<path d="M45.0786 105.457C45.579 105.408 45.997 105.457 45.8776 106.137C45.4369 105.488 45.4596 106.06 45.4255 106.322C45.1611 108.413 44.9108 110.507 44.6606 112.602C44.6095 113.023 44.6066 113.45 44.3848 113.831C44.254 113.84 44.1261 113.845 43.9953 113.854C43.7735 112.568 44.4076 111.39 44.4673 110.115C44.5242 108.837 44.7829 107.551 44.8483 106.256C44.8625 105.986 44.9961 105.721 45.0758 105.454L45.0786 105.457Z" fill="#0D0D0D"/>
<path d="M54.3562 117.163C54.5667 117.47 54.8936 117.462 55.2092 117.462C57.319 117.465 59.4258 117.465 61.5355 117.465C61.8227 117.465 62.1014 117.445 62.2862 117.177C62.5108 117.317 62.7326 117.456 63.1619 117.727H53.2218C53.2047 117.672 53.1877 117.618 53.1734 117.564C53.5687 117.431 53.9639 117.294 54.3591 117.16L54.3562 117.163Z" fill="#0D0D0D"/>
<path d="M26.33 6.00308C26.0854 6.00308 25.9177 5.91487 25.9177 5.63601C25.9632 5.58194 26.02 5.55918 26.0911 5.56487C26.1679 5.50511 26.2447 5.44251 26.3214 5.38276C28.3999 4.36122 30.4385 3.23724 32.8411 3.10065C30.6717 4.06813 28.4994 5.03276 26.33 6.00023V6.00308Z" fill="#AD8813"/>
<path d="M43.9953 113.857C44.1261 113.848 44.254 113.842 44.3848 113.834C44.5128 114.645 44.2939 115.484 44.7488 116.275C44.9905 116.694 45.3231 116.916 45.6728 117.166C45.3686 117.664 44.7516 117.34 44.3792 117.661C44.237 117.661 44.092 117.658 43.9498 117.655C43.657 117.34 43.0883 117.624 42.8694 117.155C43.6427 116.193 43.964 115.075 43.9953 113.857Z" fill="#0D0D0D"/>
<path d="M107.423 103.63C107.392 102.773 107.685 102.529 108.709 102.557C109.542 102.463 110.301 103.308 111.196 102.722C111.475 102.54 111.648 102.762 111.717 103.129C111.845 103.812 111.157 103.846 110.915 104.233C110.699 104.577 110.432 104.142 110.235 104.005C109.354 103.399 108.453 103.084 107.426 103.627L107.423 103.63Z" fill="#AD8813"/>
<path d="M113.761 122.567C113.858 122.718 113.954 122.866 114.051 123.016C114.057 126.138 114.188 129.259 114.017 132.378C113.9 132.392 113.784 132.407 113.667 132.421C113.639 129.137 113.502 125.85 113.761 122.567Z" fill="#0D0D0D"/>
<path d="M109.34 113.424C109.257 114.69 109.044 114.796 107.767 114.207C107.901 113.797 108.194 113.455 107.662 113.012C106.926 112.391 107.878 111.859 108.106 111.657C108.595 111.222 108.419 112.044 108.637 112.183C109.115 112.482 109.013 113.068 109.337 113.427L109.34 113.424Z" fill="#AD8813"/>
<path d="M98.6433 110.194C98.4215 110.217 98.1969 110.254 98.0519 110.024C98.5409 109.364 98.2708 108.607 98.2879 107.901C98.3163 106.68 98.2452 105.457 98.2168 104.236C98.4301 104.276 98.5779 104.54 98.8395 104.415C98.6689 106.339 99.0129 108.279 98.6461 110.197L98.6433 110.194Z" fill="#0D0D0D"/>
<path d="M22.4801 70.7385C22.2186 70.7585 21.9598 70.7755 21.6982 70.7955C21.7978 68.8861 21.8916 66.9768 21.9996 65.0674C22.0252 64.615 21.9371 64.1426 22.1645 63.713C22.2754 63.8296 22.3863 63.9463 22.4972 64.0658C22.4631 66.291 22.3266 68.5162 22.4773 70.7414L22.4801 70.7385Z" fill="#AD8813"/>
<path d="M118.396 120.72C116.94 120.828 115.498 121.281 114.017 120.865C113.582 120.743 113.192 120.942 112.905 121.306C112.644 121.022 112.129 121.187 111.856 120.558C114.097 120.552 116.243 120.327 118.393 120.723L118.396 120.72Z" fill="#0D0D0D"/>
<path d="M98.8338 104.412C98.575 104.535 98.4243 104.273 98.2111 104.233C98.0803 103.857 97.9325 103.485 97.8244 103.103C97.7135 102.711 97.0738 102.181 97.5515 101.974C98.1372 101.718 98.9248 101.857 99.61 101.945C99.8631 101.977 99.61 102.241 99.5219 102.415C99.2034 103.047 98.5239 103.564 98.8338 104.412Z" fill="#0D0D0D"/>
<path d="M66.7473 74.3154C68.6409 73.9767 70.5488 74.2215 72.4481 74.2044C73.3807 74.1958 74.3502 73.9483 75.2544 74.4178C75.0241 74.6711 74.7398 74.7934 74.4043 74.728C72.0017 74.2698 69.5678 74.5743 67.151 74.4206C67.0146 74.4121 66.8838 74.3495 66.7501 74.3125L66.7473 74.3154Z" fill="#AD8813"/>
<path d="M116.238 104.521C116.033 104.478 115.831 104.415 115.626 104.401C115.163 104.37 114.429 104.74 114.313 104.213C114.21 103.749 114.495 103.047 115.097 102.725C115.592 103.064 116.09 103.402 116.584 103.741C116.673 103.968 116.667 104.19 116.542 104.404C116.439 104.441 116.337 104.481 116.238 104.518V104.521Z" fill="#AD8813"/>
<path d="M131.239 39.8562C129.709 39.0224 128.134 38.3452 126.334 38.4135C126.101 38.422 125.822 38.4647 125.7 38.1602C126.016 37.8899 126.562 38.2485 126.795 37.7562C128.077 37.8785 129.308 38.2399 130.534 38.607C130.824 38.6924 131.156 38.7777 131.256 39.1448C131.193 39.2045 131.128 39.2615 131.065 39.3212C131.139 39.361 131.21 39.4037 131.284 39.4436L131.273 39.4208C131.261 39.5659 131.25 39.711 131.242 39.859L131.239 39.8562Z" fill="#AD8813"/>
<path d="M113.667 132.421C113.784 132.407 113.9 132.392 114.017 132.378C114 133.252 114.097 134.08 114.878 134.649C114.861 134.797 114.844 134.945 114.83 135.093C114.125 135.093 113.42 135.087 112.715 135.084C112.735 134.962 112.755 134.839 112.774 134.717C113.261 134.026 113.517 133.24 113.667 132.418V132.421Z" fill="#0D0D0D"/>
<path d="M96.5791 132.822C96.9828 132.831 96.8662 133.32 97.1506 133.439C97.1022 133.997 97.3496 134.401 97.7988 134.706C97.7932 134.825 97.7875 134.942 97.7818 135.061C97.5117 135.053 97.2415 135.047 96.9743 135.039C96.8776 135.027 96.7781 135.019 96.6814 135.007C96.363 135.03 96.0445 135.053 95.7261 135.076C95.7119 134.933 95.6976 134.791 95.6834 134.649C96.0417 134.068 96.4454 133.511 96.5819 132.819L96.5791 132.822Z" fill="#0D0D0D"/>
<path d="M114.876 116.614C115.749 115.479 116.337 114.133 117.395 113.131C117.54 112.992 117.716 113.029 117.85 113.191C117.048 114.497 116.582 116.096 114.876 116.617V116.614Z" fill="#AD8813"/>
<path d="M107.037 109.105C106.445 107.636 106.448 107.653 108.146 107.335C108.401 107.286 108.581 107.187 108.794 107.414C109.053 107.693 108.78 107.89 108.686 108.066C108.527 108.368 108.271 108.615 108.055 108.886C107.716 108.96 107.375 109.031 107.037 109.105Z" fill="#AD8813"/>
<path d="M125.62 123.133C125.487 123.164 125.353 123.198 125.22 123.23C124.941 122.524 125.015 121.685 124.412 121.101C125.066 120.686 125.72 120.655 126.374 121.101C125.763 121.645 125.683 122.387 125.623 123.136L125.62 123.133Z" fill="#0D0D0D"/>
<path d="M86.3091 117.692C86.1044 117.684 85.8997 117.675 85.695 117.667C85.4817 117.422 84.9614 117.468 85.0268 116.955C85.0638 116.788 85.078 116.611 85.1434 116.457C85.2884 116.113 85.4448 115.604 85.7746 115.587C86.1442 115.57 86.2011 116.11 86.3603 116.435C86.4655 116.648 86.6162 116.836 86.747 117.035C86.7697 117.368 86.4826 117.49 86.3091 117.69V117.692Z" fill="#0D0D0D"/>
<path d="M66.5568 57.7601C68.3339 57.5354 70.1109 57.4073 71.8681 57.9053C70.091 58.039 68.3225 57.9536 66.5568 57.7601Z" fill="#AD8813"/>
<path d="M112.988 108.242C112.223 108.521 111.29 107.978 110.622 108.726C110.56 108.345 109.795 108.39 110.036 107.89C110.258 107.426 110.719 107.414 111.182 107.602C111.327 107.662 111.572 107.719 111.654 107.645C112.561 106.84 112.672 107.762 112.991 108.24L112.988 108.242Z" fill="#AD8813"/>
<path d="M110.83 105.875C110.625 106.313 110.432 106.956 109.729 106.78C109.254 106.66 109.144 105.921 109.181 105.616C109.237 105.141 109.854 105.016 110.372 105.027C110.943 105.038 110.807 105.454 110.83 105.872V105.875Z" fill="#AD8813"/>
<path d="M107.037 109.105C107.375 109.034 107.716 108.96 108.055 108.886C108.959 109.218 109.161 110.106 109.57 110.826C109.653 110.968 109.604 111.116 109.476 111.19C109.411 111.227 109.257 111.199 109.198 111.142C108.47 110.468 107.753 109.785 107.034 109.102L107.037 109.105Z" fill="#AD8813"/>
<path d="M103.821 112.576C103.153 112.172 102.937 111.592 103.11 110.838C103.156 110.647 103.042 110.362 103.315 110.32C103.639 110.268 103.73 110.596 103.744 110.809C103.79 111.535 104.307 111.987 104.654 112.539C104.375 112.553 104.097 112.565 103.818 112.579L103.821 112.576Z" fill="#AD8813"/>
<path d="M52.8493 108.957C52.565 108.977 52.2835 108.994 52.2465 108.601C52.6929 108.766 52.6617 108.393 52.7498 108.154C53.1564 107.056 53.5658 105.96 53.9724 104.862C54.0406 105.075 54.106 105.289 54.1743 105.502C53.7336 106.655 53.29 107.804 52.8493 108.957Z" fill="#0D0D0D"/>
<path d="M126.371 121.098C125.717 120.652 125.063 120.683 124.409 121.098C124.156 120.999 123.846 120.993 123.659 120.575H126.991C127.048 121.024 126.607 120.951 126.371 121.096V121.098Z" fill="#0D0D0D"/>
<path d="M53.3355 57.5524C54.8282 57.2849 56.3181 57.2593 57.8023 57.6122C56.3096 57.7772 54.8226 57.726 53.3355 57.5524Z" fill="#AD8813"/>
<path d="M118.674 43.5127C118.552 43.7972 118.427 44.0789 118.305 44.3635C117.949 42.9919 118.054 41.609 117.998 40.2289L118.364 40.2005C118.467 41.3045 118.572 42.4086 118.674 43.5127Z" fill="#AD8813"/>
<path d="M96.5478 26.4623C95.8085 26.8266 95.0153 26.653 94.2561 26.6302C92.1833 26.5676 90.1021 26.8778 88.0378 26.4709C90.8754 26.3314 93.7102 26.3257 96.5478 26.4623Z" fill="#AD8813"/>
<path d="M166.186 68.8406C166.828 68.5247 166.459 67.8077 166.774 67.3638C167.05 68.3398 167.095 69.3101 166.786 70.4625C166.257 69.882 166.535 69.2503 166.186 68.8406Z" fill="#AD8813"/>
<path d="M115.194 108.336C115.18 108.069 115.097 107.855 115.299 107.779C115.393 107.742 115.592 107.818 115.666 107.907C116.058 108.385 116.439 108.871 116.798 109.375C116.943 109.58 117 109.862 116.732 110.027C116.348 110.263 116.383 109.896 116.292 109.691C116.039 109.122 114.918 109.207 115.197 108.336H115.194Z" fill="#AD8813"/>
<path d="M118.546 111.996C118.367 111.666 118.41 111.31 118.433 110.957C118.757 110.271 119.766 109.48 118.14 109.09C117.963 109.048 117.864 108.849 117.983 108.666C118.091 108.501 118.279 108.476 118.444 108.595C118.7 108.777 118.956 108.96 119.01 109.312C119.155 110.26 119.078 111.165 118.549 111.996L118.546 111.996Z" fill="#AD8813"/>
<path d="M83.3549 120.655C82.718 120.911 82.0499 120.76 81.3959 120.814C81.0263 120.845 80.6168 120.731 80.3382 121.096C80.0652 121.024 79.7866 120.965 79.5762 120.484C80.8927 120.612 82.1238 120.333 83.3549 120.655Z" fill="#0D0D0D"/>
<path d="M81.6603 58.1756C82.9455 57.9195 84.2278 57.8313 85.4988 58.2667C84.2164 58.3975 82.937 58.3634 81.6603 58.1756Z" fill="#AD8813"/>
<path d="M74.6147 58.0362C75.8344 57.6634 77.0514 57.6349 78.2569 58.1016C77.04 58.2012 75.8231 58.3919 74.6147 58.0362Z" fill="#AD8813"/>
<path d="M116.542 104.404C116.664 104.19 116.673 103.968 116.584 103.741C117.4 104.236 117.841 104.996 118.114 105.886C118.165 106.057 118.293 106.245 118.083 106.33C117.85 106.424 117.642 106.245 117.625 106.026C117.563 105.277 117.054 104.845 116.545 104.407L116.542 104.404Z" fill="#AD8813"/>
<path d="M105.288 103.934C105.786 103.749 106.175 103.761 106.192 104.438C106.192 104.438 106.155 104.461 106.155 104.458C105.985 104.452 105.774 104.458 105.754 104.654C105.734 104.845 105.959 104.745 106.061 104.802C106.033 105.081 105.766 105.368 105.621 105.257C105.211 104.939 105.12 104.447 105.288 103.934Z" fill="#AD8813"/>
<path d="M144.687 82.2543C144.778 81.7023 145.287 81.9442 145.583 81.7792C146.706 82.3454 147.832 81.8873 148.958 81.7905C148.938 81.9983 148.918 82.2088 148.901 82.4165C148.662 82.4165 148.421 82.4165 148.182 82.4165C147.471 82.2202 146.757 82.2287 146.044 82.3995C145.592 82.3511 145.142 82.3027 144.69 82.2572L144.687 82.2543Z" fill="#AD8813"/>
<path d="M132.498 135.346C132.717 135.266 132.936 135.187 133.155 135.107C133.883 135.07 134.628 135.261 135.333 134.933C135.336 135.064 135.342 135.195 135.344 135.323C134.398 135.636 133.451 135.656 132.498 135.346Z" fill="#0D0D0D"/>
<path d="M89.0955 74.5971C90.7333 74.2926 92.371 74.2243 94.0031 74.6312C92.3653 74.7706 90.7304 74.7422 89.0955 74.5971Z" fill="#AD8813"/>
<path d="M70.1678 101.897C70.1678 102.031 70.1621 102.164 70.1592 102.301C69.6304 102.463 69.0589 102.517 68.6324 102.924C68.4902 102.859 68.3481 102.79 68.2031 102.722C68.7575 102.207 69.3717 101.84 70.1649 101.897H70.1678Z" fill="#0D0D0D"/>
<path d="M75.9283 120.612C75.6098 120.84 75.2572 120.928 74.8706 120.857C74.4924 120.97 74.1143 121.087 73.7361 121.201C73.6053 121.007 73.4745 120.814 73.3437 120.62C74.2052 120.435 75.0668 120.361 75.9311 120.615L75.9283 120.612Z" fill="#0D0D0D"/>
<path d="M44.382 117.661C44.7545 117.342 45.3715 117.661 45.6757 117.166C46.0368 117.328 46.4803 117.297 46.8699 117.687C45.9771 117.875 45.181 117.835 44.382 117.661Z" fill="#0D0D0D"/>
<path d="M141.995 48.7882C142.814 49.1667 143.323 49.8724 143.854 50.5525C143.055 50.1541 142.558 49.437 141.995 48.7882Z" fill="#AD8813"/>
<path d="M2.80744 35.4997C2.85293 36.2481 2.46909 36.8485 2.08809 37.4659C2.05681 36.7147 1.9971 35.9692 2.55154 35.346C2.73067 35.2436 2.78469 35.346 2.80744 35.4997Z" fill="#AD8813"/>
<path d="M67.569 121.019C67.4439 120.877 67.1766 120.874 67.1653 120.615C67.7396 120.444 68.3139 120.364 68.8883 120.615C68.8627 120.848 68.84 121.081 68.8144 121.315C68.4959 120.811 67.9927 121.076 67.569 121.016V121.019Z" fill="#0D0D0D"/>
<path d="M59.7073 101.88C58.1748 102.301 56.6024 101.888 55.0585 102.116C55.178 101.669 55.5618 101.812 55.8376 101.812C57.1285 101.814 58.4165 101.854 59.7073 101.88Z" fill="#0D0D0D"/>
<path d="M85.0268 116.958C84.9585 117.468 85.4817 117.422 85.695 117.67C85.169 117.912 84.6259 117.789 84.0089 117.641C84.3472 117.414 84.6884 117.186 85.0268 116.958Z" fill="#0D0D0D"/>
<path d="M116.928 42.8525C116.695 41.2903 116.67 39.7281 116.926 38.1659C117.108 39.7281 117.128 41.2903 116.928 42.8525Z" fill="#AD8813"/>
<path d="M148.051 57.6179C148.222 57.4187 148.35 57.2024 148.276 56.9236C148.779 57.2992 149.49 57.3248 149.976 57.9224C149.234 58.0504 148.645 57.8028 148.051 57.6179Z" fill="#AD8813"/>
<path d="M0.524281 41.5464C0.555557 42.3005 0.629482 43.0574 0.194459 43.7403C0.194459 42.9919 0.174556 42.2407 0.524281 41.5464Z" fill="#AD8813"/>
<path d="M42.8722 117.155C43.094 117.624 43.6626 117.34 43.9527 117.655C43.3925 117.849 42.8267 117.812 42.2296 117.769C42.2637 117.305 42.6533 117.325 42.8694 117.155H42.8722Z" fill="#0D0D0D"/>
<path d="M132.743 54.8122C133.638 54.6585 134.494 54.7524 135.288 55.2191C134.415 55.2276 133.522 55.3813 132.743 54.8122Z" fill="#AD8813"/>
<path d="M49.0677 101.886C47.7257 102.167 46.3808 102.167 45.0388 101.883C46.3808 101.749 47.7257 101.752 49.0677 101.886Z" fill="#0D0D0D"/>
<path d="M86.3091 117.692C86.4826 117.493 86.7726 117.371 86.747 117.038C87.0768 117.206 87.455 117.308 87.7563 117.721C87.2275 117.872 86.7697 117.869 86.3091 117.692Z" fill="#0D0D0D"/>
<path d="M135.725 120.219C135.725 120.421 135.731 120.626 135.731 120.828C135.171 120.729 134.611 120.629 133.903 120.501C134.554 120 135.151 120.185 135.725 120.219Z" fill="#0D0D0D"/>
<path d="M118.054 74.8133C119.277 74.691 120.5 74.6597 121.719 74.8503C120.497 75.0125 119.274 75.0097 118.054 74.8133Z" fill="#AD8813"/>
<path d="M88.4473 101.874C87.4663 102.147 86.4854 102.144 85.5073 101.868C86.4882 101.735 87.4692 101.743 88.4473 101.874Z" fill="#0D0D0D"/>
<path d="M108.697 26.7014C107.841 26.8863 106.988 26.9347 106.144 26.6359C106.994 26.6587 107.847 26.6786 108.697 26.7014Z" fill="#AD8813"/>
<path d="M103.821 112.576C104.1 112.562 104.378 112.551 104.657 112.536C104.708 112.551 104.756 112.568 104.802 112.59C104.717 113.029 104.182 112.989 104.014 113.336C103.949 113.083 103.886 112.827 103.821 112.573L103.821 112.576Z" fill="#AD8813"/>
<path d="M89.2491 128.505C89.0074 128.693 88.7515 128.767 88.4842 128.574C88.4444 128.545 88.4558 128.357 88.5041 128.315C88.7288 128.127 88.9562 128.184 89.1666 128.36C89.2917 128.352 89.3031 128.409 89.2491 128.502V128.505Z" fill="#0D0D0D"/>
<path d="M117.244 59.6581C116.849 59.7549 116.562 59.5187 116.257 59.3366C116.28 59.1744 116.306 59.0122 116.329 58.85C116.491 58.8528 116.653 58.8585 116.815 58.8614C116.795 59.2142 117.122 59.3821 117.241 59.6581H117.244Z" fill="#AD8813"/>
<path d="M36.5146 26.4823C35.8038 26.7668 35.0873 26.7611 34.3679 26.5107C35.0816 26.3542 35.7953 26.357 36.5146 26.4823Z" fill="#AD8813"/>
<path d="M122.311 74.3154C121.671 74.5231 121.034 74.5401 120.397 74.2954C121.037 74.1418 121.674 74.1389 122.311 74.3154Z" fill="#AD8813"/>
<path d="M116.883 58.7248C116.701 58.0134 116.687 57.3049 116.903 56.5963C117.065 57.3077 117.125 58.0162 116.883 58.7248Z" fill="#AD8813"/>
<path d="M146.044 82.3966C146.757 82.2259 147.471 82.2173 148.182 82.4137C147.468 82.6328 146.755 82.6356 146.044 82.3966Z" fill="#AD8813"/>
<path d="M126.712 74.8873C127.403 74.7023 128.091 74.7023 128.779 74.9015C128.088 75.0893 127.4 75.0751 126.712 74.8873Z" fill="#AD8813"/>
<path d="M103.392 134.706C103.397 134.822 103.403 134.942 103.411 135.059C103.121 135.218 102.837 135.224 102.553 135.01C102.706 134.544 103.085 134.714 103.394 134.703L103.392 134.706Z" fill="#0D0D0D"/>
<path d="M120.412 38.1944C120.412 38.3964 120.412 38.5985 120.412 38.8033C120.121 38.8631 119.672 39.0509 119.627 38.6753C119.584 38.3139 120.036 38.1859 120.414 38.1972L120.412 38.1944Z" fill="#AD8813"/>
<path d="M60.4494 102.412C60.3442 102.23 60.239 102.045 60.1338 101.863C60.4608 101.863 60.7878 101.863 61.1318 101.863C61.0721 102.358 60.7281 102.338 60.4494 102.412Z" fill="#0D0D0D"/>
<path d="M153.698 66.1174C153.283 66.106 152.998 65.9467 152.976 65.4857C153.453 65.4231 153.519 65.8357 153.698 66.1174Z" fill="#AD8813"/>
<path d="M22.4801 53.9443C22.7531 54.5077 22.7588 55.074 22.4972 55.6402C22.3351 55.0768 22.338 54.5106 22.4801 53.9443Z" fill="#AD8813"/>
<path d="M43.9697 101.863C43.9384 102.048 43.91 102.23 43.8787 102.415C43.6171 102.358 43.347 102.324 43.1537 101.917C43.4494 101.897 43.7081 101.88 43.9697 101.86V101.863Z" fill="#0D0D0D"/>
<path d="M67.6031 134.674C67.6145 134.805 67.6287 134.939 67.6401 135.07C67.3842 135.181 66.9947 135.303 66.952 134.985C66.9008 134.606 67.3387 134.703 67.6031 134.674Z" fill="#0D0D0D"/>
<path d="M125.049 135.127C125.205 135.113 125.362 135.098 125.521 135.084C125.643 135.246 125.535 135.343 125.401 135.372C125.225 135.409 125.074 135.343 125.052 135.127H125.049Z" fill="#0D0D0D"/>
<path d="M42.0477 74.782C42.4542 74.5089 42.9035 74.6084 43.3442 74.6227C42.949 74.9784 42.494 74.856 42.0477 74.782Z" fill="#AD8813"/>
<path d="M122.26 74.8588C122.723 74.7137 123.187 74.7109 123.65 74.8702C123.187 75.0438 122.723 75.0381 122.26 74.8588Z" fill="#AD8813"/>
<path d="M15.6477 79.884C15.5084 80.0036 15.3463 80.2426 15.19 79.9922C15.0705 79.8044 15.3378 79.7731 15.4686 79.7105C15.5283 79.7674 15.5909 79.8271 15.6506 79.884H15.6477Z" fill="#AD8813"/>
<path d="M118.296 110.818C118.117 110.801 117.938 110.783 117.756 110.766C117.716 110.55 117.767 110.303 117.989 110.3C118.279 110.3 118.33 110.562 118.296 110.818Z" fill="#AD8813"/>
<path d="M97.7818 135.061C97.7875 134.942 97.7932 134.825 97.7988 134.706C98.1002 134.646 98.2907 134.82 98.4841 135.033C98.2481 135.286 98.0149 135.181 97.7818 135.061Z" fill="#0D0D0D"/>
<path d="M61.527 1.88562C61.8057 1.75472 61.9734 1.76326 62.1213 1.89131C62.1412 1.90838 62.09 2.00228 62.0729 2.06204C61.9166 2.01367 61.763 1.96245 61.527 1.88846V1.88562Z" fill="#AD8813"/>
<path d="M112.774 134.717C112.755 134.839 112.735 134.962 112.715 135.084C112.524 135.283 112.18 135.172 112.189 135.076C112.22 134.791 112.501 134.714 112.774 134.714V134.717Z" fill="#0D0D0D"/>
<path d="M69.0077 135.022C69.4854 134.857 69.9631 134.857 70.4436 135.022C69.9659 135.189 69.4882 135.195 69.0077 135.022Z" fill="#0D0D0D"/>
<path d="M78.4218 121.693C78.1858 121.3 78.3081 120.851 78.22 120.435C78.7659 120.777 78.4616 121.255 78.4218 121.693Z" fill="#0D0D0D"/>
<path d="M114.827 135.093C114.844 134.945 114.861 134.797 114.876 134.649C115.109 134.691 115.439 134.748 115.39 135.01C115.331 135.335 115.038 135.189 114.827 135.093Z" fill="#0D0D0D"/>
<path d="M106.061 104.805C105.959 104.748 105.734 104.851 105.754 104.657C105.774 104.458 105.985 104.455 106.155 104.461C106.124 104.575 106.093 104.691 106.061 104.805Z" fill="#AD8813"/>
<path d="M155.401 68.4365C155.182 68.2857 155.063 68.0837 155.085 67.8105C155.27 67.9784 155.384 68.1833 155.401 68.4365Z" fill="#AD8813"/>
<path d="M86.9318 135.073C86.9375 134.95 86.9432 134.825 86.9489 134.703C87.2104 134.672 87.4948 134.737 87.4464 135.024C87.4123 135.229 87.1223 135.175 86.9318 135.073Z" fill="#0D0D0D"/>
<path d="M80.1363 134.643C80.1449 134.783 80.1534 134.922 80.1619 135.059C80.0141 135.207 79.7582 135.218 79.7098 135.078C79.5904 134.737 79.9544 134.754 80.1363 134.64V134.643Z" fill="#0D0D0D"/>
<path d="M77.9783 124.712C78.1176 124.493 78.2598 124.274 78.3991 124.058C78.5157 124.32 78.5612 124.61 78.3849 124.835C78.2711 124.977 78.0778 124.889 77.9783 124.712Z" fill="#0D0D0D"/>
<path d="M98.0832 117.832C98.2651 117.832 98.4471 117.829 98.6291 117.826C98.6547 117.988 98.6973 118.193 98.4698 118.205C98.2566 118.216 98.1287 118.045 98.086 117.832H98.0832Z" fill="#0D0D0D"/>
<path d="M88.888 101.874C89.2405 102.11 89.596 102.11 89.9485 101.874C89.596 101.763 89.2405 101.763 88.888 101.874Z" fill="#0D0D0D"/>
<path d="M144.943 51.5598C145.25 51.5114 145.424 51.6764 145.532 51.9354C145.336 51.8102 145.14 51.685 144.943 51.5598Z" fill="#AD8813"/>
<path d="M3.70876 44.5883C3.55807 44.3578 3.6064 44.1927 3.86514 44.0903C3.93338 44.2952 3.89642 44.4659 3.70876 44.5883Z" fill="#AD8813"/>
<path d="M110.38 135.056C110.392 134.916 110.4 134.777 110.412 134.637C110.577 134.731 110.861 134.76 110.784 135.022C110.724 135.232 110.528 135.178 110.38 135.056Z" fill="#0D0D0D"/>
<path d="M90.7759 101.931C90.8754 102.176 91.0659 102.264 91.319 102.238C91.2081 102.011 91.0489 101.871 90.7759 101.931Z" fill="#0D0D0D"/>
<path d="M74.8052 135.064C74.9018 134.965 75.0014 134.868 75.098 134.768C75.2885 134.8 75.6354 134.802 75.5359 135.03C75.4023 135.335 75.0611 135.181 74.8052 135.064Z" fill="#0D0D0D"/>
<path d="M106.15 26.6388C105.845 26.6786 105.538 26.7327 105.271 26.5079C105.581 26.431 105.897 26.3201 106.15 26.6388Z" fill="#AD8813"/>
<path d="M72.2803 120.623C71.9932 120.862 71.706 120.859 71.4217 120.623C71.7088 120.498 71.996 120.498 72.2803 120.623Z" fill="#0D0D0D"/>
<path d="M38.8745 74.7194C39.0082 74.5743 39.1333 74.5629 39.2527 74.7365C39.2044 74.8133 39.1702 74.9442 39.1077 74.9585C38.9371 74.9983 38.8859 74.8674 38.8745 74.7194Z" fill="#AD8813"/>
<path d="M68.0524 90.9161C67.9671 91.1836 67.7368 91.1722 67.5235 91.1921C67.606 90.9189 67.8562 90.973 68.0524 90.9161Z" fill="#AD8813"/>
<path d="M22.3323 58.6167C22.6792 58.8158 22.4887 58.941 22.2726 59.0634C22.2214 58.9041 22.1844 58.7476 22.3323 58.6167Z" fill="#AD8813"/>
<path d="M91.8393 102.756C91.6602 102.654 91.4526 102.586 91.4157 102.338C91.663 102.369 91.9218 102.389 91.8393 102.756Z" fill="#0D0D0D"/>
<path d="M64.1571 122.746C64.285 123.045 64.285 123.344 64.1571 123.642C64.0149 123.344 64.0092 123.045 64.1571 122.746Z" fill="#0D0D0D"/>
<path d="M95.6806 134.652C95.6948 134.794 95.709 134.936 95.7232 135.078C95.5725 135.178 95.4218 135.181 95.2683 135.078L95.2911 135.104C95.2228 134.783 95.4048 134.677 95.6806 134.654V134.652Z" fill="#0D0D0D"/>
<path d="M0.137594 44.5456C0.276915 44.7106 0.251325 44.8671 0.106317 45.0122C0.11769 44.8557 0.129064 44.7021 0.137594 44.5456Z" fill="#AD8813"/>
<path d="M58.1748 57.6179C58.4221 57.5126 58.6667 57.5126 58.9112 57.6236C58.6638 57.7744 58.4193 57.7687 58.1748 57.6179Z" fill="#AD8813"/>
<path d="M85.4846 73.9881C85.2628 74.1902 85.0467 74.1845 84.8306 73.9796C85.0495 73.8885 85.2685 73.8942 85.4846 73.9881Z" fill="#AD8813"/>
<path d="M103.141 120.62C103.355 120.822 103.571 120.828 103.784 120.62C103.571 120.509 103.355 120.515 103.141 120.62Z" fill="#0D0D0D"/>
<path d="M145.95 52.2313C146.177 52.2029 146.271 52.3793 146.385 52.5216C146.24 52.4248 146.095 52.3281 145.95 52.2313Z" fill="#AD8813"/>
<path d="M52.4456 110.106C52.4086 109.893 52.3688 109.677 52.5991 109.534C52.5479 109.725 52.4967 109.916 52.4456 110.106Z" fill="#0D0D0D"/>
<path d="M0.106317 50.9508C0.114847 51.1529 0.120534 51.3549 0.129063 51.5569C0.026705 51.3577 0.0210185 51.1557 0.106317 50.9508Z" fill="#AD8813"/>
<path d="M71.0065 120.623C70.7905 120.828 70.5744 120.831 70.3583 120.62C70.5744 120.512 70.7905 120.512 71.0065 120.623Z" fill="#0D0D0D"/>
<path d="M65.6725 74.2954C65.8147 74.1275 65.9597 74.1247 66.1047 74.2869C65.9626 74.3865 65.8175 74.3865 65.6725 74.2954Z" fill="#AD8813"/>
<path d="M144.005 50.7033C144.144 50.7033 144.227 50.763 144.235 50.9082C144.107 50.8968 144.008 50.8541 144.005 50.7033Z" fill="#AD8813"/>
<path d="M84.8334 101.846C84.6742 101.917 84.5178 101.991 84.3586 102.062C84.4297 101.8 84.5946 101.738 84.8334 101.846Z" fill="#0D0D0D"/>
<path d="M154.827 67.378C154.673 67.3467 154.605 67.2528 154.628 67.0963C154.784 67.1276 154.861 67.213 154.827 67.378Z" fill="#AD8813"/>
<path d="M122.1 38.7976C122.172 38.6952 122.24 38.698 122.305 38.8033C122.237 38.8033 122.169 38.7976 122.1 38.7976Z" fill="#AD8813"/>
<path d="M121.02 38.8005C121.1 38.6952 121.179 38.6924 121.259 38.8005C121.179 38.8005 121.1 38.8005 121.02 38.8005Z" fill="#AD8813"/>
<path d="M99.3285 121.027C99.3911 121.116 99.4565 121.207 99.519 121.295C99.3825 121.258 99.3058 121.178 99.3285 121.027Z" fill="#0D0D0D"/>
<path d="M33.7538 26.5221C33.6685 26.5619 33.5832 26.6046 33.5007 26.6444C33.5519 26.5335 33.6173 26.451 33.7538 26.5221Z" fill="#AD8813"/>
<path d="M107.642 114.301C107.574 114.485 107.492 114.514 107.389 114.323C107.475 114.315 107.557 114.309 107.642 114.301Z" fill="#AD8813"/>
<path d="M155.933 69.2503C155.893 69.2219 155.89 69.1906 155.921 69.1564L155.981 69.1934L155.936 69.2503L155.933 69.2503Z" fill="#AD8813"/>
<path d="M87.8047 74.5743C87.8871 74.4434 87.9668 74.4463 88.0435 74.58C87.9639 74.58 87.8843 74.5772 87.8047 74.5743Z" fill="#AD8813"/>
<path d="M91.4356 128.531C91.3759 128.628 91.3076 128.636 91.2308 128.545C91.2991 128.539 91.3673 128.534 91.4356 128.531Z" fill="#0D0D0D"/>
<path d="M138.731 76.9588C138.745 76.9987 138.762 77.0385 138.768 77.0784C138.768 77.0983 138.745 77.121 138.734 77.141C138.705 77.0812 138.705 77.0186 138.731 76.9588Z" fill="#AD8813"/>
<path d="M55.0159 102.267C54.959 102.355 54.8993 102.443 54.8425 102.534C54.797 102.378 54.8851 102.31 55.0159 102.267Z" fill="#0D0D0D"/>
<path d="M155.62 68.8633C155.583 68.8008 155.546 68.7382 155.509 68.6784C155.546 68.741 155.583 68.8036 155.62 68.8633Z" fill="#AD8813"/>
<path d="M54.7998 102.691C54.7458 102.779 54.6918 102.867 54.6377 102.955C54.578 102.796 54.6662 102.731 54.7998 102.691Z" fill="#0D0D0D"/>
<path d="M154.292 66.7292L154.224 66.7235L154.227 66.6524H154.309L154.292 66.7292Z" fill="#AD8813"/>
<path d="M153.886 66.3052L153.809 66.2967L153.8 66.2199H153.886V66.3052Z" fill="#AD8813"/>
<path d="M26.1935 59.4845C26.1707 59.4276 26.1423 59.3736 26.1338 59.3167C26.1309 59.3024 26.1793 59.2768 26.2049 59.2569C26.202 59.3337 26.1963 59.4106 26.1935 59.4845Z" fill="#AD8813"/>
<path d="M69.7157 120.618C69.6531 120.729 69.5849 120.731 69.5195 120.62C69.5849 120.62 69.6503 120.62 69.7157 120.618Z" fill="#0D0D0D"/>
<path d="M99.3427 120.623C99.3228 120.723 99.3001 120.822 99.2802 120.922C99.2176 120.854 99.1551 120.783 99.0925 120.714C99.175 120.686 99.2603 120.655 99.3427 120.626V120.623Z" fill="#0D0D0D"/>
<path d="M68.6239 133.166C68.5983 133.249 68.5727 133.331 68.5443 133.411C68.4789 133.3 68.5101 133.22 68.6239 133.166Z" fill="#0D0D0D"/>
<path d="M73.031 135.022C73.1674 135.022 73.3068 135.022 73.4432 135.024C73.3039 135.135 73.1674 135.135 73.031 135.022Z" fill="#0D0D0D"/>
<path d="M81.1372 135.016C81.2651 135.022 81.3931 135.027 81.5182 135.033C81.3874 135.135 81.2594 135.13 81.1372 135.016Z" fill="#0D0D0D"/>
<path d="M86.0362 135.022C86.1328 135.022 86.2295 135.024 86.3233 135.027C86.2267 135.027 86.13 135.024 86.0362 135.022Z" fill="#0D0D0D"/>
<path d="M96.6786 135.007C96.7781 135.019 96.8748 135.027 96.9714 135.039C96.8719 135.027 96.7753 135.019 96.6786 135.007Z" fill="#0D0D0D"/>
<path d="M109.661 135.01C109.803 135.019 109.948 135.027 110.09 135.039C109.94 135.144 109.798 135.144 109.661 135.01Z" fill="#0D0D0D"/>
<path d="M124.548 134.669L124.631 134.657L124.671 134.728L124.591 134.74L124.548 134.669Z" fill="#0D0D0D"/>
<path d="M52.9062 36.029C52.2153 36.2765 51.5016 36.1371 50.8021 36.1428C47.1883 36.1712 43.5717 36.1769 39.9578 36.1798C39.574 36.1798 39.1788 36.268 38.8092 36.0802C39.1503 35.8411 39.5427 35.8525 39.9294 35.8525C43.9527 35.8468 47.9759 35.8411 51.9992 35.8383C52.3119 35.8383 52.6389 35.7956 52.9062 36.029Z" fill="#AD8813"/>
<path d="M55.8888 35.3944C57.9217 35.1326 59.9661 35.2464 62.0047 35.255C63.5827 35.2635 65.1693 35.0814 66.7445 35.3574C66.5483 35.5424 66.3009 35.5651 66.0507 35.5651C62.8605 35.5708 59.6704 35.5794 56.483 35.5737C56.284 35.5737 56.0878 35.457 55.8888 35.3944Z" fill="#AD8813"/>
<path d="M114.023 36.655C111.097 36.8513 108.211 36.3733 105.308 36.1741C106.206 35.8725 107.128 36.0631 108.032 36.0745C109.761 36.0972 111.486 36.2111 113.215 36.2794C113.542 36.2936 113.858 36.3078 114.023 36.655Z" fill="#AD8813"/>
<path d="M116.26 53.1646C116.01 51.3094 116.203 49.4484 116.209 47.5903C116.215 46.0822 116.101 44.5683 116.329 43.0688C116.377 43.1627 116.465 43.2537 116.468 43.3476C116.556 46.6228 116.576 49.898 116.26 53.1646Z" fill="#AD8813"/>
<path d="M138.936 45.4078C137.636 44.2155 136.337 43.0204 135.04 41.8281C135.148 41.6432 135.256 41.4582 135.364 41.2761C136.689 42.4257 138.174 43.4074 139.16 44.9098C139.086 45.0777 139.009 45.2427 138.936 45.4106V45.4078Z" fill="#AD8813"/>
<path d="M103.178 36.1257C100.54 36.2168 97.904 36.2509 95.2712 36.0147C96.9714 35.6107 98.6945 35.8924 100.406 35.8781C101.325 35.8696 102.297 35.5964 103.178 36.1257Z" fill="#AD8813"/>
<path d="M39.0622 54.9374C40.7625 54.7724 42.4599 54.8264 44.1517 55.0228C42.4486 55.2817 40.7511 55.3301 39.0622 54.9374Z" fill="#AD8813"/>
<path d="M48.428 55.1309C49.8468 54.9659 51.2599 55.0085 52.6702 55.2191C51.2485 55.4837 49.8326 55.5463 48.428 55.1309Z" fill="#AD8813"/>
<path d="M66.5312 55.6431C67.9472 55.3358 69.3574 55.4809 70.7677 55.6915C69.3518 55.9475 67.9386 55.9276 66.5312 55.6431Z" fill="#AD8813"/>
<path d="M84.0032 28.881C82.8659 29.0205 81.7286 29.0461 80.5969 28.8184C81.74 28.5083 82.8744 28.4656 84.0032 28.881Z" fill="#AD8813"/>
<path d="M80.3069 55.9846C81.7542 55.8138 83.1929 55.9419 84.6344 56.0984C83.1815 56.4313 81.7456 56.1809 80.3069 55.9846Z" fill="#AD8813"/>
<path d="M117.619 35.6761C118.558 35.6704 119.533 35.3574 120.394 36.0033C119.462 35.9493 118.467 36.4501 117.619 35.6761Z" fill="#AD8813"/>
<path d="M30.1371 54.7524C30.9816 54.5732 31.8203 54.5931 32.6563 54.798C31.8118 55.0683 30.9702 55.0967 30.1371 54.7524Z" fill="#AD8813"/>
<path d="M116.926 30.0648C117.088 31.7038 117.068 33.3399 116.923 34.979C116.67 33.3399 116.619 31.7038 116.926 30.0648Z" fill="#AD8813"/>
<path d="M28.1895 36.2281C27.4843 36.3021 26.7764 36.5497 25.9632 36.1684C26.7422 35.6477 27.5042 35.8668 28.235 35.8582C28.2207 35.9834 28.2037 36.1058 28.1895 36.231V36.2281Z" fill="#AD8813"/>
<path d="M24.115 41.5919C24.1719 42.2749 24.26 42.9606 23.7568 43.5411C23.8023 42.8781 23.8051 42.2066 24.115 41.5919Z" fill="#AD8813"/>
<path d="M65.4849 28.6078C64.1997 28.77 62.9174 28.7245 61.6379 28.5822C62.9202 28.4542 64.2054 28.44 65.4849 28.6078Z" fill="#AD8813"/>
<path d="M114.239 28.6107C113.153 28.7302 112.066 28.8298 110.975 28.6534C112.061 28.4542 113.147 28.4371 114.239 28.6107Z" fill="#AD8813"/>
<path d="M40.3445 28.3347C39.3465 28.4286 38.3514 28.4314 37.3562 28.3091C38.3542 28.053 39.3494 28.0473 40.3445 28.3347Z" fill="#AD8813"/>
<path d="M32.0308 35.6107C33.043 35.3375 34.0637 35.3631 35.0873 35.5395C34.0722 35.7586 33.0515 35.6733 32.0308 35.6107Z" fill="#AD8813"/>
<path d="M36.4322 35.531C37.4074 35.3261 38.3827 35.3347 39.3607 35.5025C38.3855 35.7359 37.4103 35.7046 36.4322 35.531Z" fill="#AD8813"/>
<path d="M114.406 35.568C115.029 35.2493 115.814 35.7785 116.388 35.1952C116.528 35.8241 116.039 35.6704 115.746 35.6733C115.299 35.6733 114.853 35.6078 114.406 35.568Z" fill="#AD8813"/>
<path d="M110.38 58.4459C110.821 58.4004 111.273 58.2752 111.66 58.6252C111.196 58.8244 110.787 58.6479 110.38 58.4459Z" fill="#AD8813"/>
<path d="M111.72 35.5168C112.419 35.3432 113.116 35.3546 113.809 35.5509C113.11 35.7017 112.413 35.7472 111.72 35.5168Z" fill="#AD8813"/>
<path d="M68.4931 28.6448C67.8277 28.8213 67.1624 28.807 66.5028 28.6164C67.1681 28.4741 67.8334 28.4713 68.4931 28.6448Z" fill="#AD8813"/>
<path d="M63.9893 55.6402C64.5523 55.6459 65.1152 55.6545 65.6782 55.6602C65.1124 55.8565 64.5494 55.8679 63.9893 55.6402Z" fill="#AD8813"/>
<path d="M131.915 36.1627C131.557 36.0972 131.378 35.7842 131.128 35.5737C131.563 35.5395 131.807 35.7586 131.915 36.1627Z" fill="#AD8813"/>
<path d="M36.5829 36.1058C36.2075 36.2765 35.8294 36.2794 35.4484 36.1257C35.8237 35.9237 36.2019 35.9493 36.5829 36.1058Z" fill="#AD8813"/>
<path d="M32.2497 36.1598C31.9312 36.3107 31.6128 36.305 31.2915 36.1712C31.6071 35.9834 31.9284 35.9635 32.2497 36.1598Z" fill="#AD8813"/>
<path d="M24.3084 40.5249C24.3311 40.6927 24.4022 40.8692 24.2032 40.9858C24.1122 40.8037 24.1179 40.6444 24.3084 40.5249Z" fill="#AD8813"/>
<path d="M133.838 38.0834C133.579 38.0948 133.462 37.9639 133.468 37.7135C133.695 37.7334 133.823 37.8529 133.838 38.0834Z" fill="#AD8813"/>
<path d="M100.383 35.3631C100.526 35.2151 100.665 35.218 100.801 35.3688C100.659 35.5509 100.52 35.5481 100.383 35.3631Z" fill="#AD8813"/>
<path d="M112.703 58.7589C112.979 58.6138 113.11 58.7532 113.184 59.0036C112.945 59.0805 112.755 59.0577 112.703 58.7589Z" fill="#AD8813"/>
<path d="M46.523 28.3859C46.3751 28.4912 46.2301 28.4883 46.088 28.3802C46.233 28.3802 46.378 28.3831 46.523 28.3859Z" fill="#AD8813"/>
<path d="M30.973 28.3261C30.8337 28.3347 30.6944 28.3432 30.5551 28.3518C30.6859 28.1981 30.8224 28.181 30.973 28.3261Z" fill="#AD8813"/>
<path d="M131.281 39.4436C131.207 39.4037 131.136 39.361 131.062 39.3212C131.125 39.2615 131.19 39.2045 131.253 39.1448C131.261 39.2444 131.27 39.344 131.279 39.4436H131.281Z" fill="#AD8813"/>
<path d="M140.457 55.3187C141.79 55.202 143.141 54.9488 144.306 55.9532C142.979 56.0358 141.705 55.7683 140.457 55.3187Z" fill="#AD8813"/>
<path d="M136.371 51.5911C135.939 50.4643 136.033 49.326 136.3 48.185C136.704 49.3118 136.618 50.45 136.371 51.5911Z" fill="#AD8813"/>
<path d="M132.296 42.6391C132.001 42.6305 131.969 42.8923 131.859 43.0716C131.472 42.8411 131.506 42.5509 131.827 42.3318C132.129 42.124 132.262 42.3432 132.296 42.6362V42.6391Z" fill="#AD8813"/>
<path d="M132.137 49.8809C132.214 49.9691 132.322 50.0488 132.356 50.1541C132.385 50.2366 132.302 50.3163 132.186 50.2565C132.049 50.1455 132.069 50.0175 132.137 49.8809Z" fill="#AD8813"/>
<path d="M133.186 53.0081C133.34 52.9313 133.479 52.9484 133.596 53.0793C133.459 53.0565 133.323 53.0337 133.186 53.0081Z" fill="#AD8813"/>
<path d="M136.104 47.3342C136.047 47.2687 135.987 47.2004 135.93 47.135C136.058 47.1407 136.195 47.1378 136.104 47.3342Z" fill="#AD8813"/>
<path d="M134.85 43.2082L134.929 43.211L134.915 43.2907L134.847 43.2822L134.85 43.2082Z" fill="#AD8813"/>
<path d="M132.72 41.057C132.828 41.0285 132.871 41.0684 132.845 41.1793C132.803 41.1395 132.763 41.0968 132.72 41.057Z" fill="#AD8813"/>
<path d="M134.651 43.0062H134.736V43.0915L134.659 43.0858L134.651 43.0062Z" fill="#AD8813"/>
<path d="M155.711 72.9296C155.574 72.8983 155.503 72.8215 155.543 72.6735C155.6 72.7589 155.654 72.8442 155.711 72.9296Z" fill="#AD8813"/>
<path d="M36.9354 3.65553C36.7933 3.82057 36.6198 3.84618 36.4094 3.71244C36.58 3.68683 36.7506 3.66122 36.9212 3.63561L36.9354 3.65553Z" fill="#AD8813"/>
<path d="M138.93 76.2759C139.169 76.3414 139.126 76.5519 139.16 76.7227C139.083 76.5747 139.007 76.4267 138.93 76.2759Z" fill="#AD8813"/>
</svg>
