<svg width="362" height="54" viewBox="0 0 362 54" fill="none" xmlns="http://www.w3.org/2000/svg">
<path d="M0.534128 26.0407C0.627643 21.7845 2.68497 18.547 5.83331 15.8783C13.2085 9.62831 21.9303 5.92833 30.9015 2.70961C32.0237 2.30961 33.1459 1.89711 34.2681 1.49087C37.0486 1.20962 39.8291 1.22837 42.6096 1.47837C48.4075 1.93461 54.168 2.97211 59.9473 3.30335C63.7315 3.5221 66.1691 4.59084 67.4846 8.08457C65.0283 7.55332 62.6779 6.55333 60.1405 6.33458C57.3226 5.81583 54.4798 6.14708 51.6556 6.12833C48.6382 6.10958 45.6145 6.24708 42.6034 6.02833C40.97 5.69708 39.3865 5.19709 37.8466 4.57834C37.0361 4.0971 36.1259 3.9096 35.1471 3.70335C35.4401 4.40335 36.2693 4.3596 36.5935 4.91584C36.7556 5.10959 36.8803 5.31584 36.9862 5.54084C37.8965 8.04082 37.0237 10.6783 37.6159 13.2033C37.697 13.4533 37.7468 13.7095 37.7905 13.9658C38.0461 16.9095 37.5847 19.9095 38.5885 22.7845C38.8752 23.7157 39.3366 24.5782 39.7543 25.4594C40.1782 27.9094 41.6059 29.1844 44.1059 29.4844C45.3901 29.6407 46.1445 30.4469 45.4151 31.8781C44.5173 33.0031 43.1146 33.9344 43.8752 35.7219C44.0809 36.5281 44.0934 37.3781 44.43 38.1531C44.6358 38.6218 44.9412 39.0343 45.228 39.4593C45.6021 40.0843 46.0136 40.6906 46.4313 41.2843C46.743 41.7343 47.0921 42.1593 47.4163 42.5968C48.3764 44.0656 49.7541 44.4593 51.3688 44.0218C53.6257 43.4093 55.8451 43.2156 58.1954 43.6468C60.2902 44.0343 60.7764 43.3031 60.0158 41.2343C59.542 39.9468 59.2864 38.7281 60.4772 37.7594C61.6929 36.7719 62.6966 37.7719 63.7315 38.2968C63.9497 38.3843 64.1554 38.4781 64.3674 38.5781C65.1966 39.0031 65.8387 39.6593 66.5058 40.2781C68.1953 41.9656 69.9783 41.5843 71.7987 40.5093C72.179 40.3468 72.5157 40.3906 72.79 40.7281C73.8373 42.0968 73.27 43.4968 72.896 44.8968C72.4097 45.928 71.6304 46.7718 71.3748 47.978C71.0818 49.3593 69.997 50.228 68.5756 50.5405C66.8237 50.928 65.0657 51.2843 63.3076 51.6468C57.6593 51.9405 52.0047 51.9217 46.3502 51.6655C42.5473 51.853 38.9064 50.903 35.2531 50.0468C34.8728 49.678 34.8416 49.2155 34.8728 48.728C34.9414 48.153 35.1346 47.5968 35.1596 47.0155C35.4588 43.0843 33.6197 39.9906 31.2507 37.1219C30.6958 36.4531 30.0412 35.8719 29.5799 35.1219C26.2694 34.1406 23.8443 35.8219 23.2458 39.5281C22.8717 41.3156 22.9091 43.1093 23.2208 44.903C23.3455 45.4405 23.464 45.9843 23.5949 46.5218C24.2433 49.1843 23.1751 50.3863 20.3905 50.128C18.8631 49.6405 17.2982 49.9968 15.7521 49.9218C14.8856 49.878 14.0127 49.9843 13.4392 49.1343C12.7721 47.1093 13.5763 44.7968 12.236 42.8968C11.8931 42.4531 11.6811 41.9281 11.4317 41.4281C10.827 40.2406 10.1101 39.1031 8.53901 39.4031C6.98043 39.7093 6.05774 40.7968 5.68992 42.3218C5.28469 43.9843 5.95176 45.4655 6.55649 46.9593C6.71235 48.1905 7.4667 49.853 4.96674 49.1843C1.69995 46.0405 1.14509 41.8593 0.571536 37.6906C0.25982 33.8094 0.309693 29.9219 0.540364 26.0407H0.534128Z" fill="#FEC902"/>
<path d="M42.0422 5.42827C45.2591 5.42827 48.476 5.42827 51.6929 5.42202C54.5669 6.10326 57.5158 5.24702 60.396 5.86577C62.9209 6.08451 65.4645 6.25952 67.4782 8.09075C70.1403 12.447 71.3435 17.3219 72.4844 22.2157C72.7899 23.7906 72.6278 25.3719 72.5841 26.9531C71.7612 27.8344 70.8946 27.7344 69.9969 27.0844C69.6166 26.1781 68.9308 25.7781 67.9396 25.8344C64.2364 26.0531 60.527 26.1219 56.8487 26.6781C55.3899 26.7469 53.9248 26.9719 52.4909 26.5094C51.9485 26.2844 51.6368 25.8219 51.3376 25.3531C50.3027 23.7406 48.8875 23.0594 46.9236 23.1531C45.2591 23.2344 43.5446 22.9969 43.5696 20.6469C46.6036 19.6928 47.9066 17.4865 47.4785 14.0282C47.2104 13.0407 46.693 12.1782 46.0945 11.3532C45.309 9.95323 43.9249 9.04074 43.0708 7.697C42.6282 6.99701 41.7741 6.45951 42.0359 5.42827H42.0422Z" fill="#8DCEE7"/>
<path d="M301.696 12.0781C301.103 14.4781 300.474 16.8718 299.944 19.2843C299.732 20.2468 299.308 21.0968 298.766 21.8655C297.463 23.703 295.33 23.6342 294.009 21.8155C292.949 20.353 292.862 18.5405 292.22 16.9343C291.839 16.0843 291.752 15.1281 291.359 14.2968C290.892 13.3093 290.405 12.3218 289.826 11.0906C288.878 12.0281 289.127 13.3281 288.373 14.0968C288.772 16.7655 287.587 19.2218 287.282 21.7968C287.07 23.6092 285.069 23.553 283.834 23.5967C282.718 23.6405 282.824 22.2218 282.949 21.2655C283.61 16.028 284.246 10.7906 284.975 5.56562C285.169 4.20313 285.418 2.81564 286.571 1.7719C288.678 -0.140588 291.191 0.0844106 292.793 2.39689C293.828 3.89063 294.04 5.65312 294.533 7.32811C294.533 9.0281 295.655 10.4531 295.692 12.1406C295.754 13.1343 295.486 14.1968 296.353 15.1406C297.456 14.0593 297.269 12.7031 297.313 11.4156C297.319 10.7906 297.481 10.2218 297.868 9.72809C298.367 7.6781 298.747 5.59062 299.408 3.59689C299.994 1.81565 300.979 0.371911 303.317 0.559409C305.549 0.734408 306.858 1.7094 307.226 3.94063C307.949 8.2906 308.703 12.6343 309.439 16.978C310.019 18.9155 310.829 20.8405 309.607 22.828C306.378 24.578 305.424 23.9592 304.701 19.5968C304.588 18.903 304.676 18.178 304.676 17.4655C304.339 15.3281 304.364 13.1468 303.778 11.0468C303.367 10.5843 303.13 10.0343 303.017 9.39684C302.307 10.2093 302.113 11.2093 301.696 12.1031V12.0781Z" fill="#FEC311"/>
<path d="M211.173 0.565615C212.701 0.159368 213.711 0.840611 214.608 2.0281C216.597 4.65308 218.673 7.20931 220.712 9.79679C221.622 10.6093 222.37 11.5468 222.9 12.6468C223.187 13.203 223.436 13.803 224.371 13.9905C224.608 10.903 224.683 7.85306 224.696 4.80308C224.696 3.71559 224.446 2.5656 225.201 1.58436C226.316 0.234366 227.613 0.228116 229.028 1.05311C230.101 4.15309 229.745 7.37181 229.708 10.5468C229.664 14.7655 230.051 18.9905 229.471 23.1967C227.682 24.6029 226.173 23.8842 224.989 22.3967C222.42 19.1905 219.964 15.8967 217.458 12.6343C217.27 12.378 217.14 12.078 216.903 11.8718C216.398 11.428 216.036 10.5155 215.219 10.8718C214.559 11.1593 214.82 11.9905 214.795 12.5968C214.702 15.028 214.97 17.4717 214.646 19.903C214.384 21.1655 214.958 22.8217 213.386 23.4905C212.295 23.9592 211.024 24.0342 210.213 22.7405C209.708 18.1467 210.107 13.5405 209.995 8.9468C209.945 6.95931 210.032 4.96558 209.97 2.97809C209.933 1.90935 210.276 1.12811 211.161 0.559362L211.173 0.565615Z" fill="#FEC311"/>
<path d="M70.0656 26.6156C70.8636 27.0531 71.7115 27.1469 72.5967 26.9594C72.7588 26.9344 72.8524 26.9969 72.8773 27.1594C72.896 27.4469 72.9147 27.7344 72.9272 28.0156C73.2451 29.4094 73.3075 30.7969 72.8274 32.1719C72.5282 32.5031 72.1666 32.5469 71.7489 32.4344C67.7277 31.3531 67.0731 31.5906 64.5981 34.9968C63.2951 36.1406 64.355 37.7031 63.8936 38.9968C63.6692 38.9218 63.4385 38.8656 63.2266 38.7593C62.4348 38.3593 61.7553 37.2343 60.7391 38.1343C59.7104 39.0343 60.1094 40.0593 60.6518 41.153C61.9423 43.753 61.2752 44.828 58.3638 44.3093C55.8326 43.8593 53.5259 44.1218 51.1008 44.7593C49.1744 45.2655 47.4163 44.8093 46.8864 42.4468C47.6594 41.6593 48.6694 41.8655 49.6045 41.8405C50.6083 41.8155 51.5247 41.6905 52.0796 40.7218C52.7716 39.7656 53.6444 38.9281 53.8875 37.6843C54.6232 33.9156 51.5559 30.8719 47.7966 31.6719C47.0298 31.8344 46.3378 32.3469 45.4961 32.1969C45.2592 32.1219 45.0784 31.9719 44.9537 31.7656C45.6333 30.7031 45.2281 30.0094 44.0934 30.0031C41.0012 29.9906 39.5049 28.4156 39.268 25.4469C40.6458 25.0282 41.7618 25.9094 43.0086 26.1719C45.6832 26.7469 48.4138 26.1156 51.0946 26.5594C53.1269 27.2469 55.1593 26.5156 57.1917 26.5656C60.178 26.0656 63.2328 26.8219 66.2003 26.0594C67.5345 25.9282 68.9123 25.5469 70.0718 26.6219L70.0656 26.6156Z" fill="#FEC311"/>
<path d="M172.676 7.83457C175.064 6.65958 176.124 4.09085 178.181 2.56586C178.749 2.14711 179.241 1.55337 179.877 1.31587C181.074 0.859624 182.757 0.503376 183.499 1.34087C184.428 2.39086 183.318 3.7096 182.489 4.6846C181.467 5.88459 180.382 7.03458 179.322 8.20332C178.618 9.40956 176.485 9.65955 176.99 11.672C179.715 14.247 182.14 17.0908 183.973 20.3532C184.366 21.0532 185.425 22.5782 184.297 22.9907C183.15 23.4157 181.523 24.4845 180.157 22.5657C178.362 20.047 176.186 17.797 174.179 15.4283C173.593 14.9783 173.2 13.9158 172.29 14.3908C171.585 14.7595 171.997 15.6845 171.916 16.3658C171.816 17.2095 172.134 18.0907 171.691 18.9032C171.161 19.5782 171.286 20.3845 171.199 21.1595C171.124 21.8595 171.666 23.1532 170.569 23.097C169.36 23.0345 167.851 24.8344 166.878 22.7157C166.417 22.2282 166.218 21.6282 166.218 20.972C166.193 15.2533 166.08 9.53456 166.28 3.81585C166.305 3.02836 166.461 2.23461 166.804 1.50337C167.963 0.640876 169.279 0.490877 170.663 0.653375C172.078 1.43462 171.261 2.75961 171.404 3.8346C171.535 4.8346 171.417 5.86584 171.436 6.88458C171.454 7.69707 171.616 8.35331 172.676 7.83457Z" fill="#FEC311"/>
<path d="M325.405 15.5283C325.505 17.8283 327.144 18.8095 329.008 19.2595C330.86 19.7095 332.612 19.272 333.559 17.3095C334.027 16.272 334.276 15.1658 334.507 14.0533C334.719 10.5221 334.226 6.96585 335.006 3.46587C335.13 2.66588 334.738 1.75338 335.542 1.10964C339.145 0.447143 339.332 0.572143 339.781 3.97837C339.875 4.68461 339.831 5.40961 340.068 6.0971C339.9 8.89708 340.498 11.7221 339.744 14.5033C339.195 16.0283 338.553 17.5283 338.123 19.0908C337.412 21.672 335.604 22.822 333.148 23.2657C330.866 23.5907 328.584 23.5345 326.296 23.2907C322.306 22.2532 321.215 19.0658 320.523 15.572C320.262 10.9033 320.131 6.22835 320.592 1.55963C322.768 -0.00285421 323.759 0.134646 324.819 2.14713C325.53 4.62211 324.956 7.15334 325.143 9.64708C325.293 11.6033 324.831 13.5908 325.392 15.5283H325.405Z" fill="#FEC311"/>
<path d="M255.125 18.478C255.973 17.803 257.008 17.6092 257.613 18.503C258.236 19.428 258.224 20.6592 257.457 21.6217C257.077 22.0967 256.509 22.5092 255.936 22.7279C249.82 25.0654 243.872 24.0217 241.397 17.0467C241.104 16.2217 240.88 15.378 240.618 14.5405C240.169 12.9405 240.219 11.3468 240.593 9.74054C240.774 6.02182 243.816 2.52184 248.193 1.0031C250.331 0.765601 252.463 0.690603 254.595 1.05935C256.279 1.34685 257.769 1.8531 257.9 3.92183C257.731 5.74682 256.865 6.57806 254.988 5.94682C253.168 5.22182 251.198 5.10932 249.396 5.57182C247.226 6.13431 245.774 7.66556 245.824 10.1655C245.568 11.7905 245.425 13.4155 245.911 15.028C246.185 16.5092 247.114 17.5405 248.249 18.428C250.531 19.5592 252.831 19.228 255.125 18.478Z" fill="#FEC311"/>
<path d="M132.664 14.5782C132.502 19.1657 130.214 22.1282 125.962 23.2657C123.837 23.5657 121.711 23.5407 119.579 23.2782C115.9 22.5282 114.61 19.7282 113.787 16.5282C113.544 11.522 113.494 6.52203 113.812 1.52206C117.397 0.222072 118.126 0.703317 118.226 4.40954C118.706 7.09077 118.3 9.797 118.444 12.4907C118.488 13.3532 118.257 14.2407 118.637 15.0845C118.918 17.1157 119.454 19.0219 121.91 19.3032C124.379 19.5844 126.549 18.3907 127.365 16.4782C127.851 15.897 127.465 15.172 127.677 14.547C127.839 14.1032 127.914 13.622 128.25 13.2532C130.507 11.9595 132.39 12.522 132.677 14.5782H132.664Z" fill="#FEC311"/>
<path d="M162.103 22.328C160.837 23.6467 159.316 23.753 157.67 23.2655C157.059 21.5655 157.24 19.803 157.234 18.053C157.221 13.3468 157.221 8.63432 157.234 3.92811C157.234 2.97811 157.103 1.99687 157.745 1.16563L157.77 1.11563C161.96 0.309383 162.708 0.87813 162.72 4.93435C162.733 9.73431 162.733 14.5343 162.72 19.3342C162.72 20.3717 162.795 21.428 162.103 22.328Z" fill="#FEC311"/>
<path d="M105.109 36.7719C107.484 37.4156 109.728 38.1781 109.498 41.3781C104.872 37.5719 100.882 37.1156 97.852 40.0156C94.9842 42.7593 94.7598 46.1281 97.2348 49.378C100.015 53.028 103.051 53.0155 109.41 49.3155C109.859 50.5468 109.18 51.3905 108.301 51.9655C104.454 54.4967 99.5041 55.2092 95.9318 50.903C91.6114 45.6906 93.4069 39.6344 100.358 36.6906C101.948 36.3594 103.531 36.2031 105.103 36.7719H105.109Z" fill="#070707"/>
<path d="M180.407 38.5968C180.357 38.2093 180.226 37.7093 180.818 37.6968C181.548 37.6843 182.028 38.2155 182.215 38.8343C183.119 41.853 185.132 44.3467 186.217 47.2842C186.498 48.0405 186.591 49.2905 187.632 49.2467C188.574 49.2092 188.761 48.0405 189.166 47.278C190.637 44.528 192.265 41.8592 193.356 38.9155C193.549 38.3968 193.655 37.6718 194.334 37.7468C195.176 37.8405 194.74 38.6155 194.814 39.1093C195.444 43.2155 196.08 47.3155 196.691 51.4279C196.791 52.0842 197.196 52.9904 196.13 53.2029C195.145 53.4029 194.64 52.8654 194.789 51.8279C195.164 49.2654 194.06 46.803 194.278 44.2467C194.309 43.8467 194.565 43.2155 193.929 43.0217C193.343 42.8467 193.106 43.3592 192.876 43.778C191.554 46.2342 190.232 48.6967 188.917 51.1592C188.561 51.8279 188.524 52.9779 187.489 52.7717C186.772 52.6279 186.398 51.7592 186.105 50.9904C184.977 48.0155 183.561 45.1842 181.685 42.603C179.952 41.6842 180.974 39.8843 180.394 38.5968H180.407Z" fill="#070707"/>
<path d="M310.442 41.9591C312.55 40.1216 314.121 37.6092 317.456 36.3904C316.677 38.6154 315.112 39.4841 313.934 40.6404C310.318 44.1904 310.355 44.1279 313.634 48.0653C315.093 49.8153 317.119 51.0778 318.254 53.3403C316.546 53.6341 315.642 52.6528 314.626 51.7778C312.749 50.1653 311.758 47.7341 309.595 46.4029C308.952 48.2841 309.183 50.1841 309.495 52.0841C309.532 53.7215 308.491 53.1903 307.631 53.0091C306.989 48.5216 307.5 44.0091 307.363 39.5091C307.338 38.7467 307.088 37.9154 307.65 37.2092C308.08 37.2279 308.504 37.2529 308.934 37.2717C309.601 38.4967 309.121 39.8216 309.258 41.0966C309.339 41.8654 309.358 42.6404 310.455 41.9529L310.442 41.9591Z" fill="#070707"/>
<path d="M132.664 14.5782C131.505 12.997 130.102 12.5032 128.338 13.5969C127.428 9.57197 127.652 5.547 128.288 1.51578C131.087 -0.271712 132.484 0.303286 132.664 3.36576C132.702 3.94076 132.839 4.44076 133.138 4.91575C133.525 7.97198 133.506 11.0345 133.157 14.0969C132.995 14.2594 132.833 14.4219 132.671 14.5844L132.664 14.5782Z" fill="#FEC311"/>
<path d="M156.305 48.2778C155.638 49.5403 154.958 50.8028 154.304 52.0777C153.861 52.934 153.007 53.134 152.066 53.7027C152.01 51.934 153.107 50.8903 153.643 49.6653C155.301 45.8778 157.091 42.1528 158.817 38.4028C159.042 37.9216 159.335 37.6341 159.902 37.6466C160.469 37.6591 160.744 37.9778 160.962 38.4528C162.758 42.4091 164.559 46.3653 166.361 50.3215C166.754 51.184 167.421 52.6777 166.903 52.909C165.638 53.4777 165.295 52.034 164.877 51.134C164.135 49.5465 163.138 48.134 162.041 46.784C161.872 46.634 161.729 46.4653 161.598 46.284C161.087 45.3715 161.099 44.3091 160.775 43.3466C160.65 42.9716 160.507 42.5466 160.108 42.4341C159.509 42.2653 159.322 42.8278 159.061 43.1903C158.406 44.0965 158.182 45.2028 157.701 46.1903C157.571 46.484 157.44 46.7778 157.315 47.0715C157.159 47.6215 156.685 47.909 156.317 48.284L156.305 48.2778Z" fill="#070707"/>
<path d="M64.1554 34.7156C64.7477 33.5656 65.5457 32.6281 66.6429 31.8906C68.7563 30.4593 70.6578 30.6718 72.4471 32.4156C72.9583 32.5406 73.1079 33.0218 73.3822 33.3718C74.1303 35.3906 74.2363 37.403 73.351 39.4155C73.1328 39.8905 73.0019 40.428 72.4221 40.6155C72.2413 40.7343 72.0605 40.853 71.8735 40.9718C71.194 41.403 70.5207 41.5593 69.8785 40.903C69.6541 40.453 69.7351 39.9968 69.8473 39.5405C69.9845 38.878 70.4458 38.228 69.9221 37.5405C69.2239 37.0968 68.401 36.8656 67.815 36.2656C66.1753 35.7031 65.7763 37.9405 64.33 37.8031C64.1118 37.6843 63.9559 37.5155 63.8562 37.2905C63.6691 36.3968 63.7439 35.5343 64.1616 34.7156H64.1554Z" fill="white"/>
<path d="M247.432 40.9216C246.079 44.0466 244.857 46.9028 243.604 49.7528C243.155 50.7778 242.663 51.784 242.158 52.7777C241.884 53.309 241.385 53.7465 240.818 53.4027C240.406 53.1527 240.556 52.5715 240.761 52.0965C242.763 47.5278 244.745 42.9466 246.74 38.3778C246.965 37.8653 247.202 37.2341 247.869 37.3403C248.498 37.4403 248.149 38.1466 248.336 38.5216C250.418 42.7341 252.289 47.034 254.022 51.4028C254.315 52.134 255.019 52.9652 253.897 53.384C252.943 53.7402 252.856 52.5465 252.613 52.0402C250.88 48.459 249.589 44.6778 247.432 40.9278V40.9216Z" fill="#070707"/>
<path d="M128.868 37.278C129.454 37.2343 130.196 36.8593 130.252 37.928C130.252 38.0093 130.252 38.0843 130.258 38.1655C130.364 40.0343 129.329 42.7405 130.694 43.553C132.284 44.503 134.828 43.8655 136.96 43.9092C137.278 43.9155 137.596 43.878 137.908 43.8592C138.893 43.4655 138.606 42.5905 138.674 41.8468C138.824 40.3093 138.319 38.7343 138.955 37.228C139.26 37.1968 139.566 37.1718 139.878 37.1405C140.42 37.8218 140.339 38.6405 140.345 39.428C140.351 43.3217 140.376 47.2217 140.326 51.1154C140.314 52.0342 140.601 53.3342 138.886 53.0717L138.812 53.1092C138.506 51.2342 138.78 49.3467 138.656 47.4717C138.612 46.8342 139.036 46.0217 138.138 45.603C136.149 45.5655 134.148 45.678 132.166 45.5592C130.738 45.4717 130.439 46.0592 130.433 47.3592C130.426 49.2467 130.757 51.1592 130.227 53.0279C129.772 53.0029 129.31 52.9779 128.855 52.9529C128.182 48.6717 128.706 44.3655 128.575 40.0718C128.544 39.1468 128.251 38.153 128.862 37.278H128.868Z" fill="#070707"/>
<path d="M274.788 38.5967C273.523 38.5842 272.257 38.5592 270.985 38.5592C268.33 38.5655 267.002 40.6967 268.186 43.0779C268.442 43.5904 269.009 43.3842 269.446 43.4842C271.522 44.0342 273.691 43.2842 275.761 43.9029C275.973 44.2217 275.973 44.5404 275.749 44.8592C273.373 45.5342 270.898 44.6717 268.529 45.3404V45.3529C268.136 47.2717 268.105 49.1904 268.554 51.1091C269.028 51.2779 269.508 51.4404 269.982 51.6091C271.522 52.1529 273.118 51.7154 274.682 51.8591C275.362 51.9216 276.278 51.7654 275.711 52.9779V53.0091C272.831 53.5279 269.951 53.3654 267.064 53.0904C266.921 52.9154 266.771 52.7404 266.628 52.5716C266.085 47.6654 266.484 42.7404 266.422 37.828C266.821 37.128 267.451 36.9342 268.224 36.9405C270.362 36.9592 272.494 36.9405 274.633 36.953C275.156 36.953 275.83 36.8217 275.917 37.6092C276.004 38.3967 275.187 38.2842 274.795 38.603L274.788 38.5967Z" fill="#070707"/>
<path d="M211.579 48.6218C214.82 44.9531 218.069 41.2906 221.31 37.6219C222.133 37.2031 222.445 37.5844 222.495 38.3781C222.127 39.8031 221.622 41.1531 220.338 42.0468C217.769 43.0968 216.647 45.6343 214.839 47.4593C213.555 48.753 212.464 50.2405 211.242 51.603C210.675 52.2405 210.001 53.1342 209.06 52.528C208.268 52.0155 209.06 51.2843 209.235 50.6468C209.316 50.353 209.235 50.0155 209.222 49.703C209.004 45.5468 208.723 41.3906 209.365 37.2406C209.802 37.2344 210.244 37.2219 210.681 37.2156C211.273 40.3718 210.749 43.5593 210.98 46.7218C211.024 47.353 210.282 48.353 211.572 48.6343L211.579 48.6218Z" fill="#070707"/>
<path d="M35.6957 47.328L35.1222 48.828C33.3516 52.5717 31.7369 52.953 27.5786 50.6155C26.7869 49.1093 26.0699 47.578 26.1884 45.8093C27.0986 44.5968 26.2819 43.2468 26.4751 41.9718C26.6809 40.6343 26.6996 39.2718 28.4078 38.9218C29.6422 39.3781 29.5736 40.4843 29.636 41.4906C29.7108 42.7531 29.5861 44.0155 29.717 45.2718C29.798 46.028 29.7232 47.0468 30.6771 47.2218C31.5374 47.3843 31.6559 46.353 32.086 45.8343C32.3728 45.4343 32.7344 45.1593 33.2269 45.0718C34.6982 45.1093 35.091 46.3405 35.6957 47.328Z" fill="#2E3445"/>
<path d="M78.7126 16.1156C78.6877 17.3155 78.6752 18.5155 77.7214 19.453C76.7613 20.3968 75.664 21.0593 74.2925 20.678C72.9272 20.2968 73.0768 18.9405 72.8586 17.9155C72.2476 15.0156 73.987 13.0968 75.8324 11.2718C76.6428 10.4656 77.2164 11.2718 77.5468 11.7968C78.3697 13.0968 78.75 14.5656 78.7064 16.1281L78.7126 16.1156Z" fill="#F5C202"/>
<path d="M12.5025 42.0768C14.0862 43.8015 13.9375 45.7661 13.5044 47.765C13.2071 48.0391 13.4398 48.5074 13.039 48.7416C12.063 51.0888 11.2614 51.3515 9.0313 50.0608C8.42368 49.4326 8.35904 48.6159 8.05523 47.8792C7.55103 46.5714 7.04037 45.2578 6.9628 43.8643C6.90463 42.8478 6.84645 41.7798 8.04877 41.1516C9.33512 40.4777 10.4275 40.9688 11.4553 41.6713C11.7721 41.8883 12.0242 42.2081 12.509 42.0768H12.5025Z" fill="#35425A"/>
<path d="M295.468 38.5404C293.722 38.9966 291.87 38.1466 290.15 38.9654C289.994 39.2091 289.882 39.4716 289.807 39.7466C289.664 43.3403 289.788 46.9403 289.738 50.534C289.726 51.3965 289.894 52.309 289.271 53.0653C288.76 53.2715 288.255 53.984 287.731 53.084C287.612 47.8091 287.226 42.5279 287.924 37.2591C288.03 37.1966 288.136 37.1466 288.255 37.1216C290.306 36.7154 292.375 37.0091 294.433 36.9466C295.586 36.9091 296.129 37.3591 295.468 38.5404Z" fill="#070707"/>
<path d="M35.6957 47.328C34.5735 47.0593 34.4426 45.6091 33.3204 45.3341C32.6034 44.5091 32.3229 43.4279 31.662 42.5654C31.1321 41.2466 30.3965 40.0591 29.4052 39.0341C29.0499 38.6279 28.6571 38.2466 28.5574 37.6842C29.0125 36.8779 29.7107 36.1717 29.5673 35.1279C33.2393 36.9592 36.2069 42.8716 35.6894 47.3216L35.6957 47.328Z" fill="#16172B"/>
<path d="M312.949 18.4593C313.267 18.4405 313.597 18.3718 313.909 18.4155C314.906 18.5655 316.49 17.7218 316.683 19.3467C316.845 20.7155 317.481 22.6217 315.735 23.4405C314.514 24.0155 312.936 24.2592 311.901 22.7342C310.885 20.9717 310.991 19.4842 312.949 18.453V18.4593Z" fill="#FEC311"/>
<path d="M238.187 19.8407C237.912 20.9095 238.922 22.6907 237.513 22.9407C236.279 23.1595 234.583 24.8969 233.374 22.722C233.031 21.4032 232.738 20.047 233.692 18.8907C234.988 17.3157 237.108 17.797 238.187 19.8407Z" fill="#FEC311"/>
<path d="M361.489 46.3341C361.62 47.6903 362.044 49.2778 359.656 48.659C359.164 44.6653 359.295 40.6654 359.588 36.6654C360.903 36.1216 361.277 36.6966 361.308 37.9654C361.371 40.7529 361.053 43.5528 361.483 46.3341H361.489Z" fill="#070707"/>
<path d="M180.931 47.8528C180.737 49.3215 180.582 50.8027 180.332 52.259C180.232 52.8465 179.784 53.2152 179.116 53.1715C178.493 53.134 178.262 52.709 178.406 52.1902C179.291 48.9778 178.767 45.4965 180.301 42.4091C181.355 42.4466 181.062 43.259 181.049 43.8153C181.03 45.159 181.224 46.509 180.924 47.8465L180.931 47.8528Z" fill="#070707"/>
<path d="M220.338 42.0405C220.6 40.6905 221.647 39.7593 222.233 38.5843C222.732 43.403 222.607 48.228 222.302 53.053C221.79 53.6155 221.136 53.4717 220.5 53.4092C220.325 53.328 220.244 53.2217 220.257 53.0905C220.269 52.9467 220.3 52.8717 220.344 52.8717C221.803 51.1905 221.111 49.1342 221.348 47.2405C221.254 48.1842 221.485 49.1717 221.154 50.0842C220.967 50.6155 220.562 51.2155 220.107 50.1905C220.207 48.0842 219.939 45.9718 220.269 43.878C220.294 43.2655 220.313 42.653 220.338 42.0405Z" fill="#070707"/>
<path d="M222.27 12.6282C221.753 11.6844 221.229 10.7405 220.712 9.79679C223.467 10.253 224.072 9.69693 224.228 7.0657C224.328 5.40321 223.555 3.63447 224.739 2.07823C225.151 5.57196 224.814 9.07818 224.92 12.5719C224.939 13.1532 224.876 13.7344 224.153 13.8469C223.193 13.9906 222.75 13.2719 222.277 12.6282H222.27Z" fill="#FEC311"/>
<path d="M162.483 1.56561C162.577 8.44681 162.726 15.3343 162.446 22.2155C162.334 22.2592 162.221 22.2967 162.109 22.3342C162.078 16.578 162.084 10.8155 162.003 5.05933C161.941 0.890615 162.652 0.828117 157.783 1.12186C159.447 0.278121 161.08 -0.234376 162.489 1.56561H162.483Z" fill="#FEC311"/>
<path d="M28.5637 37.6905C28.9564 37.928 29.4053 38.103 29.4988 38.628C29.2868 38.953 28.9689 39.078 28.5886 39.0655C26.3255 40.2654 27.3729 42.4029 27.0861 44.1779C26.9926 44.7404 28.1584 46.2342 26.1821 45.8154C25.0787 40.8279 25.4714 39.4905 28.5574 37.6905H28.5637Z" fill="#2E3445"/>
<path d="M211.173 0.565615C210.288 1.40936 210.207 2.47203 210.213 3.62827C210.244 10.0032 210.226 16.3719 210.226 22.7469C209.54 22.2156 209.727 21.4469 209.727 20.7594C209.702 14.9532 209.689 9.14698 209.714 3.34077C209.714 2.20953 209.434 0.828113 211.173 0.565615Z" fill="#FEC311"/>
<path d="M229.477 23.1967C229.446 15.8155 229.801 8.42185 229.035 1.05315C229.789 1.69065 229.783 2.62189 229.826 3.46564C230.113 9.45309 230.244 15.4468 229.989 21.4468C229.964 22.0593 230.126 22.753 229.484 23.1967H229.477Z" fill="#FEC311"/>
<path d="M157.745 1.17187C157.72 8.54056 157.695 15.903 157.67 23.2717C157.49 22.9405 157.309 22.6092 157.134 22.278C156.96 15.3718 156.791 8.46556 157.222 1.55936C157.396 1.42811 157.571 1.30312 157.751 1.17187H157.745Z" fill="#FEC311"/>
<path d="M166.517 22.653C166.049 15.7843 166.461 8.91559 166.386 2.04689C166.523 1.86564 166.66 1.69064 166.797 1.50939C166.822 8.57809 166.847 15.653 166.878 22.7217C166.754 22.728 166.629 22.7092 166.517 22.653Z" fill="#FEC311"/>
<path d="M94.579 1.59712C94.5603 8.67832 94.5353 15.7595 94.5166 22.8407C94.367 22.4845 94.2174 22.1282 94.0678 21.772C93.6999 15.672 93.7872 9.57206 94.0241 3.47211C94.261 2.85961 93.8807 2.06587 94.579 1.59087V1.59712Z" fill="#FEC311"/>
<path d="M157.215 1.55334C157.184 8.45953 157.159 15.3657 157.128 22.2719C156.629 21.7532 156.735 21.0907 156.735 20.4657C156.729 14.8282 156.723 9.19078 156.735 3.55332C156.735 2.85958 156.579 2.10333 157.215 1.55334Z" fill="#FEC311"/>
<path d="M222.27 12.6282C222.925 12.8469 223.336 13.8219 224.116 13.4656C225.02 13.0531 224.683 12.0719 224.696 11.3344C224.745 8.25316 224.727 5.16569 224.733 2.07821C224.889 1.91571 225.045 1.7531 225.201 1.58436C225.213 5.39058 225.263 9.19691 225.213 13.0031C225.201 13.7969 225.649 15.0406 224.602 15.2844C223.754 15.4844 223.224 14.3656 222.682 13.7031C222.451 13.4219 222.401 12.9844 222.264 12.6219L222.27 12.6282Z" fill="#FEC311"/>
<path d="M137.427 1.97203C137.415 8.44699 137.409 14.9219 137.396 21.3969C136.742 20.5594 136.929 19.5594 136.929 18.6282C136.929 13.9219 136.947 9.20948 137.01 4.50326C137.022 3.65327 136.81 2.73453 137.421 1.97203H137.427Z" fill="#FEC311"/>
<path d="M94.024 3.47837C94.0365 9.57832 94.0552 15.6783 94.0676 21.7782C93.5066 21.2907 93.625 20.6282 93.625 20.0033C93.6125 15.0908 93.6063 10.1846 93.6125 5.27211C93.6125 4.65336 93.5003 3.99086 94.024 3.47837Z" fill="#FEC311"/>
<path d="M27.5787 50.6217C27.7096 50.4092 27.6223 49.8904 28.1023 50.1342C30.8164 51.4925 33.1542 51.0592 35.116 48.8342C35.1596 49.2467 35.197 49.6529 35.2407 50.0654C34.0374 50.8779 33.5511 52.6029 31.7619 52.6842C29.9602 52.7654 28.5013 52.2654 27.5724 50.6217H27.5787Z" fill="#2E3445"/>
<path d="M138.892 53.0653C140.264 52.8965 139.89 51.8215 139.89 51.0278C139.915 46.3966 139.89 41.7653 139.89 37.1341C140.052 37.1466 140.208 37.1529 140.37 37.1654C140.738 42.4591 140.732 47.759 140.37 53.0528C139.877 53.434 139.391 53.9215 138.886 53.0653H138.892Z" fill="#070707"/>
<path d="M222.302 53.0592C222.277 48.2342 222.258 43.4092 222.233 38.5905C222.47 37.753 222.133 37.4593 221.31 37.628C222.227 36.6843 222.782 37.153 222.782 38.178C222.782 43.0217 222.688 47.8717 222.613 52.7154C222.613 52.8342 222.414 52.9467 222.308 53.0592H222.302Z" fill="#070707"/>
<path d="M46.3439 51.6779C51.9984 51.6779 57.6467 51.6654 63.3013 51.6592C60.1218 52.5592 56.8612 52.1154 53.6443 52.1217C51.2129 52.1217 48.7441 52.4279 46.3501 51.6779H46.3439Z" fill="#FEC902"/>
<path d="M140.376 53.0529C140.376 47.7592 140.376 42.4593 140.376 37.1656C141.193 37.9531 140.813 38.9656 140.825 39.8718C140.875 43.5218 140.869 47.1717 140.844 50.8217C140.844 51.578 141.112 52.428 140.389 53.0529H140.376Z" fill="#070707"/>
<path d="M128.868 37.278C128.868 42.503 128.868 47.7278 128.861 52.9528C128.207 52.6465 128.344 52.0278 128.344 51.5028C128.325 47.2278 128.319 42.9528 128.325 38.6779C128.325 38.1654 128.132 37.528 128.868 37.278Z" fill="#070707"/>
<path d="M130.233 53.0216C130.208 50.9529 130.221 48.8779 130.133 46.8092C130.083 45.6529 130.538 45.2467 131.661 45.2967C133.893 45.3967 136.124 45.4217 138.356 45.478C138.537 45.5905 138.587 45.6842 138.518 45.7654C138.45 45.8404 138.387 45.8779 138.313 45.8779C136.555 45.8592 134.778 45.9717 133.032 45.7905C131.018 45.5842 130.551 46.4779 130.669 48.2654C130.775 49.8404 130.651 51.4342 130.62 53.0154C130.62 53.0467 130.501 53.1091 130.445 53.1091C130.37 53.1091 130.302 53.0467 130.227 53.0154L130.233 53.0216Z" fill="#070707"/>
<path d="M214.652 19.903V9.33434C215.974 10.3593 217.027 11.2093 217.464 12.6343C216.84 12.1781 216.217 11.7281 215.425 11.1468C214.59 14.1531 215.699 17.1343 214.652 19.903Z" fill="#FEC311"/>
<path d="M307.637 37.2155C307.637 42.4779 307.631 47.7466 307.625 53.0091C306.895 52.7841 306.995 52.1591 307.001 51.6216C307.02 47.2154 307.057 42.8092 307.095 38.4029C307.095 37.9342 307.039 37.4155 307.637 37.2092V37.2155Z" fill="#070707"/>
<path d="M287.924 37.2591L287.731 53.084C286.864 51.5278 287.394 49.8404 287.344 48.2217C287.257 45.2904 287.307 42.353 287.363 39.4155C287.376 38.6842 287.026 37.7905 287.918 37.2593L287.924 37.2591Z" fill="#070707"/>
<path d="M266.659 37.728C266.646 42.6718 266.634 47.6155 266.621 52.5592C265.624 50.6967 266.148 48.678 266.173 46.753C266.216 43.553 265.555 40.303 266.59 37.1405C266.74 37.253 266.802 37.378 266.771 37.5155C266.74 37.653 266.696 37.7218 266.653 37.7218L266.659 37.728Z" fill="#070707"/>
<path d="M113.806 1.52205C113.799 6.52201 113.793 11.5282 113.781 16.5282C112.895 14.8032 113.257 12.9407 113.357 11.1595C113.538 7.947 112.846 4.69078 113.799 1.5158L113.806 1.52205Z" fill="#FEC311"/>
<path d="M361.994 52.4966C361.807 53.684 360.953 53.709 360.167 53.6465C359.257 53.5715 358.609 52.9153 358.74 52.0653C358.914 50.9278 360.018 51.0591 360.847 51.1028C361.707 51.1466 362.05 51.7528 361.994 52.4966Z" fill="#070707"/>
<path d="M320.598 1.55334C320.573 6.22205 320.555 10.8908 320.53 15.5657C319.688 10.8908 319.732 6.22205 320.598 1.55334Z" fill="#FEC311"/>
<path d="M127.876 14.5781C127.708 15.2094 127.895 15.9469 127.353 16.4781C127.359 12.3406 127.365 8.20318 127.371 4.05946C127.371 3.50321 127.328 2.92821 127.851 2.53447C128.226 6.54694 128.163 10.5594 127.876 14.5781Z" fill="#FEC311"/>
<path d="M289.751 39.103C289.857 38.978 289.988 38.928 290.144 38.9655C290.168 43.1592 290.187 47.3466 290.206 51.5404C290.206 52.0904 290.256 52.6591 289.738 53.0529C289.352 48.4029 289.339 43.7529 289.738 39.103H289.751Z" fill="#070707"/>
<path d="M289.751 39.103C289.751 43.7529 289.751 48.403 289.751 53.053C289.589 53.053 289.433 53.059 289.271 53.0653C289.271 49.1528 289.252 45.2406 289.283 41.3281C289.289 40.5781 288.965 39.7094 289.757 39.1031L289.751 39.103Z" fill="#070707"/>
<path d="M325.405 15.5283C324.488 14.2408 324.956 12.772 324.919 11.3907C324.825 8.3095 324.856 5.22827 324.831 2.14079C325.741 4.23453 325.38 6.46576 325.448 8.6345C325.523 10.9282 325.424 13.2282 325.405 15.5219V15.5283Z" fill="#FEC311"/>
<path d="M238.187 19.8407C237.32 18.4782 236.086 17.8531 234.589 18.5531C232.713 19.4218 233.367 21.2095 233.374 22.722C232.202 20.2345 232.75 18.5468 234.926 17.7968C236.89 17.1219 238.018 17.7032 238.187 19.8407Z" fill="#FEC311"/>
<path d="M127.876 14.5781C127.87 10.5657 127.864 6.54694 127.851 2.53447C127.995 2.19072 128.138 1.85314 128.282 1.50939C128.3 5.53436 128.313 9.56558 128.332 13.5906C128.182 13.9218 128.026 14.2469 127.876 14.5781Z" fill="#FEC311"/>
<path d="M334.588 14.5844C334.37 15.5407 334.438 16.6032 333.559 17.3157C334.233 14.0407 334.064 10.7157 334.102 7.40948C334.108 6.71574 333.927 5.96574 334.538 5.397C334.981 8.45947 334.9 11.5219 334.588 14.5907V14.5844Z" fill="#FEC311"/>
<path d="M209.365 37.2281C209.315 41.3843 209.272 45.5343 209.222 49.6905C208.605 45.5281 208.287 41.3718 209.365 37.2281Z" fill="#070707"/>
<path d="M211.579 48.6218C210.718 48.7343 210.687 48.7343 210.687 47.9093C210.675 44.3406 210.687 40.7718 210.687 37.2031C211.747 37.7718 211.13 38.7406 211.198 39.5156C211.479 42.5406 210.743 45.6155 211.579 48.6218Z" fill="#070707"/>
<path d="M266.659 37.728C266.64 37.5343 266.615 37.3405 266.596 37.1468C269.508 36.0281 272.513 36.853 275.474 36.7218C276.004 36.6968 276.322 37.1655 276.272 37.6968C276.197 38.6343 275.636 38.8843 274.782 38.5968C275.019 38.1718 276.584 37.4905 275.15 37.353C272.357 37.0843 269.439 36.653 266.653 37.728L266.659 37.728Z" fill="#070707"/>
<path d="M70.2899 8.04069C70.4645 7.96569 70.6078 7.85944 70.7512 7.85944C72.0355 7.85944 73.1078 8.37194 73.7437 9.47193C73.9869 9.89068 73.4195 10.1532 73.0268 10.1532C71.5866 10.1594 70.6016 9.53443 70.2899 8.04069Z" fill="#576A50"/>
<path d="M156.562 46.6294C156.756 46.4908 156.959 46.3573 157.153 46.2188C159.212 45.839 161.288 45.6183 163.379 46.1315C163.395 46.2855 163.403 46.4395 163.419 46.5934C163.192 46.8501 162.957 47.1067 162.73 47.3581C160.574 47.4351 158.15 48.441 156.562 46.6294Z" fill="#070707"/>
<path d="M359.588 36.6654C359.613 40.6654 359.631 44.6591 359.656 48.659C359.232 48.4903 359.039 48.1341 359.07 47.7216C359.369 44.0403 358.441 40.3029 359.588 36.6654Z" fill="#070707"/>
<path d="M361.489 46.3341C360.66 43.7591 361.196 41.1091 361.09 38.4966C361.047 37.4091 360.965 36.5654 359.588 36.6654C360.828 35.6029 361.495 36.1216 361.52 37.5216C361.576 40.4591 361.502 43.4028 361.483 46.3403L361.489 46.3341Z" fill="#070707"/>
<path d="M0.534128 26.0407C0.546597 29.9219 0.552804 33.8092 0.565273 37.6904C-0.164144 33.8092 -0.201522 29.9282 0.534128 26.0407Z" fill="#FEC902"/>
<path d="M339.75 14.5031C339.762 11.6469 339.775 8.79062 339.787 5.93439C339.619 5.0844 339.37 4.22191 339.949 3.42191C340.398 7.12189 341.003 10.8281 339.75 14.5031Z" fill="#FEC311"/>
<path d="M334.588 14.5844C334.569 11.522 334.557 8.45317 334.538 5.3907C334.657 4.7407 334.432 4.00946 335.012 3.47196C334.968 7.17818 335.48 10.9095 334.588 14.5844Z" fill="#FEC311"/>
<path d="M118.625 15.0844C117.758 11.5532 118.257 7.97193 118.213 4.40946C119.086 7.94068 118.587 11.5219 118.625 15.0844Z" fill="#FEC311"/>
<path d="M347.524 18.847C349.806 17.9782 352.181 18.3032 354.507 18.447C355.698 18.522 356.383 19.5095 356.234 20.8345C355.404 19.2407 354.145 18.6282 352.319 18.822C350.741 18.9845 349.127 18.8532 347.531 18.8532L347.524 18.847Z" fill="#FEC311"/>
<path d="M180.931 47.8528C180.295 46.0903 181.685 44.0905 180.301 42.4156C180.338 41.1406 180.369 39.8718 180.407 38.5968C181.13 39.8405 180.669 41.4593 181.697 42.603C180.837 44.2655 181.816 46.1905 180.937 47.853L180.931 47.8528Z" fill="#070707"/>
<path d="M72.4159 40.6217C72.6216 40.1405 72.7837 39.6217 73.3448 39.4217C73.8498 41.3092 74.7164 43.2217 72.8835 44.9154C72.7463 43.4842 73.1079 41.9967 72.4159 40.628V40.6217Z" fill="#FEC902"/>
<path d="M147.614 1.0531C144.397 1.07185 141.187 1.0906 137.97 1.1156C141.18 -0.028143 144.397 0.353106 147.614 1.0531Z" fill="#FEC311"/>
<path d="M220.494 52.9903C220.494 53.1278 220.494 53.2717 220.5 53.4092C219.565 53.0592 219.802 52.2341 219.858 51.5903C220.076 49.0216 219.39 46.4093 220.269 43.878C220.319 46.1343 220.375 48.3966 220.425 50.6528C221.042 51.4153 221.017 52.1966 220.494 52.9903Z" fill="#070707"/>
<path d="M172.676 7.83457C170.968 8.92206 171.23 7.56583 171.124 6.60333C170.9 4.62835 171.81 2.55961 170.669 0.653378C172.44 0.997125 171.467 2.39087 171.71 3.32836C172.097 4.81585 170.694 6.69083 172.683 7.82832L172.676 7.83457Z" fill="#FEC311"/>
<path d="M339.943 3.42211C339.887 4.2596 339.837 5.09709 339.781 5.93458C339.65 5.49709 339.445 5.05959 339.407 4.61585C339.139 0.940874 339.145 0.940873 335.536 1.10962C338.416 -0.327868 339.744 0.372128 339.937 3.42211H339.943Z" fill="#FEC311"/>
<path d="M295.468 38.5404C295.804 37.3341 295.225 37.0529 294.127 37.0904C292.17 37.1529 290.212 37.1216 288.255 37.1279C290.437 36.1716 292.756 36.6654 294.994 36.6466C296.303 36.6404 296.471 37.6091 295.468 38.5404Z" fill="#070707"/>
<path d="M138.849 23.2907C141.935 23.2844 145.027 23.2782 148.113 23.2719C145.027 24.0344 141.941 24.0594 138.849 23.2907Z" fill="#FEC311"/>
<path d="M133.151 14.0905C133.151 11.028 133.138 7.97181 133.132 4.90933C133.868 7.96556 133.899 11.028 133.151 14.0905Z" fill="#FEC311"/>
<path d="M104.273 1.02817C101.331 1.01567 98.3881 1.00942 95.4455 0.996925C98.3881 0.159431 101.331 0.21568 104.273 1.02817Z" fill="#FEC311"/>
<path d="M267.064 53.078C269.944 53.053 272.831 53.028 275.711 52.9967C272.837 53.9155 269.957 53.953 267.064 53.078Z" fill="#070707"/>
<path d="M199.091 1.14065C196.672 1.09065 194.253 1.0469 191.828 0.996899C194.266 0.0531561 196.691 -0.121843 199.091 1.14065Z" fill="#FEC311"/>
<path d="M98.494 22.8344C98.4878 20.7657 98.4441 18.6969 98.494 16.6282C98.5127 15.8907 98.4753 14.7595 99.8095 15.6594C98.6748 16.1219 99.1299 17.1282 99.0427 17.9407C98.8681 19.5719 99.3357 21.2782 98.494 22.8406V22.8344Z" fill="#FEC311"/>
<path d="M171.698 18.9031C171.66 17.9531 171.567 17.0031 171.604 16.0531C171.635 15.3031 171.236 14.1719 172.109 13.9219C173.088 13.6406 173.886 14.372 174.179 15.4283C172.845 14.4158 171.953 14.2281 172.09 16.4156C172.14 17.2406 172.315 18.1531 171.698 18.8968V18.9031Z" fill="#FEC311"/>
<path d="M301.696 12.0781C301.808 10.8218 302.089 9.62182 302.793 8.52808C303.847 8.95307 303.641 9.84056 303.803 10.5593C303.971 10.8531 303.915 11.1031 303.635 11.2968C302.332 9.94057 302.444 12.0781 301.696 12.0781Z" fill="#FEC311"/>
<path d="M13.1274 49.7778C13.0526 49.3278 12.6162 48.7216 13.5763 48.7091C14.0937 49.7653 15.0663 49.634 16.0139 49.7215C17.4728 49.8528 19.0002 49.3091 20.3904 50.134C17.959 50.2215 15.5152 50.559 13.1274 49.7778Z" fill="#FEC902"/>
<path d="M255.125 18.478C252.825 19.8217 250.531 20.0405 248.249 18.428C250.537 19.003 252.831 18.6655 255.125 18.478Z" fill="#FEC311"/>
<path d="M42.6096 1.47837C39.8291 1.47837 37.0486 1.49087 34.2681 1.49087C37.0486 0.622124 39.8291 1.00337 42.6096 1.47837Z" fill="#FEC902"/>
<path d="M138.319 45.8841C138.331 45.7466 138.35 45.6154 138.363 45.4779C139.622 47.0279 138.693 48.8091 138.868 50.4716C138.961 51.3403 138.843 52.2278 138.818 53.1028C137.777 50.7591 138.917 48.2591 138.313 45.8841H138.319Z" fill="#070707"/>
<path d="M152.857 20.322C153.456 18.1157 153.443 15.8595 153.362 13.597C154.198 15.9157 154.372 18.1782 152.857 20.322Z" fill="#FEC311"/>
<path d="M303.635 11.2968C303.691 11.0531 303.747 10.8093 303.803 10.5593C304.607 12.7905 304.888 15.0843 304.676 17.4468C303.959 15.4593 303.971 13.3468 303.635 11.2968Z" fill="#FEC311"/>
<path d="M268.535 45.3405C270.88 44.2655 273.367 45.3155 275.755 44.8593C273.417 46.028 270.929 45.0093 268.535 45.3405Z" fill="#070707"/>
<path d="M273.785 1.12204C271.384 1.10329 268.978 1.09079 266.578 1.07204C266.746 0.909544 266.914 0.747046 267.083 0.584548C268.86 0.172051 270.643 0.309549 272.426 0.509547C272.899 0.672046 273.523 0.490798 273.785 1.12204Z" fill="#FEC311"/>
<path d="M138.967 37.2217C138.949 38.8592 138.967 40.5029 138.899 42.1404C138.868 42.8342 139.185 43.8279 137.92 43.8529C138.849 42.5904 138.244 41.1342 138.45 39.7842C138.581 38.9217 138.013 37.9155 138.973 37.2217H138.967Z" fill="#070707"/>
<path d="M275.711 52.9715C275.618 51.6652 274.633 52.1403 273.922 52.0715C272.606 51.9528 271.21 52.4903 269.988 51.6028C271.584 51.5715 273.186 51.509 274.782 51.5153C275.773 51.5153 276.659 51.684 275.717 52.9715H275.711Z" fill="#070707"/>
<path d="M326.303 23.2905C328.584 23.2843 330.872 23.2718 333.154 23.2655C330.872 24.0843 328.591 24.0468 326.303 23.2905Z" fill="#FEC311"/>
<path d="M266.54 23.2655C268.835 23.2655 271.135 23.2655 273.429 23.2718C271.129 24.0218 268.835 24.1093 266.54 23.2655Z" fill="#FEC311"/>
<path d="M310.442 41.9591C309.651 43.1466 309.202 42.7966 309.102 41.6028C308.984 40.1653 308.977 38.7216 308.921 37.2779C309.981 37.9341 309.308 39.0091 309.557 39.8591C309.775 40.5841 309.04 41.7279 310.442 41.9591Z" fill="#070707"/>
<path d="M185.182 8.30316C185.17 10.5594 185.151 12.8156 185.139 15.0719C184.235 12.8094 184.247 10.5531 185.182 8.30316Z" fill="#FEC311"/>
<path d="M275.767 43.9029C273.666 43.7091 271.515 44.2529 269.452 43.4841C271.565 43.5216 273.716 42.9716 275.767 43.9029Z" fill="#070707"/>
<path d="M254.595 1.05935C252.463 1.0406 250.325 1.02185 248.193 1.0031C250.337 0.0718564 252.47 0.115607 254.595 1.05935Z" fill="#FEC311"/>
<path d="M157.107 47.0807C158.707 47.7433 160.837 47.4337 162.796 47.444C160.867 47.9992 158.595 47.4644 156.562 47.6768C156.741 47.4772 156.928 47.2802 157.107 47.0807Z" fill="#070707"/>
<path d="M259.851 8.75329C259.826 10.8783 259.801 13.0033 259.77 15.1345C258.972 12.997 258.891 10.872 259.851 8.75329Z" fill="#FEC311"/>
<path d="M73.3823 33.378C73.0705 33.0593 72.7588 32.7406 72.4471 32.4156C73.1017 31.0031 72.5531 29.4594 72.9272 28.0156C73.881 29.7344 73.1703 31.5968 73.3823 33.378Z" fill="#FEC902"/>
<path d="M119.572 23.278C121.698 23.278 123.824 23.2655 125.956 23.2655C123.83 23.9905 121.704 24.078 119.572 23.278Z" fill="#FEC311"/>
<path d="M176.99 11.672C176.012 9.34081 178.194 9.12831 179.322 8.20332C178.83 9.55331 177.128 10.0908 176.99 11.672Z" fill="#FEC311"/>
<path d="M268.56 51.1029C267.719 49.1841 267.881 47.2654 268.548 45.3467C268.548 47.2654 268.56 49.1841 268.56 51.1029Z" fill="#070707"/>
<path d="M309.495 52.0905C308.94 50.1842 308.51 48.2843 309.595 46.4093C309.564 48.303 309.526 50.1968 309.495 52.0905Z" fill="#070707"/>
<path d="M109.554 10.7658C109.554 8.79079 109.56 6.82206 109.566 4.84707C110.576 6.82206 110.345 8.79079 109.554 10.7658Z" fill="#FEC311"/>
<path d="M23.2208 44.9093C22.5101 43.1155 22.4602 41.3218 23.2458 39.5343C23.2395 41.3218 23.2271 43.1155 23.2208 44.9093Z" fill="#985703"/>
<path d="M272.426 0.515781C270.643 0.540781 268.86 0.565779 267.083 0.590779C268.853 -0.246715 270.636 -0.121715 272.426 0.515781Z" fill="#FEC311"/>
<path d="M280.96 14.0095C281.004 12.4158 281.041 10.822 281.085 9.23455C281.709 10.8408 281.995 12.447 280.96 14.0095Z" fill="#FEC311"/>
<path d="M240.599 9.74053C240.606 11.3405 240.618 12.9405 240.624 14.5405C239.839 12.9468 239.845 11.3468 240.599 9.74053Z" fill="#FEC311"/>
<path d="M245.911 15.028C245.076 13.4218 245.182 11.7968 245.824 10.1655C245.855 11.7843 245.88 13.4093 245.911 15.028Z" fill="#FEC311"/>
<path d="M105.109 36.7719C103.525 36.7469 101.948 36.7156 100.364 36.6906C101.96 36.0093 103.544 35.8281 105.109 36.7719Z" fill="#070707"/>
<path d="M340.342 36.6843C338.728 36.6655 337.107 36.6468 335.492 36.628C337.119 35.9593 338.734 35.9218 340.342 36.6843Z" fill="#070707"/>
<path d="M72.8772 27.153C72.7525 27.128 72.659 27.0593 72.5966 26.953C72.5592 25.3718 72.528 23.7906 72.4906 22.2093C73.139 23.8156 72.9582 25.4905 72.8772 27.153Z" fill="#335D69"/>
<path d="M254.988 5.94682C256.484 6.02182 257.513 5.43432 257.9 3.92183C257.856 6.37181 257.451 6.65306 254.988 5.94682Z" fill="#FEC311"/>
<path d="M14.393 26.0531C11.9055 26.8781 9.41179 27.7093 6.9243 28.5343C5.50287 27.8031 6.78714 27.3218 7.17367 27.0031C7.74723 26.5218 8.3582 26.3343 7.7784 25.3593C6.7435 23.6281 7.37941 21.9218 8.74473 20.8281C13.2334 17.2406 17.6224 13.4344 23.2208 11.5907C27.0799 10.3157 29.2744 11.4219 30.2968 15.3406C30.9763 17.9656 32.0486 20.7094 30.3467 23.4031C24.8854 23.4218 19.6112 24.5593 14.3993 26.0531H14.393Z" fill="#89D1E9"/>
<path d="M30.5087 23.1218C30.5835 20.328 30.5025 17.5468 29.5424 14.8843C28.4202 11.7781 27.005 11.2219 23.838 12.0156C20.646 12.8218 18.065 14.7156 15.4528 16.4843C13.9566 17.4968 12.504 18.6406 11.0015 19.678C7.54144 22.078 7.21102 23.3905 9.41797 26.703C8.80078 27.5905 6.625 26.4093 6.93048 28.528C5.78336 28.6905 4.63001 30.8717 3.4829 28.528C3.19612 26.9092 3.04026 25.2905 3.57018 23.6843C4.39311 20.3155 6.91177 18.2718 9.54266 16.4531C15.459 12.3718 21.9178 9.39687 28.8753 7.53438C30.4962 7.09689 32.1733 6.69689 32.379 9.23437C33.0211 13.6281 33.0087 18.0468 32.7842 22.4718C32.2294 23.3968 31.5124 23.7655 30.5087 23.1155V23.1218Z" fill="#6DCBF9"/>
<path d="M42.4225 26.5967C41.3689 26.2092 40.3153 25.8279 39.2617 25.4404C38.9001 24.7592 38.5385 24.0842 38.1831 23.4029C37.4537 20.1717 37.6781 16.8467 37.2355 13.5843H37.2168C36.7679 11.153 37.1171 8.69054 37.0173 6.24056C38.0335 4.84057 38.8128 5.97806 39.4674 6.57805C41.2691 8.24054 41.6432 10.4843 41.7367 12.7968C41.7242 14.4405 41.5621 16.0967 42.2105 17.678C42.2915 17.878 42.3539 18.0842 42.4162 18.2967C42.5098 19.2467 43.2766 19.903 43.5072 20.7967C44.4673 22.2842 45.6456 22.9592 47.5471 22.4717C49.4174 21.9904 51.2752 23.5717 52.2041 26.0529C51.961 26.7279 51.4186 26.8592 50.7827 26.8154C47.996 26.6967 45.1967 27.0654 42.4225 26.5967Z" fill="#62CFFB"/>
<path d="M45.6518 31.8468C49.1306 30.1156 51.4996 30.4781 53.4884 33.0468C55.3836 35.4968 55.0844 38.2155 52.6218 40.9218C51.2253 42.2843 49.6106 42.5905 47.7902 41.9218C47.6905 40.8343 48.7254 40.578 49.2678 39.9718C50.0283 39.128 50.7391 38.3155 50.4897 37.078C50.0844 36.1281 49.0496 36.3968 48.37 35.9906C47.865 35.7031 47.4037 35.2531 46.7491 35.6093C46.2129 35.9093 45.9386 36.403 45.7017 36.9405C45.3152 37.6405 45.2528 38.6468 44.1057 38.6218C43.2454 37.7655 43.4761 36.6343 43.3327 35.5968C43.4636 33.9531 43.9686 32.5406 45.6394 31.8406L45.6518 31.8468Z" fill="white"/>
<path d="M41.2754 13.2095C40.8889 10.197 40.5522 7.15954 37.1545 5.82205C36.768 5.7158 36.4189 5.5658 36.2755 5.1408L36.2131 4.93455C35.9263 4.6908 35.546 4.34706 35.8702 4.02831C36.4064 3.50331 37.0922 3.64706 37.7281 3.95331C39.1682 4.44706 40.602 4.93452 42.0422 5.42827C43.2454 7.62825 45.7953 8.77202 46.6245 11.2658C45.4773 12.3095 43.8689 12.472 42.6469 13.3657C42.1669 13.5282 41.6993 13.547 41.2754 13.2095Z" fill="#141109"/>
<path d="M8.83826 48.703C7.43554 48.728 7.01783 47.278 5.96423 46.7718C4.42435 43.903 4.51164 41.8218 6.25102 40.0468C8.36446 37.8843 10.3033 38.1468 11.7809 40.8031C12.0863 41.3468 12.3357 41.9281 12.61 42.4906C11.8557 44.003 11.3943 42.3343 10.933 42.1968C10.1038 41.9468 9.44299 41.3343 8.50784 41.9031C7.62256 42.4406 7.83453 43.2656 7.85947 44.0405C7.90311 45.653 8.4268 47.1655 8.83203 48.703H8.83826Z" fill="#120A10"/>
<path d="M10.4343 32.7279C13.4829 31.1217 16.893 30.7467 20.1224 29.828C24.5176 28.5842 29.0687 28.303 33.6135 28.0655C34.1684 28.0342 34.9352 28.0467 34.9414 28.7405C34.9476 29.4342 34.1871 29.4405 33.6322 29.4405C26.0575 29.4655 18.8194 31.3967 11.5564 33.2279C11.2011 33.3154 10.7585 33.3654 10.4343 32.7217V32.7279Z" fill="#BE7F00"/>
<path d="M51.2129 36.6217C51.7615 39.478 49.779 40.6092 47.7341 41.6905C47.092 42.0467 46.5122 41.903 45.9636 41.4842C45.4586 40.9592 44.8165 40.5155 44.9162 39.6467C45.5334 38.728 44.9536 37.6217 45.3651 36.6717C45.4648 36.0218 45.7578 35.5093 46.3688 35.2093C48.2703 34.3405 48.0334 36.2905 48.7441 36.9842C49.6543 37.4092 50.2777 35.9593 51.2129 36.6155V36.6217Z" fill="#322536"/>
<path d="M30.5087 23.1218C31.1508 23.253 31.768 23.2592 32.2294 22.6842C33.1458 21.5092 32.4975 20.153 32.6533 18.8905C32.884 16.9593 32.3042 14.9843 32.965 13.0718C33.8067 16.1405 33.2456 19.2593 33.3204 22.3592C33.3391 23.1967 32.7468 23.6717 31.9052 23.678C26.2756 23.7342 20.7707 24.5905 15.3531 26.103C15.06 26.1842 14.7172 26.078 14.393 26.0655C19.555 23.9405 24.9664 23.2092 30.5025 23.1342L30.5087 23.1218Z" fill="#D4912B"/>
<path d="M32.9651 13.0656C32.9589 15.5906 32.9776 18.1156 32.9215 20.6468C32.909 21.3656 33.2705 22.2842 32.2294 22.6842C32.8341 18.2093 32.1733 13.7219 32.3728 9.24066C33.2456 10.4094 32.7157 11.8031 32.9651 13.0656Z" fill="#8E927D"/>
<path d="M69.7851 40.6156C70.3898 41.2718 71.1628 40.9156 71.8673 40.9781C69.6604 42.5031 67.9833 42.4031 66.0569 40.6281C66.2876 40.2343 66.6679 40.0844 67.0856 39.9906C68.0519 39.9156 69.0432 39.7344 69.7851 40.6218V40.6156Z" fill="#F8DC71"/>
<path d="M37.2293 13.5845C37.9588 16.8157 38.1271 20.1032 38.177 23.4032C37.0111 20.2157 37.2356 16.8907 37.2293 13.5845Z" fill="#9299A5"/>
<path d="M45.9637 41.4905C46.556 41.5593 47.1482 41.628 47.7405 41.6968C49.5173 42.3905 51.0696 41.653 52.6282 40.928C51.2878 43.6093 48.8253 42.0468 46.8864 42.4468C46.45 42.253 46.1133 41.9655 45.9699 41.4905H45.9637Z" fill="#E9AE52"/>
<path d="M37.7281 3.95331C37.2792 4.36581 35.7768 3.15936 36.2194 4.93435C35.3092 4.68435 34.4301 4.37185 33.6135 3.60311C35.1658 2.52187 36.4376 3.37811 37.7343 3.95311L37.7281 3.95331Z" fill="#8B6614"/>
<path d="M60.396 5.86577C57.4908 5.79702 54.5545 6.29701 51.6929 5.42202C54.6043 5.35327 57.5282 5.08452 60.396 5.86577Z" fill="#AFC595"/>
<path d="M36.2755 5.1408C36.5685 5.3658 36.8615 5.5908 37.1545 5.82205C37.1732 8.41578 37.192 11.0031 37.2107 13.5968C36.3566 12.0281 36.8179 10.3156 36.7369 8.67187C36.6807 7.47188 36.6184 6.29704 36.2755 5.1408Z" fill="#A9A68F"/>
<path d="M45.6518 31.8468C44.5047 32.8656 44.1432 34.3719 43.3452 35.6031C42.2729 33.6532 43.7379 32.7594 44.9474 31.7594C45.1843 31.7907 45.4149 31.8156 45.6518 31.8468Z" fill="#FEC902"/>
<path d="M64.1554 34.7156C64.1679 35.7343 64.1741 36.7531 64.1866 37.7781C64.6105 38.1719 64.6105 38.5906 64.2489 39.0218H64.0681L63.8873 39.0031C63.426 37.5406 62.5844 36.0531 64.1554 34.7219L64.1554 34.7156Z" fill="#F5DC90"/>
<path d="M45.365 36.6779C45.496 37.2591 45.4274 37.8529 45.8451 38.4091C46.7989 39.6841 45.5646 39.4841 44.91 39.6529C44.6419 39.3091 44.3738 38.9716 44.1057 38.6279C45.0346 38.3029 44.6793 37.1654 45.3588 36.6779H45.365Z" fill="#4764AF"/>
<path d="M64.249 39.0156C64.2303 38.6031 64.2053 38.1843 64.1866 37.7718C64.3549 37.7343 64.5233 37.6968 64.6916 37.6593C65.5956 38.5531 67.0108 38.9968 67.2165 40.5093C66.83 40.5468 66.4434 40.5843 66.0569 40.6281C65.4522 40.0906 64.8537 39.5531 64.2489 39.0218L64.249 39.0156Z" fill="#8FA8C6"/>
<path d="M3.57018 23.6843C3.539 25.2968 3.50783 26.9155 3.4829 28.528C2.76595 26.8967 2.6662 25.2843 3.57018 23.6843Z" fill="#E1D761"/>
<path d="M42.3852 13.0469C43.4637 11.6656 45.0535 11.4844 46.6308 11.2594C47.248 11.8906 47.5971 12.6594 47.8215 13.4969C48.3577 14.6406 48.0335 15.8468 48.0584 17.0218C48.0896 18.4281 48.2953 19.9343 46.2442 20.3468C44.2867 20.7406 42.7717 20.4906 42.0298 18.4031L42.0423 18.4218C41.955 16.6156 40.3403 14.7156 42.3914 13.0469H42.3852Z" fill="#FDC902"/>
<path d="M70.0656 26.6156C68.8 26.6031 67.5282 26.5905 66.2626 26.578C63.2826 27.0905 60.2776 26.7155 57.2852 26.7905C56.9423 26.6843 56.8238 26.453 56.9423 26.1155C60.845 25.4093 64.7851 25.178 68.7376 25.178C70.1902 25.178 70.6204 25.853 70.0655 26.6218L70.0656 26.6156Z" fill="#3F7AA6"/>
<path d="M42.0236 18.403C42.46 18.8405 42.8465 19.3655 43.3515 19.7092C45.228 20.9717 47.6968 19.7905 47.8402 17.5467C47.9213 16.203 47.834 14.853 47.8215 13.503C48.819 15.2843 48.7255 17.2342 48.2642 19.053C47.5909 21.703 45.3465 20.8842 43.5074 20.803C42.7904 20.1467 41.8116 19.6467 42.0236 18.4155V18.403Z" fill="#B18E31"/>
<path d="M56.9423 26.1094C56.9797 26.2719 57.0233 26.4344 57.0607 26.5969C57.148 26.8531 57.067 26.9906 56.7926 27.0031C54.9286 27.1219 53.0832 28.1219 51.188 27.1406C50.9261 26.9281 50.9511 26.7594 51.2566 26.6281C51.5745 26.4344 51.8862 26.2406 52.2042 26.0469C53.7815 26.0656 55.365 26.0844 56.9423 26.1031V26.1094Z" fill="#263646"/>
<path d="M295.094 12.5782C295.742 12.9594 295.38 14.2719 296.228 14.2094C297.7 14.1032 297.101 12.3532 297.918 11.647C297.936 11.9594 298.011 12.2844 297.955 12.5844C297.693 13.9532 297.743 16.1032 296.272 16.0844C295.05 16.0657 295.056 13.9469 295.094 12.5782Z" fill="#FEC311"/>
<path fill-rule="evenodd" clip-rule="evenodd" d="M206.722 13.4472C207.296 8.93458 205.993 3.15937 199.091 1.14065C196.685 0.390836 194.253 0.653274 191.828 0.996899C188.281 2.22187 186.323 4.88462 185.182 8.29707C184.746 10.5532 184.858 12.8097 185.139 15.0658C187.371 21.5907 189.889 23.7407 195.207 23.7596C200.27 23.7782 205.662 21.8095 206.722 13.4472ZM196.672 4.94687C193.555 4.70945 191.76 5.89078 190.45 9.19703L190.438 9.20313C190.076 11.1843 190.157 13.1658 190.401 15.147C190.837 16.8218 191.791 18.1093 193.293 18.9781C195.693 19.6532 197.925 19.6031 199.69 17.5093C200.238 16.9905 200.612 16.3781 200.675 15.6093C201.622 12.7969 201.51 10.0659 200.033 7.44686C199.284 6.11569 198.374 5.0781 196.672 4.94687Z" fill="#FEC311"/>
<path d="M193.299 18.972C195.556 19.0282 197.819 19.1032 199.696 17.5032C198.094 19.9407 195.918 20.4345 193.299 18.972Z" fill="#FEC311"/>
<path d="M200.675 15.6093C201.099 12.8406 200.968 10.1156 200.033 7.44686C201.922 10.0343 202.034 12.7656 200.675 15.6093Z" fill="#FEC311"/>
<path d="M190.45 9.19703C190.438 11.1783 190.425 13.1595 190.407 15.1407C189.565 13.1532 189.734 11.172 190.45 9.19703Z" fill="#FEC311"/>
<path fill-rule="evenodd" clip-rule="evenodd" d="M259.77 15.1345C261.029 18.6721 262.469 22.0592 266.54 23.2655L266.534 23.278C268.828 23.578 271.129 23.5591 273.423 23.2841C275.817 22.8029 277.85 21.6466 278.947 19.4591C279.807 17.7403 280.73 15.9905 280.954 14.0154C281.584 12.4404 281.36 10.8407 281.079 9.24065C280.044 5.28438 278.024 2.20945 273.785 1.12822C271.391 0.478203 268.984 0.240474 266.578 1.07818C262.569 2.09074 261.141 5.36587 259.851 8.75329C259.446 10.8782 259.583 13.0035 259.77 15.1345ZM265.356 8.31567C264.184 11.8407 264.377 15.2282 266.671 18.3156C268.479 19.5155 270.393 19.5906 272.388 18.878C274.003 17.8093 275.194 16.4095 275.761 14.5345C275.744 14.023 275.762 13.5061 275.781 12.9888C275.83 11.5972 275.88 10.2035 275.243 8.90954C275.179 8.78015 275.116 8.64983 275.052 8.51922C274.149 6.66956 273.224 4.77474 270.58 4.81563C268.467 4.84707 266.011 6.347 265.356 8.31567Z" fill="#FEC311"/>
<path d="M266.671 18.3156C268.529 18.9718 270.462 18.928 272.388 18.878C270.318 20.328 268.423 20.0468 266.671 18.3156Z" fill="#FEC311"/>
<path d="M272.388 18.878C273.635 17.5218 274.944 16.222 275.761 14.5345C275.661 16.772 274.433 18.1405 272.388 18.878Z" fill="#FEC311"/>
<path d="M56.7864 27.003C56.8737 26.8655 56.9672 26.7343 57.0545 26.5968C60.1218 26.5905 63.1891 26.578 66.2563 26.5718C63.1392 27.603 59.9472 26.9218 56.7864 27.003Z" fill="#E2B77A"/>
<path d="M51.2566 26.6281C51.2316 26.7969 51.2067 26.9657 51.188 27.1344C48.2703 26.8782 45.3027 27.5094 42.4287 26.5907C45.3713 26.6032 48.3139 26.6157 51.2628 26.6219L51.2566 26.6281Z" fill="#9B7444"/>
<path fill-rule="evenodd" clip-rule="evenodd" d="M152.857 20.322C151.779 22.1094 150.164 23.0406 148.113 23.2719C145.027 23.5719 141.935 23.5406 138.849 23.2907C137.976 22.9596 137.434 22.3719 137.396 21.403C137.147 14.9281 137.091 8.45328 137.427 1.9781C137.608 1.69063 137.789 1.40316 137.97 1.12209C141.181 0.634423 144.397 0.759546 147.614 1.05953C152.116 2.89698 152.77 3.77832 152.427 7.57193C152.419 7.65586 152.414 7.74497 152.409 7.8353C152.391 8.16214 152.372 8.5076 152.197 8.70321C150.276 10.9093 151.592 12.2969 153.362 13.6031C153.724 15.8843 153.967 18.1532 152.857 20.3282L152.857 20.322ZM144.977 13.5655C148.051 13.5655 148.562 14.0593 148.531 16.6969C148.512 18.3531 146.698 19.8094 144.678 19.7844C142.914 19.7655 141.885 18.4468 141.823 16.3655C141.748 13.8719 143.244 13.4282 144.977 13.5594V13.5655ZM143.518 9.64711C144.516 9.84059 145.582 9.72188 146.617 9.7408C148.188 8.77188 148.076 7.41568 147.496 5.95329C146.713 4.98894 145.672 4.94866 144.599 4.90716C144.399 4.89953 144.199 4.8919 143.998 4.87817C142.614 4.78448 141.91 5.27825 141.816 6.67198C141.729 8.05319 141.91 9.33462 143.518 9.64711Z" fill="#FEC311"/>
<path d="M146.617 9.7408C147.857 8.69706 147.465 7.27828 147.496 5.95329C148.107 7.42203 148.961 8.95331 146.617 9.7408Z" fill="#FEC311"/>
<path fill-rule="evenodd" clip-rule="evenodd" d="M106.736 13.497C107.902 12.8344 109.211 12.2846 109.554 10.7658L109.566 10.7596C109.903 8.78447 109.884 6.8158 109.579 4.84072C108.612 2.47196 106.63 1.49693 104.286 1.02208C101.343 0.690661 98.4006 0.765734 95.458 0.990647C95.0839 1.07213 94.7286 1.17833 94.5915 1.59062C93.9542 4.69973 94.0273 7.83416 94.1003 10.9692C94.1294 12.2204 94.1585 13.4719 94.1425 14.7219C94.1347 15.2831 94.1152 15.8456 94.0956 16.4083C94.0209 18.5586 93.946 20.7143 94.5291 22.8344C95.8569 23.9843 97.1849 24.2592 98.5065 22.828C98.7379 21.6924 98.7103 20.5492 98.6829 19.4063C98.6666 18.7316 98.6503 18.0572 98.6873 17.3843C98.6946 17.2527 98.6922 17.1139 98.6898 16.9741C98.6782 16.2853 98.666 15.5804 99.822 15.653C100.383 16.1907 101.031 16.6656 101.493 17.2845C101.732 17.6046 101.968 17.9269 102.204 18.2494C103.379 19.854 104.554 21.4592 106.075 22.7657C107.073 23.6217 108.363 24.2842 109.529 23.3467C110.713 22.3967 110.146 21.0219 109.629 19.8592C109.013 18.4768 107.84 17.543 106.71 16.6436L106.393 16.3906C104.76 15.0781 105.271 14.3344 106.736 13.497ZM104.99 9.43449C106.025 7.57202 104.934 6.29701 103.257 5.42848V5.43459L103.013 5.38362C101.498 5.0638 99.9864 4.74489 98.8681 6.33454C98.2447 8.32824 98.9429 10.7409 100.408 11.1032C102.241 11.5594 104.036 11.1471 104.99 9.43449Z" fill="#FEC311"/>
<path d="M103.257 5.42848C101.761 5.57848 100.121 5.0158 98.8681 6.32829C99.9092 3.99081 101.605 4.80349 103.257 5.42848Z" fill="#FEC311"/>
<path fill-rule="evenodd" clip-rule="evenodd" d="M346.221 20.3844C346.265 19.5968 346.745 19.0658 347.524 18.847L347.518 18.8344C348.58 18.5702 349.653 18.6028 350.725 18.6355C351.453 18.6578 352.181 18.68 352.905 18.6092C354.663 18.4344 355.779 19.0969 356.221 20.8217C356.664 23.0407 357.886 24.0657 359.713 23.6406C361.442 23.2427 361.239 22.0879 361.045 20.9899C360.992 20.6908 360.94 20.396 360.928 20.122C360.868 18.7279 360.301 17.4694 359.737 16.2167C359.49 15.6667 359.243 15.118 359.039 14.5593C358.444 12.9269 357.898 11.2777 357.353 9.62797C356.607 7.37427 355.862 5.11903 354.987 2.90317C353.84 -0.0155132 349.943 -0.234321 348.391 2.40329C345.766 6.87226 344.315 11.7538 342.863 16.6351C342.35 18.3617 341.837 20.0884 341.271 21.7968C340.922 22.8469 341.29 23.597 342.892 23.4844C345.037 23.3281 346.09 22.5033 346.221 20.3844ZM351.196 6.90339C349.532 8.25958 349.095 10.1034 348.971 12.0846L348.946 12.1606C348.723 12.9199 348.436 13.9007 349.314 14.1659C350.504 14.5285 351.957 14.6221 353.079 14.1345C353.871 13.7957 353.687 12.9086 353.519 12.0956C353.48 11.904 353.441 11.7163 353.416 11.5408C353.004 9.86601 352.593 8.19091 351.196 6.90339Z" fill="#FEC311"/>
<path d="M348.971 12.0846C348.815 13.9721 349.943 14.0531 351.458 14.1531C353.709 14.2968 353.229 12.7468 353.416 11.5469C354.145 12.4468 354.382 13.8343 353.578 14.3031C352.212 15.0906 350.411 14.9218 348.964 14.3281C348.042 13.9531 348.416 12.8471 348.971 12.0846Z" fill="#FEC311"/>
<path fill-rule="evenodd" clip-rule="evenodd" d="M346.676 45.4092C346.733 40.903 344.825 38.2718 340.342 36.6843C338.734 36.2842 337.113 36.3717 335.492 36.628C333.977 36.8218 332.942 37.8281 331.957 38.8282C328.753 42.0844 328.316 46.2531 330.723 49.9841C333.11 53.6843 336.633 54.8342 340.984 53.3343C343.946 52.3092 346.639 48.5653 346.676 45.4092ZM344.744 44.8969C344.75 49.1092 341.446 52.1966 336.994 52.1279C334.27 52.0843 330.704 47.8341 330.723 44.6469C330.735 41.528 334.42 38.1467 337.836 38.1092C341.552 38.0655 344.738 41.1969 344.744 44.8969Z" fill="#070707"/>
<path d="M67.2226 40.5093C66.4496 39.5031 64.7538 39.2968 64.6977 37.6593C65.5705 36.5718 65.9758 34.7156 68.0643 35.5968C68.6004 36.4531 68.27 37.5656 68.8997 38.3906C69.361 38.8531 69.9844 39.0281 70.5518 39.2906C70.8011 40.0156 70.2213 40.2718 69.7974 40.6093C68.9433 40.5718 68.083 40.5406 67.2289 40.5031L67.2226 40.5093Z" fill="#262E97"/>
<path d="M70.5394 39.2969C69.704 39.6094 68.8686 39.9031 68.4883 38.6844C67.8711 36.4531 69.2614 36.8844 70.5269 37.1594C71.6304 37.8656 70.7327 38.5844 70.5394 39.3031V39.2969Z" fill="#241932"/>
<path d="M70.5332 37.1529C69.2676 36.8779 68.507 37.2779 68.4945 38.6779C66.7988 37.8716 68.5694 36.5717 68.0581 35.5967C68.4447 36.8154 69.9097 36.3154 70.5332 37.1529Z" fill="#A5AA8D"/>
<path d="M28.5948 39.0655C28.9003 38.9217 29.1995 38.778 29.505 38.628C30.7581 39.6092 31.6746 40.8092 31.9863 42.4092C32.111 43.5592 32.8154 44.6342 32.4788 45.8529C32.5598 47.2654 31.9115 48.3904 30.5274 48.3154C29.4177 48.2591 29.293 46.8779 29.0748 45.9216C28.5574 43.6654 29.5923 41.2967 28.5948 39.0655Z" fill="white"/>
<path d="M32.4788 45.8529C31.8055 44.7779 31.1633 43.6967 31.9863 42.4092C33.0461 43.1029 33.364 44.1403 33.3266 45.3403C33.0461 45.509 32.7593 45.6842 32.4788 45.8529Z" fill="#5C7372"/>
<path d="M8.43292 43.5779C8.32694 42.8154 8.64489 42.1841 9.43041 42.4091C11.282 42.9466 11.5501 44.7528 12.08 46.2466C12.3481 47.0153 11.8057 47.8528 10.989 47.6528C8.93166 47.1466 8.68229 45.3216 8.43292 43.5779Z" fill="white"/>
<path d="M220.494 52.9903C220.469 52.2091 220.45 51.4341 220.425 50.6528C221.348 48.7716 220.388 46.628 221.348 44.7156C221.952 47.2155 221.778 49.7655 221.772 52.2905C221.772 53.103 221.011 52.9092 220.5 52.9842L220.494 52.9903Z" fill="#070707"/>
<path d="M42.3852 13.0469C41.0822 14.7656 42.3914 16.6468 42.036 18.4217C40.9263 16.8093 41.0136 15.0155 41.2754 13.203C41.6433 13.153 42.0111 13.0968 42.3789 13.0468L42.3852 13.0469Z" fill="#B18E31"/>
<path d="M51.2129 36.6217C49.9972 36.6217 49.6232 38.253 48.3264 38.103C47.9898 37.2905 47.8963 36.4905 48.3825 35.6968C49.3613 35.8905 50.5957 35.3218 51.2129 36.6217Z" fill="#D2CC9B"/>
<path d="M48.3826 35.7029C48.3639 36.5029 48.3451 37.3091 48.3264 38.1091C47.4599 37.7341 47.9087 37.0216 47.9274 36.4529C47.9586 35.3029 47.2604 35.1591 46.3689 35.2216C47.2541 34.4966 48.0085 34.2904 48.3826 35.7029Z" fill="#847B6B"/>
</svg>
