<svg width="205" height="66" viewBox="0 0 205 66" fill="none" xmlns="http://www.w3.org/2000/svg">
<path d="M142.061 13.62C141.983 12.4756 142.367 11.4036 142.814 10.4088C143.893 7.99434 145.248 5.74888 147.328 4.01046C149.719 2.01611 152.323 0.688154 155.52 0.311497C158.003 0.0169321 160.467 0.0893661 162.935 0.0700504C169.539 0.021761 176.142 -0.0796484 182.736 0.113509C185.744 0.205259 188.756 0.29218 191.764 0.408074C192.814 0.451535 193.819 0.968235 194.835 1.21934C196.744 1.69258 198.319 2.68251 199.762 3.83662C202.488 6.00964 204.198 8.8056 204.742 12.3404C205.107 14.7017 204.942 17.0389 204.995 19.3906C202.123 19.4003 199.257 19.4148 196.385 19.4244C192.541 19.4437 188.698 19.4631 184.854 19.4824C184.757 19.3085 184.587 19.1444 184.568 18.9609C184.315 16.2084 182.935 14.3637 180.229 13.5621C180.029 13.5042 179.859 13.3641 179.675 13.2627C179.437 13.1661 179.203 12.9875 178.965 12.9875C175.86 12.9681 172.751 12.9681 169.646 12.9826C169.408 12.9826 169.165 13.1516 168.926 13.2386C167.133 13.4945 165.52 14.0933 164.315 15.5371C163.222 16.8458 162.537 18.3283 162.493 20.0184C162.42 22.7033 162.372 25.3882 162.469 28.0731C162.551 30.3813 163.669 32.1583 165.656 33.4621C167.08 34.3941 168.586 34.6404 170.219 34.6259C172.921 34.5969 175.622 34.6066 178.324 34.6211C180.812 34.6307 182.653 33.607 183.751 31.3519C184.009 30.8255 184.281 30.304 184.548 29.7777C190.88 29.7777 197.206 29.768 203.537 29.7728C203.946 29.7728 204.422 29.6231 204.708 30.0964C204.699 31.7575 204.602 33.4235 204.694 35.075C204.801 36.9969 204.135 38.6436 203.11 40.1792C200.501 44.0906 196.788 46.4037 192.25 47.4661C191.22 47.7075 190.141 47.751 189.087 47.8862C188.601 47.8669 188.12 47.8379 187.634 47.8379C178.416 47.8379 169.199 47.8379 159.981 47.8379C159.067 47.8379 158.149 47.8717 157.236 47.8862C150.389 46.9542 142.795 42.1059 142.032 33.9402C142.119 33.5925 142.284 33.2448 142.284 32.8972C142.299 26.8175 142.299 20.7427 142.284 14.6631C142.284 14.3106 142.129 13.9629 142.046 13.6104L142.061 13.62Z" fill="#012F61"/>
<path d="M73.1402 0.707474C71.8039 2.81772 70.458 4.9183 69.1315 7.03338C67.6349 9.41404 66.1237 11.7899 64.6757 14.1995C64.253 14.9045 63.7136 14.948 63.0431 14.8466C62.9265 14.7162 62.8098 14.4699 62.6932 14.4699C61.9401 14.4796 61.1918 14.5762 60.4386 14.5762C57.0324 14.5907 53.6311 14.5713 50.2249 14.5955C49.7244 14.5955 49.1268 14.3396 48.7478 14.9335C48.7235 15.1412 48.704 15.3536 48.6797 15.5613C48.5923 15.9621 48.4271 16.3677 48.4271 16.7685C48.4125 26.4022 48.4125 36.0311 48.4271 45.6649C48.4271 46.0657 48.5923 46.4713 48.6846 46.8721C48.6846 47.0846 48.6797 47.297 48.6749 47.5095C47.8246 47.5095 46.9791 47.5192 46.1287 47.5192C37.1638 47.5192 28.1989 47.5143 19.2339 47.5095C19.2145 46.8093 19.1805 46.114 19.1805 45.4138C19.1756 35.2537 19.1708 25.0888 19.1708 14.9287C18.7286 14.3251 18.0775 14.6003 17.5284 14.6003C11.9065 14.5762 6.2846 14.5858 0.662687 14.581C0.662687 9.85348 0.667548 5.12595 0.672408 0.398423L0.638394 0.330818C1.07085 0.350133 1.49844 0.383936 1.9309 0.383936C16.6149 0.383936 31.299 0.383934 45.983 0.374276C46.362 0.374276 46.7361 0.345305 47.1151 0.330818C47.7614 0.350133 48.4028 0.383936 49.049 0.383936C56.532 0.383936 64.0149 0.374273 71.4978 0.393589C72.0469 0.393589 72.6931 0.127999 73.145 0.7123L73.1402 0.707474Z" fill="#012F61"/>
<path d="M90.3898 36.2291C90.5112 36.9535 90.5404 37.7068 90.7736 38.3973C91.794 41.4251 92.9311 44.4045 94.7678 47.0604C94.8552 47.186 94.8747 47.3598 94.9232 47.5095C88.5385 47.5095 82.1488 47.5095 75.7641 47.5095C75.5648 47.3308 75.2781 47.1956 75.181 46.9735C74.0342 44.3466 72.4988 41.8886 71.7553 39.083C71.3618 37.5957 71.0897 36.0987 70.7933 34.5921C70.3316 32.2404 70.4628 29.8887 70.5552 27.5564C70.6329 25.4558 71.0022 23.3407 71.6776 21.327C72.4065 19.1637 73.2325 17.0293 74.0974 14.9142C75.6474 11.1331 78.1061 7.88327 80.4579 4.59477C81.5366 3.08331 82.902 1.77467 84.141 0.374276C100.171 0.374276 116.196 0.379107 132.226 0.383936C132.877 0.383936 133.523 0.408077 134.175 0.417735C134.175 7.59353 134.175 14.7645 134.194 21.9403C134.194 22.5005 134.354 23.0654 134.442 23.6256C134.486 23.7318 134.486 23.8381 134.442 23.9443C134.35 23.9443 134.257 23.954 134.16 23.9636C133.621 23.9588 133.081 23.9443 132.537 23.9443C124.432 23.9347 116.322 23.925 108.218 23.9153C108.208 21.298 108.208 18.6759 108.179 16.0587C108.179 15.6772 108.402 15.1798 107.843 14.9432C107.528 14.9142 107.207 14.8901 106.891 14.8611C106.6 14.7742 106.303 14.61 106.012 14.6052C102.693 14.5858 99.3741 14.5858 96.0554 14.6052C95.7639 14.6052 95.4772 14.779 95.1856 14.8707C92.693 17.3142 91.0457 20.2164 90.2974 23.6208C89.6172 25.055 89.6318 26.5954 89.6318 28.131C89.5394 28.469 89.4471 28.8022 89.3548 29.1402C89.452 30.2219 89.4131 31.2988 89.3451 32.3805C89.2576 33.7664 89.7338 35.0315 90.3801 36.2339L90.3898 36.2291Z" fill="#012F61"/>
<path d="M90.3898 36.2291C89.7484 35.0219 89.2722 33.7567 89.3548 32.3756C89.4228 31.2939 89.4617 30.2171 89.3645 29.1354C89.5151 29.2803 89.6706 29.4251 89.6901 29.4445C90.5258 29.3286 91.2401 29.1402 91.9592 29.1354C104.17 29.1161 116.386 29.1209 128.596 29.1209C129.029 29.1209 129.471 29.092 129.884 29.1934C130.064 29.2368 130.166 29.5749 130.302 29.7825C128.932 31.941 127.561 34.0996 126.211 36.2291H108.213C108.091 36.2291 107.97 36.234 107.848 36.2388C102.027 36.2388 96.2109 36.2388 90.3898 36.2339L90.3898 36.2291Z" fill="#F9C41F"/>
<path d="M72.7806 56.897C74.5639 56.897 76.352 56.8825 78.1353 56.8921C79.7144 56.897 80.2101 57.4282 80.2392 59.0217C80.2538 59.8426 80.317 60.6635 79.282 60.9533C79.6416 61.4362 80.1372 61.8032 80.1955 62.2329C80.3121 63.0683 80.2878 63.9617 80.108 64.7826C80.0351 65.1158 79.4229 65.5214 79.0196 65.5649C77.2072 65.7484 75.385 65.8305 73.5678 65.9078C73.2908 65.9174 73.0041 65.7194 72.7174 65.6132C72.7369 62.7062 72.7612 59.804 72.7806 56.897ZM77.8875 62.1315H75.1712C75.1227 62.3682 75.0595 62.5178 75.0595 62.6675C75.0595 63.7927 75.4142 64.1404 76.4686 63.9714C76.9691 63.8893 77.4453 63.6526 78.0041 63.4595C77.9652 63.0056 77.9263 62.6096 77.8826 62.1315H77.8875ZM75.181 58.7947C75.0158 59.5481 74.9089 60.1324 75.5697 60.3448C76.007 60.4849 76.5366 60.4945 76.9837 60.3835C77.3384 60.2917 77.6299 59.9295 77.9166 59.7122C77.2995 58.2008 76.1528 59.0603 75.1858 58.7947H75.181Z" fill="#012F61"/>
<path d="M67.8973 61.2527C67.8973 61.6824 67.8973 62.1122 67.8973 62.542C67.9118 64.6522 67.4357 65.2559 65.3511 65.676C64.7243 65.8015 64.0829 65.9078 63.4464 65.9126C61.0752 65.9271 59.6612 64.7343 59.4863 62.4406C59.3988 61.2865 59.3502 60.1131 59.7486 58.9541C60.1762 57.7034 60.9391 56.9404 62.2462 56.8873C63.3249 56.8438 64.4085 56.8342 65.4872 56.8777C66.9109 56.9308 67.8973 58.0269 67.9021 59.4853C67.9021 60.0744 67.9021 60.6684 67.9021 61.2575H67.8973V61.2527ZM65.1568 58.7996C64.4911 58.7996 64.01 58.7754 63.5241 58.8044C62.5037 58.8672 62.1004 59.2776 62.0518 60.311C62.0227 60.9533 62.0227 61.6004 62.0518 62.2426C62.0956 63.1987 62.4843 63.6237 63.4075 63.6816C63.9857 63.7154 64.5688 63.6527 65.2151 63.6285C65.8127 61.9867 65.8516 60.4752 65.1519 58.7996H65.1568Z" fill="#012F61"/>
<path d="M51.396 59.8281C52.0228 58.6499 52.5475 57.6648 53.0918 56.6362H55.7448C54.9285 58.167 54.1607 59.606 53.3347 61.1609C54.1365 62.5661 55.0062 64.0873 55.944 65.7291C55.0402 66.0623 54.2093 65.8691 53.2764 65.9078C52.6933 64.7778 52.1102 63.6478 51.4008 62.2812C50.7351 63.585 50.1618 64.7054 49.5738 65.8643H46.8333C47.7274 64.2273 48.5583 62.7062 49.4329 61.0981C48.6603 59.6784 47.8731 58.2394 47.0082 56.6555H49.7682C50.2881 57.6648 50.7983 58.6595 51.4008 59.8233L51.396 59.8281Z" fill="#012F61"/>
<path d="M93.2663 65.3573C91.794 66.4438 90.9583 66.1685 90.4529 64.4011H87.3091C86.1964 66.1299 85.9146 66.241 84.2285 65.5601C85.0983 62.7062 85.968 59.8474 86.8524 56.9501H90.623C91.5025 59.746 92.3868 62.5613 93.2663 65.3573ZM88.7523 58.6064C88.2712 60.002 88.0526 61.1416 87.7464 62.2233C88.2939 62.5388 89.0033 62.5339 89.8747 62.2088C89.5394 61.1319 89.2042 60.0503 88.7571 58.6064H88.7523Z" fill="#012F61"/>
<path d="M37.538 64.3094C36.6099 66.154 36.3426 66.2603 34.5254 65.5794C35.3708 62.7207 36.2114 59.8523 37.0666 56.9597H40.9199C41.7653 59.746 42.6205 62.571 43.5146 65.5263C43.0044 65.6615 42.5136 65.8353 42.0034 65.9078C41.4738 65.985 41.017 65.8015 40.9539 65.1882C40.8713 64.3818 40.3368 64.2901 39.6857 64.3046C38.986 64.3239 38.2911 64.3046 37.5428 64.3046L37.538 64.3094ZM39.0977 58.7368C38.6896 60.1855 37.9656 61.2527 38.1113 62.7738C38.8645 62.5951 39.4962 62.4406 40.1521 62.2861C39.812 61.1464 39.501 60.0937 39.1026 58.7368H39.0977Z" fill="#012F61"/>
<path d="M183.304 65.42C184.164 62.6048 185.024 59.7847 185.889 56.9501H189.679C190.535 59.7798 191.395 62.6337 192.26 65.5021C191.594 66.1734 190.846 65.8788 190.078 65.8595C189.85 65.3621 189.636 64.8937 189.373 64.3094C188.625 64.3094 187.877 64.319 187.128 64.3094C186.502 64.2997 186.074 64.3818 185.817 65.1448C185.491 66.1009 184.373 66.1637 183.3 65.42H183.304ZM188.873 62.204C188.528 61.0595 188.236 60.0985 187.95 59.1424C187.323 60.3014 186.691 61.3686 186.973 62.7545C187.619 62.5661 188.163 62.4116 188.873 62.204Z" fill="#012F61"/>
<path d="M161.507 65.4297C159.83 66.3568 159.15 66.1009 158.703 64.4156H155.55C155.195 64.8792 154.908 65.5553 154.408 65.816C153.902 66.0768 153.154 66.1154 152.483 65.5649C153.334 62.7255 154.189 59.8619 155.059 56.9597H158.757C159.947 59.6543 160.394 62.6096 161.507 65.4249V65.4297ZM157.085 59.0169C156.672 60.2289 155.792 61.2672 156.099 62.6434C156.745 62.682 157.309 62.8366 157.848 62.5275C158.178 61.2044 157.138 60.2048 157.085 59.0169Z" fill="#012F61"/>
<path d="M201.156 58.7996C200.68 58.7996 200.306 58.7803 199.932 58.7996C199.019 58.8624 198.503 59.297 198.537 60.2C198.581 61.3348 198.124 62.5661 199.111 63.6333H201.234C201.361 63.247 201.482 62.8607 201.623 62.4309H203.829C204.636 64.8213 203.231 65.6325 201.487 65.8788C200.335 66.043 199.14 65.985 197.964 65.6518C197.386 65.4876 197.026 65.2607 196.744 64.7488C195.622 62.6869 195.656 60.5187 196.356 58.3988C196.642 57.5296 197.449 56.8149 198.591 56.8487C199.509 56.8777 200.428 56.9066 201.346 56.8583C202.366 56.8052 203.081 57.2978 203.707 58.0028C204.159 58.505 204.145 59.0893 203.916 59.6591C203.722 60.1517 203.236 60.1082 202.804 60.1082C202.206 60.1082 201.574 60.1806 201.443 59.3404C201.419 59.1955 201.302 59.0652 201.156 58.7996Z" fill="#012F61"/>
<path d="M4.90463 63.6961C5.23505 63.2036 5.49743 62.8124 5.76954 62.4116H7.85407C8.26709 64.3915 7.36817 65.5504 5.46342 65.6084C4.8852 65.6277 4.30211 65.7339 3.72874 65.8546C1.75597 66.2748 0.0553059 64.9516 0.0212926 62.9235C-0.00300265 61.7404 -0.0127197 60.5573 0.0261526 59.3742C0.0747431 57.8338 1.02711 56.9163 2.59173 56.8728C3.51009 56.8487 4.42844 56.8777 5.35166 56.8825C7.17866 56.8873 7.86379 57.602 7.78604 59.4322C7.78119 59.5867 7.73745 59.7412 7.69372 59.9971C7.39732 60.0358 7.09606 60.0889 6.78994 60.1082C6.46924 60.1275 6.14369 60.1082 5.7501 60.1082C5.44884 59.5384 5.36624 58.7802 4.41387 58.7802C2.76665 58.7802 2.50427 59.1279 2.56743 60.48C2.59659 61.1223 2.55286 61.7694 2.58687 62.4164C2.64032 63.4402 2.82496 63.614 3.8405 63.6913C4.1612 63.7154 4.48675 63.6913 4.90949 63.6913L4.90463 63.6961Z" fill="#012F61"/>
<path d="M145.938 65.5649V58.8624C144.865 58.8624 143.927 58.8527 142.989 58.8527C142.872 59.1134 142.663 59.3694 142.654 59.635C142.615 60.6925 142.644 61.7549 142.634 62.8124C142.624 63.6961 142.6 64.5798 142.581 65.5697H140.389C140.394 62.6869 140.404 59.7992 140.409 56.9163C141.696 56.9066 142.989 56.8583 144.277 56.897C145.54 56.9356 146.828 56.7038 148.076 57.066V65.5601H145.938V65.5649Z" fill="#012F61"/>
<path d="M116.016 56.9308C117.736 56.9066 119.457 56.8777 121.182 56.8535C122.178 56.839 122.775 57.4233 123.115 58.2635C123.645 59.5529 123.567 60.8712 123.081 62.146C122.853 62.7496 122.416 63.2325 121.692 63.3339C120.594 63.4885 119.5 63.6575 118.407 63.8168C118.368 63.8603 118.305 63.8941 118.3 63.9375C118.154 65.2896 117.393 65.9383 116.016 65.8836C116.016 62.8993 116.016 59.9151 116.016 56.9308ZM120.594 58.9251H118.31V61.1947C120.574 61.7838 121.332 61.1706 120.594 58.9251Z" fill="#012F61"/>
<path d="M28.9375 56.8487C30.2251 57.2591 30.8082 58.1911 30.8762 59.4805C30.9102 60.1179 30.9102 60.7649 30.8373 61.4024C30.6964 62.6627 29.9967 63.276 28.7139 63.3388C28.126 63.3677 27.5235 63.3146 26.9452 63.3967C26.5419 63.4547 26.1629 63.6816 25.7694 63.8361C25.7353 64.0148 25.6965 64.1693 25.6868 64.3239C25.5799 66.0285 25.1085 66.2941 23.3301 65.6422C23.369 62.7641 23.4127 59.8861 23.4565 56.8535H28.9375V56.8487ZM25.7159 61.3299C26.6391 61.3348 27.5624 61.7597 28.0677 60.9871C28.3495 60.5573 28.3495 59.5915 28.0434 59.2197C27.4506 58.505 26.5274 58.732 25.7159 59.0169V61.3299Z" fill="#012F61"/>
<path d="M128.397 64.1935C129.087 63.9569 129.675 63.7541 130.351 63.5223C129.325 61.3203 128.363 59.2535 127.348 57.0756C128.232 56.7521 129.053 56.9115 129.996 56.9453C130.467 58.0656 130.938 59.1907 131.434 60.3786C132.44 59.466 132.498 58.0994 133.135 56.9501H135.832C135.365 57.94 134.967 58.8237 134.544 59.6978C133.839 61.1464 133.125 62.5855 132.411 64.0293C131.959 64.942 131.264 65.5311 130.253 65.7967C128.771 66.183 128.378 65.8836 128.402 64.1983L128.397 64.1935Z" fill="#012F61"/>
<path d="M13.9716 58.8768C13.1747 58.8382 12.543 58.8044 11.8093 58.7658V56.9646H19.0347V58.7416C18.2816 58.7899 17.543 58.8334 16.7024 58.8865C16.6587 59.239 16.5761 59.5915 16.5761 59.9489C16.5615 61.3493 16.5761 62.7448 16.5712 64.1452C16.5663 65.7967 16.4594 65.9367 15.2398 65.9271C14.0882 65.9222 13.9813 65.7677 13.9765 64.0679C13.9716 62.402 13.9765 60.736 13.9765 58.8817L13.9716 58.8768Z" fill="#012F61"/>
<path d="M179.903 57.0515V58.7561C179.135 58.7948 178.353 58.8382 177.391 58.8865C177.391 59.9585 177.391 60.9629 177.391 61.9674C177.391 62.6676 177.391 63.3678 177.391 64.0679C177.391 65.3524 176.647 65.9383 175.161 65.8257C175.029 63.5754 175.175 61.2817 175.078 58.9058C174.262 58.8575 173.523 58.8141 172.692 58.7658C172.639 58.476 172.566 58.1766 172.542 57.8773C172.522 57.6165 172.561 57.3557 172.571 57.1095C173.849 56.8342 178.12 56.8004 179.908 57.0515H179.903Z" fill="#012F61"/>
<path d="M105.336 65.8643V57.0611C106.289 56.7038 107.314 56.9453 108.31 56.897C109.272 56.8535 110.239 56.8873 111.323 56.8873V58.7851H107.542C107.542 60.3738 107.542 61.8032 107.542 63.2325C107.542 63.4981 107.542 63.7685 107.542 64.0341C107.536 65.3186 106.8 65.9287 105.336 65.8643Z" fill="#012F61"/>
<path d="M134.179 0.417736C133.528 0.408078 132.882 0.383937 132.231 0.383937C116.201 0.379108 100.176 0.374277 84.1459 0.374277C84.3791 0.268041 84.6075 0.0990301 84.8456 0.0748854C85.3801 0.031425 85.9243 0.0603919 86.4685 0.0603919C101.877 0.0603919 117.289 0.0603986 132.697 0.0748854C133.295 0.0748854 133.995 -0.234168 134.486 0.412909C134.384 0.383936 134.281 0.383931 134.179 0.422562V0.417736Z" fill="#012F61"/>
<path d="M47.1054 0.330815C46.7264 0.345302 46.3523 0.374274 45.9733 0.374274C31.2892 0.379103 16.6052 0.383934 1.92118 0.383934C1.48873 0.383934 1.06113 0.350131 0.628674 0.330815C1.18746 -0.161736 1.86773 0.0700485 2.48969 0.0700485C15.959 0.0555617 29.4282 0.0555623 42.8975 0.0555623C44.3017 0.0555623 45.7109 0.0652196 47.1151 0.0700485C47.1151 0.156969 47.1103 0.243894 47.1054 0.330815Z" fill="#012F61"/>
<path d="M157.25 47.8958C158.164 47.8765 159.082 47.8475 159.996 47.8475C169.213 47.8475 178.431 47.8475 187.648 47.8475C188.134 47.8475 188.615 47.8813 189.101 47.8958C188.698 47.9876 188.299 48.1566 187.896 48.1614C178.086 48.1759 168.271 48.1759 158.46 48.1614C158.057 48.1614 157.653 47.9924 157.255 47.9007L157.25 47.8958Z" fill="#012F61"/>
<path d="M48.6749 46.8769C48.5874 46.4761 48.4174 46.0705 48.4174 45.6697C48.4028 36.036 48.4028 26.4071 48.4174 16.7733C48.4174 16.3725 48.5826 15.9669 48.67 15.5661C48.6895 15.9428 48.7235 16.3146 48.7235 16.6912C48.7235 26.3781 48.7235 36.0649 48.7235 45.747C48.7235 46.1236 48.6895 46.4954 48.67 46.8721L48.6749 46.8769Z" fill="#012F61"/>
<path d="M19.2048 47.8234C19.1902 47.7172 19.1951 47.6109 19.2291 47.5095C28.194 47.5095 37.159 47.5192 46.1239 47.5192C46.9742 47.5192 47.8197 47.5143 48.67 47.5095C48.568 47.6109 48.4805 47.7848 48.3639 47.8041C48.1015 47.8524 47.8246 47.8379 47.5573 47.8379C38.1065 47.8379 28.6556 47.8282 19.2048 47.8234Z" fill="#012F61"/>
<path d="M47.1054 0.330815C47.1054 0.243894 47.1103 0.156969 47.1151 0.0700485C55.3998 0.0700485 63.6845 0.0603932 71.9691 0.0603932C72.3481 0.0603932 72.7417 0.0217641 73.0964 0.123172C73.422 0.214922 73.4414 0.485343 73.1402 0.707474C72.6883 0.123173 72.042 0.388765 71.493 0.388765C64.01 0.369449 56.5271 0.383934 49.0442 0.379105C48.3979 0.379105 47.7565 0.345302 47.1103 0.325986L47.1054 0.330815Z" fill="#012F61"/>
<path d="M134.456 47.5144C134.16 48.1276 133.596 47.8282 133.174 47.833C126.152 47.8524 119.136 47.8475 112.115 47.8427C110.817 47.8427 109.525 47.8282 108.227 47.8186C108.218 47.7123 108.218 47.6109 108.237 47.5047C116.886 47.5095 125.53 47.5143 134.179 47.5192H134.452L134.456 47.5144Z" fill="#012F61"/>
<path d="M134.456 47.5144H134.184C134.184 40.6621 134.184 33.805 134.184 26.9527C134.184 26.523 134.218 26.0835 134.121 25.6779C134.082 25.4992 133.752 25.3882 133.557 25.2481C133.762 24.8183 133.966 24.3886 134.165 23.9636C134.257 23.9588 134.35 23.9491 134.447 23.9443C134.466 24.6928 134.505 25.4365 134.505 26.1849C134.51 32.8151 134.505 39.4452 134.505 46.0753C134.505 46.5534 134.471 47.0363 134.456 47.5144Z" fill="#012F61"/>
<path d="M134.179 0.417736C134.281 0.383933 134.384 0.3791 134.486 0.408074C134.49 7.87844 134.5 15.3536 134.505 22.824C134.505 23.0896 134.466 23.36 134.447 23.6256C134.359 23.0654 134.204 22.5005 134.199 21.9403C134.179 14.7645 134.184 7.59353 134.179 0.417736Z" fill="#012F61"/>
<path d="M204.723 30.1012C204.436 29.628 203.96 29.7777 203.552 29.7777C197.221 29.7728 190.894 29.7777 184.563 29.7825C184.835 29.6714 185.112 29.459 185.384 29.459C191.604 29.4445 197.818 29.4493 204.038 29.459C204.3 29.459 204.558 29.541 204.82 29.5893C204.786 29.7632 204.757 29.937 204.723 30.106V30.1012Z" fill="#012F61"/>
<path d="M142.061 13.62C142.143 13.9726 142.299 14.3202 142.299 14.6728C142.313 20.7524 142.313 26.8272 142.299 32.9068C142.299 33.2545 142.134 33.6022 142.046 33.9499C142.051 27.1749 142.056 20.395 142.061 13.62Z" fill="#012F61"/>
<path d="M184.859 19.4872C188.703 19.4679 192.546 19.4486 196.39 19.4293C199.261 19.4148 202.128 19.4051 205 19.3955C204.636 20.0136 204.028 19.7335 203.537 19.7383C198.469 19.7624 193.406 19.7528 188.338 19.7528C187.478 19.7528 186.613 19.7721 185.753 19.7383C185.452 19.7238 185.161 19.5741 184.864 19.4872H184.859Z" fill="#012F61"/>
<path d="M75.7641 47.5095C82.1488 47.5095 88.5385 47.5095 94.9232 47.5095C95.0399 48.1518 94.5199 47.8137 94.3499 47.8186C91.7114 47.8475 89.073 47.8427 86.4296 47.8427C83.3053 47.8427 80.1809 47.8475 77.0565 47.8234C76.6192 47.8234 76.0799 48.0648 75.7592 47.5095H75.7641Z" fill="#012F61"/>
<path d="M145.938 65.5649H148.076V57.0708C146.828 56.7038 145.54 56.9356 144.277 56.9018C142.989 56.8632 141.696 56.9115 140.409 56.9211C140.516 56.8149 140.618 56.6169 140.725 56.6169C143.237 56.5976 145.754 56.6024 148.232 56.6024C148.557 57.9207 148.582 64.2804 148.276 65.8305C147.498 65.8402 146.682 66.2554 145.938 65.5649Z" fill="#012F61"/>
<path d="M19.1611 14.9287L18.8307 14.9528C13.5294 14.9383 8.22822 14.9239 2.927 14.9045C2.16899 14.9045 1.41584 14.8707 0.65783 14.8563C0.652971 14.7645 0.648111 14.6728 0.65297 14.5858C6.27488 14.5858 11.8968 14.581 17.5187 14.6052C18.0678 14.6052 18.7189 14.3299 19.1611 14.9335V14.9287Z" fill="#012F61"/>
<path d="M0.65297 14.5858C0.65297 14.6776 0.652971 14.7693 0.65783 14.8563C0.546072 14.6486 0.337133 14.4361 0.337133 14.2285C0.317697 9.82933 0.317697 5.43017 0.337133 1.03584C0.337133 0.823365 0.546074 0.615722 0.657832 0.403249C0.657832 5.13078 0.65297 9.8583 0.648111 14.5858L0.65297 14.5858Z" fill="#012F61"/>
<path d="M48.7429 14.9383C49.1219 14.3444 49.7196 14.6051 50.2201 14.6003C53.6263 14.5762 57.0276 14.6003 60.4338 14.581C61.1869 14.581 61.9352 14.4796 62.6884 14.4748C62.805 14.4748 62.9216 14.7162 63.0382 14.8514C58.8643 14.8707 54.6855 14.8901 50.5116 14.9094C49.9237 14.9094 49.3357 14.9287 48.7478 14.9383H48.7429Z" fill="#012F61"/>
<path d="M108.237 47.5047C108.218 47.6109 108.213 47.7123 108.227 47.8186C107.644 47.5143 107.887 46.9638 107.882 46.5244C107.858 43.6319 107.873 40.7394 107.868 37.842C107.868 37.306 107.853 36.77 107.848 36.2339C107.97 36.2339 108.091 36.2291 108.213 36.2243C108.222 39.9812 108.227 43.743 108.237 47.4999V47.5047Z" fill="#012F61"/>
<path d="M168.931 13.2482C169.169 13.1565 169.412 12.9923 169.65 12.9923C172.755 12.9778 175.865 12.9778 178.97 12.9971C179.208 12.9971 179.441 13.1758 179.68 13.2724C176.098 13.2675 172.512 13.2579 168.931 13.253V13.2482Z" fill="#012F61"/>
<path d="M140.384 65.5746H142.576C142.595 64.5846 142.62 63.7009 142.629 62.8172C142.639 61.7549 142.61 60.6973 142.649 59.6398C142.658 59.3742 142.867 59.1183 142.984 58.8575V65.7484C142.012 65.874 141.176 66.3086 140.384 65.5794V65.5746Z" fill="#012F61"/>
<path d="M72.7806 56.897C72.7612 59.804 72.7369 62.7062 72.7174 65.6132C72.6397 65.478 72.4891 65.3476 72.4891 65.2124C72.4745 62.4502 72.4793 59.6881 72.4891 56.9259C72.4891 56.8777 72.5279 56.8294 72.5474 56.7762C72.6251 56.8149 72.7077 56.8535 72.7855 56.8921L72.7806 56.897Z" fill="#012F61"/>
<path d="M116.016 56.9308C116.016 59.9151 116.016 62.8993 116.016 65.8836C115.905 65.7291 115.691 65.5746 115.691 65.42C115.671 62.7496 115.676 60.0744 115.696 57.404C115.696 57.2446 115.905 57.0901 116.011 56.9356L116.016 56.9308Z" fill="#012F61"/>
<path d="M134.165 23.9636C133.961 24.3934 133.757 24.8232 133.557 25.2481C132.79 26.4264 132.022 27.6046 131.249 28.7829C131.138 28.7829 131.026 28.7732 130.914 28.7684C130.443 28.2131 129.801 28.4835 129.248 28.4787C120.555 28.4594 111.857 28.4642 103.164 28.4642C99.277 28.4642 95.3897 28.4545 91.4976 28.4787C90.9923 28.4787 90.4044 28.2324 90.001 28.7877L89.6415 28.1213C89.6415 26.5857 89.6269 25.0501 90.3072 23.6111C90.7639 24.1906 91.4102 23.9298 91.969 23.9347C97.1633 23.9636 102.353 23.9636 107.547 23.9733C107.875 23.9739 107.981 23.9054 108.222 23.9057C116.327 23.9153 124.437 23.925 132.542 23.9347C133.081 23.9347 133.621 23.9491 134.165 23.954L134.165 23.9636Z" fill="#287AC6"/>
<path d="M130.909 28.7733C131.021 28.7733 131.133 28.7829 131.245 28.7877C130.929 29.1209 130.613 29.4541 130.297 29.7825C130.161 29.5749 130.054 29.2368 129.879 29.1934C129.471 29.092 129.024 29.1209 128.592 29.1209C116.381 29.1209 104.165 29.1161 91.9544 29.1354C91.2401 29.1354 90.5258 29.3237 89.6852 29.4445C89.6658 29.4252 89.5151 29.2803 89.3596 29.1354C89.452 28.7974 89.5443 28.4642 89.6366 28.1262L89.9962 28.7926C90.968 28.7926 91.9447 28.7926 92.9165 28.7926C105.579 28.7877 118.242 28.7781 130.904 28.7733H130.909Z" fill="#012F61"/>
<path d="M95.1954 14.8659C95.4869 14.7742 95.7736 14.6003 96.0651 14.6003C99.3839 14.581 102.703 14.5858 106.021 14.6003C106.313 14.6003 106.609 14.7645 106.901 14.8563L95.1954 14.8659Z" fill="#012F61"/>
<path d="M107.853 22.8047C107.873 20.1826 107.853 17.5605 107.843 14.9383C108.402 15.175 108.174 15.6723 108.179 16.0538C108.208 18.6711 108.208 21.2932 108.218 23.9105C107.853 24.0839 107.853 23.044 107.853 22.8047Z" fill="#012F61"/>
<path d="M130.302 29.7825C130.618 29.4493 130.934 29.1161 131.249 28.7877C132.017 27.6095 132.785 26.4312 133.557 25.253C133.757 25.393 134.082 25.5041 134.121 25.6827C134.218 26.0932 134.184 26.5326 134.184 26.9576C134.184 33.8098 134.184 40.6669 134.184 47.5192C125.535 47.5143 116.891 47.5095 108.242 47.5047C108.232 43.7478 108.227 39.986 108.218 36.2291H126.215C127.566 34.1044 128.937 31.9459 130.307 29.7825L130.302 29.7825Z" fill="#012F61"/>
<path d="M130.909 28.7733C118.247 28.7781 105.584 28.7877 92.9213 28.7926C91.9495 28.7926 90.9729 28.7926 90.001 28.7926C90.4044 28.2372 90.9923 28.4883 91.4976 28.4835C95.3849 28.4642 99.2721 28.469 103.164 28.469C111.857 28.469 120.555 28.4642 129.248 28.4835C129.801 28.4835 130.443 28.2179 130.914 28.7733L130.909 28.7733Z" fill="#012F61"/>
</svg>
